<?xml version="1.0" encoding="utf-8"?>
<!-- Generator: Adobe Illustrator 28.0.0, SVG Export Plug-In . SVG Version: 6.00 Build 0)  -->
<svg version="1.1" id="Layer_1" xmlns="http://www.w3.org/2000/svg" xmlns:xlink="http://www.w3.org/1999/xlink" x="0px" y="0px"
	 viewBox="0 0 419.5 595.3" style="enable-background:new 0 0 419.5 595.3;" xml:space="preserve">
<style type="text/css">
	.st0{font-family:'BodoniSvtyTwoOSITCTT-BookIt';}
	.st1{font-size:12px;}
	.st2{font-size:9.3px;}
	.st3{fill:#15233A;}
	.st4{font-family:'Colfax-Regular';}
	.st5{font-family:'BodoniSvtyTwoITCTT-Book';}
	.st6{font-size:9px;}
	.st7{fill:none;stroke:#15233A;stroke-width:0.5;}
</style>
<text transform="matrix(1 0 0 1 180.4106 295.6896)" class="st0 st1"> V − V</text>
<text transform="matrix(1 0 0 1 207.291 295.6896)"><tspan x="0" y="0" class="st0 st2">m</tspan><tspan x="6.5" y="0" class="st0 st2">i</tspan><tspan x="8.8" y="0" class="st0 st2">n  </tspan></text>
<text transform="matrix(1 0 0 1 173.3364 310.0895)" class="st0 st1">V</text>
<text transform="matrix(1 0 0 1 180.2847 310.0895)"><tspan x="0" y="0" class="st0 st2">m</tspan><tspan x="6.5" y="0" class="st0 st2">a</tspan><tspan x="11.3" y="0" class="st0 st2">x</tspan></text>
<text transform="matrix(1 0 0 1 195.9727 310.0895)" class="st0 st1"> – V</text>
<text transform="matrix(1 0 0 1 213.2051 310.0895)"><tspan x="0" y="0" class="st0 st2">m</tspan><tspan x="6.5" y="0" class="st0 st2">i</tspan><tspan x="8.8" y="0" class="st0 st2">n</tspan><tspan x="13.4" y="0" class="st0 st2">   </tspan><tspan x="17.2" y="0" class="st0 st2"> </tspan></text>
<text transform="matrix(1 0 0 1 153.8315 303.6471)" class="st0 st1"> V </text>
<text transform="matrix(1 0 0 1 165.2437 300.6471)" class="st3 st4 st2">’</text>
<text transform="matrix(1 0 0 1 166.5518 303.6471)" class="st0 st1">=</text>
<text transform="matrix(1 0 0 1 252.3809 301.2535)" class="st5 st6">(1)</text>
<line class="st7" x1="178.4" y1="298.2" x2="225.5" y2="298.2"/>
</svg>
