<?xml version="1.0" encoding="utf-8"?>
<!-- Generator: Adobe Illustrator 28.0.0, SVG Export Plug-In . SVG Version: 6.00 Build 0)  -->
<svg version="1.1" id="Layer_1" xmlns="http://www.w3.org/2000/svg" xmlns:xlink="http://www.w3.org/1999/xlink" x="0px" y="0px"
	 viewBox="0 0 419.5 595.3" style="enable-background:new 0 0 419.5 595.3;" xml:space="preserve">
<style type="text/css">
	.st0{clip-path:url(#SVGID_00000140730960290647313530000006125815377947086477_);}
	.st1{opacity:0.5;clip-path:url(#SVGID_00000175301226363652386980000001894673699717244311_);}
	.st2{clip-path:url(#SVGID_00000134208479744834340970000003301574578617634200_);}
	.st3{clip-path:url(#SVGID_00000066516549068312772460000000773749675056999833_);fill:none;stroke:#B7BABB;stroke-width:0.25;}
	.st4{clip-path:url(#SVGID_00000134208479744834340970000003301574578617634200_);fill:none;stroke:#B7BABB;stroke-width:0.2;}
	.st5{clip-path:url(#SVGID_00000140730960290647313530000006125815377947086477_);fill:#00109F;}
	.st6{fill:#FFFFFF;}
	.st7{font-family:'Colfax-Regular';}
	.st8{font-size:4px;}
	.st9{font-family:'Colfax-Bold';}
	.st10{font-size:8px;}
	.st11{clip-path:url(#SVGID_00000140730960290647313530000006125815377947086477_);fill:none;stroke:#00109F;stroke-width:0.5;}
	.st12{clip-path:url(#SVGID_00000141440432389365116010000008255734349397170590_);fill:#E7E9EA;}
	.st13{clip-path:url(#SVGID_00000140730960290647313530000006125815377947086477_);fill:#FFFFFF;}
	.st14{fill:#15233A;}
	.st15{font-size:5.4px;}
	.st16{clip-path:url(#SVGID_00000020375099534340998610000008898930448940526742_);fill:#8B8F91;}
	.st17{clip-path:url(#SVGID_00000020375099534340998610000008898930448940526742_);fill:#E7E9EA;}
	.st18{font-size:6.075px;}
	.st19{clip-path:url(#SVGID_00000134220796176418108020000010873955783617527217_);fill:#E7E9EA;}
	.st20{clip-path:url(#SVGID_00000134220796176418108020000010873955783617527217_);fill:#8B8F91;}
	.st21{font-size:6.75px;}
	.st22{clip-path:url(#SVGID_00000140730960290647313530000006125815377947086477_);fill:none;stroke:#FFFFFF;stroke-width:0.675;}
	.st23{clip-path:url(#SVGID_00000140730960290647313530000006125815377947086477_);fill:none;stroke:#8B8F91;stroke-width:0.337;}
	.st24{clip-path:url(#SVGID_00000005229716934250610820000011462222494733952130_);fill:#8B8F91;}
	.st25{clip-path:url(#SVGID_00000130643192837499432630000015197444386755199128_);fill:#8B8F91;}
	.st26{clip-path:url(#SVGID_00000028302628810157397470000004723863949228799905_);fill:#8B8F91;}
	.st27{clip-path:url(#SVGID_00000142854627054415354890000012410020493305917883_);fill:#8B8F91;}
	.st28{clip-path:url(#SVGID_00000137119279343492510770000013115273402260956575_);fill:#8B8F91;}
	.st29{clip-path:url(#SVGID_00000093147785471144074790000004461354128454798491_);fill:#8B8F91;}
	.st30{clip-path:url(#SVGID_00000140730960290647313530000006125815377947086477_);fill:#8B8F91;}
	.st31{clip-path:url(#SVGID_00000158740834914537239620000009374371023467532970_);fill:#8B8F91;}
	.st32{clip-path:url(#SVGID_00000026851933008531980530000016946087879524901274_);fill:#8B8F91;}
	.st33{clip-path:url(#SVGID_00000026851933008531980530000016946087879524901274_);}
	.st34{clip-path:url(#SVGID_00000140717844695014843900000015942846466594156455_);fill:#C0C2DA;}
	.st35{clip-path:url(#SVGID_00000141458017001728908700000015833041425503867045_);fill:#C0C2DA;}
	.st36{clip-path:url(#SVGID_00000163795231253778174440000003050665258520793247_);fill:#C0C2DA;}
	.st37{clip-path:url(#SVGID_00000160885559128583733050000006902352718836188330_);fill:#E9EBF2;}
	.st38{clip-path:url(#SVGID_00000044139138744942460540000016697292858032198301_);fill:#C0C2DA;}
	.st39{clip-path:url(#SVGID_00000119831547669468263030000002710936765346041744_);fill:#C0C2DA;}
	.st40{clip-path:url(#SVGID_00000087370592524799133960000015269074872875504036_);fill:#8B8F91;}
	.st41{clip-path:url(#SVGID_00000172401435644048535600000015914972542215284896_);fill:#8B8F91;}
	
		.st42{clip-path:url(#SVGID_00000140730960290647313530000006125815377947086477_);fill:none;stroke:#8A919D;stroke-width:1.012;stroke-miterlimit:10;}
</style>
<g>
	<defs>
		<rect id="SVGID_1_" width="419.5" height="595.3"/>
	</defs>
	<clipPath id="SVGID_00000105424771684176594010000015303358188107728031_">
		<use xlink:href="#SVGID_1_"  style="overflow:visible;"/>
	</clipPath>
	<g style="clip-path:url(#SVGID_00000105424771684176594010000015303358188107728031_);">
		<defs>
			<rect id="SVGID_00000017477110632413000980000014983041914434019489_" width="419.5" height="595.3"/>
		</defs>
		<clipPath id="SVGID_00000001625785004983911680000013162052440982720384_">
			<use xlink:href="#SVGID_00000017477110632413000980000014983041914434019489_"  style="overflow:visible;"/>
		</clipPath>
		<g style="opacity:0.5;clip-path:url(#SVGID_00000001625785004983911680000013162052440982720384_);">
			<g>
				<defs>
					<rect id="SVGID_00000129922268635384649370000011766441746455529911_" x="36.4" y="230.7" width="344.1" height="139"/>
				</defs>
				<clipPath id="SVGID_00000087370861526029172020000013354650400495724421_">
					<use xlink:href="#SVGID_00000129922268635384649370000011766441746455529911_"  style="overflow:visible;"/>
				</clipPath>
				<g style="clip-path:url(#SVGID_00000087370861526029172020000013354650400495724421_);">
					<defs>
						<polygon id="SVGID_00000120529107290455925180000009884175779105650869_" points="45.4,237.7 45.4,237.7 45.4,368.7 
							371.5,368.7 371.5,237.7 						"/>
					</defs>
					<clipPath id="SVGID_00000119112605521286811660000007448967314959177346_">
						<use xlink:href="#SVGID_00000120529107290455925180000009884175779105650869_"  style="overflow:visible;"/>
					</clipPath>
					
						<line style="clip-path:url(#SVGID_00000119112605521286811660000007448967314959177346_);fill:none;stroke:#B7BABB;stroke-width:0.25;" x1="371.5" y1="69.5" x2="371.5" y2="395.4"/>
					
						<line style="clip-path:url(#SVGID_00000119112605521286811660000007448967314959177346_);fill:none;stroke:#B7BABB;stroke-width:0.25;" x1="364.4" y1="69.5" x2="364.4" y2="395.4"/>
					
						<line style="clip-path:url(#SVGID_00000119112605521286811660000007448967314959177346_);fill:none;stroke:#B7BABB;stroke-width:0.25;" x1="357.4" y1="69.5" x2="357.4" y2="395.4"/>
					
						<line style="clip-path:url(#SVGID_00000119112605521286811660000007448967314959177346_);fill:none;stroke:#B7BABB;stroke-width:0.25;" x1="350.3" y1="69.5" x2="350.3" y2="395.4"/>
					
						<line style="clip-path:url(#SVGID_00000119112605521286811660000007448967314959177346_);fill:none;stroke:#B7BABB;stroke-width:0.25;" x1="343.2" y1="69.5" x2="343.2" y2="395.4"/>
					
						<line style="clip-path:url(#SVGID_00000119112605521286811660000007448967314959177346_);fill:none;stroke:#B7BABB;stroke-width:0.25;" x1="336.1" y1="69.5" x2="336.1" y2="395.4"/>
					
						<line style="clip-path:url(#SVGID_00000119112605521286811660000007448967314959177346_);fill:none;stroke:#B7BABB;stroke-width:0.25;" x1="329" y1="69.5" x2="329" y2="395.4"/>
					
						<line style="clip-path:url(#SVGID_00000119112605521286811660000007448967314959177346_);fill:none;stroke:#B7BABB;stroke-width:0.25;" x1="321.9" y1="69.5" x2="321.9" y2="395.4"/>
					
						<line style="clip-path:url(#SVGID_00000119112605521286811660000007448967314959177346_);fill:none;stroke:#B7BABB;stroke-width:0.25;" x1="314.8" y1="69.5" x2="314.8" y2="395.4"/>
					
						<line style="clip-path:url(#SVGID_00000119112605521286811660000007448967314959177346_);fill:none;stroke:#B7BABB;stroke-width:0.25;" x1="307.8" y1="69.5" x2="307.8" y2="395.4"/>
					
						<line style="clip-path:url(#SVGID_00000119112605521286811660000007448967314959177346_);fill:none;stroke:#B7BABB;stroke-width:0.25;" x1="300.7" y1="69.5" x2="300.7" y2="395.4"/>
					
						<line style="clip-path:url(#SVGID_00000119112605521286811660000007448967314959177346_);fill:none;stroke:#B7BABB;stroke-width:0.25;" x1="293.6" y1="69.5" x2="293.6" y2="395.4"/>
					
						<line style="clip-path:url(#SVGID_00000119112605521286811660000007448967314959177346_);fill:none;stroke:#B7BABB;stroke-width:0.25;" x1="286.5" y1="69.5" x2="286.5" y2="395.4"/>
					
						<line style="clip-path:url(#SVGID_00000119112605521286811660000007448967314959177346_);fill:none;stroke:#B7BABB;stroke-width:0.25;" x1="279.4" y1="69.5" x2="279.4" y2="395.4"/>
					
						<line style="clip-path:url(#SVGID_00000119112605521286811660000007448967314959177346_);fill:none;stroke:#B7BABB;stroke-width:0.25;" x1="272.3" y1="69.5" x2="272.3" y2="395.4"/>
					
						<line style="clip-path:url(#SVGID_00000119112605521286811660000007448967314959177346_);fill:none;stroke:#B7BABB;stroke-width:0.25;" x1="265.2" y1="69.5" x2="265.2" y2="395.4"/>
					
						<line style="clip-path:url(#SVGID_00000119112605521286811660000007448967314959177346_);fill:none;stroke:#B7BABB;stroke-width:0.25;" x1="258.2" y1="69.5" x2="258.2" y2="395.4"/>
					
						<line style="clip-path:url(#SVGID_00000119112605521286811660000007448967314959177346_);fill:none;stroke:#B7BABB;stroke-width:0.25;" x1="251.1" y1="69.5" x2="251.1" y2="395.4"/>
					
						<line style="clip-path:url(#SVGID_00000119112605521286811660000007448967314959177346_);fill:none;stroke:#B7BABB;stroke-width:0.25;" x1="244" y1="69.5" x2="244" y2="395.4"/>
					
						<line style="clip-path:url(#SVGID_00000119112605521286811660000007448967314959177346_);fill:none;stroke:#B7BABB;stroke-width:0.25;" x1="236.9" y1="69.5" x2="236.9" y2="395.4"/>
					
						<line style="clip-path:url(#SVGID_00000119112605521286811660000007448967314959177346_);fill:none;stroke:#B7BABB;stroke-width:0.25;" x1="229.8" y1="69.5" x2="229.8" y2="395.4"/>
					
						<line style="clip-path:url(#SVGID_00000119112605521286811660000007448967314959177346_);fill:none;stroke:#B7BABB;stroke-width:0.25;" x1="222.7" y1="69.5" x2="222.7" y2="395.4"/>
					
						<line style="clip-path:url(#SVGID_00000119112605521286811660000007448967314959177346_);fill:none;stroke:#B7BABB;stroke-width:0.25;" x1="215.6" y1="69.5" x2="215.6" y2="395.4"/>
					
						<line style="clip-path:url(#SVGID_00000119112605521286811660000007448967314959177346_);fill:none;stroke:#B7BABB;stroke-width:0.25;" x1="208.5" y1="69.5" x2="208.5" y2="395.4"/>
					
						<line style="clip-path:url(#SVGID_00000119112605521286811660000007448967314959177346_);fill:none;stroke:#B7BABB;stroke-width:0.25;" x1="201.5" y1="69.5" x2="201.5" y2="395.4"/>
					
						<line style="clip-path:url(#SVGID_00000119112605521286811660000007448967314959177346_);fill:none;stroke:#B7BABB;stroke-width:0.25;" x1="194.4" y1="69.5" x2="194.4" y2="395.4"/>
					
						<line style="clip-path:url(#SVGID_00000119112605521286811660000007448967314959177346_);fill:none;stroke:#B7BABB;stroke-width:0.25;" x1="187.3" y1="69.5" x2="187.3" y2="395.4"/>
					
						<line style="clip-path:url(#SVGID_00000119112605521286811660000007448967314959177346_);fill:none;stroke:#B7BABB;stroke-width:0.25;" x1="180.2" y1="69.5" x2="180.2" y2="395.4"/>
					
						<line style="clip-path:url(#SVGID_00000119112605521286811660000007448967314959177346_);fill:none;stroke:#B7BABB;stroke-width:0.25;" x1="173.1" y1="69.5" x2="173.1" y2="395.4"/>
					
						<line style="clip-path:url(#SVGID_00000119112605521286811660000007448967314959177346_);fill:none;stroke:#B7BABB;stroke-width:0.25;" x1="166" y1="69.5" x2="166" y2="395.4"/>
					
						<line style="clip-path:url(#SVGID_00000119112605521286811660000007448967314959177346_);fill:none;stroke:#B7BABB;stroke-width:0.25;" x1="158.9" y1="69.5" x2="158.9" y2="395.4"/>
					
						<line style="clip-path:url(#SVGID_00000119112605521286811660000007448967314959177346_);fill:none;stroke:#B7BABB;stroke-width:0.25;" x1="151.9" y1="69.5" x2="151.9" y2="395.4"/>
					
						<line style="clip-path:url(#SVGID_00000119112605521286811660000007448967314959177346_);fill:none;stroke:#B7BABB;stroke-width:0.25;" x1="144.8" y1="69.5" x2="144.8" y2="395.4"/>
					
						<line style="clip-path:url(#SVGID_00000119112605521286811660000007448967314959177346_);fill:none;stroke:#B7BABB;stroke-width:0.25;" x1="137.7" y1="69.5" x2="137.7" y2="395.4"/>
					
						<line style="clip-path:url(#SVGID_00000119112605521286811660000007448967314959177346_);fill:none;stroke:#B7BABB;stroke-width:0.25;" x1="130.6" y1="69.5" x2="130.6" y2="395.4"/>
					
						<line style="clip-path:url(#SVGID_00000119112605521286811660000007448967314959177346_);fill:none;stroke:#B7BABB;stroke-width:0.25;" x1="123.5" y1="69.5" x2="123.5" y2="395.4"/>
					
						<line style="clip-path:url(#SVGID_00000119112605521286811660000007448967314959177346_);fill:none;stroke:#B7BABB;stroke-width:0.25;" x1="116.4" y1="69.5" x2="116.4" y2="395.4"/>
					
						<line style="clip-path:url(#SVGID_00000119112605521286811660000007448967314959177346_);fill:none;stroke:#B7BABB;stroke-width:0.25;" x1="109.3" y1="69.5" x2="109.3" y2="395.4"/>
					
						<line style="clip-path:url(#SVGID_00000119112605521286811660000007448967314959177346_);fill:none;stroke:#B7BABB;stroke-width:0.25;" x1="102.2" y1="69.5" x2="102.2" y2="395.4"/>
					
						<line style="clip-path:url(#SVGID_00000119112605521286811660000007448967314959177346_);fill:none;stroke:#B7BABB;stroke-width:0.25;" x1="95.2" y1="69.5" x2="95.2" y2="395.4"/>
					
						<line style="clip-path:url(#SVGID_00000119112605521286811660000007448967314959177346_);fill:none;stroke:#B7BABB;stroke-width:0.25;" x1="88.1" y1="69.5" x2="88.1" y2="395.4"/>
					
						<line style="clip-path:url(#SVGID_00000119112605521286811660000007448967314959177346_);fill:none;stroke:#B7BABB;stroke-width:0.25;" x1="81" y1="69.5" x2="81" y2="395.4"/>
					
						<line style="clip-path:url(#SVGID_00000119112605521286811660000007448967314959177346_);fill:none;stroke:#B7BABB;stroke-width:0.25;" x1="73.9" y1="69.5" x2="73.9" y2="395.4"/>
					
						<line style="clip-path:url(#SVGID_00000119112605521286811660000007448967314959177346_);fill:none;stroke:#B7BABB;stroke-width:0.25;" x1="66.8" y1="69.5" x2="66.8" y2="395.4"/>
					
						<line style="clip-path:url(#SVGID_00000119112605521286811660000007448967314959177346_);fill:none;stroke:#B7BABB;stroke-width:0.25;" x1="59.7" y1="69.5" x2="59.7" y2="395.4"/>
					
						<line style="clip-path:url(#SVGID_00000119112605521286811660000007448967314959177346_);fill:none;stroke:#B7BABB;stroke-width:0.25;" x1="52.6" y1="69.5" x2="52.6" y2="395.4"/>
					
						<line style="clip-path:url(#SVGID_00000119112605521286811660000007448967314959177346_);fill:none;stroke:#B7BABB;stroke-width:0.25;" x1="45.6" y1="69.5" x2="45.6" y2="395.4"/>
				</g>
				
					<line style="clip-path:url(#SVGID_00000087370861526029172020000013354650400495724421_);fill:none;stroke:#B7BABB;stroke-width:0.2;" x1="371.4" y1="367.2" x2="45.4" y2="367.2"/>
				
					<line style="clip-path:url(#SVGID_00000087370861526029172020000013354650400495724421_);fill:none;stroke:#B7BABB;stroke-width:0.2;" x1="371.4" y1="360.2" x2="45.4" y2="360.2"/>
				
					<line style="clip-path:url(#SVGID_00000087370861526029172020000013354650400495724421_);fill:none;stroke:#B7BABB;stroke-width:0.2;" x1="371.4" y1="353.1" x2="45.4" y2="353.1"/>
				
					<line style="clip-path:url(#SVGID_00000087370861526029172020000013354650400495724421_);fill:none;stroke:#B7BABB;stroke-width:0.2;" x1="371.4" y1="346" x2="45.4" y2="346"/>
				
					<line style="clip-path:url(#SVGID_00000087370861526029172020000013354650400495724421_);fill:none;stroke:#B7BABB;stroke-width:0.2;" x1="371.4" y1="338.9" x2="45.4" y2="338.9"/>
				
					<line style="clip-path:url(#SVGID_00000087370861526029172020000013354650400495724421_);fill:none;stroke:#B7BABB;stroke-width:0.2;" x1="371.4" y1="331.8" x2="45.4" y2="331.8"/>
				
					<line style="clip-path:url(#SVGID_00000087370861526029172020000013354650400495724421_);fill:none;stroke:#B7BABB;stroke-width:0.2;" x1="371.4" y1="324.7" x2="45.4" y2="324.7"/>
				
					<line style="clip-path:url(#SVGID_00000087370861526029172020000013354650400495724421_);fill:none;stroke:#B7BABB;stroke-width:0.2;" x1="371.4" y1="317.6" x2="45.4" y2="317.6"/>
				
					<line style="clip-path:url(#SVGID_00000087370861526029172020000013354650400495724421_);fill:none;stroke:#B7BABB;stroke-width:0.2;" x1="371.4" y1="310.5" x2="45.4" y2="310.5"/>
				
					<line style="clip-path:url(#SVGID_00000087370861526029172020000013354650400495724421_);fill:none;stroke:#B7BABB;stroke-width:0.2;" x1="371.4" y1="303.5" x2="45.4" y2="303.5"/>
				
					<line style="clip-path:url(#SVGID_00000087370861526029172020000013354650400495724421_);fill:none;stroke:#B7BABB;stroke-width:0.2;" x1="371.4" y1="296.4" x2="45.4" y2="296.4"/>
				
					<line style="clip-path:url(#SVGID_00000087370861526029172020000013354650400495724421_);fill:none;stroke:#B7BABB;stroke-width:0.2;" x1="371.4" y1="289.3" x2="45.4" y2="289.3"/>
				
					<line style="clip-path:url(#SVGID_00000087370861526029172020000013354650400495724421_);fill:none;stroke:#B7BABB;stroke-width:0.2;" x1="371.4" y1="282.2" x2="45.4" y2="282.2"/>
				
					<line style="clip-path:url(#SVGID_00000087370861526029172020000013354650400495724421_);fill:none;stroke:#B7BABB;stroke-width:0.2;" x1="371.4" y1="275.1" x2="45.4" y2="275.1"/>
				
					<line style="clip-path:url(#SVGID_00000087370861526029172020000013354650400495724421_);fill:none;stroke:#B7BABB;stroke-width:0.2;" x1="371.4" y1="268" x2="45.4" y2="268"/>
				
					<line style="clip-path:url(#SVGID_00000087370861526029172020000013354650400495724421_);fill:none;stroke:#B7BABB;stroke-width:0.2;" x1="371.4" y1="260.9" x2="45.4" y2="260.9"/>
				
					<line style="clip-path:url(#SVGID_00000087370861526029172020000013354650400495724421_);fill:none;stroke:#B7BABB;stroke-width:0.2;" x1="371.4" y1="253.9" x2="45.4" y2="253.9"/>
				
					<line style="clip-path:url(#SVGID_00000087370861526029172020000013354650400495724421_);fill:none;stroke:#B7BABB;stroke-width:0.2;" x1="371.4" y1="246.8" x2="45.4" y2="246.8"/>
				
					<line style="clip-path:url(#SVGID_00000087370861526029172020000013354650400495724421_);fill:none;stroke:#B7BABB;stroke-width:0.2;" x1="371.4" y1="239.7" x2="45.4" y2="239.7"/>
			</g>
		</g>
	</g>
	<polygon style="clip-path:url(#SVGID_00000105424771684176594010000015303358188107728031_);fill:#00109F;" points="45.5,223.6 
		45.5,223.6 45.5,237.9 233.4,237.9 233.4,223.6 	"/>
	<g style="clip-path:url(#SVGID_00000105424771684176594010000015303358188107728031_);">
		<text transform="matrix(1 0 0 1 48.2378 227.5089)"><tspan x="0" y="0" class="st6 st7 st8">Figu</tspan><tspan x="8" y="0" class="st6 st7 st8">r</tspan><tspan x="9.4" y="0" class="st6 st7 st8">e </tspan><tspan x="12.6" y="0" class="st6 st7 st8">9</tspan><tspan x="15" y="0" class="st6 st7 st8">: </tspan></text>
	</g>
	<g style="clip-path:url(#SVGID_00000105424771684176594010000015303358188107728031_);">
		<text transform="matrix(1 0 0 1 65.1055 227.5089)" class="st6 st7 st8"> </text>
	</g>
	<g style="clip-path:url(#SVGID_00000105424771684176594010000015303358188107728031_);">
		<text transform="matrix(1 0 0 1 48.2378 235.5089)"><tspan x="0" y="0" class="st6 st9 st10">D</tspan><tspan x="5.7" y="0" class="st6 st9 st10">a</tspan><tspan x="10.4" y="0" class="st6 st9 st10">t</tspan><tspan x="13.6" y="0" class="st6 st9 st10">a </tspan><tspan x="20.3" y="0" class="st6 st9 st10">A</tspan><tspan x="26" y="0" class="st6 st9 st10">s</tspan><tspan x="30.2" y="0" class="st6 st9 st10">s</tspan><tspan x="34.5" y="0" class="st6 st9 st10">e</tspan><tspan x="39" y="0" class="st6 st9 st10">ts and </tspan><tspan x="64.9" y="0" class="st6 st9 st10">S</tspan><tspan x="70.1" y="0" class="st6 st9 st10">t</tspan><tspan x="73.3" y="0" class="st6 st9 st10">ag</tspan><tspan x="83.1" y="0" class="st6 st9 st10">e</tspan><tspan x="87.6" y="0" class="st6 st9 st10">s </tspan><tspan x="93.8" y="0" class="st6 st9 st10">o</tspan><tspan x="98.4" y="0" class="st6 st9 st10">f the AI-ML Li</tspan><tspan x="149.6" y="0" class="st6 st9 st10">f</tspan><tspan x="152.5" y="0" class="st6 st9 st10">e C</tspan><tspan x="164.7" y="0" class="st6 st9 st10">y</tspan><tspan x="168.8" y="0" class="st6 st9 st10">cle</tspan></text>
	</g>
	
		<line style="clip-path:url(#SVGID_00000105424771684176594010000015303358188107728031_);fill:none;stroke:#00109F;stroke-width:0.5;" x1="103.8" y1="237.7" x2="371.5" y2="237.7"/>
	<g style="clip-path:url(#SVGID_00000105424771684176594010000015303358188107728031_);">
		<defs>
			<rect id="SVGID_00000052082426344684471400000015459750043595866514_" width="419.5" height="595.3"/>
		</defs>
		<clipPath id="SVGID_00000153678687417231464310000012226660215485829263_">
			<use xlink:href="#SVGID_00000052082426344684471400000015459750043595866514_"  style="overflow:visible;"/>
		</clipPath>
		<path style="clip-path:url(#SVGID_00000153678687417231464310000012226660215485829263_);fill:#E7E9EA;" d="M95.6,359
			c10.6,0,24.6-9.7,24.6-20.5c0-10.7-4.6-19.4-15.1-19.4s-20.9,8.7-20.9,19.4C84.1,349.2,85,359,95.6,359"/>
		<path style="clip-path:url(#SVGID_00000153678687417231464310000012226660215485829263_);fill:#E7E9EA;" d="M276.9,359
			c10.6,0,24.6-9.7,24.6-20.5c0-10.7-4.6-19.4-15.1-19.4s-20.9,8.7-20.9,19.4C265.5,349.2,266.4,359,276.9,359"/>
		<path style="clip-path:url(#SVGID_00000153678687417231464310000012226660215485829263_);fill:#E7E9EA;" d="M323.8,359
			c10.6,0,24.6-9.7,24.6-20.5c0-10.7-4.6-19.4-15.1-19.4s-20.9,8.7-20.9,19.4C312.4,349.2,313.3,359,323.8,359"/>
		<path style="clip-path:url(#SVGID_00000153678687417231464310000012226660215485829263_);fill:#E7E9EA;" d="M129.2,332.5
			c0,10.6,9.7,24.6,20.5,24.6c10.7,0,19.4-4.6,19.4-15.1c0-10.6-8.7-20.9-19.4-20.9C139,321,129.2,321.9,129.2,332.5"/>
		<path style="clip-path:url(#SVGID_00000153678687417231464310000012226660215485829263_);fill:#E7E9EA;" d="M204.6,355.2
			c5.6-9,4.8-26-4.3-31.7c-9.1-5.7-18.9-6.4-24.5,2.5c-5.6,9-3.7,22.4,5.4,28C190.3,359.7,199,364.1,204.6,355.2"/>
		<path style="clip-path:url(#SVGID_00000153678687417231464310000012226660215485829263_);fill:#E7E9EA;" d="M259.1,344.2
			c-0.7-10.5-11.4-23.9-22.1-23.1c-10.7,0.7-19.1,5.9-18.3,16.5s10.1,20.3,20.9,19.5C250.2,356.3,259.8,354.7,259.1,344.2"/>
		<path style="clip-path:url(#SVGID_00000153678687417231464310000012226660215485829263_);fill:#E7E9EA;" d="M253.3,298.3
			c10.5-0.9,18.2-1.9,18.2-12.6c0-10.7-4.1-24.7-14.7-24.7c-15.8,0-20.8,12.2-20.8,23C235.9,294.7,240.4,299.5,253.3,298.3"/>
		<path style="clip-path:url(#SVGID_00000153678687417231464310000012226660215485829263_);fill:#E7E9EA;" d="M213.9,296
			c10.6,0,15.5-11.1,15.5-21.9c0-10.7-8.6-14.3-19.1-14.3c-17.3,0-19.5,15-16.6,25.4C195.7,292.7,203.4,296,213.9,296"/>
	</g>
	
		<rect x="54" y="301.9" style="clip-path:url(#SVGID_00000105424771684176594010000015303358188107728031_);fill:#FFFFFF;" width="31.7" height="4"/>
	<g style="clip-path:url(#SVGID_00000105424771684176594010000015303358188107728031_);">
		<text transform="matrix(1 0 0 1 54.7783 305.9205)"><tspan x="0" y="0" class="st14 st9 st15">PH</tspan><tspan x="7.5" y="0" class="st14 st9 st15">A</tspan><tspan x="11.3" y="0" class="st14 st9 st15">SES</tspan></text>
	</g>
	
		<rect x="54.5" y="325.5" style="clip-path:url(#SVGID_00000105424771684176594010000015303358188107728031_);fill:#FFFFFF;" width="21.7" height="4"/>
	<g style="clip-path:url(#SVGID_00000105424771684176594010000015303358188107728031_);">
		<text transform="matrix(1 0 0 1 54.938 329.5446)"><tspan x="0" y="0" class="st14 st9 st15">A</tspan><tspan x="3.8" y="0" class="st14 st9 st15">S</tspan><tspan x="7.3" y="0" class="st14 st9 st15">SET</tspan></text>
	</g>
	<g style="clip-path:url(#SVGID_00000105424771684176594010000015303358188107728031_);">
		<defs>
			<rect id="SVGID_00000095332880586861931520000011679582559294413219_" width="419.5" height="595.3"/>
		</defs>
		<clipPath id="SVGID_00000030468353095912753920000007039245143719384226_">
			<use xlink:href="#SVGID_00000095332880586861931520000011679582559294413219_"  style="overflow:visible;"/>
		</clipPath>
		<path style="clip-path:url(#SVGID_00000030468353095912753920000007039245143719384226_);fill:#8B8F91;" d="M314.9,326.9H313
			c-0.1,0-0.2,0.1-0.2,0.2v1.9c0,0.1,0.1,0.2,0.2,0.2h1.9c0.1,0,0.2-0.1,0.2-0.2v-1.9C315.1,327,315,326.9,314.9,326.9"/>
		<path style="clip-path:url(#SVGID_00000030468353095912753920000007039245143719384226_);fill:#8B8F91;" d="M316.1,329.6
			c0,0.3-0.3,0.6-0.6,0.6h-3.1c-0.3,0-0.6-0.3-0.6-0.6v-3.1c0-0.3,0.3-0.6,0.6-0.6h3.1c0.3,0,0.6,0.3,0.6,0.6V329.6z M319.9,327.3
			v-1.3c0-0.3,0.3-0.6,0.6-0.6h2.1c0.1,0,0.2-0.1,0.2-0.2c0-0.1-0.1-0.2-0.2-0.2h-2.1c-0.5,0-1,0.4-1,1v1.3c0,0.3-0.3,0.6-0.6,0.6
			H317h-0.2h-0.4v-1h0.6c0.1,0,0.2-0.1,0.2-0.2c0-0.1-0.1-0.2-0.2-0.2h-0.6c0-0.5-0.4-1-1-1V325c0-0.1-0.1-0.2-0.2-0.2
			c-0.1,0-0.2,0.1-0.2,0.2v0.6h-1V325c0-0.1-0.1-0.2-0.2-0.2c-0.1,0-0.2,0.1-0.2,0.2v0.6h-1V325c0-0.1-0.1-0.2-0.2-0.2
			c-0.1,0-0.2,0.1-0.2,0.2v0.6c-0.5,0-1,0.4-1,1h-0.4c-0.1,0-0.2,0.1-0.2,0.2c0,0.1,0.1,0.2,0.2,0.2h0.4v1h-0.4
			c-0.1,0-0.2,0.1-0.2,0.2c0,0.1,0.1,0.2,0.2,0.2h0.4v1h-0.4c-0.1,0-0.2,0.1-0.2,0.2c0,0.1,0.1,0.2,0.2,0.2h0.4c0,0.5,0.4,1,1,1v0.6
			c0,0.1,0.1,0.2,0.2,0.2c0.1,0,0.2-0.1,0.2-0.2v-0.6h1v0.6c0,0.1,0.1,0.2,0.2,0.2c0.1,0,0.2-0.1,0.2-0.2v-0.6h1v0.6
			c0,0.1,0.1,0.2,0.2,0.2c0.1,0,0.2-0.1,0.2-0.2v-0.6c0.5,0,1-0.4,1-1h0.6c0.1,0,0.2-0.1,0.2-0.2c0-0.1-0.1-0.2-0.2-0.2h-0.6v-1h0.4
			h0.2h1.9c0.3,0,0.6,0.3,0.6,0.6v1.4c0,0.5,0.4,1,1,1h2.1c0.1,0,0.2-0.1,0.2-0.2c0-0.1-0.1-0.2-0.2-0.2h-2.1
			c-0.3,0-0.6-0.3-0.6-0.6v-1.4c0-0.3-0.2-0.6-0.4-0.8C319.8,327.9,319.9,327.6,319.9,327.3"/>
		<path style="clip-path:url(#SVGID_00000030468353095912753920000007039245143719384226_);fill:#8B8F91;" d="M324.1,326
			c0,0,0.1,0.1,0.1,0.1c0.1,0,0.1,0,0.1-0.1l0.6-0.6l0.6,0.6c0,0,0.1,0.1,0.1,0.1c0,0,0.1,0,0.1-0.1c0.1-0.1,0.1-0.2,0-0.3l-0.6-0.6
			l0.6-0.6c0.1-0.1,0.1-0.2,0-0.3c-0.1-0.1-0.2-0.1-0.3,0l-0.6,0.6l-0.6-0.6c-0.1-0.1-0.2-0.1-0.3,0c-0.1,0.1-0.1,0.2,0,0.3l0.6,0.6
			l-0.6,0.6C324,325.8,324,326,324.1,326"/>
		<path style="clip-path:url(#SVGID_00000030468353095912753920000007039245143719384226_);fill:#8B8F91;" d="M324.9,331.9
			c-0.7,0-1.3-0.6-1.3-1.3c0-0.7,0.6-1.3,1.3-1.3s1.3,0.6,1.3,1.3C326.3,331.3,325.7,331.9,324.9,331.9 M324.9,328.8
			c-1,0-1.7,0.8-1.7,1.7c0,1,0.8,1.7,1.7,1.7s1.7-0.8,1.7-1.7C326.7,329.6,325.9,328.8,324.9,328.8"/>
		<path style="clip-path:url(#SVGID_00000030468353095912753920000007039245143719384226_);fill:#8B8F91;" d="M325.9,329.9
			c-0.1-0.1-0.2-0.1-0.3,0l-1,1l-0.5-0.5c-0.1-0.1-0.2-0.1-0.3,0c-0.1,0.1-0.1,0.2,0,0.3l0.8,0.8l1.2-1.2
			C326,330.1,326,330,325.9,329.9"/>
		<path style="clip-path:url(#SVGID_00000030468353095912753920000007039245143719384226_);fill:#E7E9EA;" d="M346,296.8
			c10.6,0,19.3-13.5,19.3-24.2c0-10.7-11-17.2-21.6-17.2s-16.8,8.1-16.8,18.8C326.9,285,335.5,296.8,346,296.8"/>
		<path style="clip-path:url(#SVGID_00000030468353095912753920000007039245143719384226_);fill:#8B8F91;" d="M354.5,288.6h-0.2
			l1.4-1.6l1.4,1.6h-0.2c-0.2,0-0.3,0.1-0.3,0.3v1.4h-1.7v-1.4C354.8,288.7,354.7,288.6,354.5,288.6 M360.6,291v1.4
			c0,0.2,0.1,0.3,0.3,0.3h0.2l-1.4,1.6l-1.4-1.6h0.2c0.2,0,0.3-0.1,0.3-0.3V291H360.6z M358.3,291v1.1h-0.6c-0.3,0-0.4,0.3-0.2,0.5
			l2.1,2.4c0.1,0.1,0.4,0.1,0.5,0l2.1-2.4c0.2-0.2,0-0.5-0.2-0.5h-0.6V291c0.1,0,0.3-0.2,0.3-0.3c0-0.2-0.1-0.3-0.3-0.3h-4.1v-1.1
			h0.6c0.3,0,0.4-0.3,0.2-0.5l-2.1-2.4c-0.1-0.1-0.4-0.1-0.5,0l-2.1,2.4c-0.2,0.2,0,0.5,0.2,0.5h0.6v1.1h-1.9
			c-1.2,0-2.1-0.9-2.2-2.1c0-0.6,0.2-1.1,0.6-1.5s0.9-0.6,1.5-0.6c0.4,0,0.6,0,0.6-0.5c0-1.6,1.3-3,3-3c1.3,0,2.4,0.8,2.8,2.1
			c0.1,0.2,0.3,0.3,0.5,0.2c0.4-0.2,0.8-0.4,1.3-0.4c1.3,0,2.4,1.1,2.4,2.4c0,0.2,0.1,0.6,0.4,0.5c0.3-0.1,0.5-0.1,0.8-0.1
			c0.8,0.1,1.5,0.8,1.5,1.7c0,0.3-0.1,0.7-0.4,0.9c-0.3,0.3-0.6,0.4-1,0.4c-0.6,0-0.6,0.7,0,0.7c0.5,0,1.1-0.2,1.4-0.6
			c0.4-0.4,0.6-0.9,0.5-1.4c0-1.2-0.9-2.2-2.1-2.3c-0.2,0-0.5,0-0.7,0c-0.1-1.6-1.4-2.8-3-2.8c-0.4,0-0.9,0.1-1.3,0.3
			c-0.6-1.3-1.9-2.1-3.3-2.1c-1.9,0-3.5,1.5-3.6,3.4c-0.7,0-1.4,0.3-1.9,0.8c-0.5,0.5-0.8,1.3-0.8,2c0,0.7,0.3,1.4,0.9,1.9
			c0.5,0.5,1.2,0.8,2,0.8H358.3z"/>
	</g>
	<g style="clip-path:url(#SVGID_00000105424771684176594010000015303358188107728031_);">
		<text transform="matrix(1 0 0 1 94.5293 343.8248)"><tspan x="0" y="0" class="st14 st9 st18">R</tspan><tspan x="4.3" y="0" class="st14 st9 st18">A</tspan><tspan x="8.3" y="0" class="st14 st9 st18">W </tspan></text>
	</g>
	<g style="clip-path:url(#SVGID_00000105424771684176594010000015303358188107728031_);">
		<text transform="matrix(1 0 0 1 110.1543 343.8248)" class="st14 st9 st18"> </text>
	</g>
	<g style="clip-path:url(#SVGID_00000105424771684176594010000015303358188107728031_);">
		<text transform="matrix(1 0 0 1 93.8218 350.5748)"><tspan x="0" y="0" class="st14 st9 st18">D</tspan><tspan x="4.2" y="0" class="st14 st9 st18">AT</tspan><tspan x="11.3" y="0" class="st14 st9 st18">A</tspan></text>
	</g>
	<g style="clip-path:url(#SVGID_00000105424771684176594010000015303358188107728031_);">
		<text transform="matrix(1 0 0 1 120.8433 343.8258)"><tspan x="0" y="0" class="st14 st9 st18">PRE-PROCE</tspan><tspan x="35.6" y="0" class="st14 st9 st18">S</tspan><tspan x="39.5" y="0" class="st14 st9 st18">SED </tspan></text>
	</g>
	<g style="clip-path:url(#SVGID_00000105424771684176594010000015303358188107728031_);">
		<text transform="matrix(1 0 0 1 138.8677 350.5748)"><tspan x="0" y="0" class="st14 st9 st18">D</tspan><tspan x="4.2" y="0" class="st14 st9 st18">AT</tspan><tspan x="11.3" y="0" class="st14 st9 st18">A</tspan></text>
	</g>
	<g style="clip-path:url(#SVGID_00000105424771684176594010000015303358188107728031_);">
		<text transform="matrix(1 0 0 1 261.4189 343.8258)" class="st14 st9 st18">ARGUMENTED</text>
	</g>
	<g style="clip-path:url(#SVGID_00000105424771684176594010000015303358188107728031_);">
		<text transform="matrix(1 0 0 1 303.9131 343.8248)" class="st14 st9 st18"> </text>
	</g>
	<g style="clip-path:url(#SVGID_00000105424771684176594010000015303358188107728031_);">
		<text transform="matrix(1 0 0 1 274.875 350.5748)"><tspan x="0" y="0" class="st14 st9 st18">D</tspan><tspan x="4.2" y="0" class="st14 st9 st18">AT</tspan><tspan x="11.3" y="0" class="st14 st9 st18">A</tspan></text>
	</g>
	<g style="clip-path:url(#SVGID_00000105424771684176594010000015303358188107728031_);">
		<text transform="matrix(1 0 0 1 307.6006 343.8258)"><tspan x="0" y="0" class="st14 st9 st18">V</tspan><tspan x="3.5" y="0" class="st14 st9 st18">ALI</tspan><tspan x="13.3" y="0" class="st14 st9 st18">D</tspan><tspan x="17.5" y="0" class="st14 st9 st18">A</tspan><tspan x="21.4" y="0" class="st14 st9 st18">TION</tspan></text>
	</g>
	<g style="clip-path:url(#SVGID_00000105424771684176594010000015303358188107728031_);">
		<text transform="matrix(1 0 0 1 343.5117 343.8248)" class="st14 st9 st18"> </text>
	</g>
	<g style="clip-path:url(#SVGID_00000105424771684176594010000015303358188107728031_);">
		<text transform="matrix(1 0 0 1 317.7666 350.5748)"><tspan x="0" y="0" class="st14 st9 st18">D</tspan><tspan x="4.2" y="0" class="st14 st9 st18">AT</tspan><tspan x="11.3" y="0" class="st14 st9 st18">A</tspan></text>
	</g>
	<g style="clip-path:url(#SVGID_00000105424771684176594010000015303358188107728031_);">
		<text transform="matrix(1 0 0 1 176.4985 343.8258)" class="st14 st9 st18">REDUCED </text>
	</g>
	<g style="clip-path:url(#SVGID_00000105424771684176594010000015303358188107728031_);">
		<text transform="matrix(1 0 0 1 207.2588 343.8248)" class="st14 st9 st18"> </text>
	</g>
	<g style="clip-path:url(#SVGID_00000105424771684176594010000015303358188107728031_);">
		<text transform="matrix(1 0 0 1 183.3682 350.5748)"><tspan x="0" y="0" class="st14 st9 st18">D</tspan><tspan x="4.2" y="0" class="st14 st9 st18">AT</tspan><tspan x="11.3" y="0" class="st14 st9 st18">A</tspan></text>
	</g>
	<g style="clip-path:url(#SVGID_00000105424771684176594010000015303358188107728031_);">
		<text transform="matrix(1 0 0 1 222.5586 343.8258)"><tspan x="0" y="0" class="st14 st9 st18">L</tspan><tspan x="3.6" y="0" class="st14 st9 st18">ABELED</tspan></text>
	</g>
	<g style="clip-path:url(#SVGID_00000105424771684176594010000015303358188107728031_);">
		<text transform="matrix(1 0 0 1 228.5908 350.5748)"><tspan x="0" y="0" class="st14 st9 st18">D</tspan><tspan x="4.2" y="0" class="st14 st9 st18">AT</tspan><tspan x="11.3" y="0" class="st14 st9 st18">A</tspan></text>
	</g>
	<g style="clip-path:url(#SVGID_00000105424771684176594010000015303358188107728031_);">
		<defs>
			<rect id="SVGID_00000133509281648682289170000004604279521327262392_" width="419.5" height="595.3"/>
		</defs>
		<clipPath id="SVGID_00000075885077479632525920000010405123765679494298_">
			<use xlink:href="#SVGID_00000133509281648682289170000004604279521327262392_"  style="overflow:visible;"/>
		</clipPath>
		<path style="clip-path:url(#SVGID_00000075885077479632525920000010405123765679494298_);fill:#E7E9EA;" d="M291.2,299.7
			c10.6,0,24.6-9.7,24.6-20.5c0-10.7-4.6-19.4-15.1-19.4s-20.9,8.7-20.9,19.4C279.7,289.9,280.6,299.7,291.2,299.7"/>
		<path style="clip-path:url(#SVGID_00000075885077479632525920000010405123765679494298_);fill:#8B8F91;" d="M287.6,267.9
			c0.3-0.3,0.3-0.7,0-1c-0.3-0.3-0.7-0.3-1,0c-0.3,0.3-0.3,0.7,0,1C286.9,268.2,287.3,268.2,287.6,267.9"/>
		<path style="clip-path:url(#SVGID_00000075885077479632525920000010405123765679494298_);fill:#8B8F91;" d="M283.8,264.5l0.6,0.6
			c-0.6,0.7-1,1.6-1.1,2.5h-0.9C282.5,266.5,283,265.3,283.8,264.5 M287.3,262.8v0.9c-0.9,0.1-1.8,0.4-2.5,1.1l-0.6-0.6
			C285,263.3,286.2,262.9,287.3,262.8 M290.9,264.2l-0.6,0.6c-0.7-0.6-1.6-1-2.5-1.1v-0.9C288.9,262.9,290.1,263.3,290.9,264.2
			 M292.6,267.6h-0.9c-0.1-0.9-0.4-1.8-1.1-2.5l0.6-0.6C292.1,265.3,292.5,266.5,292.6,267.6 M291.2,271.3l-0.6-0.6
			c0.6-0.7,1-1.6,1.1-2.5h0.9C292.5,269.2,292.1,270.4,291.2,271.3 M287.8,272.9V272c0.9,0,1.8-0.4,2.5-1.1l0.6,0.6
			C290.1,272.4,288.9,272.9,287.8,272.9 M284.1,271.6l0.6-0.6c0.7,0.6,1.6,1,2.5,1.1v0.9C286.2,272.9,285,272.4,284.1,271.6
			 M287.5,264.1c2,0,3.7,1.7,3.7,3.7c0,2-1.7,3.7-3.7,3.7c-2,0-3.7-1.7-3.7-3.7C283.8,265.9,285.5,264.1,287.5,264.1 M283.4,268.1
			c0.1,0.9,0.4,1.8,1.1,2.5l-0.6,0.6c-0.8-0.9-1.3-2-1.4-3.2H283.4z M287.5,273.4c1.4,0,2.8-0.6,3.9-1.6h0c1-1,1.6-2.4,1.6-3.9
			c0-3-2.5-5.5-5.5-5.5c-3,0-5.5,2.5-5.5,5.5C282,270.8,284.6,273.4,287.5,273.4"/>
		<path style="clip-path:url(#SVGID_00000075885077479632525920000010405123765679494298_);fill:#8B8F91;" d="M285.2,267.6l0.3-0.1
			c0.1,0,0.1-0.1,0.2-0.2c0-0.2,0.1-0.3,0.2-0.5c0-0.1,0-0.2,0-0.2l-0.2-0.3l0.4-0.4l0.3,0.2c0.1,0,0.1,0,0.2,0
			c0.1-0.1,0.3-0.1,0.5-0.2c0.1,0,0.1-0.1,0.2-0.2l0.1-0.4h0.5l0.1,0.4c0,0.1,0.1,0.1,0.2,0.2c0.2,0,0.3,0.1,0.5,0.2
			c0.1,0,0.2,0,0.2,0l0.3-0.2l0.4,0.4l-0.2,0.3c0,0.1,0,0.2,0,0.2c0.1,0.1,0.1,0.3,0.2,0.5c0,0.1,0.1,0.1,0.2,0.2l0.3,0.1v0.5
			l-0.3,0.1c-0.1,0-0.1,0.1-0.2,0.2c0,0.2-0.1,0.3-0.2,0.5c0,0.1,0,0.2,0,0.2l0.2,0.3l-0.4,0.4l-0.3-0.2c-0.1,0-0.1,0-0.2,0
			c-0.1,0.1-0.3,0.1-0.5,0.2c-0.1,0-0.1,0.1-0.2,0.2l-0.1,0.4h-0.5l-0.1-0.4c0-0.1-0.1-0.1-0.2-0.2c-0.2,0-0.3-0.1-0.5-0.2
			c-0.1,0-0.2,0-0.2,0l-0.3,0.2l-0.4-0.4l0.2-0.3c0-0.1,0-0.2,0-0.2c-0.1-0.1-0.1-0.3-0.2-0.5c0-0.1-0.1-0.1-0.2-0.2l-0.3-0.1V267.6
			z M284.9,268.5l0.4,0.1c0,0.1,0.1,0.2,0.1,0.3l-0.2,0.3c-0.1,0.1,0,0.2,0,0.3l0.6,0.6c0.1,0.1,0.2,0.1,0.3,0l0.3-0.2
			c0.1,0.1,0.2,0.1,0.3,0.1l0.1,0.4c0,0.1,0.1,0.2,0.2,0.2h0.9c0.1,0,0.2-0.1,0.2-0.2l0.1-0.4c0.1,0,0.2-0.1,0.3-0.1l0.3,0.2
			c0.1,0.1,0.2,0,0.3,0l0.6-0.6c0.1-0.1,0.1-0.2,0-0.3l-0.2-0.3c0.1-0.1,0.1-0.2,0.1-0.3l0.4-0.1c0.1,0,0.2-0.1,0.2-0.2v-0.9
			c0-0.1-0.1-0.2-0.2-0.2l-0.4-0.1c0-0.1-0.1-0.2-0.1-0.3l0.2-0.3c0.1-0.1,0-0.2,0-0.3l-0.6-0.6c-0.1-0.1-0.2-0.1-0.3,0l-0.3,0.2
			c-0.1-0.1-0.2-0.1-0.3-0.1l-0.1-0.4c0-0.1-0.1-0.2-0.2-0.2h-0.9c-0.1,0-0.2,0.1-0.2,0.2l-0.1,0.4c-0.1,0-0.2,0.1-0.3,0.1l-0.3-0.2
			c-0.1,0-0.2,0-0.3,0l-0.6,0.6c-0.1,0.1-0.1,0.2,0,0.3l0.2,0.3c-0.1,0.1-0.1,0.2-0.1,0.3l-0.4,0.1c-0.1,0-0.2,0.1-0.2,0.2v0.9
			C284.7,268.4,284.8,268.5,284.9,268.5"/>
		<path style="clip-path:url(#SVGID_00000075885077479632525920000010405123765679494298_);fill:#8B8F91;" d="M287.6,267.7
			c0.1,0,0.2,0.1,0.2,0.2c0,0.1-0.1,0.2-0.2,0.2s-0.2-0.1-0.2-0.2C287.3,267.8,287.4,267.7,287.6,267.7 M287.6,268.6
			c0.4,0,0.7-0.3,0.7-0.7c0-0.4-0.3-0.7-0.7-0.7s-0.7,0.3-0.7,0.7C286.9,268.3,287.2,268.6,287.6,268.6"/>
		<path style="clip-path:url(#SVGID_00000075885077479632525920000010405123765679494298_);fill:#8B8F91;" d="M288.6,268.9
			c0.6-0.6,0.6-1.5,0-2.1c-0.3-0.3-0.8-0.5-1.2-0.4c-0.1,0-0.2,0.1-0.2,0.2c0,0.1,0.1,0.2,0.2,0.2c0.3,0,0.6,0.1,0.9,0.3
			c0.4,0.4,0.4,1.1,0,1.5c-0.4,0.4-1.1,0.4-1.5,0c-0.2-0.2-0.3-0.5-0.3-0.9c0-0.1-0.1-0.2-0.2-0.2c-0.1,0-0.2,0.1-0.2,0.2
			c0,0.5,0.1,0.9,0.4,1.2C287.1,269.5,288,269.5,288.6,268.9"/>
		<path style="clip-path:url(#SVGID_00000075885077479632525920000010405123765679494298_);fill:#E7E9EA;" d="M181,274
			c0.4-10.5-13.5-16.2-23.7-14.1c-10.5,2.1-12.8,13.4-13.1,23.9c-0.4,10.5,11.2,15.4,21.9,15.8S180.7,284.6,181,274"/>
		<path style="clip-path:url(#SVGID_00000075885077479632525920000010405123765679494298_);fill:#8B8F91;" d="M149.5,269.5
			C149.5,269.5,149.5,269.4,149.5,269.5c0-0.1,0-0.1,0-0.1l-0.1-0.3l0.3-0.6l0.4,0.9l-0.4,0.9l-0.3-0.6L149.5,269.5z M148.5,269.5
			C148.6,269.5,148.6,269.4,148.5,269.5c0-0.1,0-0.1,0-0.1l-0.1-0.3l0.3-0.6l0.3,0.6l0.1,0.2l0.1,0.1l-0.1,0.1l-0.1,0.2l-0.3,0.6
			l-0.3-0.6L148.5,269.5z M147.7,268.5l0.3,0.6l0.1,0.2l0.1,0.1l-0.1,0.1l-0.1,0.2l-0.3,0.6l-0.4-0.9L147.7,268.5z M149.7,270.9
			c0.1,0,0.1,0,0.2-0.1l0.6-1.4c0,0,0,0,0-0.1c0,0,0,0,0-0.1l-0.6-1.4c0-0.1-0.1-0.1-0.2-0.1s-0.1,0-0.2,0.1l-0.3,0.7l-0.3-0.7
			c0-0.1-0.1-0.1-0.2-0.1c-0.1,0-0.1,0-0.2,0.1l-0.3,0.7l-0.3-0.7c0-0.1-0.1-0.1-0.2-0.1c-0.1,0-0.1,0-0.2,0.1l-0.6,1.4
			c0,0,0,0.1,0,0.1l0.6,1.4c0,0.1,0.1,0.1,0.2,0.1c0.1,0,0.1,0,0.2-0.1l0.3-0.7l0.3,0.7c0,0.1,0.1,0.1,0.2,0.1c0.1,0,0.1,0,0.2-0.1
			l0.3-0.7l0.3,0.7C149.5,270.9,149.6,270.9,149.7,270.9"/>
		<path style="clip-path:url(#SVGID_00000075885077479632525920000010405123765679494298_);fill:#8B8F91;" d="M147.3,264.5l0.4-0.9
			l0.3,0.6l0.1,0.2l0.1,0.1l-0.1,0.1l-0.1,0.2l-0.3,0.6L147.3,264.5z M149.1,264.4l0.1,0.1l-0.1,0.1l-0.1,0.2l-0.3,0.6l-0.3-0.6
			l0.1-0.3c0,0,0,0,0-0.1c0,0,0,0,0-0.1l-0.1-0.3l0.3-0.6l0.3,0.6L149.1,264.4z M150.1,264.5l-0.4,0.9l-0.3-0.6l0.1-0.3
			c0,0,0,0,0-0.1c0,0,0,0,0-0.1l-0.1-0.3l0.3-0.6L150.1,264.5z M148.7,263c-0.1,0-0.1,0-0.2,0.1l-0.3,0.7l-0.3-0.7
			c0-0.1-0.1-0.1-0.2-0.1s-0.1,0-0.2,0.1l-0.6,1.4c0,0,0,0.1,0,0.1l0.6,1.4c0,0.1,0.1,0.1,0.2,0.1s0.1,0,0.2-0.1l0.3-0.7l0.3,0.7
			c0,0.1,0.1,0.1,0.2,0.1s0.1,0,0.2-0.1l0.3-0.7l0.3,0.7c0,0.1,0.1,0.1,0.2,0.1c0.1,0,0.1,0,0.2-0.1l0.6-1.4c0,0,0,0,0-0.1
			c0,0,0,0,0-0.1l-0.6-1.4c0-0.1-0.1-0.1-0.2-0.1c-0.1,0-0.1,0-0.2,0.1l-0.3,0.7l-0.3-0.7C148.8,263,148.8,263,148.7,263"/>
		<path style="clip-path:url(#SVGID_00000075885077479632525920000010405123765679494298_);fill:#8B8F91;" d="M149.5,274.3
			C149.5,274.3,149.5,274.3,149.5,274.3c0-0.1,0-0.1,0-0.1l-0.1-0.3l0.3-0.6l0.4,0.9l-0.4,0.9l-0.3-0.6L149.5,274.3z M148.5,274.3
			C148.6,274.3,148.6,274.3,148.5,274.3c0-0.1,0-0.1,0-0.1l-0.1-0.3l0.3-0.6l0.3,0.6l0.1,0.2l0.1,0.1l-0.1,0.1l-0.1,0.2l-0.3,0.6
			l-0.3-0.6L148.5,274.3z M147.3,274.2l0.4-0.9l0.3,0.6l0.1,0.2l0.1,0.1l-0.1,0.1l-0.1,0.2l-0.3,0.6L147.3,274.2z M150.5,274.2
			C150.5,274.2,150.5,274.2,150.5,274.2l-0.7-1.4c0-0.1-0.1-0.1-0.2-0.1c-0.1,0-0.1,0-0.2,0.1l-0.3,0.7l-0.3-0.7
			c0-0.1-0.1-0.1-0.2-0.1c-0.1,0-0.1,0-0.2,0.1l-0.3,0.7l-0.3-0.7c0-0.1-0.1-0.1-0.2-0.1c-0.1,0-0.1,0-0.2,0.1l-0.6,1.4
			c0,0,0,0.1,0,0.1l0.6,1.4c0,0.1,0.1,0.1,0.2,0.1c0.1,0,0.1,0,0.2-0.1l0.3-0.7l0.3,0.7c0,0.1,0.1,0.1,0.2,0.1c0.1,0,0.1,0,0.2-0.1
			l0.3-0.7l0.3,0.7c0,0.1,0.1,0.1,0.2,0.1c0.1,0,0.1,0,0.2-0.1L150.5,274.2C150.5,274.3,150.5,274.3,150.5,274.2"/>
		<path style="clip-path:url(#SVGID_00000075885077479632525920000010405123765679494298_);fill:#8B8F91;" d="M154.6,267.4h2.9
			c0.3,0,0.5,0.2,0.5,0.5v2.8c0,0.3-0.2,0.5-0.5,0.5h-2.9c-0.3,0-0.5-0.2-0.5-0.5V268C154.1,267.7,154.3,267.4,154.6,267.4
			 M150.9,264.5c0,0.1,0.1,0.2,0.2,0.2h0.7c0.3,0,0.5,0.2,0.5,0.5v2.3c0,0.5,0.4,0.9,0.9,0.9h0.5v0.9H151c-0.1,0-0.2,0.1-0.2,0.2
			s0.1,0.2,0.2,0.2h2.7v0.9h-0.5c-0.5,0-0.9,0.4-0.9,0.9v2.3c0,0.3-0.2,0.5-0.5,0.5H151c-0.1,0-0.2,0.1-0.2,0.2s0.1,0.2,0.2,0.2h0.7
			c0.5,0,0.9-0.4,0.9-0.9v-2.3c0-0.3,0.2-0.5,0.5-0.5h0.5c0,0.5,0.4,0.9,0.9,0.9v0.5c0,0.1,0.1,0.2,0.2,0.2c0.1,0,0.2-0.1,0.2-0.2
			v-0.5h0.9v0.5c0,0.1,0.1,0.2,0.2,0.2c0.1,0,0.2-0.1,0.2-0.2v-0.5h0.9v0.5c0,0.1,0.1,0.2,0.2,0.2c0.1,0,0.2-0.1,0.2-0.2v-0.5
			c0.5,0,0.9-0.4,0.9-0.9h0.5c0.1,0,0.2-0.1,0.2-0.2c0-0.1-0.1-0.2-0.2-0.2h-0.5v-0.9h3l-0.4,0.4c-0.1,0.1-0.1,0.2,0,0.2
			c0.1,0.1,0.2,0.1,0.3,0l0.7-0.7c0,0,0.1-0.1,0.1-0.1c0,0,0-0.1-0.1-0.1l-0.7-0.7c-0.1-0.1-0.2-0.1-0.3,0c-0.1,0.1-0.1,0.2,0,0.2
			l0.4,0.4h-3v-0.9h0.5c0.1,0,0.2-0.1,0.2-0.2s-0.1-0.2-0.2-0.2h-0.5c0-0.5-0.4-0.9-0.9-0.9v-0.5c0-0.1-0.1-0.2-0.2-0.2
			c-0.1,0-0.2,0.1-0.2,0.2v0.5h-0.9v-0.5c0-0.1-0.1-0.2-0.2-0.2c-0.1,0-0.2,0.1-0.2,0.2v0.5H155v-0.5c0-0.1-0.1-0.2-0.2-0.2
			c-0.1,0-0.2,0.1-0.2,0.2v0.5c-0.5,0-0.9,0.4-0.9,0.9h-0.5c-0.3,0-0.5-0.2-0.5-0.5v-2.3c0-0.5-0.4-0.9-0.9-0.9H151
			C150.9,264.3,150.9,264.4,150.9,264.5"/>
		<path style="clip-path:url(#SVGID_00000075885077479632525920000010405123765679494298_);fill:#8B8F91;" d="M155,268.5v1.7
			c0,0.1,0.1,0.2,0.2,0.2h1.8c0.1,0,0.2-0.1,0.2-0.2v-1.7c0-0.1-0.1-0.2-0.2-0.2h-1.8C155.1,268.3,155,268.4,155,268.5"/>
		<path style="clip-path:url(#SVGID_00000075885077479632525920000010405123765679494298_);fill:#8B8F91;" d="M134.4,327.8
			C134.4,327.8,134.4,327.7,134.4,327.8c0-0.1,0-0.1,0-0.1l-0.1-0.3l0.3-0.6l0.4,0.9l-0.4,0.9l-0.3-0.6L134.4,327.8z M133.4,327.8
			C133.4,327.8,133.4,327.7,133.4,327.8c0-0.1,0-0.1,0-0.1l-0.1-0.3l0.3-0.6l0.3,0.6l0.1,0.2l0.1,0.1l-0.1,0.1l-0.1,0.2l-0.3,0.6
			l-0.3-0.6L133.4,327.8z M132.6,326.8l0.3,0.6l0.1,0.2l0.1,0.1l-0.1,0.1l-0.1,0.2l-0.3,0.6l-0.4-0.9L132.6,326.8z M134.6,329.2
			c0.1,0,0.1,0,0.2-0.1l0.6-1.4c0,0,0,0,0-0.1c0,0,0,0,0-0.1l-0.6-1.4c0-0.1-0.1-0.1-0.2-0.1s-0.1,0-0.2,0.1l-0.3,0.7l-0.3-0.7
			c0-0.1-0.1-0.1-0.2-0.1c-0.1,0-0.1,0-0.2,0.1l-0.3,0.7l-0.3-0.7c0-0.1-0.1-0.1-0.2-0.1c-0.1,0-0.1,0-0.2,0.1l-0.6,1.4
			c0,0,0,0.1,0,0.1l0.6,1.4c0,0.1,0.1,0.1,0.2,0.1c0.1,0,0.1,0,0.2-0.1l0.3-0.7l0.3,0.7c0,0.1,0.1,0.1,0.2,0.1c0.1,0,0.1,0,0.2-0.1
			l0.3-0.7l0.3,0.7C134.4,329.2,134.5,329.2,134.6,329.2"/>
		<path style="clip-path:url(#SVGID_00000075885077479632525920000010405123765679494298_);fill:#8B8F91;" d="M132.2,322.8l0.4-0.9
			l0.3,0.6l0.1,0.2l0.1,0.1l-0.1,0.1l-0.1,0.2l-0.3,0.6L132.2,322.8z M134,322.7l0.1,0.1l-0.1,0.1l-0.1,0.2l-0.3,0.6l-0.3-0.6
			l0.1-0.3c0,0,0,0,0-0.1c0,0,0,0,0-0.1l-0.1-0.3l0.3-0.6l0.3,0.6L134,322.7z M135,322.8l-0.4,0.9l-0.3-0.6l0.1-0.3c0,0,0,0,0-0.1
			c0,0,0,0,0-0.1l-0.1-0.3l0.3-0.6L135,322.8z M133.6,321.3c-0.1,0-0.1,0-0.2,0.1l-0.3,0.7l-0.3-0.7c0-0.1-0.1-0.1-0.2-0.1
			s-0.1,0-0.2,0.1l-0.6,1.4c0,0,0,0.1,0,0.1l0.6,1.4c0,0.1,0.1,0.1,0.2,0.1s0.1,0,0.2-0.1l0.3-0.7l0.3,0.7c0,0.1,0.1,0.1,0.2,0.1
			s0.1,0,0.2-0.1l0.3-0.7l0.3,0.7c0,0.1,0.1,0.1,0.2,0.1c0.1,0,0.1,0,0.2-0.1l0.6-1.4c0,0,0,0,0-0.1c0,0,0,0,0-0.1l-0.6-1.4
			c0-0.1-0.1-0.1-0.2-0.1c-0.1,0-0.1,0-0.2,0.1l-0.3,0.7l-0.3-0.7C133.7,321.3,133.7,321.3,133.6,321.3"/>
		<path style="clip-path:url(#SVGID_00000075885077479632525920000010405123765679494298_);fill:#8B8F91;" d="M134.4,332.6
			C134.4,332.6,134.4,332.6,134.4,332.6c0-0.1,0-0.1,0-0.1l-0.1-0.3l0.3-0.6l0.4,0.9l-0.4,0.9l-0.3-0.6L134.4,332.6z M133.4,332.6
			C133.4,332.6,133.4,332.6,133.4,332.6c0-0.1,0-0.1,0-0.1l-0.1-0.3l0.3-0.6l0.3,0.6l0.1,0.2l0.1,0.1l-0.1,0.1l-0.1,0.2l-0.3,0.6
			l-0.3-0.6L133.4,332.6z M132.2,332.6l0.4-0.9l0.3,0.6l0.1,0.2l0.1,0.1l-0.1,0.1l-0.1,0.2l-0.3,0.6L132.2,332.6z M135.4,332.6
			C135.4,332.5,135.4,332.5,135.4,332.6l-0.7-1.4c0-0.1-0.1-0.1-0.2-0.1c-0.1,0-0.1,0-0.2,0.1l-0.3,0.7l-0.3-0.7
			c0-0.1-0.1-0.1-0.2-0.1c-0.1,0-0.1,0-0.2,0.1l-0.3,0.7l-0.3-0.7c0-0.1-0.1-0.1-0.2-0.1c-0.1,0-0.1,0-0.2,0.1l-0.6,1.4
			c0,0,0,0.1,0,0.1l0.6,1.4c0,0.1,0.1,0.1,0.2,0.1c0.1,0,0.1,0,0.2-0.1l0.3-0.7l0.3,0.7c0,0.1,0.1,0.1,0.2,0.1c0.1,0,0.1,0,0.2-0.1
			l0.3-0.7l0.3,0.7c0,0.1,0.1,0.1,0.2,0.1c0.1,0,0.1,0,0.2-0.1L135.4,332.6C135.4,332.6,135.4,332.6,135.4,332.6"/>
		<path style="clip-path:url(#SVGID_00000075885077479632525920000010405123765679494298_);fill:#8B8F91;" d="M139.5,325.8h2.9
			c0.3,0,0.5,0.2,0.5,0.5v2.8c0,0.3-0.2,0.5-0.5,0.5h-2.9c-0.3,0-0.5-0.2-0.5-0.5v-2.8C139,326,139.2,325.8,139.5,325.8
			 M135.7,322.8c0,0.1,0.1,0.2,0.2,0.2h0.7c0.3,0,0.5,0.2,0.5,0.5v2.3c0,0.5,0.4,0.9,0.9,0.9h0.5v0.9h-2.7c-0.1,0-0.2,0.1-0.2,0.2
			s0.1,0.2,0.2,0.2h2.7v0.9h-0.5c-0.5,0-0.9,0.4-0.9,0.9v2.3c0,0.3-0.2,0.5-0.5,0.5h-0.7c-0.1,0-0.2,0.1-0.2,0.2s0.1,0.2,0.2,0.2
			h0.7c0.5,0,0.9-0.4,0.9-0.9v-2.3c0-0.3,0.2-0.5,0.5-0.5h0.5c0,0.5,0.4,0.9,0.9,0.9v0.5c0,0.1,0.1,0.2,0.2,0.2
			c0.1,0,0.2-0.1,0.2-0.2v-0.5h0.9v0.5c0,0.1,0.1,0.2,0.2,0.2c0.1,0,0.2-0.1,0.2-0.2v-0.5h0.9v0.5c0,0.1,0.1,0.2,0.2,0.2
			c0.1,0,0.2-0.1,0.2-0.2v-0.5c0.5,0,0.9-0.4,0.9-0.9h0.5c0.1,0,0.2-0.1,0.2-0.2c0-0.1-0.1-0.2-0.2-0.2h-0.5v-0.9h3l-0.4,0.4
			c-0.1,0.1-0.1,0.2,0,0.2c0.1,0.1,0.2,0.1,0.3,0l0.7-0.7c0,0,0.1-0.1,0.1-0.1c0,0,0-0.1-0.1-0.1l-0.7-0.7c-0.1-0.1-0.2-0.1-0.3,0
			c-0.1,0.1-0.1,0.2,0,0.2l0.4,0.4h-3v-0.9h0.5c0.1,0,0.2-0.1,0.2-0.2s-0.1-0.2-0.2-0.2h-0.5c0-0.5-0.4-0.9-0.9-0.9v-0.5
			c0-0.1-0.1-0.2-0.2-0.2c-0.1,0-0.2,0.1-0.2,0.2v0.5h-0.9v-0.5c0-0.1-0.1-0.2-0.2-0.2c-0.1,0-0.2,0.1-0.2,0.2v0.5h-0.9v-0.5
			c0-0.1-0.1-0.2-0.2-0.2c-0.1,0-0.2,0.1-0.2,0.2v0.5c-0.5,0-0.9,0.4-0.9,0.9h-0.5c-0.3,0-0.5-0.2-0.5-0.5v-2.3
			c0-0.5-0.4-0.9-0.9-0.9h-0.7C135.8,322.6,135.7,322.7,135.7,322.8"/>
		<path style="clip-path:url(#SVGID_00000075885077479632525920000010405123765679494298_);fill:#8B8F91;" d="M139.9,326.8v1.7
			c0,0.1,0.1,0.2,0.2,0.2h1.8c0.1,0,0.2-0.1,0.2-0.2v-1.7c0-0.1-0.1-0.2-0.2-0.2h-1.8C140,326.6,139.9,326.7,139.9,326.8"/>
		<path style="clip-path:url(#SVGID_00000075885077479632525920000010405123765679494298_);fill:#E7E9EA;" d="M123,299.2
			c10.6,0,10.8-14.7,10.8-25.4c0-10.7-19.3-13.5-29.8-13.5c-10.6,0-9.6,12.9-9.6,23.6C94.4,294.7,112.4,299.2,123,299.2"/>
	</g>
	<g style="clip-path:url(#SVGID_00000105424771684176594010000015303358188107728031_);">
		<text transform="matrix(0.7071 -0.7071 0.7071 0.7071 103.1673 294.7852)"><tspan x="0" y="0" class="st14 st9 st21">Ing</tspan><tspan x="10.4" y="0" class="st14 st9 st21">e</tspan><tspan x="14.3" y="0" class="st14 st9 st21">s</tspan><tspan x="17.8" y="0" class="st14 st9 st21">tion</tspan></text>
	</g>
	<g style="clip-path:url(#SVGID_00000105424771684176594010000015303358188107728031_);">
		<text transform="matrix(0.7071 -0.7071 0.7071 0.7071 145.3609 297.3149)"><tspan x="0" y="0" class="st14 st9 st21">P</tspan><tspan x="4.3" y="0" class="st14 st9 st21">r</tspan><tspan x="6.8" y="0" class="st14 st9 st21">e</tspan><tspan x="10.5" y="0" class="st14 st9 st21">-</tspan><tspan x="13.1" y="0" class="st14 st9 st21">p</tspan><tspan x="17.1" y="0" class="st14 st9 st21">r</tspan><tspan x="19.6" y="0" class="st14 st9 st21">o</tspan><tspan x="23.4" y="0" class="st14 st9 st21">c</tspan><tspan x="27.1" y="0" class="st14 st9 st21">e</tspan><tspan x="30.8" y="0" class="st14 st9 st21">s</tspan><tspan x="34.2" y="0" class="st14 st9 st21">sin</tspan><tspan x="43.4" y="0" class="st14 st9 st21">g</tspan></text>
	</g>
	<g style="clip-path:url(#SVGID_00000105424771684176594010000015303358188107728031_);">
		<text transform="matrix(0.7071 -0.7071 0.7071 0.7071 189.8165 297.3152)"><tspan x="0" y="0" class="st14 st9 st21">F</tspan><tspan x="3.8" y="0" class="st14 st9 st21">e</tspan><tspan x="7.4" y="0" class="st14 st9 st21">a</tspan><tspan x="11.3" y="0" class="st14 st9 st21">t</tspan><tspan x="13.8" y="0" class="st14 st9 st21">u</tspan><tspan x="17.7" y="0" class="st14 st9 st21">r</tspan><tspan x="20.1" y="0" class="st14 st9 st21">e</tspan><tspan x="23.8" y="0" class="st14 st9 st21"> </tspan><tspan x="25.3" y="0" class="st14 st9 st21">Se</tspan><tspan x="33.2" y="0" class="st14 st9 st21">l</tspan><tspan x="35" y="0" class="st14 st9 st21">e</tspan><tspan x="38.7" y="0" class="st14 st9 st21">c</tspan><tspan x="42.4" y="0" class="st14 st9 st21">ti</tspan><tspan x="46.7" y="0" class="st14 st9 st21">o</tspan><tspan x="50.5" y="0" class="st14 st9 st21">n</tspan></text>
	</g>
	<g style="clip-path:url(#SVGID_00000105424771684176594010000015303358188107728031_);">
		<text transform="matrix(0.7071 -0.7071 0.7071 0.7071 279.826 297.3147)"><tspan x="0" y="0" class="st14 st9 st21">Model</tspan><tspan x="19.6" y="0" class="st14 st9 st21"> </tspan><tspan x="21" y="0" class="st14 st9 st21">T</tspan><tspan x="24.8" y="0" class="st14 st9 st21">r</tspan><tspan x="27.3" y="0" class="st14 st9 st21">aining</tspan></text>
	</g>
	<g style="clip-path:url(#SVGID_00000105424771684176594010000015303358188107728031_);">
		<text transform="matrix(0.7071 -0.7071 0.7071 0.7071 234.6064 297.3152)"><tspan x="0" y="0" class="st14 st9 st21">Model</tspan><tspan x="19.6" y="0" class="st14 st9 st21"> </tspan><tspan x="21" y="0" class="st14 st9 st21">T</tspan><tspan x="24.8" y="0" class="st14 st9 st21">r</tspan><tspan x="27.3" y="0" class="st14 st9 st21">aining</tspan></text>
	</g>
	<g style="clip-path:url(#SVGID_00000105424771684176594010000015303358188107728031_);">
		<text transform="matrix(0.7071 -0.7071 0.7071 0.7071 313.046 285.8596)"><tspan x="0" y="0" class="st14 st9 st21">Model</tspan><tspan x="19.6" y="0" class="st14 st9 st21"> </tspan><tspan x="21" y="0" class="st14 st9 st21">T</tspan><tspan x="24.8" y="0" class="st14 st9 st21">r</tspan><tspan x="27.3" y="0" class="st14 st9 st21">aining, </tspan></text>
	</g>
	<g style="clip-path:url(#SVGID_00000105424771684176594010000015303358188107728031_);">
		<text transform="matrix(0.7071 -0.7071 0.7071 0.7071 349.3066 249.599)" class="st14 st9 st21"> </text>
	</g>
	<g style="clip-path:url(#SVGID_00000105424771684176594010000015303358188107728031_);">
		<text transform="matrix(0.7071 -0.7071 0.7071 0.7071 318.7734 291.5871)"><tspan x="0" y="0" class="st14 st9 st21">Depl</tspan><tspan x="14.9" y="0" class="st14 st9 st21">o</tspan><tspan x="18.8" y="0" class="st14 st9 st21">yme</tspan><tspan x="32.4" y="0" class="st14 st9 st21">n</tspan><tspan x="36.4" y="0" class="st14 st9 st21">t and</tspan></text>
	</g>
	<g style="clip-path:url(#SVGID_00000105424771684176594010000015303358188107728031_);">
		<text transform="matrix(0.7071 -0.7071 0.7071 0.7071 356.3224 254.0384)" class="st14 st9 st21"> </text>
	</g>
	<g style="clip-path:url(#SVGID_00000105424771684176594010000015303358188107728031_);">
		<text transform="matrix(0.7071 -0.7071 0.7071 0.7071 324.5008 297.3156)"><tspan x="0" y="0" class="st14 st9 st21"> Mai</tspan><tspan x="13.3" y="0" class="st14 st9 st21">n</tspan><tspan x="17.3" y="0" class="st14 st9 st21">tenan</tspan><tspan x="36.1" y="0" class="st14 st9 st21">c</tspan><tspan x="40" y="0" class="st14 st9 st21">e</tspan></text>
	</g>
	
		<polyline style="clip-path:url(#SVGID_00000105424771684176594010000015303358188107728031_);fill:none;stroke:#FFFFFF;stroke-width:0.675;" points="
		325.6,369 327.8,371.1 330,369 	"/>
	
		<line style="clip-path:url(#SVGID_00000105424771684176594010000015303358188107728031_);fill:none;stroke:#8B8F91;stroke-width:0.337;" x1="64.5" y1="316.1" x2="365.6" y2="316.1"/>
	
		<polyline style="clip-path:url(#SVGID_00000105424771684176594010000015303358188107728031_);fill:none;stroke:#8B8F91;stroke-width:0.337;" points="
		326.2,316.1 326.2,301.5 365.2,262.4 	"/>
	<g style="clip-path:url(#SVGID_00000105424771684176594010000015303358188107728031_);">
		<defs>
			<rect id="SVGID_00000154384430114393494760000015465948668902623144_" width="419.5" height="595.3"/>
		</defs>
		<clipPath id="SVGID_00000052077997411704084830000012733537902799165335_">
			<use xlink:href="#SVGID_00000154384430114393494760000015465948668902623144_"  style="overflow:visible;"/>
		</clipPath>
		<path style="clip-path:url(#SVGID_00000052077997411704084830000012733537902799165335_);fill:#8B8F91;" d="M326.2,316.7
			c0.4,0,0.7-0.3,0.7-0.7c0-0.4-0.3-0.7-0.7-0.7s-0.7,0.3-0.7,0.7C325.5,316.4,325.8,316.7,326.2,316.7"/>
	</g>
	
		<polyline style="clip-path:url(#SVGID_00000105424771684176594010000015303358188107728031_);fill:none;stroke:#8B8F91;stroke-width:0.337;" points="
		102.3,316.1 102.3,301.5 127.6,276.1 	"/>
	<g style="clip-path:url(#SVGID_00000105424771684176594010000015303358188107728031_);">
		<defs>
			<rect id="SVGID_00000080192757987938453940000018400403690090345119_" width="419.5" height="595.3"/>
		</defs>
		<clipPath id="SVGID_00000124884334307493756000000011087243534381274551_">
			<use xlink:href="#SVGID_00000080192757987938453940000018400403690090345119_"  style="overflow:visible;"/>
		</clipPath>
		<path style="clip-path:url(#SVGID_00000124884334307493756000000011087243534381274551_);fill:#8B8F91;" d="M102.3,316.7
			c0.4,0,0.7-0.3,0.7-0.7c0-0.4-0.3-0.7-0.7-0.7s-0.7,0.3-0.7,0.7C101.6,316.4,101.9,316.7,102.3,316.7"/>
	</g>
	
		<polyline style="clip-path:url(#SVGID_00000105424771684176594010000015303358188107728031_);fill:none;stroke:#8B8F91;stroke-width:0.337;" points="
		147.1,316.1 147.1,301.5 182.7,265.9 	"/>
	<g style="clip-path:url(#SVGID_00000105424771684176594010000015303358188107728031_);">
		<defs>
			<rect id="SVGID_00000035516947869202414000000002373000118128911756_" width="419.5" height="595.3"/>
		</defs>
		<clipPath id="SVGID_00000147193368472141178970000009054561250742287756_">
			<use xlink:href="#SVGID_00000035516947869202414000000002373000118128911756_"  style="overflow:visible;"/>
		</clipPath>
		<path style="clip-path:url(#SVGID_00000147193368472141178970000009054561250742287756_);fill:#8B8F91;" d="M147.1,316.7
			c0.4,0,0.7-0.3,0.7-0.7c0-0.4-0.3-0.7-0.7-0.7s-0.7,0.3-0.7,0.7C146.4,316.4,146.7,316.7,147.1,316.7"/>
	</g>
	
		<polyline style="clip-path:url(#SVGID_00000105424771684176594010000015303358188107728031_);fill:none;stroke:#8B8F91;stroke-width:0.337;" points="
		191.8,316.1 191.8,301.5 233.2,260.1 	"/>
	<g style="clip-path:url(#SVGID_00000105424771684176594010000015303358188107728031_);">
		<defs>
			<rect id="SVGID_00000124121521968308895140000006164417410357036215_" width="419.5" height="595.3"/>
		</defs>
		<clipPath id="SVGID_00000005965289728161978170000001479929043204792973_">
			<use xlink:href="#SVGID_00000124121521968308895140000006164417410357036215_"  style="overflow:visible;"/>
		</clipPath>
		<path style="clip-path:url(#SVGID_00000005965289728161978170000001479929043204792973_);fill:#8B8F91;" d="M191.8,316.7
			c0.4,0,0.7-0.3,0.7-0.7c0-0.4-0.3-0.7-0.7-0.7s-0.7,0.3-0.7,0.7C191.2,316.4,191.5,316.7,191.8,316.7"/>
	</g>
	
		<polyline style="clip-path:url(#SVGID_00000105424771684176594010000015303358188107728031_);fill:none;stroke:#8B8F91;stroke-width:0.337;" points="
		236.6,316.1 236.6,301.5 273.1,265 	"/>
	<g style="clip-path:url(#SVGID_00000105424771684176594010000015303358188107728031_);">
		<defs>
			<rect id="SVGID_00000078036709110857870980000016969354908582676913_" width="419.5" height="595.3"/>
		</defs>
		<clipPath id="SVGID_00000116226132319440689570000013502550112236754622_">
			<use xlink:href="#SVGID_00000078036709110857870980000016969354908582676913_"  style="overflow:visible;"/>
		</clipPath>
		<path style="clip-path:url(#SVGID_00000116226132319440689570000013502550112236754622_);fill:#8B8F91;" d="M236.6,316.7
			c0.4,0,0.7-0.3,0.7-0.7c0-0.4-0.3-0.7-0.7-0.7s-0.7,0.3-0.7,0.7C235.9,316.4,236.2,316.7,236.6,316.7"/>
	</g>
	
		<polyline style="clip-path:url(#SVGID_00000105424771684176594010000015303358188107728031_);fill:none;stroke:#8B8F91;stroke-width:0.337;" points="
		281.4,316.1 281.4,301.5 316.9,266 	"/>
	<g style="clip-path:url(#SVGID_00000105424771684176594010000015303358188107728031_);">
		<defs>
			<rect id="SVGID_00000070107657116598957350000006350804023880673671_" width="419.5" height="595.3"/>
		</defs>
		<clipPath id="SVGID_00000085942894323769622300000004527777554586526648_">
			<use xlink:href="#SVGID_00000070107657116598957350000006350804023880673671_"  style="overflow:visible;"/>
		</clipPath>
		<path style="clip-path:url(#SVGID_00000085942894323769622300000004527777554586526648_);fill:#8B8F91;" d="M281.4,316.7
			c0.4,0,0.7-0.3,0.7-0.7c0-0.4-0.3-0.7-0.7-0.7s-0.7,0.3-0.7,0.7C280.7,316.4,281,316.7,281.4,316.7"/>
		<path style="clip-path:url(#SVGID_00000085942894323769622300000004527777554586526648_);fill:#8B8F91;" d="M101.6,321l4.8,2.2
			l-4.2,1.8l-0.3,0.1l-0.3,0.1l-0.1,0.1l-0.1-0.1l-0.3-0.1l-0.3-0.1l-4.2-1.8L101.6,321z M102.3,329.2l-0.3,0.1l-0.3,0.1l-0.1,0.1
			l-0.1-0.1l-0.3-0.1l-0.3-0.1l-4.2-1.8l2.5-1.1l2.3,1c0,0,0.1,0,0.1,0c0,0,0.1,0,0.1,0l2.3-1l2.5,1.1L102.3,329.2z M101.6,333.7
			l-4.8-2.1l2.7-1.2l2,0.9c0,0,0.1,0,0.1,0c0,0,0.1,0,0.1,0l2-0.9l2.7,1.2L101.6,333.7z M107.2,323.1
			C107.2,323.1,107.2,323.1,107.2,323.1C107.2,323.1,107.2,323.1,107.2,323.1C107.2,323.1,107.2,323.1,107.2,323.1
			C107.1,323,107.1,323,107.2,323.1c-0.1-0.1-0.1-0.1-0.1-0.1c0,0,0,0,0,0c0,0,0,0,0,0c0,0,0,0,0,0l-5.4-2.4c-0.1,0-0.1,0-0.2,0
			l-5.4,2.4c0,0,0,0,0,0c0,0,0,0,0,0c0,0,0,0,0,0c0,0,0,0,0,0c0,0,0,0,0,0c0,0,0,0,0,0c0,0,0,0,0,0c0,0,0,0,0,0c0,0,0,0,0,0.1v1.5
			c0,0.1,0.1,0.2,0.1,0.2l2.6,1.1l-2.6,1.1c0,0,0,0,0,0c0,0,0,0,0,0c0,0,0,0,0,0c0,0,0,0,0,0c0,0,0,0,0,0c0,0,0,0,0,0c0,0,0,0,0,0
			c0,0,0,0,0,0c0,0,0,0,0,0.1v1.3c0,0.1,0.1,0.2,0.1,0.2l2.8,1.2l-2.8,1.2c0,0,0,0,0,0c0,0,0,0,0,0c0,0,0,0,0,0c0,0,0,0,0,0
			c0,0,0,0,0,0c0,0,0,0,0,0c0,0,0,0,0,0c0,0,0,0,0,0c0,0,0,0,0,0.1v1.3c0,0.1,0.1,0.2,0.1,0.2l5.4,2.4c0,0,0.1,0,0.1,0
			c0,0,0.1,0,0.1,0l5.4-2.4c0.1,0,0.1-0.1,0.1-0.2v-1.3c0,0,0,0,0-0.1c0,0,0,0,0,0c0,0,0,0,0,0c0,0,0,0,0,0c0,0,0,0,0,0c0,0,0,0,0,0
			c0,0,0,0,0,0c0,0,0,0,0,0c0,0,0,0,0,0l-2.8-1.2l2.8-1.2c0.1,0,0.1-0.1,0.1-0.2v-1.3c0,0,0,0,0-0.1c0,0,0,0,0,0c0,0,0,0,0,0
			c0,0,0,0,0,0c0,0,0,0,0,0c0,0,0,0,0,0c0,0,0,0,0,0c0,0,0,0,0,0c0,0,0,0,0,0l-2.6-1.1l2.5-1.1c0.1,0,0.1-0.1,0.1-0.2L107.2,323.1
			C107.2,323.2,107.2,323.1,107.2,323.1"/>
		<path style="clip-path:url(#SVGID_00000085942894323769622300000004527777554586526648_);fill:#8B8F91;" d="M154.5,321l4.8,2.2
			l-4.2,1.8l-0.3,0.1l-0.3,0.1l-0.1,0.1l-0.1-0.1l-0.3-0.1l-0.3-0.1l-4.2-1.8L154.5,321z M155.2,329.2l-0.3,0.1l-0.3,0.1l-0.1,0.1
			l-0.1-0.1l-0.3-0.1l-0.3-0.1l-4.2-1.8l2.5-1.1l2.3,1c0,0,0.1,0,0.1,0s0.1,0,0.1,0l2.3-1l2.5,1.1L155.2,329.2z M154.5,333.7
			l-4.8-2.1l2.7-1.2l2,0.9c0,0,0.1,0,0.1,0s0.1,0,0.1,0l2-0.9l2.7,1.2L154.5,333.7z M160.1,323.1
			C160.1,323.1,160.1,323.1,160.1,323.1C160,323.1,160,323.1,160.1,323.1C160,323.1,160,323.1,160.1,323.1
			C160,323,160,323,160.1,323.1C160,323,160,323,160,323c0,0,0,0,0,0c0,0,0,0,0,0c0,0,0,0,0,0l-5.4-2.4c-0.1,0-0.1,0-0.2,0L149,323
			c0,0,0,0,0,0c0,0,0,0,0,0c0,0,0,0,0,0c0,0,0,0,0,0c0,0,0,0,0,0c0,0,0,0,0,0c0,0,0,0,0,0c0,0,0,0,0,0c0,0,0,0,0,0.1v1.5
			c0,0.1,0.1,0.2,0.1,0.2l2.6,1.1l-2.6,1.1c0,0,0,0,0,0c0,0,0,0,0,0c0,0,0,0,0,0c0,0,0,0,0,0c0,0,0,0,0,0c0,0,0,0,0,0c0,0,0,0,0,0
			c0,0,0,0,0,0c0,0,0,0,0,0.1v1.3c0,0.1,0.1,0.2,0.1,0.2l2.8,1.2l-2.8,1.2c0,0,0,0,0,0c0,0,0,0,0,0c0,0,0,0,0,0c0,0,0,0,0,0
			c0,0,0,0,0,0c0,0,0,0,0,0c0,0,0,0,0,0c0,0,0,0,0,0c0,0,0,0,0,0.1v1.3c0,0.1,0.1,0.2,0.1,0.2l5.4,2.4c0,0,0.1,0,0.1,0s0.1,0,0.1,0
			l5.4-2.4c0.1,0,0.1-0.1,0.1-0.2v-1.3c0,0,0,0,0-0.1c0,0,0,0,0,0c0,0,0,0,0,0c0,0,0,0,0,0c0,0,0,0,0,0c0,0,0,0,0,0c0,0,0,0,0,0
			c0,0,0,0,0,0c0,0,0,0,0,0l-2.8-1.2l2.8-1.2c0.1,0,0.1-0.1,0.1-0.2v-1.3c0,0,0,0,0-0.1c0,0,0,0,0,0c0,0,0,0,0,0c0,0,0,0,0,0
			c0,0,0,0,0,0c0,0,0,0,0,0c0,0,0,0,0,0c0,0,0,0,0,0c0,0,0,0,0,0l-2.6-1.1l2.6-1.1c0.1,0,0.1-0.1,0.1-0.2L160.1,323.1
			C160.1,323.2,160.1,323.1,160.1,323.1"/>
		<path style="clip-path:url(#SVGID_00000085942894323769622300000004527777554586526648_);fill:#8B8F91;" d="M191.8,331.3l-0.3,0.1
			l-0.3,0.1l-0.1,0.1l-0.1-0.1l-0.3-0.1l-0.3-0.1l-4.2-1.8l2.5-1.1l2.3,1c0,0,0.1,0,0.1,0c0,0,0.1,0,0.1,0l2.3-1l2.5,1.1
			L191.8,331.3z M191.8,327.1l-0.3,0.1l-0.3,0.1l-0.1,0.1l-0.1-0.1l-0.3-0.1l-0.3-0.1l-4.2-1.8l4.8-2.2l4.8,2.2L191.8,327.1z
			 M193.8,332.2l2.8-1.2c0.1,0,0.1-0.1,0.1-0.2v-1.3c0,0,0,0,0-0.1c0,0,0,0,0,0c0,0,0,0,0,0c0,0,0,0,0,0c0,0,0,0,0,0c0,0,0,0,0,0
			c0,0,0,0,0,0c0,0,0,0,0,0c0,0,0,0,0,0l-2.6-1.1l2.6-1.1c0.1,0,0.1-0.1,0.1-0.2v-1.5c0,0,0,0,0-0.1c0,0,0,0,0,0c0,0,0,0,0,0
			c0,0,0,0,0,0c0,0,0,0,0,0c0,0,0,0,0,0c0,0,0,0,0,0c0,0,0,0,0,0c0,0,0,0,0,0l-5.4-2.4c-0.1,0-0.1,0-0.2,0l-5.4,2.4c0,0,0,0,0,0
			c0,0,0,0,0,0c0,0,0,0,0,0c0,0,0,0,0,0c0,0,0,0,0,0c0,0,0,0,0,0c0,0,0,0,0,0c0,0,0,0,0,0c0,0,0,0,0,0.1v1.5c0,0.1,0.1,0.2,0.1,0.2
			l2.6,1.1l-2.6,1.1c0,0,0,0,0,0c0,0,0,0,0,0c0,0,0,0,0,0c0,0,0,0,0,0c0,0,0,0,0,0c0,0,0,0,0,0c0,0,0,0,0,0c0,0,0,0,0,0
			c0,0,0,0,0,0.1v1.3c0,0.1,0.1,0.2,0.1,0.2l2.8,1.2l0.5,0.2l2,0.9c0,0,0.1,0,0.1,0c0,0,0.1,0,0.1,0l2-0.9L193.8,332.2z"/>
		<path style="clip-path:url(#SVGID_00000085942894323769622300000004527777554586526648_);fill:#8B8F91;" d="M236.4,321l4.8,2.2
			l-4.2,1.8l-0.3,0.1l-0.3,0.1l-0.1,0.1l-0.1-0.1l-0.3-0.1l-0.3-0.1l-4.2-1.8L236.4,321z M237.1,329.2l-0.3,0.1l-0.3,0.1l-0.1,0.1
			l-0.1-0.1l-0.3-0.1l-0.3-0.1l-4.2-1.8l2.5-1.1l2.3,1c0,0,0.1,0,0.1,0c0,0,0.1,0,0.1,0l2.3-1l2.5,1.1L237.1,329.2z M236.4,333.7
			l-4.8-2.1l2.7-1.2l2,0.9c0,0,0.1,0,0.1,0c0,0,0.1,0,0.1,0l2-0.9l2.7,1.2L236.4,333.7z M242,323.1C242,323.1,242,323.1,242,323.1
			C242,323.1,241.9,323.1,242,323.1C241.9,323.1,241.9,323.1,242,323.1C241.9,323,241.9,323,242,323.1c-0.1-0.1-0.1-0.1-0.1-0.1
			c0,0,0,0,0,0c0,0,0,0,0,0c0,0,0,0,0,0l-5.4-2.4c-0.1,0-0.1,0-0.2,0l-5.4,2.4c0,0,0,0,0,0c0,0,0,0,0,0c0,0,0,0,0,0c0,0,0,0,0,0
			c0,0,0,0,0,0c0,0,0,0,0,0c0,0,0,0,0,0c0,0,0,0,0,0c0,0,0,0,0,0.1v1.5c0,0.1,0.1,0.2,0.1,0.2l2.5,1.1l-2.6,1.1c0,0,0,0,0,0
			c0,0,0,0,0,0c0,0,0,0,0,0c0,0,0,0,0,0c0,0,0,0,0,0c0,0,0,0,0,0c0,0,0,0,0,0c0,0,0,0,0,0c0,0,0,0,0,0.1v1.3c0,0.1,0.1,0.2,0.1,0.2
			l2.8,1.2l-2.8,1.2c0,0,0,0,0,0c0,0,0,0,0,0c0,0,0,0,0,0c0,0,0,0,0,0c0,0,0,0,0,0c0,0,0,0,0,0c0,0,0,0,0,0c0,0,0,0,0,0
			c0,0,0,0,0,0.1v1.3c0,0.1,0.1,0.2,0.1,0.2l5.4,2.4c0,0,0.1,0,0.1,0c0,0,0.1,0,0.1,0l5.4-2.4c0.1,0,0.1-0.1,0.1-0.2v-1.3
			c0,0,0,0,0-0.1c0,0,0,0,0,0c0,0,0,0,0,0c0,0,0,0,0,0c0,0,0,0,0,0c0,0,0,0,0,0c0,0,0,0,0,0c0,0,0,0,0,0c0,0,0,0,0,0l-2.8-1.2
			l2.8-1.2c0.1,0,0.1-0.1,0.1-0.2v-1.3c0,0,0,0,0-0.1c0,0,0,0,0,0c0,0,0,0,0,0c0,0,0,0,0,0c0,0,0,0,0,0c0,0,0,0,0,0c0,0,0,0,0,0
			c0,0,0,0,0,0c0,0,0,0,0,0l-2.6-1.1l2.6-1.1c0.1,0,0.1-0.1,0.1-0.2L242,323.1C242,323.2,242,323.1,242,323.1"/>
		<path style="clip-path:url(#SVGID_00000085942894323769622300000004527777554586526648_);fill:#8B8F91;" d="M335.1,321l4.8,2.2
			l-4.2,1.8l-0.3,0.1l-0.3,0.1l-0.1,0.1l-0.1-0.1l-0.3-0.1l-0.3-0.1l-4.2-1.8L335.1,321z M335.7,329.2l-0.3,0.1l-0.3,0.1l-0.1,0.1
			l-0.1-0.1l-0.3-0.1l-0.3-0.1l-4.2-1.8l2.5-1.1l2.3,1c0,0,0.1,0,0.1,0c0,0,0.1,0,0.1,0l2.3-1l2.5,1.1L335.7,329.2z M335.1,333.7
			l-4.8-2.1l2.7-1.2l2,0.9c0,0,0.1,0,0.1,0c0,0,0.1,0,0.1,0l2-0.9l2.7,1.2L335.1,333.7z M340.7,323.1
			C340.6,323.1,340.6,323.1,340.7,323.1C340.6,323.1,340.6,323.1,340.7,323.1C340.6,323.1,340.6,323.1,340.7,323.1
			C340.6,323,340.6,323,340.7,323.1c-0.1-0.1-0.1-0.1-0.1-0.1c0,0,0,0,0,0c0,0,0,0,0,0c0,0,0,0,0,0l-5.4-2.4c-0.1,0-0.1,0-0.2,0
			l-5.4,2.4c0,0,0,0,0,0c0,0,0,0,0,0c0,0,0,0,0,0c0,0,0,0,0,0c0,0,0,0,0,0c0,0,0,0,0,0c0,0,0,0,0,0c0,0,0,0,0,0c0,0,0,0,0,0.1v1.5
			c0,0.1,0.1,0.2,0.1,0.2l2.6,1.1l-2.6,1.1c0,0,0,0,0,0c0,0,0,0,0,0c0,0,0,0,0,0c0,0,0,0,0,0c0,0,0,0,0,0c0,0,0,0,0,0c0,0,0,0,0,0
			c0,0,0,0,0,0c0,0,0,0,0,0.1v1.3c0,0.1,0.1,0.2,0.1,0.2l2.8,1.2l-2.8,1.2c0,0,0,0,0,0c0,0,0,0,0,0c0,0,0,0,0,0c0,0,0,0,0,0
			c0,0,0,0,0,0c0,0,0,0,0,0c0,0,0,0,0,0c0,0,0,0,0,0c0,0,0,0,0,0.1v1.3c0,0.1,0.1,0.2,0.1,0.2l5.4,2.4c0,0,0.1,0,0.1,0
			c0,0,0.1,0,0.1,0l5.4-2.4c0.1,0,0.1-0.1,0.1-0.2v-1.3c0,0,0,0,0-0.1c0,0,0,0,0,0c0,0,0,0,0,0c0,0,0,0,0,0c0,0,0,0,0,0c0,0,0,0,0,0
			c0,0,0,0,0,0c0,0,0,0,0,0c0,0,0,0,0,0l-2.8-1.2l2.8-1.2c0.1,0,0.1-0.1,0.1-0.2v-1.3c0,0,0,0,0-0.1c0,0,0,0,0,0c0,0,0,0,0,0
			c0,0,0,0,0,0c0,0,0,0,0,0c0,0,0,0,0,0c0,0,0,0,0,0c0,0,0,0,0,0c0,0,0,0,0,0L338,326l2.5-1.1c0.1,0,0.1-0.1,0.1-0.2L340.7,323.1
			C340.7,323.2,340.7,323.1,340.7,323.1"/>
	</g>
	<path style="clip-path:url(#SVGID_00000105424771684176594010000015303358188107728031_);fill:#8B8F91;" d="M111.4,270.2v1.2
		l-0.9,0.3v-1.9L111.4,270.2z M109.9,272.8l-5.1,1.5v-6.9l5.1,1.5V272.8z M104.2,275.1h-0.9v-8.5h0.9V275.1z M110.4,268.5l-5.7-1.7
		V266h-2v9.6h2v-0.8l5.7-1.7v-0.8l1.5-0.5v-2l-1.5-0.5V268.5z"/>
	<g style="clip-path:url(#SVGID_00000105424771684176594010000015303358188107728031_);">
		<defs>
			<rect id="SVGID_00000105402655371304847680000005585939531485585322_" width="419.5" height="595.3"/>
		</defs>
		<clipPath id="SVGID_00000020379005356911324370000001645222087523739542_">
			<use xlink:href="#SVGID_00000105402655371304847680000005585939531485585322_"  style="overflow:visible;"/>
		</clipPath>
		<path style="clip-path:url(#SVGID_00000020379005356911324370000001645222087523739542_);fill:#8B8F91;" d="M97.5,265.4l4.2,1.8
			c0,0,0.1,0,0.1,0c0.1,0,0.2-0.1,0.2-0.2c0.1-0.1,0-0.3-0.1-0.4l-4.2-1.8c-0.1-0.1-0.3,0-0.4,0.1C97.3,265.2,97.4,265.3,97.5,265.4
			"/>
		<path style="clip-path:url(#SVGID_00000020379005356911324370000001645222087523739542_);fill:#8B8F91;" d="M102,269.4l-4.5-0.9
			c-0.1,0-0.3,0.1-0.3,0.2s0.1,0.3,0.2,0.3l4.5,0.9c0,0,0,0,0.1,0c0.1,0,0.2-0.1,0.3-0.2C102.2,269.6,102.1,269.5,102,269.4"/>
		<path style="clip-path:url(#SVGID_00000020379005356911324370000001645222087523739542_);fill:#8B8F91;" d="M101.9,271.7l-4.5,0.9
			c-0.1,0-0.2,0.2-0.2,0.3c0,0.1,0.1,0.2,0.3,0.2c0,0,0,0,0.1,0l4.5-0.9c0.1,0,0.2-0.2,0.2-0.3S102,271.7,101.9,271.7"/>
		<path style="clip-path:url(#SVGID_00000020379005356911324370000001645222087523739542_);fill:#8B8F91;" d="M101.7,274.5l-4.2,1.8
			c-0.1,0.1-0.2,0.2-0.1,0.4c0,0.1,0.1,0.2,0.2,0.2c0,0,0.1,0,0.1,0l4.2-1.8c0.1-0.1,0.2-0.2,0.1-0.4
			C102,274.5,101.8,274.4,101.7,274.5"/>
		<path style="clip-path:url(#SVGID_00000020379005356911324370000001645222087523739542_);fill:#8B8F91;" d="M112.6,271.2h2.2
			c0.1,0,0.3-0.3,0.3-0.7c0-0.4-0.1-0.7-0.3-0.7h-2.2c-0.1,0-0.3,0.3-0.3,0.7C112.3,270.9,112.4,271.2,112.6,271.2"/>
		<path style="clip-path:url(#SVGID_00000020379005356911324370000001645222087523739542_);fill:#8B8F91;" d="M114.8,271.2h-2.2
			c-0.1,0-0.3,0.3-0.3,0.7c0,0.4,0.1,0.7,0.3,0.7h2.2c0.1,0,0.3-0.3,0.3-0.7C115.1,271.5,115,271.2,114.8,271.2"/>
	</g>
	<polygon style="clip-path:url(#SVGID_00000105424771684176594010000015303358188107728031_);fill:#8B8F91;" points="195.6,264.9 
		195.1,264.9 195.1,263 197,263 197,263.5 195.6,263.5 	"/>
	<polygon style="clip-path:url(#SVGID_00000105424771684176594010000015303358188107728031_);fill:#8B8F91;" points="201.4,269.2 
		199.5,269.2 199.5,268.7 200.9,268.7 200.9,267.3 201.4,267.3 	"/>
	<polygon style="clip-path:url(#SVGID_00000105424771684176594010000015303358188107728031_);fill:#8B8F91;" points="201.4,264.9 
		200.9,264.9 200.9,263.5 199.5,263.5 199.5,263 201.4,263 	"/>
	<polygon style="clip-path:url(#SVGID_00000105424771684176594010000015303358188107728031_);fill:#8B8F91;" points="197,269.2 
		195.1,269.2 195.1,267.3 195.6,267.3 195.6,268.7 197,268.7 	"/>
	<polygon style="clip-path:url(#SVGID_00000105424771684176594010000015303358188107728031_);fill:#8B8F91;" points="206.4,272.9 
		207,270 209.9,269.4 203.8,266.8 	"/>
	<g style="clip-path:url(#SVGID_00000105424771684176594010000015303358188107728031_);">
		<defs>
			<rect id="SVGID_00000174576869578126447570000012596194353253164713_" width="419.5" height="595.3"/>
		</defs>
		<clipPath id="SVGID_00000039108580054919565740000006326297886297177477_">
			<use xlink:href="#SVGID_00000174576869578126447570000012596194353253164713_"  style="overflow:visible;"/>
		</clipPath>
		<path style="clip-path:url(#SVGID_00000039108580054919565740000006326297886297177477_);fill:#8B8F91;" d="M246.3,265.4v-0.8h0.5
			c0,0,0,0,0,0c0.4,0,0.8-0.4,0.8-0.8v-2c0-0.3,0.2-0.5,0.5-0.5h0.6c0.1,0,0.2-0.1,0.2-0.2c0-0.1-0.1-0.2-0.2-0.2H248
			c-0.4,0-0.8,0.4-0.8,0.8v2c0,0.3-0.2,0.5-0.5,0.5h-0.5c0-0.4-0.4-0.8-0.8-0.8V263c0-0.1-0.1-0.2-0.2-0.2c-0.1,0-0.2,0.1-0.2,0.2
			v0.5h-0.8V263c0-0.1-0.1-0.2-0.2-0.2c-0.1,0-0.2,0.1-0.2,0.2v0.5h-0.8V263c0-0.1-0.1-0.2-0.2-0.2c-0.1,0-0.2,0.1-0.2,0.2v0.5
			c-0.4,0-0.8,0.4-0.8,0.8h-0.5c-0.3,0-0.5-0.2-0.5-0.5v-2c0-0.4-0.4-0.8-0.8-0.8h-0.6c-0.1,0-0.2,0.1-0.2,0.2
			c0,0.1,0.1,0.2,0.2,0.2h0.6c0.3,0,0.5,0.2,0.5,0.5v2c0,0.4,0.4,0.8,0.8,0.8h0.5v0.8h-2.4c-0.1,0-0.2,0.1-0.2,0.2
			c0,0.1,0.1,0.2,0.2,0.2h2.4v0.8h-0.5c-0.4,0-0.8,0.4-0.8,0.8v2c0,0.3-0.2,0.5-0.5,0.5h-0.6c-0.1,0-0.2,0.1-0.2,0.2
			c0,0.1,0.1,0.2,0.2,0.2h0.6c0.4,0,0.8-0.4,0.8-0.8v-2c0-0.3,0.2-0.5,0.5-0.5h0.5c0,0.4,0.4,0.8,0.8,0.8v0.5c0,0.1,0.1,0.2,0.2,0.2
			c0.1,0,0.2-0.1,0.2-0.2v-0.5h0.8v0.5c0,0.1,0.1,0.2,0.2,0.2c0.1,0,0.2-0.1,0.2-0.2v-0.5h0.8v0.5c0,0.1,0.1,0.2,0.2,0.2
			c0.1,0,0.2-0.1,0.2-0.2v-0.5c0.4,0,0.8-0.4,0.8-0.8h0.5c0.3,0,0.5,0.2,0.5,0.5v2c0,0.4,0.4,0.8,0.8,0.8h0.6c0.1,0,0.2-0.1,0.2-0.2
			c0-0.1-0.1-0.2-0.2-0.2H248c-0.3,0-0.5-0.2-0.5-0.5v-2c0-0.4-0.3-0.8-0.8-0.8c0,0,0,0,0,0h0h-0.5v-0.8h2.4c0.1,0,0.2-0.1,0.2-0.2
			c0-0.1-0.1-0.2-0.2-0.2H246.3z M245.9,266.8c0,0.2-0.1,0.4-0.3,0.4v0c-0.1,0-0.1,0-0.2,0h-2.6c-0.3,0-0.5-0.2-0.5-0.5v-2.5
			c0-0.3,0.2-0.5,0.5-0.5h2.6c0.1,0,0.1,0,0.2,0v0c0.2,0.1,0.3,0.2,0.3,0.4V266.8z M245.1,266.3v-1.6c0-0.1-0.1-0.2-0.2-0.2h-1.6
			c-0.1,0-0.2,0.1-0.2,0.2v1.6c0,0.1,0.1,0.2,0.2,0.2h1.6C245.1,266.4,245.1,266.4,245.1,266.3 M239.1,270
			C239.1,269.9,239.1,269.9,239.1,270c0-0.1,0-0.1,0-0.1l-0.6-1.2c0-0.1-0.1-0.1-0.1-0.1c-0.1,0-0.1,0-0.1,0.1l-0.3,0.6l-0.3-0.6
			c0-0.1-0.1-0.1-0.1-0.1c-0.1,0-0.1,0-0.1,0.1l-0.3,0.6l-0.3-0.6c0-0.1-0.1-0.1-0.1-0.1c-0.1,0-0.1,0-0.1,0.1l-0.6,1.2
			c0,0,0,0.1,0,0.1l0.6,1.2c0,0.1,0.1,0.1,0.1,0.1c0.1,0,0.1,0,0.1-0.1l0.3-0.6l0.3,0.6c0,0.1,0.1,0.1,0.1,0.1c0.1,0,0.1,0,0.1-0.1
			l0.3-0.6l0.3,0.6c0,0.1,0.1,0.1,0.1,0.1c0.1,0,0.1,0,0.1-0.1L239.1,270z M237.1,269.9L237,270l-0.1,0.2l-0.3,0.5l-0.4-0.8l0.4-0.8
			l0.3,0.5l0.1,0.2L237.1,269.9z M237.9,269.9l-0.1,0.1l-0.1,0.2l-0.3,0.5l-0.3-0.5l0.1-0.2c0,0,0,0,0-0.1s0,0,0-0.1l-0.1-0.2
			l0.3-0.5l0.3,0.5l0.1,0.2L237.9,269.9z M238.8,269.9l-0.4,0.8l-0.3-0.5l0.1-0.2c0,0,0,0,0-0.1s0,0,0-0.1l-0.1-0.2l0.3-0.5
			L238.8,269.9z M239.1,265.6C239.1,265.6,239.1,265.6,239.1,265.6c0-0.1,0-0.1,0-0.1l-0.6-1.2c0-0.1-0.1-0.1-0.1-0.1
			c-0.1,0-0.1,0-0.1,0.1l-0.3,0.6l-0.3-0.6c0-0.1-0.1-0.1-0.1-0.1c-0.1,0-0.1,0-0.1,0.1l-0.3,0.6l-0.3-0.6c0-0.1-0.1-0.1-0.1-0.1
			c-0.1,0-0.1,0-0.1,0.1l-0.6,1.2c0,0,0,0.1,0,0.1l0.6,1.2c0,0.1,0.1,0.1,0.1,0.1c0.1,0,0.1,0,0.1-0.1l0.3-0.6l0.3,0.6
			c0,0.1,0.1,0.1,0.1,0.1c0.1,0,0.1,0,0.1-0.1l0.3-0.6l0.3,0.6c0,0.1,0.1,0.1,0.1,0.1c0.1,0,0.1,0,0.1-0.1L239.1,265.6z
			 M237.1,265.5l-0.1,0.1l-0.1,0.2l-0.3,0.5l-0.4-0.8l0.4-0.8l0.3,0.5l0.1,0.2L237.1,265.5z M237.9,265.5l-0.1,0.1l-0.1,0.2
			l-0.3,0.5l-0.3-0.5l0.1-0.2c0,0,0,0,0-0.1c0,0,0,0,0-0.1l-0.1-0.2l0.3-0.5l0.3,0.5l0.1,0.2L237.9,265.5z M238.8,265.5l-0.4,0.8
			l-0.3-0.5l0.1-0.2c0,0,0,0,0-0.1c0,0,0,0,0-0.1l-0.1-0.2l0.3-0.5L238.8,265.5z M239.1,261.2C239.1,261.2,239.1,261.1,239.1,261.2
			c0-0.1,0-0.1,0-0.1l-0.6-1.2c0-0.1-0.1-0.1-0.1-0.1c-0.1,0-0.1,0-0.1,0.1l-0.3,0.6l-0.3-0.6c0-0.1-0.1-0.1-0.1-0.1
			c-0.1,0-0.1,0-0.1,0.1l-0.3,0.6l-0.3-0.6c0-0.1-0.1-0.1-0.1-0.1c-0.1,0-0.1,0-0.1,0.1l-0.6,1.2c0,0,0,0.1,0,0.1l0.6,1.2
			c0,0.1,0.1,0.1,0.1,0.1c0.1,0,0.1,0,0.1-0.1l0.3-0.6l0.3,0.6c0,0.1,0.1,0.1,0.1,0.1c0.1,0,0.1,0,0.1-0.1l0.3-0.6l0.3,0.6
			c0,0.1,0.1,0.1,0.1,0.1c0.1,0,0.1,0,0.1-0.1L239.1,261.2z M237.1,261.1l-0.1,0.1l-0.1,0.2l-0.3,0.5l-0.4-0.8l0.4-0.8l0.3,0.5
			l0.1,0.2L237.1,261.1z M237.9,261.1l-0.1,0.1l-0.1,0.2l-0.3,0.5l-0.3-0.5l0.1-0.2c0,0,0,0,0-0.1s0,0,0-0.1l-0.1-0.2l0.3-0.5
			l0.3,0.5l0.1,0.2L237.9,261.1z M238.8,261.1l-0.4,0.8l-0.3-0.5l0.1-0.2c0,0,0,0,0-0.1s0,0,0-0.1l-0.1-0.2l0.3-0.5L238.8,261.1z"/>
		<path style="clip-path:url(#SVGID_00000039108580054919565740000006326297886297177477_);fill:#8B8F91;" d="M250.4,260.3
			c-0.5,0-1,0.4-1,1c0,0.5,0.4,1,1,1s1-0.4,1-1C251.4,260.8,251,260.3,250.4,260.3 M250.4,262.7c-0.8,0-1.4-0.6-1.4-1.4
			c0-0.8,0.6-1.4,1.4-1.4c0.8,0,1.4,0.6,1.4,1.4C251.8,262.1,251.2,262.7,250.4,262.7"/>
		<path style="clip-path:url(#SVGID_00000039108580054919565740000006326297886297177477_);fill:#8B8F91;" d="M251.8,260.3
			c-0.5,0-1,0.4-1,1c0,0.5,0.4,1,1,1s1-0.4,1-1C252.8,260.8,252.4,260.3,251.8,260.3 M251.8,262.7c-0.8,0-1.4-0.6-1.4-1.4
			c0-0.8,0.6-1.4,1.4-1.4s1.4,0.6,1.4,1.4C253.2,262.1,252.6,262.7,251.8,262.7"/>
		<path style="clip-path:url(#SVGID_00000039108580054919565740000006326297886297177477_);fill:#8B8F91;" d="M253.4,260.3
			c-0.5,0-1,0.4-1,1c0,0.5,0.4,1,1,1s1-0.4,1-1C254.4,260.8,253.9,260.3,253.4,260.3 M253.4,262.7c-0.8,0-1.4-0.6-1.4-1.4
			c0-0.8,0.6-1.4,1.4-1.4s1.4,0.6,1.4,1.4C254.8,262.1,254.2,262.7,253.4,262.7"/>
		<path style="clip-path:url(#SVGID_00000039108580054919565740000006326297886297177477_);fill:#8B8F91;" d="M250.4,264.5
			c-0.5,0-1,0.4-1,1c0,0.5,0.4,1,1,1s1-0.4,1-1C251.4,265,251,264.5,250.4,264.5 M250.4,266.9c-0.8,0-1.4-0.6-1.4-1.4
			c0-0.8,0.6-1.4,1.4-1.4c0.8,0,1.4,0.6,1.4,1.4C251.8,266.3,251.2,266.9,250.4,266.9"/>
		<path style="clip-path:url(#SVGID_00000039108580054919565740000006326297886297177477_);fill:#8B8F91;" d="M251.8,264.5
			c-0.5,0-1,0.4-1,1c0,0.5,0.4,1,1,1s1-0.4,1-1C252.8,265,252.4,264.5,251.8,264.5 M251.8,266.9c-0.8,0-1.4-0.6-1.4-1.4
			c0-0.8,0.6-1.4,1.4-1.4s1.4,0.6,1.4,1.4C253.2,266.3,252.6,266.9,251.8,266.9"/>
		<path style="clip-path:url(#SVGID_00000039108580054919565740000006326297886297177477_);fill:#8B8F91;" d="M253.4,264.5
			c-0.5,0-1,0.4-1,1c0,0.5,0.4,1,1,1s1-0.4,1-1C254.4,265,253.9,264.5,253.4,264.5 M253.4,266.9c-0.8,0-1.4-0.6-1.4-1.4
			c0-0.8,0.6-1.4,1.4-1.4s1.4,0.6,1.4,1.4C254.8,266.3,254.2,266.9,253.4,266.9"/>
		<path style="clip-path:url(#SVGID_00000039108580054919565740000006326297886297177477_);fill:#8B8F91;" d="M250.4,268.7
			c-0.5,0-1,0.4-1,1c0,0.5,0.4,1,1,1s1-0.4,1-1C251.4,269.2,251,268.7,250.4,268.7 M250.4,271.1c-0.8,0-1.4-0.6-1.4-1.4
			c0-0.8,0.6-1.4,1.4-1.4c0.8,0,1.4,0.6,1.4,1.4C251.8,270.5,251.2,271.1,250.4,271.1"/>
		<path style="clip-path:url(#SVGID_00000039108580054919565740000006326297886297177477_);fill:#8B8F91;" d="M251.8,268.7
			c-0.5,0-1,0.4-1,1c0,0.5,0.4,1,1,1s1-0.4,1-1C252.8,269.2,252.4,268.7,251.8,268.7 M251.8,271.1c-0.8,0-1.4-0.6-1.4-1.4
			c0-0.8,0.6-1.4,1.4-1.4s1.4,0.6,1.4,1.4C253.2,270.5,252.6,271.1,251.8,271.1"/>
		<path style="clip-path:url(#SVGID_00000039108580054919565740000006326297886297177477_);fill:#8B8F91;" d="M253.4,268.7
			c-0.5,0-1,0.4-1,1c0,0.5,0.4,1,1,1s1-0.4,1-1C254.4,269.2,253.9,268.7,253.4,268.7 M253.4,271.1c-0.8,0-1.4-0.6-1.4-1.4
			c0-0.8,0.6-1.4,1.4-1.4s1.4,0.6,1.4,1.4C254.8,270.5,254.2,271.1,253.4,271.1"/>
		<g style="clip-path:url(#SVGID_00000039108580054919565740000006326297886297177477_);">
			<g>
				<defs>
					<rect id="SVGID_00000057147371448913230490000005795177478848987792_" x="221.8" y="313.5" width="28.4" height="13.4"/>
				</defs>
				<clipPath id="SVGID_00000169541709382838274220000004315984405868706957_">
					<use xlink:href="#SVGID_00000057147371448913230490000005795177478848987792_"  style="overflow:visible;"/>
				</clipPath>
				<path style="clip-path:url(#SVGID_00000169541709382838274220000004315984405868706957_);fill:#C0C2DA;" d="M234.1,325.9
					c3,0,7.1-1.3,7.1-2.8c0-1.5-1.3-2.6-4.4-2.6c-3,0-6,1.2-6,2.6C230.8,324.6,231.1,325.9,234.1,325.9"/>
			</g>
		</g>
		<g style="clip-path:url(#SVGID_00000039108580054919565740000006326297886297177477_);">
			<g>
				<defs>
					<rect id="SVGID_00000034784228142345781390000002243811853885667213_" x="222.6" y="322.2" width="28.4" height="13.4"/>
				</defs>
				<clipPath id="SVGID_00000140724941064893024650000006229096310072799650_">
					<use xlink:href="#SVGID_00000034784228142345781390000002243811853885667213_"  style="overflow:visible;"/>
				</clipPath>
				<path style="clip-path:url(#SVGID_00000140724941064893024650000006229096310072799650_);fill:#C0C2DA;" d="M234.9,334.6
					c3,0,7.1-1.3,7.1-2.8c0-1.5-1.3-2.6-4.4-2.6c-3,0-6,1.2-6,2.6C231.6,333.3,231.8,334.6,234.9,334.6"/>
			</g>
		</g>
		<g style="clip-path:url(#SVGID_00000039108580054919565740000006326297886297177477_);">
			<g>
				<defs>
					<rect id="SVGID_00000005986122269460026850000014920180287155732912_" x="222.6" y="318" width="28.4" height="13.4"/>
				</defs>
				<clipPath id="SVGID_00000086659071388618160270000011307584458322748822_">
					<use xlink:href="#SVGID_00000005986122269460026850000014920180287155732912_"  style="overflow:visible;"/>
				</clipPath>
				<path style="clip-path:url(#SVGID_00000086659071388618160270000011307584458322748822_);fill:#C0C2DA;" d="M234.9,330.4
					c3,0,7.1-1.3,7.1-2.8c0-1.5-1.3-2.6-4.4-2.6c-3,0-6,1.2-6,2.6C231.6,329.1,231.8,330.4,234.9,330.4"/>
			</g>
		</g>
		<g style="clip-path:url(#SVGID_00000039108580054919565740000006326297886297177477_);">
			<g>
				<defs>
					<rect id="SVGID_00000146460595843582476520000017172368296914451585_" x="265.1" y="312.1" width="24.6" height="14.8"/>
				</defs>
				<clipPath id="SVGID_00000147221270489505745350000006122901682387121544_">
					<use xlink:href="#SVGID_00000146460595843582476520000017172368296914451585_"  style="overflow:visible;"/>
				</clipPath>
				<path style="clip-path:url(#SVGID_00000147221270489505745350000006122901682387121544_);fill:#E9EBF2;" d="M276.2,325.9
					c1.9,0,4.5-1.7,4.5-3.5s-0.8-3.3-2.8-3.3s-3.8,1.5-3.8,3.3S274.2,325.9,276.2,325.9"/>
			</g>
		</g>
		<g style="clip-path:url(#SVGID_00000039108580054919565740000006326297886297177477_);">
			<g>
				<defs>
					<rect id="SVGID_00000136372773989156693180000017137467657062054832_" x="266.7" y="321.4" width="27.3" height="15.2"/>
				</defs>
				<clipPath id="SVGID_00000118375721369706660950000003385055807571467195_">
					<use xlink:href="#SVGID_00000136372773989156693180000017137467657062054832_"  style="overflow:visible;"/>
				</clipPath>
				<path style="clip-path:url(#SVGID_00000118375721369706660950000003385055807571467195_);fill:#C0C2DA;" d="M282.4,323.9
					c-2.4-0.2-5.6,0.5-5.7,1.8c-0.1,1.2,0.8,2.3,3.2,2.6s4.8-0.5,4.9-1.7C284.9,325.3,284.8,324.2,282.4,323.9"/>
			</g>
		</g>
		<g style="clip-path:url(#SVGID_00000039108580054919565740000006326297886297177477_);">
			<g>
				<defs>
					<rect id="SVGID_00000074418029825471354500000007117793894981232279_" x="273.7" y="309.9" width="13.6" height="23.6"/>
				</defs>
				<clipPath id="SVGID_00000152971012473183010700000007306785679907493272_">
					<use xlink:href="#SVGID_00000074418029825471354500000007117793894981232279_"  style="overflow:visible;"/>
				</clipPath>
				<path style="clip-path:url(#SVGID_00000152971012473183010700000007306785679907493272_);fill:#C0C2DA;" d="M286.3,322.7
					c0-1.6-1.4-3.8-2.9-3.8s-2.7,0.7-2.7,2.3c0,1.6,1.2,3.2,2.7,3.2S286.3,324.4,286.3,322.7"/>
			</g>
		</g>
		<path style="clip-path:url(#SVGID_00000039108580054919565740000006326297886297177477_);fill:#8B8F91;" d="M289.3,335.8h-17.2
			l1.4-6.4h14.4L289.3,335.8z M271.7,336.4h18c0.1,0,0.2,0,0.2-0.1c0.1-0.1,0.1-0.2,0.1-0.3l-1.5-7c0-0.1-0.2-0.2-0.3-0.2h-14.9
			c-0.1,0-0.3,0.1-0.3,0.2l-1.5,7c0,0.1,0,0.2,0.1,0.3C271.5,336.4,271.6,336.4,271.7,336.4"/>
	</g>
	<polygon style="clip-path:url(#SVGID_00000105424771684176594010000015303358188107728031_);fill:#8B8F91;" points="275.5,329.1 
		274.9,329 273.3,336 273.9,336.2 	"/>
	<g style="clip-path:url(#SVGID_00000105424771684176594010000015303358188107728031_);">
		<defs>
			<rect id="SVGID_00000146483627253344078230000002157781776283916731_" width="419.5" height="595.3"/>
		</defs>
		<clipPath id="SVGID_00000172440938114260695110000002046596160157806522_">
			<use xlink:href="#SVGID_00000146483627253344078230000002157781776283916731_"  style="overflow:visible;"/>
		</clipPath>
		<path style="clip-path:url(#SVGID_00000172440938114260695110000002046596160157806522_);fill:#8B8F91;" d="M284.3,325.7l-3.6,1.8
			l-3.6-1.8l3.6-1.8L284.3,325.7z M280.7,328.1c0,0,0.1,0,0.1,0l4.3-2.1c0.1-0.1,0.2-0.2,0.2-0.3s-0.1-0.2-0.2-0.3l-4.3-2.1
			c-0.1,0-0.2,0-0.3,0l-4.3,2.1c-0.1,0.1-0.2,0.2-0.2,0.3s0.1,0.2,0.2,0.3l4.3,2.1C280.6,328.1,280.7,328.1,280.7,328.1"/>
		<path style="clip-path:url(#SVGID_00000172440938114260695110000002046596160157806522_);fill:#8B8F91;" d="M284.3,321.4l-3.6,1.8
			l-3.6-1.8l3.6-1.8L284.3,321.4z M280.7,323.8c0,0,0.1,0,0.1,0l4.3-2.1c0.1-0.1,0.2-0.2,0.2-0.3s-0.1-0.2-0.2-0.3l-4.3-2.1
			c-0.1,0-0.2,0-0.3,0l-4.3,2.1c-0.1,0.1-0.2,0.2-0.2,0.3s0.1,0.2,0.2,0.3l4.3,2.1C280.6,323.8,280.7,323.8,280.7,323.8"/>
		<path style="clip-path:url(#SVGID_00000172440938114260695110000002046596160157806522_);fill:#8B8F91;" d="M280.4,323.7v3.6
			l-3.7-1.8v-3.6L280.4,323.7z M280.7,328.1c0.1,0,0.1,0,0.2,0c0.1-0.1,0.1-0.2,0.1-0.3v-4.3c0-0.1-0.1-0.2-0.2-0.3l-4.3-2.1
			c-0.1,0-0.2,0-0.3,0c-0.1,0.1-0.1,0.2-0.1,0.3v4.3c0,0.1,0.1,0.2,0.2,0.3l4.3,2.1C280.6,328.1,280.7,328.1,280.7,328.1"/>
		<path style="clip-path:url(#SVGID_00000172440938114260695110000002046596160157806522_);fill:#8B8F91;" d="M284.7,325.5l-3.7,1.8
			v-3.6l3.7-1.8V325.5z M280.7,328.1c0,0,0.1,0,0.1,0l4.3-2.1c0.1-0.1,0.2-0.2,0.2-0.3v-4.3c0-0.1-0.1-0.2-0.1-0.3
			c-0.1-0.1-0.2-0.1-0.3,0l-4.3,2.1c-0.1,0.1-0.2,0.2-0.2,0.3v4.3c0,0.1,0.1,0.2,0.1,0.3C280.6,328.1,280.6,328.1,280.7,328.1"/>
	</g>
	
		<rect x="280.4" y="319.3" style="clip-path:url(#SVGID_00000105424771684176594010000015303358188107728031_);fill:#8B8F91;" width="0.6" height="4.3"/>
	<g style="clip-path:url(#SVGID_00000105424771684176594010000015303358188107728031_);">
		<defs>
			<rect id="SVGID_00000180343624694166796520000012216749531255951236_" width="419.5" height="595.3"/>
		</defs>
		<clipPath id="SVGID_00000113330473161569190730000016514572119465825677_">
			<use xlink:href="#SVGID_00000180343624694166796520000012216749531255951236_"  style="overflow:visible;"/>
		</clipPath>
		<path style="clip-path:url(#SVGID_00000113330473161569190730000016514572119465825677_);fill:#8B8F91;" d="M289.4,337H272v-0.6
			h17.3V337z M271.7,337.6h18c0.2,0,0.3-0.1,0.3-0.3v-1.2c0-0.2-0.1-0.3-0.3-0.3h-18c-0.2,0-0.3,0.1-0.3,0.3v1.2
			C271.4,337.5,271.6,337.6,271.7,337.6"/>
	</g>
	
		<rect x="279.8" y="329.1" style="clip-path:url(#SVGID_00000105424771684176594010000015303358188107728031_);fill:#8B8F91;" width="0.6" height="1.8"/>
	
		<rect x="276.1" y="325.7" style="clip-path:url(#SVGID_00000105424771684176594010000015303358188107728031_);fill:#8B8F91;" width="0.6" height="1.8"/>
	
		<rect x="277.3" y="329.7" style="clip-path:url(#SVGID_00000105424771684176594010000015303358188107728031_);fill:#8B8F91;" width="0.6" height="1.2"/>
	
		<rect x="278.2" y="327.5" style="clip-path:url(#SVGID_00000105424771684176594010000015303358188107728031_);fill:#8B8F91;" width="0.6" height="1.5"/>
	
		<rect x="276.1" y="330" style="clip-path:url(#SVGID_00000105424771684176594010000015303358188107728031_);fill:#8B8F91;" width="0.6" height="1.2"/>
	
		<rect x="278.5" y="330.9" style="clip-path:url(#SVGID_00000105424771684176594010000015303358188107728031_);fill:#8B8F91;" width="0.6" height="2.1"/>
	
		<rect x="281.3" y="329.1" style="clip-path:url(#SVGID_00000105424771684176594010000015303358188107728031_);fill:#8B8F91;" width="0.6" height="4"/>
	
		<rect x="284.7" y="326.6" style="clip-path:url(#SVGID_00000105424771684176594010000015303358188107728031_);fill:#8B8F91;" width="0.6" height="0.9"/>
	
		<rect x="283.5" y="331.1" style="clip-path:url(#SVGID_00000105424771684176594010000015303358188107728031_);fill:#8B8F91;" width="0.6" height="1.9"/>
	
		<rect x="282.6" y="327.5" style="clip-path:url(#SVGID_00000105424771684176594010000015303358188107728031_);fill:#8B8F91;" width="0.6" height="1.5"/>
	
		<rect x="284.7" y="330" style="clip-path:url(#SVGID_00000105424771684176594010000015303358188107728031_);fill:#8B8F91;" width="0.6" height="1.2"/>
	
		<rect x="282.3" y="330.6" style="clip-path:url(#SVGID_00000105424771684176594010000015303358188107728031_);fill:#8B8F91;" width="0.6" height="1.3"/>
	
		<rect x="279.8" y="331.5" style="clip-path:url(#SVGID_00000105424771684176594010000015303358188107728031_);fill:#8B8F91;" width="0.6" height="0.6"/>
	
		<polyline style="clip-path:url(#SVGID_00000105424771684176594010000015303358188107728031_);fill:none;stroke:#8A919D;stroke-width:1.012;stroke-miterlimit:10;" points="
		59,311.9 62.2,316.3 59,320.7 	"/>
	
		<polyline style="clip-path:url(#SVGID_00000105424771684176594010000015303358188107728031_);fill:none;stroke:#8A919D;stroke-width:1.012;stroke-miterlimit:10;" points="
		55.4,311.9 58.6,316.3 55.4,320.7 	"/>
</g>
</svg>
