<?xml version="1.0" encoding="utf-8"?>
<!-- Generator: Adobe Illustrator 28.0.0, SVG Export Plug-In . SVG Version: 6.00 Build 0)  -->
<svg version="1.1" id="Layer_1" xmlns="http://www.w3.org/2000/svg" xmlns:xlink="http://www.w3.org/1999/xlink" x="0px" y="0px"
	 viewBox="0 0 419.5 595.3" style="enable-background:new 0 0 419.5 595.3;" xml:space="preserve">
<style type="text/css">
	.st0{clip-path:url(#SVGID_00000133492235228750346800000008583049730929455756_);}
	.st1{opacity:0.5;clip-path:url(#SVGID_00000160899975498551942010000008713938322794760635_);}
	.st2{clip-path:url(#SVGID_00000054960503614150518950000015933173660134084758_);}
	.st3{clip-path:url(#SVGID_00000008150374755918361600000013189151185173207702_);fill:none;stroke:#B7BABB;stroke-width:0.25;}
	.st4{clip-path:url(#SVGID_00000008150374755918361600000013189151185173207702_);fill:none;stroke:#B7BABB;stroke-width:0.2;}
	.st5{clip-path:url(#SVGID_00000133492235228750346800000008583049730929455756_);fill:#00109F;}
	.st6{fill:#FFFFFF;}
	.st7{font-family:'Colfax-Regular';}
	.st8{font-size:4px;}
	.st9{font-family:'Colfax-Bold';}
	.st10{font-size:8px;}
	.st11{clip-path:url(#SVGID_00000133492235228750346800000008583049730929455756_);fill:none;stroke:#00109F;stroke-width:0.5;}
	.st12{clip-path:url(#SVGID_00000133492235228750346800000008583049730929455756_);fill:#D2D4D5;}
	.st13{clip-path:url(#SVGID_00000133492235228750346800000008583049730929455756_);fill:#FFFFFF;}
	
		.st14{clip-path:url(#SVGID_00000133492235228750346800000008583049730929455756_);fill:none;stroke:#FFFFFF;stroke-width:0.75;stroke-miterlimit:10;}
	
		.st15{clip-path:url(#SVGID_00000133492235228750346800000008583049730929455756_);fill:none;stroke:#8B8F91;stroke-width:0.25;stroke-miterlimit:10;}
	.st16{fill:#15233A;}
	.st17{font-size:5px;}
</style>
<g>
	<defs>
		<rect id="SVGID_1_" width="419.5" height="595.3"/>
	</defs>
	<clipPath id="SVGID_00000129177820679010497930000016688987472747911558_">
		<use xlink:href="#SVGID_1_"  style="overflow:visible;"/>
	</clipPath>
	<g style="clip-path:url(#SVGID_00000129177820679010497930000016688987472747911558_);">
		<defs>
			<rect id="SVGID_00000032621081867069488490000015188319345808105613_" width="419.5" height="595.3"/>
		</defs>
		<clipPath id="SVGID_00000025403940163582353340000009286987701159169175_">
			<use xlink:href="#SVGID_00000032621081867069488490000015188319345808105613_"  style="overflow:visible;"/>
		</clipPath>
		<g style="opacity:0.5;clip-path:url(#SVGID_00000025403940163582353340000009286987701159169175_);">
			<g>
				<defs>
					<rect id="SVGID_00000093892841773184668580000001967019011304850105_" x="37.8" y="252.5" width="344.1" height="98.8"/>
				</defs>
				<clipPath id="SVGID_00000010276659690709166170000008123437879111907993_">
					<use xlink:href="#SVGID_00000093892841773184668580000001967019011304850105_"  style="overflow:visible;"/>
				</clipPath>
				<g style="clip-path:url(#SVGID_00000010276659690709166170000008123437879111907993_);">
					<defs>
						<polygon id="SVGID_00000075146760702458329710000010073054905644643980_" points="46.8,259.5 46.8,259.5 46.8,350.2 
							372.9,350.2 372.9,259.5 						"/>
					</defs>
					<clipPath id="SVGID_00000068673227483958108700000012800271479727205561_">
						<use xlink:href="#SVGID_00000075146760702458329710000010073054905644643980_"  style="overflow:visible;"/>
					</clipPath>
					
						<line style="clip-path:url(#SVGID_00000068673227483958108700000012800271479727205561_);fill:none;stroke:#B7BABB;stroke-width:0.25;" x1="372.9" y1="91.2" x2="372.9" y2="417.2"/>
					
						<line style="clip-path:url(#SVGID_00000068673227483958108700000012800271479727205561_);fill:none;stroke:#B7BABB;stroke-width:0.25;" x1="365.8" y1="91.2" x2="365.8" y2="417.2"/>
					
						<line style="clip-path:url(#SVGID_00000068673227483958108700000012800271479727205561_);fill:none;stroke:#B7BABB;stroke-width:0.25;" x1="358.7" y1="91.2" x2="358.7" y2="417.2"/>
					
						<line style="clip-path:url(#SVGID_00000068673227483958108700000012800271479727205561_);fill:none;stroke:#B7BABB;stroke-width:0.25;" x1="351.6" y1="91.2" x2="351.6" y2="417.2"/>
					
						<line style="clip-path:url(#SVGID_00000068673227483958108700000012800271479727205561_);fill:none;stroke:#B7BABB;stroke-width:0.25;" x1="344.5" y1="91.2" x2="344.5" y2="417.2"/>
					
						<line style="clip-path:url(#SVGID_00000068673227483958108700000012800271479727205561_);fill:none;stroke:#B7BABB;stroke-width:0.25;" x1="337.4" y1="91.2" x2="337.4" y2="417.2"/>
					
						<line style="clip-path:url(#SVGID_00000068673227483958108700000012800271479727205561_);fill:none;stroke:#B7BABB;stroke-width:0.25;" x1="330.4" y1="91.2" x2="330.4" y2="417.2"/>
					
						<line style="clip-path:url(#SVGID_00000068673227483958108700000012800271479727205561_);fill:none;stroke:#B7BABB;stroke-width:0.25;" x1="323.3" y1="91.2" x2="323.3" y2="417.2"/>
					
						<line style="clip-path:url(#SVGID_00000068673227483958108700000012800271479727205561_);fill:none;stroke:#B7BABB;stroke-width:0.25;" x1="316.2" y1="91.2" x2="316.2" y2="417.2"/>
					
						<line style="clip-path:url(#SVGID_00000068673227483958108700000012800271479727205561_);fill:none;stroke:#B7BABB;stroke-width:0.25;" x1="309.1" y1="91.2" x2="309.1" y2="417.2"/>
					
						<line style="clip-path:url(#SVGID_00000068673227483958108700000012800271479727205561_);fill:none;stroke:#B7BABB;stroke-width:0.25;" x1="302" y1="91.2" x2="302" y2="417.2"/>
					
						<line style="clip-path:url(#SVGID_00000068673227483958108700000012800271479727205561_);fill:none;stroke:#B7BABB;stroke-width:0.25;" x1="294.9" y1="91.2" x2="294.9" y2="417.2"/>
					
						<line style="clip-path:url(#SVGID_00000068673227483958108700000012800271479727205561_);fill:none;stroke:#B7BABB;stroke-width:0.25;" x1="287.8" y1="91.2" x2="287.8" y2="417.2"/>
					
						<line style="clip-path:url(#SVGID_00000068673227483958108700000012800271479727205561_);fill:none;stroke:#B7BABB;stroke-width:0.25;" x1="280.8" y1="91.2" x2="280.8" y2="417.2"/>
					
						<line style="clip-path:url(#SVGID_00000068673227483958108700000012800271479727205561_);fill:none;stroke:#B7BABB;stroke-width:0.25;" x1="273.7" y1="91.2" x2="273.7" y2="417.2"/>
					
						<line style="clip-path:url(#SVGID_00000068673227483958108700000012800271479727205561_);fill:none;stroke:#B7BABB;stroke-width:0.25;" x1="266.6" y1="91.2" x2="266.6" y2="417.2"/>
					
						<line style="clip-path:url(#SVGID_00000068673227483958108700000012800271479727205561_);fill:none;stroke:#B7BABB;stroke-width:0.25;" x1="259.5" y1="91.2" x2="259.5" y2="417.2"/>
					
						<line style="clip-path:url(#SVGID_00000068673227483958108700000012800271479727205561_);fill:none;stroke:#B7BABB;stroke-width:0.25;" x1="252.4" y1="91.2" x2="252.4" y2="417.2"/>
					
						<line style="clip-path:url(#SVGID_00000068673227483958108700000012800271479727205561_);fill:none;stroke:#B7BABB;stroke-width:0.25;" x1="245.3" y1="91.2" x2="245.3" y2="417.2"/>
					
						<line style="clip-path:url(#SVGID_00000068673227483958108700000012800271479727205561_);fill:none;stroke:#B7BABB;stroke-width:0.25;" x1="238.2" y1="91.2" x2="238.2" y2="417.2"/>
					
						<line style="clip-path:url(#SVGID_00000068673227483958108700000012800271479727205561_);fill:none;stroke:#B7BABB;stroke-width:0.25;" x1="231.1" y1="91.2" x2="231.1" y2="417.2"/>
					
						<line style="clip-path:url(#SVGID_00000068673227483958108700000012800271479727205561_);fill:none;stroke:#B7BABB;stroke-width:0.25;" x1="224.1" y1="91.2" x2="224.1" y2="417.2"/>
					
						<line style="clip-path:url(#SVGID_00000068673227483958108700000012800271479727205561_);fill:none;stroke:#B7BABB;stroke-width:0.25;" x1="217" y1="91.2" x2="217" y2="417.2"/>
					
						<line style="clip-path:url(#SVGID_00000068673227483958108700000012800271479727205561_);fill:none;stroke:#B7BABB;stroke-width:0.25;" x1="209.9" y1="91.2" x2="209.9" y2="417.2"/>
					
						<line style="clip-path:url(#SVGID_00000068673227483958108700000012800271479727205561_);fill:none;stroke:#B7BABB;stroke-width:0.25;" x1="202.8" y1="91.2" x2="202.8" y2="417.2"/>
					
						<line style="clip-path:url(#SVGID_00000068673227483958108700000012800271479727205561_);fill:none;stroke:#B7BABB;stroke-width:0.25;" x1="195.7" y1="91.2" x2="195.7" y2="417.2"/>
					
						<line style="clip-path:url(#SVGID_00000068673227483958108700000012800271479727205561_);fill:none;stroke:#B7BABB;stroke-width:0.25;" x1="188.6" y1="91.2" x2="188.6" y2="417.2"/>
					
						<line style="clip-path:url(#SVGID_00000068673227483958108700000012800271479727205561_);fill:none;stroke:#B7BABB;stroke-width:0.25;" x1="181.5" y1="91.2" x2="181.5" y2="417.2"/>
					
						<line style="clip-path:url(#SVGID_00000068673227483958108700000012800271479727205561_);fill:none;stroke:#B7BABB;stroke-width:0.25;" x1="174.5" y1="91.2" x2="174.5" y2="417.2"/>
					
						<line style="clip-path:url(#SVGID_00000068673227483958108700000012800271479727205561_);fill:none;stroke:#B7BABB;stroke-width:0.25;" x1="167.4" y1="91.2" x2="167.4" y2="417.2"/>
					
						<line style="clip-path:url(#SVGID_00000068673227483958108700000012800271479727205561_);fill:none;stroke:#B7BABB;stroke-width:0.25;" x1="160.3" y1="91.2" x2="160.3" y2="417.2"/>
					
						<line style="clip-path:url(#SVGID_00000068673227483958108700000012800271479727205561_);fill:none;stroke:#B7BABB;stroke-width:0.25;" x1="153.2" y1="91.2" x2="153.2" y2="417.2"/>
					
						<line style="clip-path:url(#SVGID_00000068673227483958108700000012800271479727205561_);fill:none;stroke:#B7BABB;stroke-width:0.25;" x1="146.1" y1="91.2" x2="146.1" y2="417.2"/>
					
						<line style="clip-path:url(#SVGID_00000068673227483958108700000012800271479727205561_);fill:none;stroke:#B7BABB;stroke-width:0.25;" x1="139" y1="91.2" x2="139" y2="417.2"/>
					
						<line style="clip-path:url(#SVGID_00000068673227483958108700000012800271479727205561_);fill:none;stroke:#B7BABB;stroke-width:0.25;" x1="131.9" y1="91.2" x2="131.9" y2="417.2"/>
					
						<line style="clip-path:url(#SVGID_00000068673227483958108700000012800271479727205561_);fill:none;stroke:#B7BABB;stroke-width:0.25;" x1="124.8" y1="91.2" x2="124.8" y2="417.2"/>
					
						<line style="clip-path:url(#SVGID_00000068673227483958108700000012800271479727205561_);fill:none;stroke:#B7BABB;stroke-width:0.25;" x1="117.8" y1="91.2" x2="117.8" y2="417.2"/>
					
						<line style="clip-path:url(#SVGID_00000068673227483958108700000012800271479727205561_);fill:none;stroke:#B7BABB;stroke-width:0.25;" x1="110.7" y1="91.2" x2="110.7" y2="417.2"/>
					
						<line style="clip-path:url(#SVGID_00000068673227483958108700000012800271479727205561_);fill:none;stroke:#B7BABB;stroke-width:0.25;" x1="103.6" y1="91.2" x2="103.6" y2="417.2"/>
					
						<line style="clip-path:url(#SVGID_00000068673227483958108700000012800271479727205561_);fill:none;stroke:#B7BABB;stroke-width:0.25;" x1="96.5" y1="91.2" x2="96.5" y2="417.2"/>
					
						<line style="clip-path:url(#SVGID_00000068673227483958108700000012800271479727205561_);fill:none;stroke:#B7BABB;stroke-width:0.25;" x1="89.4" y1="91.2" x2="89.4" y2="417.2"/>
					
						<line style="clip-path:url(#SVGID_00000068673227483958108700000012800271479727205561_);fill:none;stroke:#B7BABB;stroke-width:0.25;" x1="82.3" y1="91.2" x2="82.3" y2="417.2"/>
					
						<line style="clip-path:url(#SVGID_00000068673227483958108700000012800271479727205561_);fill:none;stroke:#B7BABB;stroke-width:0.25;" x1="75.2" y1="91.2" x2="75.2" y2="417.2"/>
					
						<line style="clip-path:url(#SVGID_00000068673227483958108700000012800271479727205561_);fill:none;stroke:#B7BABB;stroke-width:0.25;" x1="68.2" y1="91.2" x2="68.2" y2="417.2"/>
					
						<line style="clip-path:url(#SVGID_00000068673227483958108700000012800271479727205561_);fill:none;stroke:#B7BABB;stroke-width:0.25;" x1="61.1" y1="91.2" x2="61.1" y2="417.2"/>
					
						<line style="clip-path:url(#SVGID_00000068673227483958108700000012800271479727205561_);fill:none;stroke:#B7BABB;stroke-width:0.25;" x1="54" y1="91.2" x2="54" y2="417.2"/>
					
						<line style="clip-path:url(#SVGID_00000068673227483958108700000012800271479727205561_);fill:none;stroke:#B7BABB;stroke-width:0.25;" x1="46.9" y1="91.2" x2="46.9" y2="417.2"/>
					
						<line style="clip-path:url(#SVGID_00000068673227483958108700000012800271479727205561_);fill:none;stroke:#B7BABB;stroke-width:0.2;" x1="372.8" y1="346.5" x2="46.8" y2="346.5"/>
					
						<line style="clip-path:url(#SVGID_00000068673227483958108700000012800271479727205561_);fill:none;stroke:#B7BABB;stroke-width:0.2;" x1="372.8" y1="339.4" x2="46.8" y2="339.4"/>
					
						<line style="clip-path:url(#SVGID_00000068673227483958108700000012800271479727205561_);fill:none;stroke:#B7BABB;stroke-width:0.2;" x1="372.8" y1="332.3" x2="46.8" y2="332.3"/>
					
						<line style="clip-path:url(#SVGID_00000068673227483958108700000012800271479727205561_);fill:none;stroke:#B7BABB;stroke-width:0.2;" x1="372.8" y1="325.2" x2="46.8" y2="325.2"/>
					
						<line style="clip-path:url(#SVGID_00000068673227483958108700000012800271479727205561_);fill:none;stroke:#B7BABB;stroke-width:0.2;" x1="372.8" y1="318.1" x2="46.8" y2="318.1"/>
					
						<line style="clip-path:url(#SVGID_00000068673227483958108700000012800271479727205561_);fill:none;stroke:#B7BABB;stroke-width:0.2;" x1="372.8" y1="311" x2="46.8" y2="311"/>
					
						<line style="clip-path:url(#SVGID_00000068673227483958108700000012800271479727205561_);fill:none;stroke:#B7BABB;stroke-width:0.2;" x1="372.8" y1="303.9" x2="46.8" y2="303.9"/>
					
						<line style="clip-path:url(#SVGID_00000068673227483958108700000012800271479727205561_);fill:none;stroke:#B7BABB;stroke-width:0.2;" x1="372.8" y1="296.9" x2="46.8" y2="296.9"/>
					
						<line style="clip-path:url(#SVGID_00000068673227483958108700000012800271479727205561_);fill:none;stroke:#B7BABB;stroke-width:0.2;" x1="372.8" y1="289.8" x2="46.8" y2="289.8"/>
					
						<line style="clip-path:url(#SVGID_00000068673227483958108700000012800271479727205561_);fill:none;stroke:#B7BABB;stroke-width:0.2;" x1="372.8" y1="282.7" x2="46.8" y2="282.7"/>
					
						<line style="clip-path:url(#SVGID_00000068673227483958108700000012800271479727205561_);fill:none;stroke:#B7BABB;stroke-width:0.2;" x1="372.8" y1="275.6" x2="46.8" y2="275.6"/>
					
						<line style="clip-path:url(#SVGID_00000068673227483958108700000012800271479727205561_);fill:none;stroke:#B7BABB;stroke-width:0.2;" x1="372.8" y1="268.5" x2="46.8" y2="268.5"/>
					
						<line style="clip-path:url(#SVGID_00000068673227483958108700000012800271479727205561_);fill:none;stroke:#B7BABB;stroke-width:0.2;" x1="372.8" y1="261.4" x2="46.8" y2="261.4"/>
				</g>
			</g>
		</g>
	</g>
	<polygon style="clip-path:url(#SVGID_00000129177820679010497930000016688987472747911558_);fill:#00109F;" points="46.9,245 
		46.9,245 46.9,259.4 137,259.4 137,245 	"/>
	<g style="clip-path:url(#SVGID_00000129177820679010497930000016688987472747911558_);">
		<text transform="matrix(1 0 0 1 49.645 248.9967)"><tspan x="0" y="0" class="st6 st7 st8">T</tspan><tspan x="1.8" y="0" class="st6 st7 st8">able 1: </tspan></text>
	</g>
	<g style="clip-path:url(#SVGID_00000129177820679010497930000016688987472747911558_);">
		<text transform="matrix(1 0 0 1 63.6533 248.9967)" class="st6 st7 st8"> </text>
	</g>
	<g style="clip-path:url(#SVGID_00000129177820679010497930000016688987472747911558_);">
		<text transform="matrix(1 0 0 1 49.645 256.9967)"><tspan x="0" y="0" class="st6 st9 st10">T</tspan><tspan x="4.4" y="0" class="st6 st9 st10">r</tspan><tspan x="7.4" y="0" class="st6 st9 st10">a</tspan><tspan x="12.2" y="0" class="st6 st9 st10">ffic </tspan><tspan x="27.1" y="0" class="st6 st9 st10">D</tspan><tspan x="32.8" y="0" class="st6 st9 st10">a</tspan><tspan x="37.5" y="0" class="st6 st9 st10">t</tspan><tspan x="40.7" y="0" class="st6 st9 st10">a </tspan><tspan x="47.4" y="0" class="st6 st9 st10">S</tspan><tspan x="52.6" y="0" class="st6 st9 st10">t</tspan><tspan x="55.8" y="0" class="st6 st9 st10">r</tspan><tspan x="58.9" y="0" class="st6 st9 st10">u</tspan><tspan x="63.7" y="0" class="st6 st9 st10">c</tspan><tspan x="68.3" y="0" class="st6 st9 st10">tu</tspan><tspan x="76.3" y="0" class="st6 st9 st10">r</tspan><tspan x="79.4" y="0" class="st6 st9 st10">e</tspan></text>
	</g>
	
		<line style="clip-path:url(#SVGID_00000129177820679010497930000016688987472747911558_);fill:none;stroke:#00109F;stroke-width:0.5;" x1="105.2" y1="259.2" x2="372.9" y2="259.2"/>
	<path style="clip-path:url(#SVGID_00000129177820679010497930000016688987472747911558_);fill:#D2D4D5;" d="M228.2,271H375v8.7
		H228.2V271z M47,271h181.1v8.7H47V271z"/>
	<path style="clip-path:url(#SVGID_00000129177820679010497930000016688987472747911558_);fill:#FFFFFF;" d="M228.2,331.9H375v8.7
		H228.2V331.9z M47,331.9h181.1v8.7H47V331.9z M228.2,323.2H375v8.7H228.2V323.2z M47,323.2h181.1v8.7H47V323.2z M228.2,314.5H375
		v8.7H228.2V314.5z M47,314.5h181.1v8.7H47V314.5z M228.2,305.8H375v8.7H228.2V305.8z M47,305.8h181.1v8.7H47V305.8z M228.2,297.1
		H375v8.7H228.2V297.1z M47,297.1h181.1v8.7H47V297.1z M228.2,288.4H375v8.7H228.2V288.4z M47,288.4h181.1v8.7H47V288.4z
		 M228.2,279.7H375v8.7H228.2V279.7z M47,279.7h181.1v8.7H47V279.7z"/>
	
		<line style="clip-path:url(#SVGID_00000129177820679010497930000016688987472747911558_);fill:none;stroke:#FFFFFF;stroke-width:0.75;stroke-miterlimit:10;" x1="47.1" y1="279.7" x2="228.2" y2="279.7"/>
	
		<line style="clip-path:url(#SVGID_00000129177820679010497930000016688987472747911558_);fill:none;stroke:#FFFFFF;stroke-width:0.75;stroke-miterlimit:10;" x1="228.2" y1="279.7" x2="374.8" y2="279.7"/>
	
		<line style="clip-path:url(#SVGID_00000129177820679010497930000016688987472747911558_);fill:none;stroke:#8B8F91;stroke-width:0.25;stroke-miterlimit:10;" x1="46.9" y1="271" x2="228.2" y2="271"/>
	
		<line style="clip-path:url(#SVGID_00000129177820679010497930000016688987472747911558_);fill:none;stroke:#8B8F91;stroke-width:0.25;stroke-miterlimit:10;" x1="47" y1="279.7" x2="47" y2="271.1"/>
	
		<line style="clip-path:url(#SVGID_00000129177820679010497930000016688987472747911558_);fill:none;stroke:#8B8F91;stroke-width:0.25;stroke-miterlimit:10;" x1="228.2" y1="271" x2="375.1" y2="271"/>
	
		<line style="clip-path:url(#SVGID_00000129177820679010497930000016688987472747911558_);fill:none;stroke:#8B8F91;stroke-width:0.25;stroke-miterlimit:10;" x1="228.2" y1="279.3" x2="228.2" y2="271.1"/>
	
		<line style="clip-path:url(#SVGID_00000129177820679010497930000016688987472747911558_);fill:none;stroke:#8B8F91;stroke-width:0.25;stroke-miterlimit:10;" x1="375" y1="279.7" x2="375" y2="271.1"/>
	
		<line style="clip-path:url(#SVGID_00000129177820679010497930000016688987472747911558_);fill:none;stroke:#8B8F91;stroke-width:0.25;stroke-miterlimit:10;" x1="47" y1="288.3" x2="47" y2="279.7"/>
	
		<line style="clip-path:url(#SVGID_00000129177820679010497930000016688987472747911558_);fill:none;stroke:#8B8F91;stroke-width:0.25;stroke-miterlimit:10;" x1="228.2" y1="288.3" x2="228.2" y2="280.1"/>
	
		<line style="clip-path:url(#SVGID_00000129177820679010497930000016688987472747911558_);fill:none;stroke:#8B8F91;stroke-width:0.25;stroke-miterlimit:10;" x1="375" y1="288.3" x2="375" y2="279.7"/>
	
		<line style="clip-path:url(#SVGID_00000129177820679010497930000016688987472747911558_);fill:none;stroke:#8B8F91;stroke-width:0.25;stroke-miterlimit:10;" x1="46.9" y1="288.4" x2="228.2" y2="288.4"/>
	
		<line style="clip-path:url(#SVGID_00000129177820679010497930000016688987472747911558_);fill:none;stroke:#8B8F91;stroke-width:0.25;stroke-miterlimit:10;" x1="47" y1="297" x2="47" y2="288.5"/>
	
		<line style="clip-path:url(#SVGID_00000129177820679010497930000016688987472747911558_);fill:none;stroke:#8B8F91;stroke-width:0.25;stroke-miterlimit:10;" x1="228.2" y1="288.4" x2="375.1" y2="288.4"/>
	
		<line style="clip-path:url(#SVGID_00000129177820679010497930000016688987472747911558_);fill:none;stroke:#8B8F91;stroke-width:0.25;stroke-miterlimit:10;" x1="228.2" y1="297" x2="228.2" y2="288.5"/>
	
		<line style="clip-path:url(#SVGID_00000129177820679010497930000016688987472747911558_);fill:none;stroke:#8B8F91;stroke-width:0.25;stroke-miterlimit:10;" x1="375" y1="297" x2="375" y2="288.5"/>
	
		<line style="clip-path:url(#SVGID_00000129177820679010497930000016688987472747911558_);fill:none;stroke:#8B8F91;stroke-width:0.25;stroke-miterlimit:10;" x1="46.9" y1="297.1" x2="228.2" y2="297.1"/>
	
		<line style="clip-path:url(#SVGID_00000129177820679010497930000016688987472747911558_);fill:none;stroke:#8B8F91;stroke-width:0.25;stroke-miterlimit:10;" x1="47" y1="305.7" x2="47" y2="297.2"/>
	
		<line style="clip-path:url(#SVGID_00000129177820679010497930000016688987472747911558_);fill:none;stroke:#8B8F91;stroke-width:0.25;stroke-miterlimit:10;" x1="228.2" y1="297.1" x2="375.1" y2="297.1"/>
	
		<line style="clip-path:url(#SVGID_00000129177820679010497930000016688987472747911558_);fill:none;stroke:#8B8F91;stroke-width:0.25;stroke-miterlimit:10;" x1="228.2" y1="305.7" x2="228.2" y2="297.2"/>
	
		<line style="clip-path:url(#SVGID_00000129177820679010497930000016688987472747911558_);fill:none;stroke:#8B8F91;stroke-width:0.25;stroke-miterlimit:10;" x1="375" y1="305.7" x2="375" y2="297.2"/>
	
		<line style="clip-path:url(#SVGID_00000129177820679010497930000016688987472747911558_);fill:none;stroke:#8B8F91;stroke-width:0.25;stroke-miterlimit:10;" x1="46.9" y1="305.8" x2="228.2" y2="305.8"/>
	
		<line style="clip-path:url(#SVGID_00000129177820679010497930000016688987472747911558_);fill:none;stroke:#8B8F91;stroke-width:0.25;stroke-miterlimit:10;" x1="47" y1="314.4" x2="47" y2="305.9"/>
	
		<line style="clip-path:url(#SVGID_00000129177820679010497930000016688987472747911558_);fill:none;stroke:#8B8F91;stroke-width:0.25;stroke-miterlimit:10;" x1="228.2" y1="305.8" x2="375.1" y2="305.8"/>
	
		<line style="clip-path:url(#SVGID_00000129177820679010497930000016688987472747911558_);fill:none;stroke:#8B8F91;stroke-width:0.25;stroke-miterlimit:10;" x1="228.2" y1="314.4" x2="228.2" y2="305.9"/>
	
		<line style="clip-path:url(#SVGID_00000129177820679010497930000016688987472747911558_);fill:none;stroke:#8B8F91;stroke-width:0.25;stroke-miterlimit:10;" x1="375" y1="314.4" x2="375" y2="305.9"/>
	
		<line style="clip-path:url(#SVGID_00000129177820679010497930000016688987472747911558_);fill:none;stroke:#8B8F91;stroke-width:0.25;stroke-miterlimit:10;" x1="46.9" y1="314.5" x2="228.2" y2="314.5"/>
	
		<line style="clip-path:url(#SVGID_00000129177820679010497930000016688987472747911558_);fill:none;stroke:#8B8F91;stroke-width:0.25;stroke-miterlimit:10;" x1="47" y1="323.1" x2="47" y2="314.6"/>
	
		<line style="clip-path:url(#SVGID_00000129177820679010497930000016688987472747911558_);fill:none;stroke:#8B8F91;stroke-width:0.25;stroke-miterlimit:10;" x1="228.2" y1="314.5" x2="375.1" y2="314.5"/>
	
		<line style="clip-path:url(#SVGID_00000129177820679010497930000016688987472747911558_);fill:none;stroke:#8B8F91;stroke-width:0.25;stroke-miterlimit:10;" x1="228.2" y1="323.1" x2="228.2" y2="314.6"/>
	
		<line style="clip-path:url(#SVGID_00000129177820679010497930000016688987472747911558_);fill:none;stroke:#8B8F91;stroke-width:0.25;stroke-miterlimit:10;" x1="375" y1="323.1" x2="375" y2="314.6"/>
	
		<line style="clip-path:url(#SVGID_00000129177820679010497930000016688987472747911558_);fill:none;stroke:#8B8F91;stroke-width:0.25;stroke-miterlimit:10;" x1="46.9" y1="323.2" x2="228.2" y2="323.2"/>
	
		<line style="clip-path:url(#SVGID_00000129177820679010497930000016688987472747911558_);fill:none;stroke:#8B8F91;stroke-width:0.25;stroke-miterlimit:10;" x1="47" y1="331.8" x2="47" y2="323.4"/>
	
		<line style="clip-path:url(#SVGID_00000129177820679010497930000016688987472747911558_);fill:none;stroke:#8B8F91;stroke-width:0.25;stroke-miterlimit:10;" x1="228.2" y1="323.2" x2="375.1" y2="323.2"/>
	
		<line style="clip-path:url(#SVGID_00000129177820679010497930000016688987472747911558_);fill:none;stroke:#8B8F91;stroke-width:0.25;stroke-miterlimit:10;" x1="228.2" y1="331.8" x2="228.2" y2="323.4"/>
	
		<line style="clip-path:url(#SVGID_00000129177820679010497930000016688987472747911558_);fill:none;stroke:#8B8F91;stroke-width:0.25;stroke-miterlimit:10;" x1="375" y1="331.8" x2="375" y2="323.4"/>
	
		<line style="clip-path:url(#SVGID_00000129177820679010497930000016688987472747911558_);fill:none;stroke:#8B8F91;stroke-width:0.25;stroke-miterlimit:10;" x1="46.9" y1="331.9" x2="228.2" y2="331.9"/>
	
		<line style="clip-path:url(#SVGID_00000129177820679010497930000016688987472747911558_);fill:none;stroke:#8B8F91;stroke-width:0.25;stroke-miterlimit:10;" x1="47" y1="340.5" x2="47" y2="332.1"/>
	
		<line style="clip-path:url(#SVGID_00000129177820679010497930000016688987472747911558_);fill:none;stroke:#8B8F91;stroke-width:0.25;stroke-miterlimit:10;" x1="228.2" y1="331.9" x2="375.1" y2="331.9"/>
	
		<line style="clip-path:url(#SVGID_00000129177820679010497930000016688987472747911558_);fill:none;stroke:#8B8F91;stroke-width:0.25;stroke-miterlimit:10;" x1="228.2" y1="340.5" x2="228.2" y2="332.1"/>
	
		<line style="clip-path:url(#SVGID_00000129177820679010497930000016688987472747911558_);fill:none;stroke:#8B8F91;stroke-width:0.25;stroke-miterlimit:10;" x1="375" y1="340.5" x2="375" y2="332.1"/>
	
		<line style="clip-path:url(#SVGID_00000129177820679010497930000016688987472747911558_);fill:none;stroke:#8B8F91;stroke-width:0.25;stroke-miterlimit:10;" x1="46.9" y1="340.6" x2="228.2" y2="340.6"/>
	
		<line style="clip-path:url(#SVGID_00000129177820679010497930000016688987472747911558_);fill:none;stroke:#8B8F91;stroke-width:0.25;stroke-miterlimit:10;" x1="228.2" y1="340.6" x2="375.1" y2="340.6"/>
	
		<line style="clip-path:url(#SVGID_00000129177820679010497930000016688987472747911558_);fill:none;stroke:#8B8F91;stroke-width:0.25;stroke-miterlimit:10;" x1="47.1" y1="279.4" x2="228.2" y2="279.4"/>
	
		<line style="clip-path:url(#SVGID_00000129177820679010497930000016688987472747911558_);fill:none;stroke:#8B8F91;stroke-width:0.25;stroke-miterlimit:10;" x1="47.1" y1="279.9" x2="228.2" y2="279.9"/>
	
		<line style="clip-path:url(#SVGID_00000129177820679010497930000016688987472747911558_);fill:none;stroke:#8B8F91;stroke-width:0.25;stroke-miterlimit:10;" x1="228.2" y1="279.4" x2="374.8" y2="279.4"/>
	
		<line style="clip-path:url(#SVGID_00000129177820679010497930000016688987472747911558_);fill:none;stroke:#8B8F91;stroke-width:0.25;stroke-miterlimit:10;" x1="228.2" y1="279.9" x2="374.8" y2="279.9"/>
	<g style="clip-path:url(#SVGID_00000129177820679010497930000016688987472747911558_);">
		<text transform="matrix(1 0 0 1 47.8896 277.0875)"><tspan x="0" y="0" class="st16 st7 st17">D</tspan><tspan x="3.4" y="0" class="st16 st7 st17">a</tspan><tspan x="6.3" y="0" class="st16 st7 st17">t</tspan><tspan x="8.1" y="0" class="st16 st7 st17">a Stru</tspan><tspan x="22" y="0" class="st16 st7 st17">ct</tspan><tspan x="26.6" y="0" class="st16 st7 st17">u</tspan><tspan x="29.6" y="0" class="st16 st7 st17">r</tspan><tspan x="31.3" y="0" class="st16 st7 st17">e</tspan></text>
	</g>
	<g style="clip-path:url(#SVGID_00000129177820679010497930000016688987472747911558_);">
		<text transform="matrix(1 0 0 1 228.9248 277.0875)"><tspan x="0" y="0" class="st16 st7 st17">10100</tspan><tspan x="13" y="0" class="st16 st7 st17">0</tspan><tspan x="16.1" y="0" class="st16 st7 st17">7</tspan><tspan x="18.7" y="0" class="st16 st7 st17">01,</tspan><tspan x="24.8" y="0" class="st16 st7 st17">2</tspan><tspan x="27.8" y="0" class="st16 st7 st17">01</tspan><tspan x="32.7" y="0" class="st16 st7 st17">7</tspan><tspan x="35" y="0" class="st16 st7 st17">-01-01 00:01:05+01</tspan><tspan x="77.9" y="0" class="st16 st7 st17">,</tspan><tspan x="78.8" y="0" class="st16 st7 st17">9</tspan><tspan x="81.8" y="0" class="st16 st7 st17">8</tspan><tspan x="84.8" y="0" class="st16 st7 st17">,</tspan><tspan x="85.9" y="0" class="st16 st7 st17">1</tspan><tspan x="87.6" y="0" class="st16 st7 st17">2</tspan><tspan x="90.6" y="0" class="st16 st7 st17">0</tspan><tspan x="93.7" y="0" class="st16 st7 st17">,</tspan><tspan x="94.7" y="0" class="st16 st7 st17">1</tspan><tspan x="96.5" y="0" class="st16 st7 st17">9</tspan><tspan x="99" y="0" class="st16 st7 st17">.</tspan><tspan x="100.2" y="0" class="st16 st7 st17">6</tspan><tspan x="103.1" y="0" class="st16 st7 st17">,</tspan><tspan x="104.3" y="0" class="st16 st7 st17">0</tspan><tspan x="107.4" y="0" class="st16 st7 st17">,</tspan><tspan x="108.5" y="0" class="st16 st7 st17">4</tspan><tspan x="111.6" y="0" class="st16 st7 st17">6</tspan></text>
	</g>
	<g style="clip-path:url(#SVGID_00000129177820679010497930000016688987472747911558_);">
		<text transform="matrix(1 0 0 1 47.8594 286.0475)"><tspan x="0" y="0" class="st7 st17">ID </tspan><tspan x="6" y="0" class="st7 st17">o</tspan><tspan x="8.9" y="0" class="st7 st17">f </tspan><tspan x="11.8" y="0" class="st7 st17">r</tspan><tspan x="13.6" y="0" class="st7 st17">oad n</tspan><tspan x="26.4" y="0" class="st7 st17">e</tspan><tspan x="29.2" y="0" class="st7 st17">t</tspan><tspan x="31" y="0" class="st7 st17">w</tspan><tspan x="34.8" y="0" class="st7 st17">ork link</tspan></text>
	</g>
	<g style="clip-path:url(#SVGID_00000129177820679010497930000016688987472747911558_);">
		<text transform="matrix(1 0 0 1 228.9248 286.0475)"><tspan x="0" y="0" class="st7 st17">10100</tspan><tspan x="13" y="0" class="st7 st17">0</tspan><tspan x="16.1" y="0" class="st7 st17">7</tspan><tspan x="18.7" y="0" class="st7 st17">01</tspan></text>
	</g>
	<g style="clip-path:url(#SVGID_00000129177820679010497930000016688987472747911558_);">
		<text transform="matrix(1 0 0 1 47.8896 294.6324)"><tspan x="0" y="0" class="st7 st17">D</tspan><tspan x="3.4" y="0" class="st7 st17">a</tspan><tspan x="6.3" y="0" class="st7 st17">t</tspan><tspan x="8.1" y="0" class="st7 st17">a</tspan><tspan x="11" y="0" class="st7 st17">/</tspan><tspan x="13.1" y="0" class="st7 st17">time </tspan><tspan x="24.8" y="0" class="st7 st17">o</tspan><tspan x="27.6" y="0" class="st7 st17">f m</tspan><tspan x="35.3" y="0" class="st7 st17">e</tspan><tspan x="38" y="0" class="st7 st17">asu</tspan><tspan x="46.4" y="0" class="st7 st17">r</tspan><tspan x="48.2" y="0" class="st7 st17">eme</tspan><tspan x="58.4" y="0" class="st7 st17">n</tspan><tspan x="61.3" y="0" class="st7 st17">t</tspan></text>
	</g>
	<g style="clip-path:url(#SVGID_00000129177820679010497930000016688987472747911558_);">
		<text transform="matrix(1 0 0 1 228.7246 294.6324)"><tspan x="0" y="0" class="st7 st17">2</tspan><tspan x="3" y="0" class="st7 st17">01</tspan><tspan x="7.9" y="0" class="st7 st17">7</tspan><tspan x="10.2" y="0" class="st7 st17">-01-01 00:01:05+01</tspan></text>
	</g>
	<g style="clip-path:url(#SVGID_00000129177820679010497930000016688987472747911558_);">
		<text transform="matrix(1 0 0 1 47.4644 303.3424)"><tspan x="0" y="0" class="st7 st17">A</tspan><tspan x="3.2" y="0" class="st7 st17">v</tspan><tspan x="5.7" y="0" class="st7 st17">e</tspan><tspan x="8.4" y="0" class="st7 st17">r</tspan><tspan x="10.1" y="0" class="st7 st17">age speed (km/</tspan><tspan x="46.1" y="0" class="st7 st17">h</tspan><tspan x="49" y="0" class="st7 st17">)</tspan></text>
	</g>
	<g style="clip-path:url(#SVGID_00000129177820679010497930000016688987472747911558_);">
		<text transform="matrix(1 0 0 1 228.8145 303.3424)"><tspan x="0" y="0" class="st7 st17">9</tspan><tspan x="3" y="0" class="st7 st17">8</tspan></text>
	</g>
	<g style="clip-path:url(#SVGID_00000129177820679010497930000016688987472747911558_);">
		<text transform="matrix(1 0 0 1 47.6694 312.0524)"><tspan x="0" y="0" class="st7 st17">V</tspan><tspan x="2.9" y="0" class="st7 st17">ehicle fl</tspan><tspan x="20.8" y="0" class="st7 st17">o</tspan><tspan x="23.6" y="0" class="st7 st17">w (</tspan><tspan x="30.2" y="0" class="st7 st17">V</tspan><tspan x="33" y="0" class="st7 st17">ehicles per hou</tspan><tspan x="68" y="0" class="st7 st17">r</tspan><tspan x="69.8" y="0" class="st7 st17">)</tspan></text>
	</g>
	<g style="clip-path:url(#SVGID_00000129177820679010497930000016688987472747911558_);">
		<text transform="matrix(1 0 0 1 228.9248 312.0524)"><tspan x="0" y="0" class="st7 st17">1</tspan><tspan x="1.8" y="0" class="st7 st17">2</tspan><tspan x="4.7" y="0" class="st7 st17">0</tspan></text>
	</g>
	<g style="clip-path:url(#SVGID_00000129177820679010497930000016688987472747911558_);">
		<text transform="matrix(1 0 0 1 47.8896 320.7623)"><tspan x="0" y="0" class="st7 st17">H</tspan><tspan x="3.5" y="0" class="st7 st17">e</tspan><tspan x="6.3" y="0" class="st7 st17">ad</tspan><tspan x="12.2" y="0" class="st7 st17">w</tspan><tspan x="15.9" y="0" class="st7 st17">a</tspan><tspan x="18.7" y="0" class="st7 st17">y</tspan><tspan x="21.2" y="0" class="st7 st17">(</tspan><tspan x="22.6" y="0" class="st7 st17">a</tspan><tspan x="25.5" y="0" class="st7 st17">v</tspan><tspan x="28" y="0" class="st7 st17">e</tspan><tspan x="30.7" y="0" class="st7 st17">r</tspan><tspan x="32.4" y="0" class="st7 st17">age time b</tspan><tspan x="56.9" y="0" class="st7 st17">e</tspan><tspan x="59.6" y="0" class="st7 st17">t</tspan><tspan x="61.5" y="0" class="st7 st17">w</tspan><tspan x="65.3" y="0" class="st7 st17">een</tspan><tspan x="73.8" y="0" class="st7 st17"> </tspan><tspan x="75" y="0" class="st7 st17">v</tspan><tspan x="77.5" y="0" class="st7 st17">ehicles, in second</tspan><tspan x="118.6" y="0" class="st7 st17">s</tspan><tspan x="121.1" y="0" class="st7 st17">)</tspan></text>
	</g>
	<g style="clip-path:url(#SVGID_00000129177820679010497930000016688987472747911558_);">
		<text transform="matrix(1 0 0 1 228.9248 320.7623)"><tspan x="0" y="0" class="st7 st17">1</tspan><tspan x="1.8" y="0" class="st7 st17">9</tspan><tspan x="4.3" y="0" class="st7 st17">.</tspan><tspan x="5.5" y="0" class="st7 st17">6</tspan></text>
	</g>
	<g style="clip-path:url(#SVGID_00000129177820679010497930000016688987472747911558_);">
		<text transform="matrix(1 0 0 1 47.7246 329.4723)"><tspan x="0" y="0" class="st7 st17">Occupan</tspan><tspan x="21" y="0" class="st7 st17">c</tspan><tspan x="23.7" y="0" class="st7 st17">y </tspan><tspan x="27.5" y="0" class="st7 st17">(</tspan><tspan x="29" y="0" class="st7 st17">pe</tspan><tspan x="34.7" y="0" class="st7 st17">r</tspan><tspan x="36.4" y="0" class="st7 st17">ce</tspan><tspan x="42" y="0" class="st7 st17">nt</tspan><tspan x="46.8" y="0" class="st7 st17">age </tspan><tspan x="56.6" y="0" class="st7 st17">o</tspan><tspan x="59.4" y="0" class="st7 st17">f time th</tspan><tspan x="78.9" y="0" class="st7 st17">a</tspan><tspan x="81.7" y="0" class="st7 st17">t </tspan><tspan x="84.8" y="0" class="st7 st17">r</tspan><tspan x="86.5" y="0" class="st7 st17">oad is occupied </tspan><tspan x="124" y="0" class="st7 st17">b</tspan><tspan x="127" y="0" class="st7 st17">y</tspan><tspan x="129.5" y="0" class="st7 st17"> </tspan><tspan x="130.7" y="0" class="st7 st17">v</tspan><tspan x="133.2" y="0" class="st7 st17">ehicle</tspan><tspan x="147" y="0" class="st7 st17">s</tspan><tspan x="149.5" y="0" class="st7 st17">)</tspan></text>
	</g>
	<g style="clip-path:url(#SVGID_00000129177820679010497930000016688987472747911558_);">
		<text transform="matrix(1 0 0 1 228.999 329.4723)" class="st7 st17">0</text>
	</g>
	<g style="clip-path:url(#SVGID_00000129177820679010497930000016688987472747911558_);">
		<text transform="matrix(1 0 0 1 47.3696 338.1823)"><tspan x="0" y="0" class="st7 st17">T</tspan><tspan x="2.5" y="0" class="st7 st17">r</tspan><tspan x="4.1" y="0" class="st7 st17">a</tspan><tspan x="7" y="0" class="st7 st17">v</tspan><tspan x="9.5" y="0" class="st7 st17">el time </tspan><tspan x="26.4" y="0" class="st7 st17">f</tspan><tspan x="28" y="0" class="st7 st17">or this lin</tspan><tspan x="49.1" y="0" class="st7 st17">k</tspan><tspan x="51.7" y="0" class="st7 st17">, in seconds</tspan></text>
	</g>
	<g style="clip-path:url(#SVGID_00000129177820679010497930000016688987472747911558_);">
		<text transform="matrix(1 0 0 1 228.6348 338.1823)"><tspan x="0" y="0" class="st7 st17">4</tspan><tspan x="3" y="0" class="st7 st17">6</tspan></text>
	</g>
</g>
</svg>
