<?xml version="1.0" encoding="utf-8"?>
<!-- Generator: Adobe Illustrator 28.0.0, SVG Export Plug-In . SVG Version: 6.00 Build 0)  -->
<svg version="1.1" id="Layer_1" xmlns="http://www.w3.org/2000/svg" xmlns:xlink="http://www.w3.org/1999/xlink" x="0px" y="0px"
	 viewBox="0 0 419.5 595.3" style="enable-background:new 0 0 419.5 595.3;" xml:space="preserve">
<style type="text/css">
	.st0{font-family:'BodoniSvtyTwoOSITCTT-BookIt';}
	.st1{font-size:7.6194px;}
	.st2{font-family:'TimesNewRomanPS-ItalicMT';}
	.st3{font-size:12px;}
	.st4{font-size:6.996px;}
	.st5{font-family:'BodoniSvtyTwoITCTT-Book';}
	.st6{font-size:9px;}
	.st7{fill:none;stroke:#15233A;stroke-width:0.25;}
	.st8{font-size:7.5048px;}
</style>
<text transform="matrix(1 0 0 1 189.022 293.2975)" class="st0 st1"> −</text>
<text transform="matrix(1 0 0 1 194.4316 292.2994)" class="st0 st1">|z|</text>
<text transform="matrix(1 0 0 1 205.3809 292.2994)" class="st0 st1"> </text>
<text transform="matrix(1 0 0 1 195.0259 301.443)" class="st2 st1">σ</text>
<text transform="matrix(1 0 0 1 147.0352 302.4137)" class="st0 st3"> p(z)</text>
<text transform="matrix(1 0 0 1 167.9385 298.4176)" class="st0 st4"> </text>
<text transform="matrix(1 0 0 1 169.2397 302.4137)" class="st0 st3">= e</text>
<text transform="matrix(1 0 0 1 269.3184 299.986)" class="st5 st6">(3)</text>
<line class="st7" x1="187.4" y1="296.2" x2="207" y2="296.2"/>
<text transform="matrix(1 0 0 1 210.4199 302.4137)" class="st0 st3">= e</text>
<text transform="matrix(1 0 0 1 225.0117 298.1569)" class="st0 st8"> </text>
<text transform="matrix(1 0 0 1 226.4072 299.1549)" class="st0 st8">−</text>
<text transform="matrix(1 0 0 1 230.3398 298.1569)" class="st0 st8">|z|e</text>
<text transform="matrix(1 0 0 1 243.9766 298.1569)" class="st0 st8"> </text>
</svg>
