<?xml version="1.0" encoding="utf-8"?>
<!-- Generator: Adobe Illustrator 28.0.0, SVG Export Plug-In . SVG Version: 6.00 Build 0)  -->
<svg version="1.1" id="Layer_1" xmlns="http://www.w3.org/2000/svg" xmlns:xlink="http://www.w3.org/1999/xlink" x="0px" y="0px"
	 viewBox="0 0 419.5 595.3" style="enable-background:new 0 0 419.5 595.3;" xml:space="preserve">
<style type="text/css">
	.st0{clip-path:url(#SVGID_00000015331075340995519080000012098437197725950388_);}
	.st1{opacity:0.5;clip-path:url(#SVGID_00000098201677289236521960000001943314820532532617_);}
	.st2{clip-path:url(#SVGID_00000077307502308430846720000017404519601914444680_);}
	.st3{clip-path:url(#SVGID_00000043426603098823957710000003712003905170726037_);fill:none;stroke:#B7BABB;stroke-width:0.25;}
	.st4{clip-path:url(#SVGID_00000043426603098823957710000003712003905170726037_);fill:none;stroke:#B7BABB;stroke-width:0.2;}
	.st5{clip-path:url(#SVGID_00000015331075340995519080000012098437197725950388_);fill:#00109F;}
	.st6{fill:#FFFFFF;}
	.st7{font-family:'Colfax-Regular';}
	.st8{font-size:4px;}
	.st9{font-family:'Colfax-Bold';}
	.st10{font-size:8px;}
	.st11{clip-path:url(#SVGID_00000015331075340995519080000012098437197725950388_);fill:none;stroke:#00109F;stroke-width:0.5;}
	
		.st12{clip-path:url(#SVGID_00000015331075340995519080000012098437197725950388_);fill:none;stroke:#8B8F91;stroke-width:0.25;stroke-linecap:round;stroke-linejoin:round;}
	.st13{clip-path:url(#SVGID_00000015331075340995519080000012098437197725950388_);fill:#8B8F91;}
	.st14{font-size:5.607px;}
	.st15{clip-path:url(#SVGID_00000015331075340995519080000012098437197725950388_);fill:#FFFFFF;}
	.st16{fill:#8B8F91;}
	.st17{font-size:4.459px;}
	.st18{clip-path:url(#SVGID_00000015331075340995519080000012098437197725950388_);fill:none;stroke:#8B8F91;stroke-width:0.25;}
	.st19{clip-path:url(#SVGID_00000019640732772711785950000015708036117048189600_);fill:#FFFFFF;}
	.st20{clip-path:url(#SVGID_00000019640732772711785950000015708036117048189600_);fill:none;stroke:#B7BABB;stroke-width:0.327;}
	.st21{clip-path:url(#SVGID_00000019640732772711785950000015708036117048189600_);fill:#E0E2E3;}
	.st22{clip-path:url(#SVGID_00000019640732772711785950000015708036117048189600_);fill:none;stroke:#B7BABB;stroke-width:2.62;}
	.st23{fill:#15233A;}
	.st24{font-size:9.2472px;}
	.st25{font-size:5.733px;}
	.st26{clip-path:url(#SVGID_00000119089948793860786850000002813439831098000807_);fill:#8B8F91;}
	.st27{clip-path:url(#SVGID_00000015331075340995519080000012098437197725950388_);fill:none;stroke:#F04E29;stroke-width:0.25;}
</style>
<g>
	<defs>
		<rect id="SVGID_1_" width="419.5" height="595.3"/>
	</defs>
	<clipPath id="SVGID_00000139254763169452193290000008843622492829976979_">
		<use xlink:href="#SVGID_1_"  style="overflow:visible;"/>
	</clipPath>
	<g style="clip-path:url(#SVGID_00000139254763169452193290000008843622492829976979_);">
		<defs>
			<rect id="SVGID_00000146482146411092241000000013374694150507685542_" width="419.5" height="595.3"/>
		</defs>
		<clipPath id="SVGID_00000131356468395815992340000006978584909748691605_">
			<use xlink:href="#SVGID_00000146482146411092241000000013374694150507685542_"  style="overflow:visible;"/>
		</clipPath>
		<g style="opacity:0.5;clip-path:url(#SVGID_00000131356468395815992340000006978584909748691605_);">
			<g>
				<defs>
					<rect id="SVGID_00000036963164563783066560000016955664830206627971_" x="19.3" y="253.8" width="343.9" height="96"/>
				</defs>
				<clipPath id="SVGID_00000102502014831751516450000004907896522684812161_">
					<use xlink:href="#SVGID_00000036963164563783066560000016955664830206627971_"  style="overflow:visible;"/>
				</clipPath>
				<g style="clip-path:url(#SVGID_00000102502014831751516450000004907896522684812161_);">
					<defs>
						<polygon id="SVGID_00000124857965142935259040000004202159540330729866_" points="28.3,260.8 28.3,260.8 28.3,348.8 
							354.3,348.8 354.3,260.8 						"/>
					</defs>
					<clipPath id="SVGID_00000140692529507130531400000014684564309509095077_">
						<use xlink:href="#SVGID_00000124857965142935259040000004202159540330729866_"  style="overflow:visible;"/>
					</clipPath>
					
						<line style="clip-path:url(#SVGID_00000140692529507130531400000014684564309509095077_);fill:none;stroke:#B7BABB;stroke-width:0.25;" x1="354.8" y1="96.5" x2="354.8" y2="422.5"/>
					
						<line style="clip-path:url(#SVGID_00000140692529507130531400000014684564309509095077_);fill:none;stroke:#B7BABB;stroke-width:0.25;" x1="347.7" y1="96.5" x2="347.7" y2="422.5"/>
					
						<line style="clip-path:url(#SVGID_00000140692529507130531400000014684564309509095077_);fill:none;stroke:#B7BABB;stroke-width:0.25;" x1="340.6" y1="96.5" x2="340.6" y2="422.5"/>
					
						<line style="clip-path:url(#SVGID_00000140692529507130531400000014684564309509095077_);fill:none;stroke:#B7BABB;stroke-width:0.25;" x1="333.5" y1="96.5" x2="333.5" y2="422.5"/>
					
						<line style="clip-path:url(#SVGID_00000140692529507130531400000014684564309509095077_);fill:none;stroke:#B7BABB;stroke-width:0.25;" x1="326.4" y1="96.5" x2="326.4" y2="422.5"/>
					
						<line style="clip-path:url(#SVGID_00000140692529507130531400000014684564309509095077_);fill:none;stroke:#B7BABB;stroke-width:0.25;" x1="319.4" y1="96.5" x2="319.4" y2="422.5"/>
					
						<line style="clip-path:url(#SVGID_00000140692529507130531400000014684564309509095077_);fill:none;stroke:#B7BABB;stroke-width:0.25;" x1="312.3" y1="96.5" x2="312.3" y2="422.5"/>
					
						<line style="clip-path:url(#SVGID_00000140692529507130531400000014684564309509095077_);fill:none;stroke:#B7BABB;stroke-width:0.25;" x1="305.2" y1="96.5" x2="305.2" y2="422.5"/>
					
						<line style="clip-path:url(#SVGID_00000140692529507130531400000014684564309509095077_);fill:none;stroke:#B7BABB;stroke-width:0.25;" x1="298.1" y1="96.5" x2="298.1" y2="422.5"/>
					
						<line style="clip-path:url(#SVGID_00000140692529507130531400000014684564309509095077_);fill:none;stroke:#B7BABB;stroke-width:0.25;" x1="291" y1="96.5" x2="291" y2="422.5"/>
					
						<line style="clip-path:url(#SVGID_00000140692529507130531400000014684564309509095077_);fill:none;stroke:#B7BABB;stroke-width:0.25;" x1="283.9" y1="96.5" x2="283.9" y2="422.5"/>
					
						<line style="clip-path:url(#SVGID_00000140692529507130531400000014684564309509095077_);fill:none;stroke:#B7BABB;stroke-width:0.25;" x1="276.8" y1="96.5" x2="276.8" y2="422.5"/>
					
						<line style="clip-path:url(#SVGID_00000140692529507130531400000014684564309509095077_);fill:none;stroke:#B7BABB;stroke-width:0.25;" x1="269.8" y1="96.5" x2="269.8" y2="422.5"/>
					
						<line style="clip-path:url(#SVGID_00000140692529507130531400000014684564309509095077_);fill:none;stroke:#B7BABB;stroke-width:0.25;" x1="262.7" y1="96.5" x2="262.7" y2="422.5"/>
					
						<line style="clip-path:url(#SVGID_00000140692529507130531400000014684564309509095077_);fill:none;stroke:#B7BABB;stroke-width:0.25;" x1="255.6" y1="96.5" x2="255.6" y2="422.5"/>
					
						<line style="clip-path:url(#SVGID_00000140692529507130531400000014684564309509095077_);fill:none;stroke:#B7BABB;stroke-width:0.25;" x1="248.5" y1="96.5" x2="248.5" y2="422.5"/>
					
						<line style="clip-path:url(#SVGID_00000140692529507130531400000014684564309509095077_);fill:none;stroke:#B7BABB;stroke-width:0.25;" x1="241.4" y1="96.5" x2="241.4" y2="422.5"/>
					
						<line style="clip-path:url(#SVGID_00000140692529507130531400000014684564309509095077_);fill:none;stroke:#B7BABB;stroke-width:0.25;" x1="234.3" y1="96.5" x2="234.3" y2="422.5"/>
					
						<line style="clip-path:url(#SVGID_00000140692529507130531400000014684564309509095077_);fill:none;stroke:#B7BABB;stroke-width:0.25;" x1="227.2" y1="96.5" x2="227.2" y2="422.5"/>
					
						<line style="clip-path:url(#SVGID_00000140692529507130531400000014684564309509095077_);fill:none;stroke:#B7BABB;stroke-width:0.25;" x1="220.1" y1="96.5" x2="220.1" y2="422.5"/>
					
						<line style="clip-path:url(#SVGID_00000140692529507130531400000014684564309509095077_);fill:none;stroke:#B7BABB;stroke-width:0.25;" x1="213.1" y1="96.5" x2="213.1" y2="422.5"/>
					
						<line style="clip-path:url(#SVGID_00000140692529507130531400000014684564309509095077_);fill:none;stroke:#B7BABB;stroke-width:0.25;" x1="206" y1="96.5" x2="206" y2="422.5"/>
					
						<line style="clip-path:url(#SVGID_00000140692529507130531400000014684564309509095077_);fill:none;stroke:#B7BABB;stroke-width:0.25;" x1="198.9" y1="96.5" x2="198.9" y2="422.5"/>
					
						<line style="clip-path:url(#SVGID_00000140692529507130531400000014684564309509095077_);fill:none;stroke:#B7BABB;stroke-width:0.25;" x1="191.8" y1="96.5" x2="191.8" y2="422.5"/>
					
						<line style="clip-path:url(#SVGID_00000140692529507130531400000014684564309509095077_);fill:none;stroke:#B7BABB;stroke-width:0.25;" x1="184.7" y1="96.5" x2="184.7" y2="422.5"/>
					
						<line style="clip-path:url(#SVGID_00000140692529507130531400000014684564309509095077_);fill:none;stroke:#B7BABB;stroke-width:0.25;" x1="177.6" y1="96.5" x2="177.6" y2="422.5"/>
					
						<line style="clip-path:url(#SVGID_00000140692529507130531400000014684564309509095077_);fill:none;stroke:#B7BABB;stroke-width:0.25;" x1="170.5" y1="96.5" x2="170.5" y2="422.5"/>
					
						<line style="clip-path:url(#SVGID_00000140692529507130531400000014684564309509095077_);fill:none;stroke:#B7BABB;stroke-width:0.25;" x1="163.5" y1="96.5" x2="163.5" y2="422.5"/>
					
						<line style="clip-path:url(#SVGID_00000140692529507130531400000014684564309509095077_);fill:none;stroke:#B7BABB;stroke-width:0.25;" x1="156.4" y1="96.5" x2="156.4" y2="422.5"/>
					
						<line style="clip-path:url(#SVGID_00000140692529507130531400000014684564309509095077_);fill:none;stroke:#B7BABB;stroke-width:0.25;" x1="149.3" y1="96.5" x2="149.3" y2="422.5"/>
					
						<line style="clip-path:url(#SVGID_00000140692529507130531400000014684564309509095077_);fill:none;stroke:#B7BABB;stroke-width:0.25;" x1="142.2" y1="96.5" x2="142.2" y2="422.5"/>
					
						<line style="clip-path:url(#SVGID_00000140692529507130531400000014684564309509095077_);fill:none;stroke:#B7BABB;stroke-width:0.25;" x1="135.1" y1="96.5" x2="135.1" y2="422.5"/>
					
						<line style="clip-path:url(#SVGID_00000140692529507130531400000014684564309509095077_);fill:none;stroke:#B7BABB;stroke-width:0.25;" x1="128" y1="96.5" x2="128" y2="422.5"/>
					
						<line style="clip-path:url(#SVGID_00000140692529507130531400000014684564309509095077_);fill:none;stroke:#B7BABB;stroke-width:0.25;" x1="120.9" y1="96.5" x2="120.9" y2="422.5"/>
					
						<line style="clip-path:url(#SVGID_00000140692529507130531400000014684564309509095077_);fill:none;stroke:#B7BABB;stroke-width:0.25;" x1="113.8" y1="96.5" x2="113.8" y2="422.5"/>
					
						<line style="clip-path:url(#SVGID_00000140692529507130531400000014684564309509095077_);fill:none;stroke:#B7BABB;stroke-width:0.25;" x1="106.8" y1="96.5" x2="106.8" y2="422.5"/>
					
						<line style="clip-path:url(#SVGID_00000140692529507130531400000014684564309509095077_);fill:none;stroke:#B7BABB;stroke-width:0.25;" x1="99.7" y1="96.5" x2="99.7" y2="422.5"/>
					
						<line style="clip-path:url(#SVGID_00000140692529507130531400000014684564309509095077_);fill:none;stroke:#B7BABB;stroke-width:0.25;" x1="92.6" y1="96.5" x2="92.6" y2="422.5"/>
					
						<line style="clip-path:url(#SVGID_00000140692529507130531400000014684564309509095077_);fill:none;stroke:#B7BABB;stroke-width:0.25;" x1="85.5" y1="96.5" x2="85.5" y2="422.5"/>
					
						<line style="clip-path:url(#SVGID_00000140692529507130531400000014684564309509095077_);fill:none;stroke:#B7BABB;stroke-width:0.25;" x1="78.4" y1="96.5" x2="78.4" y2="422.5"/>
					
						<line style="clip-path:url(#SVGID_00000140692529507130531400000014684564309509095077_);fill:none;stroke:#B7BABB;stroke-width:0.25;" x1="71.3" y1="96.5" x2="71.3" y2="422.5"/>
					
						<line style="clip-path:url(#SVGID_00000140692529507130531400000014684564309509095077_);fill:none;stroke:#B7BABB;stroke-width:0.25;" x1="64.2" y1="96.5" x2="64.2" y2="422.5"/>
					
						<line style="clip-path:url(#SVGID_00000140692529507130531400000014684564309509095077_);fill:none;stroke:#B7BABB;stroke-width:0.25;" x1="57.2" y1="96.5" x2="57.2" y2="422.5"/>
					
						<line style="clip-path:url(#SVGID_00000140692529507130531400000014684564309509095077_);fill:none;stroke:#B7BABB;stroke-width:0.25;" x1="50.1" y1="96.5" x2="50.1" y2="422.5"/>
					
						<line style="clip-path:url(#SVGID_00000140692529507130531400000014684564309509095077_);fill:none;stroke:#B7BABB;stroke-width:0.25;" x1="43" y1="96.5" x2="43" y2="422.5"/>
					
						<line style="clip-path:url(#SVGID_00000140692529507130531400000014684564309509095077_);fill:none;stroke:#B7BABB;stroke-width:0.25;" x1="35.9" y1="96.5" x2="35.9" y2="422.5"/>
					
						<line style="clip-path:url(#SVGID_00000140692529507130531400000014684564309509095077_);fill:none;stroke:#B7BABB;stroke-width:0.25;" x1="28.8" y1="96.5" x2="28.8" y2="422.5"/>
					
						<line style="clip-path:url(#SVGID_00000140692529507130531400000014684564309509095077_);fill:none;stroke:#B7BABB;stroke-width:0.2;" x1="354.7" y1="344.7" x2="28.7" y2="344.7"/>
					
						<line style="clip-path:url(#SVGID_00000140692529507130531400000014684564309509095077_);fill:none;stroke:#B7BABB;stroke-width:0.2;" x1="354.7" y1="337.6" x2="28.7" y2="337.6"/>
					
						<line style="clip-path:url(#SVGID_00000140692529507130531400000014684564309509095077_);fill:none;stroke:#B7BABB;stroke-width:0.2;" x1="354.7" y1="330.5" x2="28.7" y2="330.5"/>
					
						<line style="clip-path:url(#SVGID_00000140692529507130531400000014684564309509095077_);fill:none;stroke:#B7BABB;stroke-width:0.2;" x1="354.7" y1="323.4" x2="28.7" y2="323.4"/>
					
						<line style="clip-path:url(#SVGID_00000140692529507130531400000014684564309509095077_);fill:none;stroke:#B7BABB;stroke-width:0.2;" x1="354.7" y1="316.3" x2="28.7" y2="316.3"/>
					
						<line style="clip-path:url(#SVGID_00000140692529507130531400000014684564309509095077_);fill:none;stroke:#B7BABB;stroke-width:0.2;" x1="354.7" y1="309.2" x2="28.7" y2="309.2"/>
					
						<line style="clip-path:url(#SVGID_00000140692529507130531400000014684564309509095077_);fill:none;stroke:#B7BABB;stroke-width:0.2;" x1="354.7" y1="302.1" x2="28.7" y2="302.1"/>
					
						<line style="clip-path:url(#SVGID_00000140692529507130531400000014684564309509095077_);fill:none;stroke:#B7BABB;stroke-width:0.2;" x1="354.7" y1="295" x2="28.7" y2="295"/>
					
						<line style="clip-path:url(#SVGID_00000140692529507130531400000014684564309509095077_);fill:none;stroke:#B7BABB;stroke-width:0.2;" x1="354.7" y1="288" x2="28.7" y2="288"/>
					
						<line style="clip-path:url(#SVGID_00000140692529507130531400000014684564309509095077_);fill:none;stroke:#B7BABB;stroke-width:0.2;" x1="354.7" y1="280.9" x2="28.7" y2="280.9"/>
					
						<line style="clip-path:url(#SVGID_00000140692529507130531400000014684564309509095077_);fill:none;stroke:#B7BABB;stroke-width:0.2;" x1="354.7" y1="273.8" x2="28.7" y2="273.8"/>
					
						<line style="clip-path:url(#SVGID_00000140692529507130531400000014684564309509095077_);fill:none;stroke:#B7BABB;stroke-width:0.2;" x1="354.7" y1="266.7" x2="28.7" y2="266.7"/>
				</g>
			</g>
		</g>
	</g>
	<polygon style="clip-path:url(#SVGID_00000139254763169452193290000008843622492829976979_);fill:#00109F;" points="28.4,246.5 
		28.4,246.5 28.4,260.8 172.3,260.8 172.3,246.5 	"/>
	<g style="clip-path:url(#SVGID_00000139254763169452193290000008843622492829976979_);">
		<text transform="matrix(1 0 0 1 31.2124 250.4264)"><tspan x="0" y="0" class="st6 st7 st8">Figu</tspan><tspan x="8" y="0" class="st6 st7 st8">r</tspan><tspan x="9.4" y="0" class="st6 st7 st8">e </tspan><tspan x="12.6" y="0" class="st6 st7 st8">5</tspan><tspan x="15.1" y="0" class="st6 st7 st8">: </tspan></text>
	</g>
	<g style="clip-path:url(#SVGID_00000139254763169452193290000008843622492829976979_);">
		<text transform="matrix(1 0 0 1 48.1841 250.4264)" class="st6 st7 st8"> </text>
	</g>
	<g style="clip-path:url(#SVGID_00000139254763169452193290000008843622492829976979_);">
		<text transform="matrix(1 0 0 1 31.2124 258.4264)"><tspan x="0" y="0" class="st6 st9 st10">The </tspan><tspan x="16.1" y="0" class="st6 st9 st10">D</tspan><tspan x="21.8" y="0" class="st6 st9 st10">a</tspan><tspan x="26.5" y="0" class="st6 st9 st10">t</tspan><tspan x="29.7" y="0" class="st6 st9 st10">a P</tspan><tspan x="41.8" y="0" class="st6 st9 st10">r</tspan><tspan x="44.9" y="0" class="st6 st9 st10">e P</tspan><tspan x="56.7" y="0" class="st6 st9 st10">r</tspan><tspan x="59.8" y="0" class="st6 st9 st10">o</tspan><tspan x="64.5" y="0" class="st6 st9 st10">c</tspan><tspan x="69.1" y="0" class="st6 st9 st10">es</tspan><tspan x="77.9" y="0" class="st6 st9 st10">sing P</tspan><tspan x="101.6" y="0" class="st6 st9 st10">r</tspan><tspan x="104.7" y="0" class="st6 st9 st10">o</tspan><tspan x="109.4" y="0" class="st6 st9 st10">c</tspan><tspan x="114" y="0" class="st6 st9 st10">edu</tspan><tspan x="128.4" y="0" class="st6 st9 st10">r</tspan><tspan x="131.5" y="0" class="st6 st9 st10">e</tspan></text>
	</g>
	
		<line style="clip-path:url(#SVGID_00000139254763169452193290000008843622492829976979_);fill:none;stroke:#00109F;stroke-width:0.5;" x1="134.6" y1="260.5" x2="354.2" y2="260.5"/>
	
		<polyline style="clip-path:url(#SVGID_00000139254763169452193290000008843622492829976979_);fill:none;stroke:#8B8F91;stroke-width:0.25;stroke-linecap:round;stroke-linejoin:round;" points="
		266.7,306.6 274.2,306.6 274.2,281.8 331.3,281.8 	"/>
	
		<polyline style="clip-path:url(#SVGID_00000139254763169452193290000008843622492829976979_);fill:none;stroke:#8B8F91;stroke-width:0.25;stroke-linecap:round;stroke-linejoin:round;" points="
		266.3,308.5 276.1,308.5 276.1,304.5 290.6,304.5 	"/>
	
		<polyline style="clip-path:url(#SVGID_00000139254763169452193290000008843622492829976979_);fill:none;stroke:#8B8F91;stroke-width:0.25;stroke-linecap:round;stroke-linejoin:round;" points="
		265.4,310.3 276.3,310.3 276.3,327.3 303.8,327.3 	"/>
	<polygon style="clip-path:url(#SVGID_00000139254763169452193290000008843622492829976979_);fill:#8B8F91;" points="290.8,277.9 
		290.8,286.3 331.9,286.3 333.8,284.4 333.8,277.9 	"/>
	<g style="clip-path:url(#SVGID_00000139254763169452193290000008843622492829976979_);">
		<text transform="matrix(1 0 0 1 292.5205 284.2242)"><tspan x="0" y="0" class="st6 st9 st14">T</tspan><tspan x="3" y="0" class="st6 st9 st14">r</tspan><tspan x="4.9" y="0" class="st6 st9 st14">aining S</tspan><tspan x="25.8" y="0" class="st6 st9 st14">e</tspan><tspan x="28.8" y="0" class="st6 st9 st14">t</tspan></text>
	</g>
	<polygon style="clip-path:url(#SVGID_00000139254763169452193290000008843622492829976979_);fill:#8B8F91;" points="290.8,323.4 
		290.8,331.7 331.9,331.7 333.8,329.8 333.8,323.4 	"/>
	<g style="clip-path:url(#SVGID_00000139254763169452193290000008843622492829976979_);">
		<text transform="matrix(1 0 0 1 292.8154 329.6451)"><tspan x="0" y="0" class="st6 st9 st14">E</tspan><tspan x="3.4" y="0" class="st6 st9 st14">v</tspan><tspan x="6.1" y="0" class="st6 st9 st14">al</tspan><tspan x="10.8" y="0" class="st6 st9 st14">u</tspan><tspan x="14.1" y="0" class="st6 st9 st14">a</tspan><tspan x="17.3" y="0" class="st6 st9 st14">ti</tspan><tspan x="20.9" y="0" class="st6 st9 st14">o</tspan><tspan x="24" y="0" class="st6 st9 st14">n S</tspan><tspan x="32" y="0" class="st6 st9 st14">e</tspan><tspan x="35" y="0" class="st6 st9 st14">t</tspan></text>
	</g>
	<polygon style="clip-path:url(#SVGID_00000139254763169452193290000008843622492829976979_);fill:#8B8F91;" points="290.8,300.6 
		290.8,309 331.9,309 333.8,307.1 333.8,300.6 	"/>
	<g style="clip-path:url(#SVGID_00000139254763169452193290000008843622492829976979_);">
		<text transform="matrix(1 0 0 1 292.5205 306.9342)"><tspan x="0" y="0" class="st6 st9 st14">T</tspan><tspan x="2.8" y="0" class="st6 st9 st14">e</tspan><tspan x="5.8" y="0" class="st6 st9 st14">s</tspan><tspan x="8.6" y="0" class="st6 st9 st14">ting S</tspan><tspan x="23.5" y="0" class="st6 st9 st14">e</tspan><tspan x="26.5" y="0" class="st6 st9 st14">t</tspan></text>
	</g>
	<polygon style="clip-path:url(#SVGID_00000139254763169452193290000008843622492829976979_);fill:#FFFFFF;" points="43.1,295 
		43.1,303.9 122.1,303.9 124,302 124,295 	"/>
	<g style="clip-path:url(#SVGID_00000139254763169452193290000008843622492829976979_);">
		<text transform="matrix(1 0 0 1 45.5225 301.0973)"><tspan x="0" y="0" class="st16 st9 st17">En</tspan><tspan x="5.5" y="0" class="st16 st9 st17">c</tspan><tspan x="8.1" y="0" class="st16 st9 st17">oding C</tspan><tspan x="24.5" y="0" class="st16 st9 st17">a</tspan><tspan x="27.1" y="0" class="st16 st9 st17">tegorical </tspan><tspan x="47.5" y="0" class="st16 st9 st17">F</tspan><tspan x="50.2" y="0" class="st16 st9 st17">e</tspan><tspan x="52.7" y="0" class="st16 st9 st17">a</tspan><tspan x="55.3" y="0" class="st16 st9 st17">tu</tspan><tspan x="59.8" y="0" class="st16 st9 st17">r</tspan><tspan x="61.5" y="0" class="st16 st9 st17">es</tspan></text>
	</g>
	
		<polygon style="clip-path:url(#SVGID_00000139254763169452193290000008843622492829976979_);fill:none;stroke:#8B8F91;stroke-width:0.25;" points="
		43.1,295 43.1,303.9 122.1,303.9 124,302 124,295 	"/>
	<polygon style="clip-path:url(#SVGID_00000139254763169452193290000008843622492829976979_);fill:#FFFFFF;" points="43.1,284.3 
		43.1,293.3 85.8,293.3 87.7,291.3 87.7,284.3 	"/>
	<g style="clip-path:url(#SVGID_00000139254763169452193290000008843622492829976979_);">
		<text transform="matrix(1 0 0 1 45.5225 290.4728)"><tspan x="0" y="0" class="st16 st9 st17">Normali</tspan><tspan x="17.1" y="0" class="st16 st9 st17">z</tspan><tspan x="19.4" y="0" class="st16 st9 st17">a</tspan><tspan x="22" y="0" class="st16 st9 st17">tion</tspan></text>
	</g>
	
		<polygon style="clip-path:url(#SVGID_00000139254763169452193290000008843622492829976979_);fill:none;stroke:#8B8F91;stroke-width:0.25;" points="
		43.1,284.3 43.1,293.3 85.8,293.3 87.7,291.3 87.7,284.3 	"/>
	<polygon style="clip-path:url(#SVGID_00000139254763169452193290000008843622492829976979_);fill:#FFFFFF;" points="43.1,316.2 
		43.1,325.1 85.8,325.1 87.7,323.2 87.7,316.2 	"/>
	<g style="clip-path:url(#SVGID_00000139254763169452193290000008843622492829976979_);">
		<text transform="matrix(1 0 0 1 45.4873 322.3473)" class="st16 st9 st17">Scaling</text>
	</g>
	
		<polygon style="clip-path:url(#SVGID_00000139254763169452193290000008843622492829976979_);fill:none;stroke:#8B8F91;stroke-width:0.25;" points="
		43.1,316.2 43.1,325.1 85.8,325.1 87.7,323.2 87.7,316.2 	"/>
	<polygon style="clip-path:url(#SVGID_00000139254763169452193290000008843622492829976979_);fill:#FFFFFF;" points="43.1,326.8 
		43.1,335.8 85.8,335.8 87.7,333.8 87.7,326.8 	"/>
	<g style="clip-path:url(#SVGID_00000139254763169452193290000008843622492829976979_);">
		<text transform="matrix(1 0 0 1 45.522 332.9713)"><tspan x="0" y="0" class="st16 st9 st17">Disc</tspan><tspan x="9.5" y="0" class="st16 st9 st17">r</tspan><tspan x="11.2" y="0" class="st16 st9 st17">e</tspan><tspan x="13.7" y="0" class="st16 st9 st17">ti</tspan><tspan x="16.8" y="0" class="st16 st9 st17">z</tspan><tspan x="19.1" y="0" class="st16 st9 st17">a</tspan><tspan x="21.7" y="0" class="st16 st9 st17">tion</tspan></text>
	</g>
	
		<polygon style="clip-path:url(#SVGID_00000139254763169452193290000008843622492829976979_);fill:none;stroke:#8B8F91;stroke-width:0.25;" points="
		43.1,326.8 43.1,335.8 85.8,335.8 87.7,333.8 87.7,326.8 	"/>
	<polygon style="clip-path:url(#SVGID_00000139254763169452193290000008843622492829976979_);fill:#FFFFFF;" points="43.1,305.6 
		43.1,314.5 87.1,314.5 89,312.6 89,305.6 	"/>
	<g style="clip-path:url(#SVGID_00000139254763169452193290000008843622492829976979_);">
		<text transform="matrix(1 0 0 1 45.4873 311.7223)"><tspan x="0" y="0" class="st16 st9 st17">S</tspan><tspan x="2.9" y="0" class="st16 st9 st17">tanda</tspan><tspan x="15.5" y="0" class="st16 st9 st17">r</tspan><tspan x="17.3" y="0" class="st16 st9 st17">di</tspan><tspan x="21.4" y="0" class="st16 st9 st17">z</tspan><tspan x="23.6" y="0" class="st16 st9 st17">a</tspan><tspan x="26.3" y="0" class="st16 st9 st17">tion</tspan></text>
	</g>
	
		<polygon style="clip-path:url(#SVGID_00000139254763169452193290000008843622492829976979_);fill:none;stroke:#8B8F91;stroke-width:0.25;" points="
		43.1,305.6 43.1,314.5 87.1,314.5 89,312.6 89,305.6 	"/>
	<g style="clip-path:url(#SVGID_00000139254763169452193290000008843622492829976979_);">
		<defs>
			<rect id="SVGID_00000024721724715929378420000008237571088493637522_" width="419.5" height="595.3"/>
		</defs>
		<clipPath id="SVGID_00000175282691174338423690000011944761029273254819_">
			<use xlink:href="#SVGID_00000024721724715929378420000008237571088493637522_"  style="overflow:visible;"/>
		</clipPath>
		<path style="clip-path:url(#SVGID_00000175282691174338423690000011944761029273254819_);fill:#FFFFFF;" d="M240.3,331.6
			c14.8,0,26.7-12,26.7-26.7c0-14.8-12-26.7-26.7-26.7s-26.7,12-26.7,26.7C213.5,319.6,225.5,331.6,240.3,331.6"/>
		
			<ellipse transform="matrix(0.9951 -9.853771e-02 9.853771e-02 0.9951 -28.8682 25.1584)" style="clip-path:url(#SVGID_00000175282691174338423690000011944761029273254819_);fill:none;stroke:#B7BABB;stroke-width:0.327;" cx="240.3" cy="304.8" rx="26.7" ry="26.7"/>
		<path style="clip-path:url(#SVGID_00000175282691174338423690000011944761029273254819_);fill:#E0E2E3;" d="M240.3,322.3
			c9.7,0,17.5-7.8,17.5-17.5c0-9.7-7.8-17.5-17.5-17.5s-17.5,7.8-17.5,17.5C222.8,314.5,230.6,322.3,240.3,322.3"/>
		
			<path style="clip-path:url(#SVGID_00000175282691174338423690000011944761029273254819_);fill:none;stroke:#B7BABB;stroke-width:2.62;" d="
			M267,304.8c0-14.8-12-26.7-26.7-26.7"/>
	</g>
	<g style="clip-path:url(#SVGID_00000139254763169452193290000008843622492829976979_);">
		<text transform="matrix(1 0 0 1 215.9297 290.3385)"><tspan x="0" y="0" class="st23 st9 st24">D</tspan><tspan x="6.6" y="0" class="st23 st9 st24">a</tspan><tspan x="12.1" y="0" class="st23 st9 st24">t</tspan><tspan x="15.7" y="0" class="st23 st9 st24">a P</tspan><tspan x="29.7" y="0" class="st23 st9 st24">r</tspan><tspan x="33.3" y="0" class="st23 st9 st24">e</tspan><tspan x="38.6" y="0" class="st23 st9 st24">-</tspan></text>
	</g>
	<g style="clip-path:url(#SVGID_00000139254763169452193290000008843622492829976979_);">
		<text transform="matrix(1 0 0 1 215.9297 298.5592)"><tspan x="0" y="0" class="st23 st9 st24">P</tspan><tspan x="6.1" y="0" class="st23 st9 st24">r</tspan><tspan x="9.8" y="0" class="st23 st9 st24">o</tspan><tspan x="15.2" y="0" class="st23 st9 st24">c</tspan><tspan x="20.5" y="0" class="st23 st9 st24">e</tspan><tspan x="25.8" y="0" class="st23 st9 st24">s</tspan><tspan x="30.7" y="0" class="st23 st9 st24">sing</tspan></text>
	</g>
	<polygon style="clip-path:url(#SVGID_00000139254763169452193290000008843622492829976979_);fill:#8B8F91;" points="144.6,293.4 
		144.6,301.5 179.5,301.5 181.4,299.6 181.4,293.4 	"/>
	<g style="clip-path:url(#SVGID_00000139254763169452193290000008843622492829976979_);">
		<text transform="matrix(1 0 0 1 147.2266 299.5924)"><tspan x="0" y="0" class="st6 st9 st25">I</tspan><tspan x="1.8" y="0" class="st6 st9 st25">n</tspan><tspan x="5.3" y="0" class="st6 st9 st25">teg</tspan><tspan x="14.4" y="0" class="st6 st9 st25">r</tspan><tspan x="16.5" y="0" class="st6 st9 st25">a</tspan><tspan x="19.9" y="0" class="st6 st9 st25">tion</tspan></text>
	</g>
	<polygon style="clip-path:url(#SVGID_00000139254763169452193290000008843622492829976979_);fill:#8B8F91;" points="144.6,308.2 
		144.6,316.3 192.3,316.3 194.2,314.4 194.2,308.2 	"/>
	<g style="clip-path:url(#SVGID_00000139254763169452193290000008843622492829976979_);">
		<text transform="matrix(1 0 0 1 146.9722 314.3717)"><tspan x="0" y="0" class="st6 st9 st25">T</tspan><tspan x="3.2" y="0" class="st6 st9 st25">r</tspan><tspan x="5.3" y="0" class="st6 st9 st25">an</tspan><tspan x="12.2" y="0" class="st6 st9 st25">s</tspan><tspan x="15.3" y="0" class="st6 st9 st25">f</tspan><tspan x="17.3" y="0" class="st6 st9 st25">orm</tspan><tspan x="28.2" y="0" class="st6 st9 st25">a</tspan><tspan x="31.6" y="0" class="st6 st9 st25">t</tspan><tspan x="33.9" y="0" class="st6 st9 st25">k</tspan><tspan x="37.1" y="0" class="st6 st9 st25">on</tspan></text>
	</g>
	<polygon style="clip-path:url(#SVGID_00000139254763169452193290000008843622492829976979_);fill:#8B8F91;" points="144.6,322.3 
		144.6,331.7 175.2,331.7 177.1,329.8 177.1,322.3 	"/>
	<g style="clip-path:url(#SVGID_00000139254763169452193290000008843622492829976979_);">
		<text transform="matrix(1 0 0 1 147.2612 329.15)" class="st6 st9 st25">Labeling</text>
	</g>
	<polygon style="clip-path:url(#SVGID_00000139254763169452193290000008843622492829976979_);fill:#8B8F91;" points="144.2,277.9 
		144.2,287.4 174.8,287.4 176.8,285.5 176.8,277.9 	"/>
	<g style="clip-path:url(#SVGID_00000139254763169452193290000008843622492829976979_);">
		<text transform="matrix(1 0 0 1 146.7783 284.8141)"><tspan x="0" y="0" class="st6 st9 st25">Cl</tspan><tspan x="5.8" y="0" class="st6 st9 st25">e</tspan><tspan x="9" y="0" class="st6 st9 st25">aning</tspan></text>
	</g>
	
		<polyline style="clip-path:url(#SVGID_00000139254763169452193290000008843622492829976979_);fill:none;stroke:#8B8F91;stroke-width:0.25;stroke-linecap:round;stroke-linejoin:round;" points="
		213.4,306.6 206,306.6 206,281.8 148.9,281.8 	"/>
	
		<polyline style="clip-path:url(#SVGID_00000139254763169452193290000008843622492829976979_);fill:none;stroke:#8B8F91;stroke-width:0.25;stroke-linecap:round;stroke-linejoin:round;" points="
		213.9,308.5 204.1,308.5 204.1,296.5 176.6,296.5 	"/>
	
		<polyline style="clip-path:url(#SVGID_00000139254763169452193290000008843622492829976979_);fill:none;stroke:#8B8F91;stroke-width:0.25;stroke-linecap:round;stroke-linejoin:round;" points="
		214.8,312.2 203.9,312.2 203.9,325.4 176.4,325.4 	"/>
	
		<line style="clip-path:url(#SVGID_00000139254763169452193290000008843622492829976979_);fill:none;stroke:#8B8F91;stroke-width:0.25;stroke-linecap:round;stroke-linejoin:round;" x1="214.2" y1="310.4" x2="194.4" y2="310.4"/>
	
		<polyline style="clip-path:url(#SVGID_00000139254763169452193290000008843622492829976979_);fill:none;stroke:#8B8F91;stroke-width:0.25;stroke-linecap:round;stroke-linejoin:round;" points="
		144.6,310.5 133.8,310.5 133.8,287.7 87.8,287.7 	"/>
	
		<polyline style="clip-path:url(#SVGID_00000139254763169452193290000008843622492829976979_);fill:none;stroke:#8B8F91;stroke-width:0.25;stroke-linecap:round;stroke-linejoin:round;" points="
		144.6,311.6 130.6,311.6 130.6,298.5 123.9,298.5 	"/>
	
		<polyline style="clip-path:url(#SVGID_00000139254763169452193290000008843622492829976979_);fill:none;stroke:#8B8F91;stroke-width:0.25;stroke-linecap:round;stroke-linejoin:round;" points="
		144.6,315 137.1,315 137.1,330.7 87.6,330.7 	"/>
	
		<polyline style="clip-path:url(#SVGID_00000139254763169452193290000008843622492829976979_);fill:none;stroke:#8B8F91;stroke-width:0.25;stroke-linecap:round;stroke-linejoin:round;" points="
		144.5,313.9 134,313.9 134,319.7 87.7,319.7 	"/>
	
		<polyline style="clip-path:url(#SVGID_00000139254763169452193290000008843622492829976979_);fill:none;stroke:#8B8F91;stroke-width:0.25;stroke-linecap:round;stroke-linejoin:round;" points="
		144.6,312.7 127.3,312.7 127.3,308.3 89,308.3 	"/>
	<g style="clip-path:url(#SVGID_00000139254763169452193290000008843622492829976979_);">
		<defs>
			<rect id="SVGID_00000044158576073106616750000011195124367847959722_" width="419.5" height="595.3"/>
		</defs>
		<clipPath id="SVGID_00000078754290357698853640000006442582246376199834_">
			<use xlink:href="#SVGID_00000044158576073106616750000011195124367847959722_"  style="overflow:visible;"/>
		</clipPath>
		<path style="clip-path:url(#SVGID_00000078754290357698853640000006442582246376199834_);fill:#8B8F91;" d="M238.2,307.2
			c0,0,0.1,0,0.1,0c0,0,0.1,0,0.1,0l0.5-0.2l1.2,0.6l-1.8,0.9l-1.8-0.9l1.2-0.6L238.2,307.2z M238.2,305.3c0,0,0.1,0,0.1,0
			c0,0,0.1,0,0.1,0l0.5-0.2l1.2,0.6l-1.2,0.6l-0.4,0.2l-0.2,0.1l-0.2-0.1l-0.4-0.2l-1.2-0.6l1.2-0.6L238.2,305.3z M240.2,303.7
			l-1.2,0.6l-0.4,0.2l-0.2,0.1l-0.2-0.1l-0.4-0.2l-1.2-0.6l1.8-0.9L240.2,303.7z M235.3,307.5c0,0.1,0.1,0.3,0.2,0.3l2.7,1.3
			c0,0,0.1,0,0.1,0c0,0,0.1,0,0.1,0l2.7-1.3c0.1-0.1,0.2-0.2,0.2-0.3s-0.1-0.3-0.2-0.3l-1.3-0.6l1.3-0.6c0.1-0.1,0.2-0.2,0.2-0.3
			s-0.1-0.3-0.2-0.3l-1.3-0.6l1.3-0.6c0.1-0.1,0.2-0.2,0.2-0.3c0-0.1-0.1-0.3-0.2-0.3l-2.7-1.3c-0.1,0-0.2,0-0.3,0l-2.7,1.3
			c-0.1,0.1-0.2,0.2-0.2,0.3c0,0.1,0.1,0.3,0.2,0.3l1.3,0.6l-1.3,0.6c-0.1,0.1-0.2,0.2-0.2,0.3s0.1,0.3,0.2,0.3l1.3,0.6l-1.3,0.6
			C235.4,307.2,235.3,307.3,235.3,307.5"/>
		<path style="clip-path:url(#SVGID_00000078754290357698853640000006442582246376199834_);fill:#8B8F91;" d="M248,302.8l1.8,0.9
			l-1.2,0.6l-0.4,0.2l-0.2,0.1l-0.2-0.1l-0.4-0.2l-1.2-0.6L248,302.8z M248.3,306.3l-0.2,0.1l-0.2-0.1l-0.4-0.2l-1.2-0.6l1.2-0.6
			l0.5,0.2c0,0,0.1,0,0.1,0c0,0,0.1,0,0.1,0l0.5-0.2l1.2,0.6l-1.2,0.6L248.3,306.3z M248,308.4l-1.8-0.9l1.2-0.6l0.5,0.2
			c0,0,0.1,0,0.1,0c0,0,0.1,0,0.1,0l0.5-0.2l1.2,0.6L248,308.4z M251,305.6c0-0.1-0.1-0.3-0.2-0.3l-1.3-0.6l1.3-0.6
			c0.1-0.1,0.2-0.2,0.2-0.3s-0.1-0.3-0.2-0.3l-2.7-1.3c-0.1,0-0.2,0-0.3,0l-2.7,1.3c-0.1,0.1-0.2,0.2-0.2,0.3s0.1,0.3,0.2,0.3
			l1.3,0.6l-1.3,0.6c-0.1,0.1-0.2,0.2-0.2,0.3s0.1,0.3,0.2,0.3l1.3,0.6l-1.3,0.6c-0.1,0.1-0.2,0.2-0.2,0.3s0.1,0.3,0.2,0.3l2.7,1.3
			c0,0,0.1,0,0.1,0c0,0,0.1,0,0.1,0l2.7-1.3c0.1-0.1,0.2-0.2,0.2-0.3s-0.1-0.3-0.2-0.3l-1.3-0.6l1.3-0.6
			C251,305.8,251,305.7,251,305.6"/>
		<path style="clip-path:url(#SVGID_00000078754290357698853640000006442582246376199834_);fill:#8B8F91;" d="M228.6,307.2
			c0,0,0.1,0,0.1,0s0.1,0,0.1,0l0.5-0.2l1.2,0.6l-1.8,0.9l-1.8-0.9l1.2-0.6L228.6,307.2z M228.6,305.3c0,0,0.1,0,0.1,0s0.1,0,0.1,0
			l0.5-0.2l1.2,0.6l-1.2,0.6l-0.4,0.2l-0.2,0.1l-0.2-0.1l-0.4-0.2l-1.2-0.6l1.2-0.6L228.6,305.3z M228.8,302.8l1.8,0.9l-1.2,0.6
			l-0.4,0.2l-0.2,0.1l-0.2-0.1l-0.4-0.2l-1.2-0.6L228.8,302.8z M228.8,309.1c0,0,0.1,0,0.1,0l2.7-1.3c0.1-0.1,0.2-0.2,0.2-0.3
			s-0.1-0.3-0.2-0.3l-1.3-0.6l1.3-0.6c0.1-0.1,0.2-0.2,0.2-0.3s-0.1-0.3-0.2-0.3l-1.3-0.6l1.3-0.6c0.1-0.1,0.2-0.2,0.2-0.3
			c0-0.1-0.1-0.3-0.2-0.3l-2.7-1.3c-0.1,0-0.2,0-0.3,0l-2.7,1.3c-0.1,0.1-0.2,0.2-0.2,0.3c0,0.1,0.1,0.3,0.2,0.3l1.3,0.6l-1.3,0.6
			c-0.1,0.1-0.2,0.2-0.2,0.3s0.1,0.3,0.2,0.3l1.3,0.6l-1.3,0.6c-0.1,0.1-0.2,0.2-0.2,0.3s0.1,0.3,0.2,0.3l2.7,1.3
			C228.7,309.1,228.7,309.1,228.8,309.1"/>
		<path style="clip-path:url(#SVGID_00000078754290357698853640000006442582246376199834_);fill:#8B8F91;" d="M242.2,317.3v5.7
			c0,0.6-0.5,1.1-1,1.1h-5.5c-0.6,0-1-0.5-1-1.1v-5.7c0-0.6,0.5-1.1,1-1.1h5.5C241.7,316.2,242.2,316.7,242.2,317.3 M248,309.8
			c-0.2,0-0.3,0.2-0.3,0.4v1.4c0,0.6-0.5,1.1-1,1.1h-4.5c-0.9,0-1.7,0.8-1.7,1.8v1.1h-1.7v-5.3c0-0.2-0.2-0.4-0.3-0.4
			c-0.2,0-0.3,0.2-0.3,0.4v5.3h-1.7v-1.1c0-1-0.8-1.8-1.7-1.8h-4.5c-0.6,0-1-0.5-1-1.1v-1.4c0-0.2-0.2-0.4-0.3-0.4
			c-0.2,0-0.3,0.2-0.3,0.4v1.4c0,1,0.8,1.8,1.7,1.8h4.5c0.6,0,1,0.5,1,1.1v1.1c-0.9,0-1.7,0.8-1.7,1.8h-1c-0.2,0-0.3,0.2-0.3,0.4
			c0,0.2,0.2,0.4,0.3,0.4h1v1.8h-1c-0.2,0-0.3,0.2-0.3,0.4c0,0.2,0.2,0.4,0.3,0.4h1v1.8h-1c-0.2,0-0.3,0.2-0.3,0.4
			c0,0.2,0.2,0.4,0.3,0.4h1c0,1,0.8,1.8,1.7,1.8v1.1c0,0.2,0.2,0.4,0.3,0.4s0.3-0.2,0.3-0.4v-1.1h1.7v5.9l-0.8-0.8
			c-0.1-0.1-0.4-0.1-0.5,0s-0.1,0.4,0,0.5l1.4,1.4c0.1,0.1,0.2,0.1,0.2,0.1c0.1,0,0.2,0,0.2-0.1l1.4-1.4c0.1-0.1,0.1-0.4,0-0.5
			s-0.4-0.1-0.5,0l-0.8,0.8v-5.9h1.7v1.1c0,0.2,0.2,0.4,0.3,0.4c0.2,0,0.3-0.2,0.3-0.4v-1.1c0.9,0,1.7-0.8,1.7-1.8h1
			c0.2,0,0.3-0.2,0.3-0.4c0-0.2-0.2-0.4-0.3-0.4h-1v-1.8h1c0.2,0,0.3-0.2,0.3-0.4c0-0.2-0.2-0.4-0.3-0.4h-1V318h1
			c0.2,0,0.3-0.2,0.3-0.4c0-0.2-0.2-0.4-0.3-0.4h-1c0-1-0.8-1.8-1.7-1.8v-1.1c0-0.6,0.5-1.1,1-1.1h4.5c0.9,0,1.7-0.8,1.7-1.8v-1.4
			C248.4,310,248.2,309.8,248,309.8"/>
		<path style="clip-path:url(#SVGID_00000078754290357698853640000006442582246376199834_);fill:#8B8F91;" d="M240.1,318h-3.4
			c-0.2,0-0.3,0.2-0.3,0.4v3.6c0,0.2,0.2,0.4,0.3,0.4h3.4c0.2,0,0.3-0.2,0.3-0.4v-3.6C240.5,318.2,240.3,318,240.1,318"/>
	</g>
	
		<path style="clip-path:url(#SVGID_00000139254763169452193290000008843622492829976979_);fill:none;stroke:#F04E29;stroke-width:0.25;" d="
		M143.6,309.4"/>
	
		<path style="clip-path:url(#SVGID_00000139254763169452193290000008843622492829976979_);fill:none;stroke:#F04E29;stroke-width:0.25;" d="
		M143.6,311.6"/>
	
		<path style="clip-path:url(#SVGID_00000139254763169452193290000008843622492829976979_);fill:none;stroke:#F04E29;stroke-width:0.25;" d="
		M143.6,313.9"/>
	
		<path style="clip-path:url(#SVGID_00000139254763169452193290000008843622492829976979_);fill:none;stroke:#F04E29;stroke-width:0.25;" d="
		M151.2,313.9"/>
	
		<path style="clip-path:url(#SVGID_00000139254763169452193290000008843622492829976979_);fill:none;stroke:#F04E29;stroke-width:0.25;" d="
		M151.2,311.6"/>
	
		<path style="clip-path:url(#SVGID_00000139254763169452193290000008843622492829976979_);fill:none;stroke:#F04E29;stroke-width:0.25;" d="
		M151.2,309.4"/>
	
		<path style="clip-path:url(#SVGID_00000139254763169452193290000008843622492829976979_);fill:none;stroke:#8B8F91;stroke-width:0.25;stroke-linecap:round;stroke-linejoin:round;" d="
		M174.8,298.5"/>
</g>
</svg>
