<?xml version="1.0" encoding="utf-8"?>
<!-- Generator: Adobe Illustrator 28.0.0, SVG Export Plug-In . SVG Version: 6.00 Build 0)  -->
<svg version="1.1" id="Layer_1" xmlns="http://www.w3.org/2000/svg" xmlns:xlink="http://www.w3.org/1999/xlink" x="0px" y="0px"
	 viewBox="0 0 419.5 595.3" style="enable-background:new 0 0 419.5 595.3;" xml:space="preserve">
<style type="text/css">
	.st0{clip-path:url(#SVGID_00000013914426326940967450000009799348628251032997_);}
	.st1{opacity:0.5;clip-path:url(#SVGID_00000041991711550570332020000011851533536227028383_);}
	.st2{clip-path:url(#SVGID_00000114765627441354003130000001533913158969209269_);}
	.st3{clip-path:url(#SVGID_00000047777171231147167940000017954845783489486006_);fill:none;stroke:#B7BABB;stroke-width:0.25;}
	.st4{clip-path:url(#SVGID_00000047777171231147167940000017954845783489486006_);fill:none;stroke:#B7BABB;stroke-width:0.2;}
	.st5{clip-path:url(#SVGID_00000013914426326940967450000009799348628251032997_);fill:#00109F;}
	.st6{fill:#FFFFFF;}
	.st7{font-family:'Colfax-Regular';}
	.st8{font-size:4px;}
	.st9{font-family:'Colfax-Bold';}
	.st10{font-size:8px;}
	.st11{clip-path:url(#SVGID_00000013914426326940967450000009799348628251032997_);fill:none;stroke:#00109F;stroke-width:0.5;}
	.st12{fill:#15233A;}
	.st13{font-size:9.2472px;}
	.st14{font-size:6px;}
	.st15{clip-path:url(#SVGID_00000013914426326940967450000009799348628251032997_);fill:none;stroke:#8B8F91;}
	.st16{clip-path:url(#SVGID_00000013914426326940967450000009799348628251032997_);fill:none;stroke:#8B8F91;stroke-width:0.5;}
	.st17{clip-path:url(#SVGID_00000013914426326940967450000009799348628251032997_);fill:#8B8F91;}
	.st18{clip-path:url(#SVGID_00000153695033654040912210000005613717578628054438_);fill:#00109F;}
	.st19{clip-path:url(#SVGID_00000013914426326940967450000009799348628251032997_);fill:#FFFFFF;}
	.st20{fill:#8B8F91;}
	.st21{font-size:9px;}
	.st22{clip-path:url(#SVGID_00000129166899712272633960000001392493143127437735_);fill:#FFFFFF;}
	.st23{clip-path:url(#SVGID_00000007394768170526422480000017931628723847063180_);fill:#FFFFFF;}
	.st24{clip-path:url(#SVGID_00000127745761714071207170000000721654760723932580_);fill:#FFFFFF;}
</style>
<g>
	<defs>
		<rect id="SVGID_1_" width="419.5" height="595.3"/>
	</defs>
	<clipPath id="SVGID_00000060751175811680216020000010332806061387863183_">
		<use xlink:href="#SVGID_1_"  style="overflow:visible;"/>
	</clipPath>
	<g style="clip-path:url(#SVGID_00000060751175811680216020000010332806061387863183_);">
		<defs>
			<rect id="SVGID_00000034049345903901268290000002899636729552612482_" width="419.5" height="595.3"/>
		</defs>
		<clipPath id="SVGID_00000130633389780667364550000005444467342695313536_">
			<use xlink:href="#SVGID_00000034049345903901268290000002899636729552612482_"  style="overflow:visible;"/>
		</clipPath>
		<g style="opacity:0.5;clip-path:url(#SVGID_00000130633389780667364550000005444467342695313536_);">
			<g>
				<defs>
					<rect id="SVGID_00000044178603228045665270000010525366654037364373_" x="37.9" y="218.6" width="344.1" height="168.5"/>
				</defs>
				<clipPath id="SVGID_00000179603852770313611060000004714177964488624815_">
					<use xlink:href="#SVGID_00000044178603228045665270000010525366654037364373_"  style="overflow:visible;"/>
				</clipPath>
				<g style="clip-path:url(#SVGID_00000179603852770313611060000004714177964488624815_);">
					<defs>
						<polygon id="SVGID_00000064335784961388167350000007356948227482087344_" points="46.9,225.6 46.9,225.6 46.9,386.1 
							373,386.1 373,225.6 						"/>
					</defs>
					<clipPath id="SVGID_00000085245002157316183490000008347971798673780107_">
						<use xlink:href="#SVGID_00000064335784961388167350000007356948227482087344_"  style="overflow:visible;"/>
					</clipPath>
					
						<line style="clip-path:url(#SVGID_00000085245002157316183490000008347971798673780107_);fill:none;stroke:#B7BABB;stroke-width:0.25;" x1="373" y1="57.3" x2="373" y2="383.3"/>
					
						<line style="clip-path:url(#SVGID_00000085245002157316183490000008347971798673780107_);fill:none;stroke:#B7BABB;stroke-width:0.25;" x1="365.9" y1="57.3" x2="365.9" y2="383.3"/>
					
						<line style="clip-path:url(#SVGID_00000085245002157316183490000008347971798673780107_);fill:none;stroke:#B7BABB;stroke-width:0.25;" x1="358.8" y1="57.3" x2="358.8" y2="383.3"/>
					
						<line style="clip-path:url(#SVGID_00000085245002157316183490000008347971798673780107_);fill:none;stroke:#B7BABB;stroke-width:0.25;" x1="351.7" y1="57.3" x2="351.7" y2="383.3"/>
					
						<line style="clip-path:url(#SVGID_00000085245002157316183490000008347971798673780107_);fill:none;stroke:#B7BABB;stroke-width:0.25;" x1="344.6" y1="57.3" x2="344.6" y2="383.3"/>
					
						<line style="clip-path:url(#SVGID_00000085245002157316183490000008347971798673780107_);fill:none;stroke:#B7BABB;stroke-width:0.25;" x1="337.5" y1="57.3" x2="337.5" y2="383.3"/>
					
						<line style="clip-path:url(#SVGID_00000085245002157316183490000008347971798673780107_);fill:none;stroke:#B7BABB;stroke-width:0.25;" x1="330.5" y1="57.3" x2="330.5" y2="383.3"/>
					
						<line style="clip-path:url(#SVGID_00000085245002157316183490000008347971798673780107_);fill:none;stroke:#B7BABB;stroke-width:0.25;" x1="323.4" y1="57.3" x2="323.4" y2="383.3"/>
					
						<line style="clip-path:url(#SVGID_00000085245002157316183490000008347971798673780107_);fill:none;stroke:#B7BABB;stroke-width:0.25;" x1="316.3" y1="57.3" x2="316.3" y2="383.3"/>
					
						<line style="clip-path:url(#SVGID_00000085245002157316183490000008347971798673780107_);fill:none;stroke:#B7BABB;stroke-width:0.25;" x1="309.2" y1="57.3" x2="309.2" y2="383.3"/>
					
						<line style="clip-path:url(#SVGID_00000085245002157316183490000008347971798673780107_);fill:none;stroke:#B7BABB;stroke-width:0.25;" x1="302.1" y1="57.3" x2="302.1" y2="383.3"/>
					
						<line style="clip-path:url(#SVGID_00000085245002157316183490000008347971798673780107_);fill:none;stroke:#B7BABB;stroke-width:0.25;" x1="295" y1="57.3" x2="295" y2="383.3"/>
					
						<line style="clip-path:url(#SVGID_00000085245002157316183490000008347971798673780107_);fill:none;stroke:#B7BABB;stroke-width:0.25;" x1="287.9" y1="57.3" x2="287.9" y2="383.3"/>
					
						<line style="clip-path:url(#SVGID_00000085245002157316183490000008347971798673780107_);fill:none;stroke:#B7BABB;stroke-width:0.25;" x1="280.8" y1="57.3" x2="280.8" y2="383.3"/>
					
						<line style="clip-path:url(#SVGID_00000085245002157316183490000008347971798673780107_);fill:none;stroke:#B7BABB;stroke-width:0.25;" x1="273.8" y1="57.3" x2="273.8" y2="383.3"/>
					
						<line style="clip-path:url(#SVGID_00000085245002157316183490000008347971798673780107_);fill:none;stroke:#B7BABB;stroke-width:0.25;" x1="266.7" y1="57.3" x2="266.7" y2="383.3"/>
					
						<line style="clip-path:url(#SVGID_00000085245002157316183490000008347971798673780107_);fill:none;stroke:#B7BABB;stroke-width:0.25;" x1="259.6" y1="57.3" x2="259.6" y2="383.3"/>
					
						<line style="clip-path:url(#SVGID_00000085245002157316183490000008347971798673780107_);fill:none;stroke:#B7BABB;stroke-width:0.25;" x1="252.5" y1="57.3" x2="252.5" y2="383.3"/>
					
						<line style="clip-path:url(#SVGID_00000085245002157316183490000008347971798673780107_);fill:none;stroke:#B7BABB;stroke-width:0.25;" x1="245.4" y1="57.3" x2="245.4" y2="383.3"/>
					
						<line style="clip-path:url(#SVGID_00000085245002157316183490000008347971798673780107_);fill:none;stroke:#B7BABB;stroke-width:0.25;" x1="238.3" y1="57.3" x2="238.3" y2="383.3"/>
					
						<line style="clip-path:url(#SVGID_00000085245002157316183490000008347971798673780107_);fill:none;stroke:#B7BABB;stroke-width:0.25;" x1="231.2" y1="57.3" x2="231.2" y2="383.3"/>
					
						<line style="clip-path:url(#SVGID_00000085245002157316183490000008347971798673780107_);fill:none;stroke:#B7BABB;stroke-width:0.25;" x1="224.2" y1="57.3" x2="224.2" y2="383.3"/>
					
						<line style="clip-path:url(#SVGID_00000085245002157316183490000008347971798673780107_);fill:none;stroke:#B7BABB;stroke-width:0.25;" x1="217.1" y1="57.3" x2="217.1" y2="383.3"/>
					
						<line style="clip-path:url(#SVGID_00000085245002157316183490000008347971798673780107_);fill:none;stroke:#B7BABB;stroke-width:0.25;" x1="210" y1="57.3" x2="210" y2="383.3"/>
					
						<line style="clip-path:url(#SVGID_00000085245002157316183490000008347971798673780107_);fill:none;stroke:#B7BABB;stroke-width:0.25;" x1="202.9" y1="57.3" x2="202.9" y2="383.3"/>
					
						<line style="clip-path:url(#SVGID_00000085245002157316183490000008347971798673780107_);fill:none;stroke:#B7BABB;stroke-width:0.25;" x1="195.8" y1="57.3" x2="195.8" y2="383.3"/>
					
						<line style="clip-path:url(#SVGID_00000085245002157316183490000008347971798673780107_);fill:none;stroke:#B7BABB;stroke-width:0.25;" x1="188.7" y1="57.3" x2="188.7" y2="383.3"/>
					
						<line style="clip-path:url(#SVGID_00000085245002157316183490000008347971798673780107_);fill:none;stroke:#B7BABB;stroke-width:0.25;" x1="181.6" y1="57.3" x2="181.6" y2="383.3"/>
					
						<line style="clip-path:url(#SVGID_00000085245002157316183490000008347971798673780107_);fill:none;stroke:#B7BABB;stroke-width:0.25;" x1="174.5" y1="57.3" x2="174.5" y2="383.3"/>
					
						<line style="clip-path:url(#SVGID_00000085245002157316183490000008347971798673780107_);fill:none;stroke:#B7BABB;stroke-width:0.25;" x1="167.5" y1="57.3" x2="167.5" y2="383.3"/>
					
						<line style="clip-path:url(#SVGID_00000085245002157316183490000008347971798673780107_);fill:none;stroke:#B7BABB;stroke-width:0.25;" x1="160.4" y1="57.3" x2="160.4" y2="383.3"/>
					
						<line style="clip-path:url(#SVGID_00000085245002157316183490000008347971798673780107_);fill:none;stroke:#B7BABB;stroke-width:0.25;" x1="153.3" y1="57.3" x2="153.3" y2="383.3"/>
					
						<line style="clip-path:url(#SVGID_00000085245002157316183490000008347971798673780107_);fill:none;stroke:#B7BABB;stroke-width:0.25;" x1="146.2" y1="57.3" x2="146.2" y2="383.3"/>
					
						<line style="clip-path:url(#SVGID_00000085245002157316183490000008347971798673780107_);fill:none;stroke:#B7BABB;stroke-width:0.25;" x1="139.1" y1="57.3" x2="139.1" y2="383.3"/>
					
						<line style="clip-path:url(#SVGID_00000085245002157316183490000008347971798673780107_);fill:none;stroke:#B7BABB;stroke-width:0.25;" x1="132" y1="57.3" x2="132" y2="383.3"/>
					
						<line style="clip-path:url(#SVGID_00000085245002157316183490000008347971798673780107_);fill:none;stroke:#B7BABB;stroke-width:0.25;" x1="124.9" y1="57.3" x2="124.9" y2="383.3"/>
					
						<line style="clip-path:url(#SVGID_00000085245002157316183490000008347971798673780107_);fill:none;stroke:#B7BABB;stroke-width:0.25;" x1="117.9" y1="57.3" x2="117.9" y2="383.3"/>
					
						<line style="clip-path:url(#SVGID_00000085245002157316183490000008347971798673780107_);fill:none;stroke:#B7BABB;stroke-width:0.25;" x1="110.8" y1="57.3" x2="110.8" y2="383.3"/>
					
						<line style="clip-path:url(#SVGID_00000085245002157316183490000008347971798673780107_);fill:none;stroke:#B7BABB;stroke-width:0.25;" x1="103.7" y1="57.3" x2="103.7" y2="383.3"/>
					
						<line style="clip-path:url(#SVGID_00000085245002157316183490000008347971798673780107_);fill:none;stroke:#B7BABB;stroke-width:0.25;" x1="96.6" y1="57.3" x2="96.6" y2="383.3"/>
					
						<line style="clip-path:url(#SVGID_00000085245002157316183490000008347971798673780107_);fill:none;stroke:#B7BABB;stroke-width:0.25;" x1="89.5" y1="57.3" x2="89.5" y2="383.3"/>
					
						<line style="clip-path:url(#SVGID_00000085245002157316183490000008347971798673780107_);fill:none;stroke:#B7BABB;stroke-width:0.25;" x1="82.4" y1="57.3" x2="82.4" y2="383.3"/>
					
						<line style="clip-path:url(#SVGID_00000085245002157316183490000008347971798673780107_);fill:none;stroke:#B7BABB;stroke-width:0.25;" x1="75.3" y1="57.3" x2="75.3" y2="383.3"/>
					
						<line style="clip-path:url(#SVGID_00000085245002157316183490000008347971798673780107_);fill:none;stroke:#B7BABB;stroke-width:0.25;" x1="68.2" y1="57.3" x2="68.2" y2="383.3"/>
					
						<line style="clip-path:url(#SVGID_00000085245002157316183490000008347971798673780107_);fill:none;stroke:#B7BABB;stroke-width:0.25;" x1="61.2" y1="57.3" x2="61.2" y2="383.3"/>
					
						<line style="clip-path:url(#SVGID_00000085245002157316183490000008347971798673780107_);fill:none;stroke:#B7BABB;stroke-width:0.25;" x1="54.1" y1="57.3" x2="54.1" y2="383.3"/>
					
						<line style="clip-path:url(#SVGID_00000085245002157316183490000008347971798673780107_);fill:none;stroke:#B7BABB;stroke-width:0.25;" x1="47" y1="57.3" x2="47" y2="383.3"/>
					
						<line style="clip-path:url(#SVGID_00000085245002157316183490000008347971798673780107_);fill:none;stroke:#B7BABB;stroke-width:0.2;" x1="372.8" y1="383.4" x2="46.9" y2="383.4"/>
					
						<line style="clip-path:url(#SVGID_00000085245002157316183490000008347971798673780107_);fill:none;stroke:#B7BABB;stroke-width:0.2;" x1="372.8" y1="376.4" x2="46.9" y2="376.4"/>
					
						<line style="clip-path:url(#SVGID_00000085245002157316183490000008347971798673780107_);fill:none;stroke:#B7BABB;stroke-width:0.2;" x1="372.8" y1="369.3" x2="46.9" y2="369.3"/>
					
						<line style="clip-path:url(#SVGID_00000085245002157316183490000008347971798673780107_);fill:none;stroke:#B7BABB;stroke-width:0.2;" x1="372.8" y1="362.2" x2="46.9" y2="362.2"/>
					
						<line style="clip-path:url(#SVGID_00000085245002157316183490000008347971798673780107_);fill:none;stroke:#B7BABB;stroke-width:0.2;" x1="372.8" y1="355.1" x2="46.9" y2="355.1"/>
					
						<line style="clip-path:url(#SVGID_00000085245002157316183490000008347971798673780107_);fill:none;stroke:#B7BABB;stroke-width:0.2;" x1="372.8" y1="348" x2="46.9" y2="348"/>
					
						<line style="clip-path:url(#SVGID_00000085245002157316183490000008347971798673780107_);fill:none;stroke:#B7BABB;stroke-width:0.2;" x1="372.8" y1="340.9" x2="46.9" y2="340.9"/>
					
						<line style="clip-path:url(#SVGID_00000085245002157316183490000008347971798673780107_);fill:none;stroke:#B7BABB;stroke-width:0.2;" x1="372.8" y1="333.8" x2="46.9" y2="333.8"/>
					
						<line style="clip-path:url(#SVGID_00000085245002157316183490000008347971798673780107_);fill:none;stroke:#B7BABB;stroke-width:0.2;" x1="372.8" y1="326.8" x2="46.9" y2="326.8"/>
					
						<line style="clip-path:url(#SVGID_00000085245002157316183490000008347971798673780107_);fill:none;stroke:#B7BABB;stroke-width:0.2;" x1="372.8" y1="319.7" x2="46.9" y2="319.7"/>
					
						<line style="clip-path:url(#SVGID_00000085245002157316183490000008347971798673780107_);fill:none;stroke:#B7BABB;stroke-width:0.2;" x1="372.8" y1="312.6" x2="46.9" y2="312.6"/>
					
						<line style="clip-path:url(#SVGID_00000085245002157316183490000008347971798673780107_);fill:none;stroke:#B7BABB;stroke-width:0.2;" x1="372.8" y1="305.5" x2="46.9" y2="305.5"/>
					
						<line style="clip-path:url(#SVGID_00000085245002157316183490000008347971798673780107_);fill:none;stroke:#B7BABB;stroke-width:0.2;" x1="372.8" y1="298.4" x2="46.9" y2="298.4"/>
					
						<line style="clip-path:url(#SVGID_00000085245002157316183490000008347971798673780107_);fill:none;stroke:#B7BABB;stroke-width:0.2;" x1="372.8" y1="291.3" x2="46.9" y2="291.3"/>
					
						<line style="clip-path:url(#SVGID_00000085245002157316183490000008347971798673780107_);fill:none;stroke:#B7BABB;stroke-width:0.2;" x1="372.8" y1="284.2" x2="46.9" y2="284.2"/>
					
						<line style="clip-path:url(#SVGID_00000085245002157316183490000008347971798673780107_);fill:none;stroke:#B7BABB;stroke-width:0.2;" x1="372.8" y1="277.1" x2="46.9" y2="277.1"/>
					
						<line style="clip-path:url(#SVGID_00000085245002157316183490000008347971798673780107_);fill:none;stroke:#B7BABB;stroke-width:0.2;" x1="372.8" y1="270.1" x2="46.9" y2="270.1"/>
					
						<line style="clip-path:url(#SVGID_00000085245002157316183490000008347971798673780107_);fill:none;stroke:#B7BABB;stroke-width:0.2;" x1="372.8" y1="263" x2="46.9" y2="263"/>
					
						<line style="clip-path:url(#SVGID_00000085245002157316183490000008347971798673780107_);fill:none;stroke:#B7BABB;stroke-width:0.2;" x1="372.8" y1="255.9" x2="46.9" y2="255.9"/>
					
						<line style="clip-path:url(#SVGID_00000085245002157316183490000008347971798673780107_);fill:none;stroke:#B7BABB;stroke-width:0.2;" x1="372.8" y1="248.8" x2="46.9" y2="248.8"/>
					
						<line style="clip-path:url(#SVGID_00000085245002157316183490000008347971798673780107_);fill:none;stroke:#B7BABB;stroke-width:0.2;" x1="372.8" y1="241.7" x2="46.9" y2="241.7"/>
					
						<line style="clip-path:url(#SVGID_00000085245002157316183490000008347971798673780107_);fill:none;stroke:#B7BABB;stroke-width:0.2;" x1="372.8" y1="234.6" x2="46.9" y2="234.6"/>
					
						<line style="clip-path:url(#SVGID_00000085245002157316183490000008347971798673780107_);fill:none;stroke:#B7BABB;stroke-width:0.2;" x1="372.8" y1="227.5" x2="46.9" y2="227.5"/>
				</g>
			</g>
		</g>
	</g>
	<polygon style="clip-path:url(#SVGID_00000060751175811680216020000010332806061387863183_);fill:#00109F;" points="46.8,209.2 
		46.8,209.2 46.8,223.5 150.1,223.5 150.1,209.2 	"/>
	<g style="clip-path:url(#SVGID_00000060751175811680216020000010332806061387863183_);">
		<text transform="matrix(1 0 0 1 49.5488 213.1461)"><tspan x="0" y="0" class="st6 st7 st8">Figu</tspan><tspan x="8" y="0" class="st6 st7 st8">r</tspan><tspan x="9.4" y="0" class="st6 st7 st8">e 12: </tspan></text>
	</g>
	<g style="clip-path:url(#SVGID_00000060751175811680216020000010332806061387863183_);">
		<text transform="matrix(1 0 0 1 67.8447 213.1461)" class="st6 st7 st8"> </text>
	</g>
	<g style="clip-path:url(#SVGID_00000060751175811680216020000010332806061387863183_);">
		<text transform="matrix(1 0 0 1 49.5488 221.1461)"><tspan x="0" y="0" class="st6 st9 st10">V</tspan><tspan x="5.3" y="0" class="st6 st9 st10">isual Anal</tspan><tspan x="43.7" y="0" class="st6 st9 st10">y</tspan><tspan x="48" y="0" class="st6 st9 st10">ti</tspan><tspan x="53.6" y="0" class="st6 st9 st10">c</tspan><tspan x="58.2" y="0" class="st6 st9 st10">s P</tspan><tspan x="69.7" y="0" class="st6 st9 st10">r</tspan><tspan x="72.8" y="0" class="st6 st9 st10">o</tspan><tspan x="77.5" y="0" class="st6 st9 st10">c</tspan><tspan x="82.2" y="0" class="st6 st9 st10">es</tspan><tspan x="90.9" y="0" class="st6 st9 st10">s</tspan></text>
	</g>
	
		<line style="clip-path:url(#SVGID_00000060751175811680216020000010332806061387863183_);fill:none;stroke:#00109F;stroke-width:0.5;" x1="105.1" y1="223.4" x2="372.8" y2="223.4"/>
	<g style="clip-path:url(#SVGID_00000060751175811680216020000010332806061387863183_);">
		<text transform="matrix(1 0 0 1 180.5537 267.9518)"><tspan x="0" y="0" class="st12 st9 st13">V</tspan><tspan x="6.2" y="0" class="st12 st9 st13">isualis</tspan><tspan x="35.5" y="0" class="st12 st9 st13">a</tspan><tspan x="40.9" y="0" class="st12 st9 st13">tion</tspan></text>
	</g>
	<g style="clip-path:url(#SVGID_00000060751175811680216020000010332806061387863183_);">
		<text transform="matrix(1 0 0 1 193.8511 324.6276)" class="st12 st9 st13">Models</text>
	</g>
	<g style="clip-path:url(#SVGID_00000060751175811680216020000010332806061387863183_);">
		<text transform="matrix(1 0 0 1 83.4766 297.9591)"><tspan x="0" y="0" class="st12 st9 st13">D</tspan><tspan x="6.6" y="0" class="st12 st9 st13">a</tspan><tspan x="12.1" y="0" class="st12 st9 st13">t</tspan><tspan x="15.7" y="0" class="st12 st9 st13">a</tspan></text>
	</g>
	<g style="clip-path:url(#SVGID_00000060751175811680216020000010332806061387863183_);">
		<text transform="matrix(1 0 0 1 296.6797 297.9591)"><tspan x="0" y="0" class="st12 st9 st13">Kn</tspan><tspan x="11.8" y="0" class="st12 st9 st13">o</tspan><tspan x="17.2" y="0" class="st12 st9 st13">wledge</tspan></text>
	</g>
	<g style="clip-path:url(#SVGID_00000060751175811680216020000010332806061387863183_);">
		<text transform="matrix(1 0 0 1 227.5537 292.7203)" class="st12 st7 st14">Model </text>
	</g>
	<g style="clip-path:url(#SVGID_00000060751175811680216020000010332806061387863183_);">
		<text transform="matrix(1 0 0 1 227.5537 299.9205)"><tspan x="0" y="0" class="st12 st7 st14">V</tspan><tspan x="3.7" y="0" class="st12 st7 st14">isualis</tspan><tspan x="21.4" y="0" class="st12 st7 st14">a</tspan><tspan x="24.8" y="0" class="st12 st7 st14">tion</tspan></text>
	</g>
	<g style="clip-path:url(#SVGID_00000060751175811680216020000010332806061387863183_);">
		<text transform="matrix(1 0 0 1 175.8638 292.7203)" class="st12 st7 st14">Model </text>
	</g>
	<g style="clip-path:url(#SVGID_00000060751175811680216020000010332806061387863183_);">
		<text transform="matrix(1 0 0 1 192.4058 292.7203)" class="st12 st7 st14"> </text>
	</g>
	<g style="clip-path:url(#SVGID_00000060751175811680216020000010332806061387863183_);">
		<text transform="matrix(1 0 0 1 169.8159 299.9205)"><tspan x="0" y="0" class="st12 st7 st14">B</tspan><tspan x="4" y="0" class="st12 st7 st14">uilding</tspan></text>
	</g>
	<polyline style="clip-path:url(#SVGID_00000060751175811680216020000010332806061387863183_);fill:none;stroke:#8B8F91;" points="
		180.5,258.2 176.8,258.2 176.8,272.4 180.5,272.4 	"/>
	<polyline style="clip-path:url(#SVGID_00000060751175811680216020000010332806061387863183_);fill:none;stroke:#8B8F91;" points="
		180.5,316.6 176.8,316.6 176.8,330.7 180.5,330.7 	"/>
	<polyline style="clip-path:url(#SVGID_00000060751175811680216020000010332806061387863183_);fill:none;stroke:#8B8F91;" points="
		71.7,287.4 67.9,287.4 67.9,301.6 71.7,301.6 	"/>
	<polyline style="clip-path:url(#SVGID_00000060751175811680216020000010332806061387863183_);fill:none;stroke:#8B8F91;" points="
		294.4,287.4 290.7,287.4 290.7,301.6 294.4,301.6 	"/>
	<polyline style="clip-path:url(#SVGID_00000060751175811680216020000010332806061387863183_);fill:none;stroke:#8B8F91;" points="
		238.9,272.4 242.7,272.4 242.7,258.2 238.9,258.2 	"/>
	
		<polyline style="clip-path:url(#SVGID_00000060751175811680216020000010332806061387863183_);fill:none;stroke:#8B8F91;stroke-width:0.5;" points="
		86.8,307.3 86.8,371.9 328.2,371.9 328.2,304.2 	"/>
	<polygon style="clip-path:url(#SVGID_00000060751175811680216020000010332806061387863183_);fill:#8B8F91;" points="86.8,304.2 
		83.3,308 90.3,308 	"/>
	<polyline style="clip-path:url(#SVGID_00000060751175811680216020000010332806061387863183_);fill:none;stroke:#8B8F91;" points="
		238.9,330.7 242.7,330.7 242.7,316.6 238.9,316.6 	"/>
	<polyline style="clip-path:url(#SVGID_00000060751175811680216020000010332806061387863183_);fill:none;stroke:#8B8F91;" points="
		116.5,301.6 120.3,301.6 120.3,287.4 116.5,287.4 	"/>
	<polyline style="clip-path:url(#SVGID_00000060751175811680216020000010332806061387863183_);fill:none;stroke:#8B8F91;" points="
		348.3,301.6 352,301.6 352,287.4 348.3,287.4 	"/>
	<g style="clip-path:url(#SVGID_00000060751175811680216020000010332806061387863183_);">
		<defs>
			<rect id="SVGID_00000081649976489116267070000016004290515200616120_" width="419.5" height="595.3"/>
		</defs>
		<clipPath id="SVGID_00000172420629522159329610000018065527230820680078_">
			<use xlink:href="#SVGID_00000081649976489116267070000016004290515200616120_"  style="overflow:visible;"/>
		</clipPath>
		<path style="clip-path:url(#SVGID_00000172420629522159329610000018065527230820680078_);fill:#00109F;" d="M206.6,281.3
			c-6,1.4-10.4,6.9-10.4,13.2c0,5.4,3.3,10.5,8.5,12.6l-0.2,0.8c-0.2,0.6,0.4,1.2,1,1l3.2-0.8c0.6-0.2,0.8-1,0.4-1.4l-2.3-2.3
			c-0.5-0.5-1.3-0.3-1.4,0.4l-0.2,0.7c-4.2-1.8-7.2-6-7.2-10.9c0-5.7,4-10.3,9.1-11.5c0.5-0.1,0.7-0.6,0.6-1
			C207.5,281.5,207,281.2,206.6,281.3"/>
		<path style="clip-path:url(#SVGID_00000172420629522159329610000018065527230820680078_);fill:#00109F;" d="M214,280l-3.2,0.8
			c-0.6,0.2-0.8,1-0.4,1.4l2.3,2.3c0.5,0.5,1.3,0.3,1.4-0.4l0.2-0.7c4.2,1.8,7.2,6,7.2,10.9c0,5.7-4,10.3-9.1,11.5
			c-0.5,0.1-0.7,0.6-0.6,1c0.1,0.5,0.6,0.7,1,0.6c6-1.4,10.4-6.9,10.4-13.2c0-5.4-3.3-10.5-8.5-12.6l0.2-0.8
			C215.2,280.4,214.6,279.9,214,280"/>
	</g>
	
		<polyline style="clip-path:url(#SVGID_00000060751175811680216020000010332806061387863183_);fill:none;stroke:#8B8F91;stroke-width:0.5;" points="
		102.1,284.8 102.1,264.3 171.1,264.3 	"/>
	<polygon style="clip-path:url(#SVGID_00000060751175811680216020000010332806061387863183_);fill:#8B8F91;" points="174.3,264.3 
		170.5,260.8 170.5,267.9 	"/>
	
		<polyline style="clip-path:url(#SVGID_00000060751175811680216020000010332806061387863183_);fill:none;stroke:#8B8F91;stroke-width:0.5;" points="
		102.1,302.4 102.1,322.9 171.1,322.9 	"/>
	<polygon style="clip-path:url(#SVGID_00000060751175811680216020000010332806061387863183_);fill:#8B8F91;" points="174.3,322.9 
		170.5,326.4 170.5,319.4 	"/>
	
		<polyline style="clip-path:url(#SVGID_00000060751175811680216020000010332806061387863183_);fill:none;stroke:#8B8F91;stroke-width:0.5;" points="
		316.2,281.6 316.2,264.3 245.1,264.3 	"/>
	<polygon style="clip-path:url(#SVGID_00000060751175811680216020000010332806061387863183_);fill:#8B8F91;" points="316.2,284.8 
		312.7,281 319.7,281 	"/>
	
		<polyline style="clip-path:url(#SVGID_00000060751175811680216020000010332806061387863183_);fill:none;stroke:#8B8F91;stroke-width:0.5;" points="
		316.2,307.3 316.2,322.9 245.1,322.9 	"/>
	<polygon style="clip-path:url(#SVGID_00000060751175811680216020000010332806061387863183_);fill:#8B8F91;" points="316.2,304.2 
		312.7,308 319.7,308 	"/>
	
		<rect x="116.5" y="261.7" style="clip-path:url(#SVGID_00000060751175811680216020000010332806061387863183_);fill:#FFFFFF;" width="23.9" height="4.5"/>
	<g style="clip-path:url(#SVGID_00000060751175811680216020000010332806061387863183_);">
		<text transform="matrix(1 0 0 1 116.5435 266.1617)" class="st12 st7 st14">Mapping</text>
	</g>
	
		<rect x="48.5" y="261.7" style="clip-path:url(#SVGID_00000060751175811680216020000010332806061387863183_);fill:#FFFFFF;" width="42.2" height="5.7"/>
	<g style="clip-path:url(#SVGID_00000060751175811680216020000010332806061387863183_);">
		<text transform="matrix(1 0 0 1 48.4722 266.1617)"><tspan x="0" y="0" class="st12 st7 st14">T</tspan><tspan x="3" y="0" class="st12 st7 st14">r</tspan><tspan x="5" y="0" class="st12 st7 st14">an</tspan><tspan x="11.9" y="0" class="st12 st7 st14">s</tspan><tspan x="15" y="0" class="st12 st7 st14">f</tspan><tspan x="17" y="0" class="st12 st7 st14">orm</tspan><tspan x="28.1" y="0" class="st12 st7 st14">a</tspan><tspan x="31.5" y="0" class="st12 st7 st14">tion</tspan></text>
	</g>
	
		<rect x="262.7" y="250.5" style="clip-path:url(#SVGID_00000060751175811680216020000010332806061387863183_);fill:#FFFFFF;" width="44.3" height="4.5"/>
	<g style="clip-path:url(#SVGID_00000060751175811680216020000010332806061387863183_);">
		<text transform="matrix(1 0 0 1 262.7188 255.0011)"><tspan x="0" y="0" class="st12 st7 st14">User I</tspan><tspan x="15.9" y="0" class="st12 st7 st14">n</tspan><tspan x="19.4" y="0" class="st12 st7 st14">t</tspan><tspan x="21.6" y="0" class="st12 st7 st14">e</tspan><tspan x="24.9" y="0" class="st12 st7 st14">r</tspan><tspan x="26.9" y="0" class="st12 st7 st14">a</tspan><tspan x="30.3" y="0" class="st12 st7 st14">c</tspan><tspan x="33.7" y="0" class="st12 st7 st14">tion</tspan></text>
	</g>
	
		<rect x="262.7" y="330.2" style="clip-path:url(#SVGID_00000060751175811680216020000010332806061387863183_);fill:#FFFFFF;" width="34" height="11.7"/>
	<g style="clip-path:url(#SVGID_00000060751175811680216020000010332806061387863183_);">
		<text transform="matrix(1 0 0 1 262.7188 334.6569)"><tspan x="0" y="0" class="st12 st7 st14">P</tspan><tspan x="3.7" y="0" class="st12 st7 st14">a</tspan><tspan x="7.2" y="0" class="st12 st7 st14">r</tspan><tspan x="9.1" y="0" class="st12 st7 st14">am</tspan><tspan x="18.2" y="0" class="st12 st7 st14">e</tspan><tspan x="21.5" y="0" class="st12 st7 st14">t</tspan><tspan x="23.7" y="0" class="st12 st7 st14">er </tspan></text>
	</g>
	<g style="clip-path:url(#SVGID_00000060751175811680216020000010332806061387863183_);">
		<text transform="matrix(1 0 0 1 262.7188 341.8571)"><tspan x="0" y="0" class="st12 st7 st14">R</tspan><tspan x="4" y="0" class="st12 st7 st14">e</tspan><tspan x="7.3" y="0" class="st12 st7 st14">ﬁneme</tspan><tspan x="26.7" y="0" class="st12 st7 st14">n</tspan><tspan x="30.2" y="0" class="st12 st7 st14">t</tspan></text>
	</g>
	
		<rect x="188.8" y="369.9" style="clip-path:url(#SVGID_00000060751175811680216020000010332806061387863183_);fill:#FFFFFF;" width="42.3" height="4.5"/>
	<g style="clip-path:url(#SVGID_00000060751175811680216020000010332806061387863183_);">
		<text transform="matrix(1 0 0 1 188.8247 374.4391)"><tspan x="0" y="0" class="st12 st7 st14">F</tspan><tspan x="3.5" y="0" class="st12 st7 st14">eedback </tspan><tspan x="28.6" y="0" class="st12 st7 st14">L</tspan><tspan x="31.9" y="0" class="st12 st7 st14">oop</tspan></text>
	</g>
	
		<rect x="153.7" y="357.2" style="clip-path:url(#SVGID_00000060751175811680216020000010332806061387863183_);fill:#FFFFFF;" width="112.6" height="6.8"/>
	<g style="clip-path:url(#SVGID_00000060751175811680216020000010332806061387863183_);">
		<text transform="matrix(1 0 0 1 153.6768 363.9948)"><tspan x="0" y="0" class="st20 st9 st21">A</tspan><tspan x="6.3" y="0" class="st20 st9 st21">utom</tspan><tspan x="28.8" y="0" class="st20 st9 st21">a</tspan><tspan x="34.1" y="0" class="st20 st9 st21">ted </tspan><tspan x="50.6" y="0" class="st20 st9 st21">D</tspan><tspan x="57" y="0" class="st20 st9 st21">a</tspan><tspan x="62.3" y="0" class="st20 st9 st21">t</tspan><tspan x="65.8" y="0" class="st20 st9 st21">a Anal</tspan><tspan x="93.5" y="0" class="st20 st9 st21">y</tspan><tspan x="98.2" y="0" class="st20 st9 st21">sis</tspan></text>
	</g>
	
		<rect x="159.1" y="230.8" style="clip-path:url(#SVGID_00000060751175811680216020000010332806061387863183_);fill:#FFFFFF;" width="101.9" height="6.8"/>
	<g style="clip-path:url(#SVGID_00000060751175811680216020000010332806061387863183_);">
		<text transform="matrix(1 0 0 1 159.0542 237.5748)"><tspan x="0" y="0" class="st20 st9 st21">V</tspan><tspan x="6" y="0" class="st20 st9 st21">isual </tspan><tspan x="29.2" y="0" class="st20 st9 st21">D</tspan><tspan x="35.6" y="0" class="st20 st9 st21">a</tspan><tspan x="40.9" y="0" class="st20 st9 st21">t</tspan><tspan x="44.5" y="0" class="st20 st9 st21">a Explo</tspan><tspan x="76.3" y="0" class="st20 st9 st21">r</tspan><tspan x="79.6" y="0" class="st20 st9 st21">a</tspan><tspan x="84.9" y="0" class="st20 st9 st21">tion</tspan></text>
	</g>
	
		<rect x="116.5" y="320.1" style="clip-path:url(#SVGID_00000060751175811680216020000010332806061387863183_);fill:#FFFFFF;" width="33" height="4.5"/>
	<g style="clip-path:url(#SVGID_00000060751175811680216020000010332806061387863183_);">
		<text transform="matrix(1 0 0 1 116.5435 324.6276)"><tspan x="0" y="0" class="st12 st7 st14">D</tspan><tspan x="4.1" y="0" class="st12 st7 st14">a</tspan><tspan x="7.6" y="0" class="st12 st7 st14">t</tspan><tspan x="9.8" y="0" class="st12 st7 st14">a Mining</tspan></text>
	</g>
	
		<line style="clip-path:url(#SVGID_00000060751175811680216020000010332806061387863183_);fill:none;stroke:#8B8F91;stroke-width:0.5;" x1="62.3" y1="294.5" x2="46.8" y2="294.5"/>
	<polygon style="clip-path:url(#SVGID_00000060751175811680216020000010332806061387863183_);fill:#8B8F91;" points="65.5,294.5 
		61.7,291 61.7,298 	"/>
	<polygon style="clip-path:url(#SVGID_00000060751175811680216020000010332806061387863183_);fill:#00109F;" points="181.2,271.8 
		181.2,271.8 181.2,272.9 238.3,272.9 238.3,271.8 	"/>
	<polygon style="clip-path:url(#SVGID_00000060751175811680216020000010332806061387863183_);fill:#00109F;" points="181.2,330.2 
		181.2,330.2 181.2,331.2 238.3,331.2 238.3,330.2 	"/>
	<polygon style="clip-path:url(#SVGID_00000060751175811680216020000010332806061387863183_);fill:#00109F;" points="72.6,300.9 
		72.6,300.9 72.6,302 115.6,302 115.6,300.9 	"/>
	<polygon style="clip-path:url(#SVGID_00000060751175811680216020000010332806061387863183_);fill:#00109F;" points="295,300.9 
		295,300.9 295,302 347.7,302 347.7,300.9 	"/>
	<polygon style="clip-path:url(#SVGID_00000060751175811680216020000010332806061387863183_);fill:#00109F;" points="248.2,247.5 
		248.2,247.5 248.2,259.2 259.9,259.2 259.9,247.5 	"/>
	<g style="clip-path:url(#SVGID_00000060751175811680216020000010332806061387863183_);">
		<defs>
			<rect id="SVGID_00000148621675994873586350000018022787946985512073_" width="419.5" height="595.3"/>
		</defs>
		<clipPath id="SVGID_00000155849280235423352600000013917895013385713565_">
			<use xlink:href="#SVGID_00000148621675994873586350000018022787946985512073_"  style="overflow:visible;"/>
		</clipPath>
		<path style="clip-path:url(#SVGID_00000155849280235423352600000013917895013385713565_);fill:#FFFFFF;" d="M254.4,257.3V257
			c2,0,3.6-1.7,3.6-3.7c0-2-1.6-3.7-3.6-3.7c-2,0-3.6,1.7-3.6,3.7c0,1.1,0.1,1.7,0.8,2.3l-0.2,0.2c-0.8-0.8-0.8-1.5-0.8-2.5
			c0-2.2,1.7-4,3.9-4c2.1,0,3.9,1.8,3.9,4S256.5,257.3,254.4,257.3"/>
	</g>
	<polygon style="clip-path:url(#SVGID_00000060751175811680216020000010332806061387863183_);fill:#FFFFFF;" points="252.6,256.8 
		252.4,254.2 250,256.8 	"/>
	<polygon style="clip-path:url(#SVGID_00000060751175811680216020000010332806061387863183_);fill:#00109F;" points="76.2,269.7 
		76.2,269.7 76.2,281.4 87.9,281.4 87.9,269.7 	"/>
	<g style="clip-path:url(#SVGID_00000060751175811680216020000010332806061387863183_);">
		<defs>
			<rect id="SVGID_00000155107614246578375060000002168072596968560274_" width="419.5" height="595.3"/>
		</defs>
		<clipPath id="SVGID_00000031204460671858042590000012138459323285905077_">
			<use xlink:href="#SVGID_00000155107614246578375060000002168072596968560274_"  style="overflow:visible;"/>
		</clipPath>
		<path style="clip-path:url(#SVGID_00000031204460671858042590000012138459323285905077_);fill:#FFFFFF;" d="M82.3,279.5v-0.3
			c2,0,3.6-1.7,3.6-3.7c0-2-1.6-3.7-3.6-3.7s-3.6,1.7-3.6,3.7c0,1.1,0.1,1.7,0.8,2.3l-0.2,0.2c-0.8-0.8-0.8-1.5-0.8-2.5
			c0-2.2,1.7-4,3.9-4s3.9,1.8,3.9,4S84.4,279.5,82.3,279.5"/>
	</g>
	<polygon style="clip-path:url(#SVGID_00000060751175811680216020000010332806061387863183_);fill:#FFFFFF;" points="80.5,279 
		80.4,276.4 77.9,279 	"/>
	<polygon style="clip-path:url(#SVGID_00000060751175811680216020000010332806061387863183_);fill:#00109F;" points="259.9,341.9 
		259.9,341.9 259.9,330.2 248.2,330.2 248.2,341.9 	"/>
	<g style="clip-path:url(#SVGID_00000060751175811680216020000010332806061387863183_);">
		<defs>
			<rect id="SVGID_00000119080911945638426870000008900885298063019686_" width="419.5" height="595.3"/>
		</defs>
		<clipPath id="SVGID_00000073703742783784579220000012511802774639504002_">
			<use xlink:href="#SVGID_00000119080911945638426870000008900885298063019686_"  style="overflow:visible;"/>
		</clipPath>
		<path style="clip-path:url(#SVGID_00000073703742783784579220000012511802774639504002_);fill:#FFFFFF;" d="M253.8,332v0.3
			c-2,0-3.6,1.7-3.6,3.7c0,2,1.6,3.7,3.6,3.7s3.6-1.7,3.6-3.7c0-1.1-0.1-1.7-0.8-2.3l0.2-0.2c0.8,0.8,0.8,1.5,0.8,2.5
			c0,2.2-1.7,4-3.9,4s-3.9-1.8-3.9-4S251.7,332,253.8,332"/>
	</g>
	<polygon style="clip-path:url(#SVGID_00000060751175811680216020000010332806061387863183_);fill:#FFFFFF;" points="255.6,332.5 
		255.8,335.1 258.2,332.5 	"/>
</g>
</svg>
