<?xml version="1.0" encoding="utf-8"?>
<!-- Generator: Adobe Illustrator 28.0.0, SVG Export Plug-In . SVG Version: 6.00 Build 0)  -->
<svg version="1.1" id="Layer_1" xmlns="http://www.w3.org/2000/svg" xmlns:xlink="http://www.w3.org/1999/xlink" x="0px" y="0px"
	 viewBox="0 0 419.5 595.3" style="enable-background:new 0 0 419.5 595.3;" xml:space="preserve">
<style type="text/css">
	.st0{clip-path:url(#SVGID_00000173152850774561517720000011553068297318505090_);}
	.st1{opacity:0.5;clip-path:url(#SVGID_00000038401421574114724640000017896857462206260874_);}
	.st2{clip-path:url(#SVGID_00000125598676375024539950000000648724559836461990_);}
	.st3{clip-path:url(#SVGID_00000170992873293973882940000004733017431494848679_);fill:none;stroke:#B7BABB;stroke-width:0.25;}
	.st4{clip-path:url(#SVGID_00000170992873293973882940000004733017431494848679_);fill:none;stroke:#B7BABB;stroke-width:0.2;}
	.st5{clip-path:url(#SVGID_00000173152850774561517720000011553068297318505090_);fill:#8B8F91;}
	.st6{fill:#FFFFFF;}
	.st7{font-family:'Colfax-Bold';}
	.st8{font-size:5.607px;}
	.st9{clip-path:url(#SVGID_00000173152850774561517720000011553068297318505090_);fill:#FFFFFF;}
	.st10{fill:#8B8F91;}
	.st11{font-family:'Colfax-Medium';}
	.st12{font-size:4.361px;}
	.st13{clip-path:url(#SVGID_00000173152850774561517720000011553068297318505090_);fill:none;stroke:#8B8F91;stroke-width:0.25;}
	.st14{font-size:4px;}
	.st15{clip-path:url(#SVGID_00000173152850774561517720000011553068297318505090_);fill:none;stroke:#000000;stroke-width:0.311;}
	.st16{clip-path:url(#SVGID_00000173152850774561517720000011553068297318505090_);fill:none;stroke:#FFFFFF;stroke-width:0.311;}
	
		.st17{clip-path:url(#SVGID_00000173152850774561517720000011553068297318505090_);fill:none;stroke:#8B8F91;stroke-width:0.25;stroke-linecap:round;stroke-linejoin:round;}
	.st18{clip-path:url(#SVGID_00000036237051511978233600000016150983146358973320_);fill:#FFFFFF;}
	.st19{clip-path:url(#SVGID_00000036237051511978233600000016150983146358973320_);fill:none;stroke:#B7BABB;stroke-width:0.327;}
	.st20{clip-path:url(#SVGID_00000036237051511978233600000016150983146358973320_);fill:#E0E2E3;}
	.st21{clip-path:url(#SVGID_00000036237051511978233600000016150983146358973320_);fill:none;stroke:#B7BABB;stroke-width:2.62;}
	.st22{fill:#15233A;}
	.st23{font-size:9.2472px;}
	.st24{clip-path:url(#SVGID_00000170241221195945406130000009785716541151577224_);fill:#8B8F91;}
	.st25{font-family:'Colfax-Regular';}
	.st26{font-size:3.822px;}
	.st27{font-size:5.733px;}
	.st28{font-size:4.459px;}
	.st29{clip-path:url(#SVGID_00000173152850774561517720000011553068297318505090_);fill:#00109F;}
	.st30{font-size:8px;}
	.st31{clip-path:url(#SVGID_00000173152850774561517720000011553068297318505090_);fill:none;stroke:#00109F;stroke-width:0.5;}
</style>
<g>
	<defs>
		<rect id="SVGID_1_" width="419.5" height="595.3"/>
	</defs>
	<clipPath id="SVGID_00000160170845221667544100000011904740372260519070_">
		<use xlink:href="#SVGID_1_"  style="overflow:visible;"/>
	</clipPath>
	<g style="clip-path:url(#SVGID_00000160170845221667544100000011904740372260519070_);">
		<defs>
			<rect id="SVGID_00000150801788614897709460000005574776126519169707_" width="419.5" height="595.3"/>
		</defs>
		<clipPath id="SVGID_00000008841356184463562210000003624113804921181578_">
			<use xlink:href="#SVGID_00000150801788614897709460000005574776126519169707_"  style="overflow:visible;"/>
		</clipPath>
		<g style="opacity:0.5;clip-path:url(#SVGID_00000008841356184463562210000003624113804921181578_);">
			<g>
				<defs>
					<rect id="SVGID_00000133503272140362673990000000234935416781530257_" x="37.7" y="256.3" width="343.9" height="90"/>
				</defs>
				<clipPath id="SVGID_00000143595972990197565110000010126769807651113390_">
					<use xlink:href="#SVGID_00000133503272140362673990000000234935416781530257_"  style="overflow:visible;"/>
				</clipPath>
				<g style="clip-path:url(#SVGID_00000143595972990197565110000010126769807651113390_);">
					<defs>
						<polygon id="SVGID_00000138573629841742995410000006906573839997269418_" points="46.7,263.3 46.7,263.3 46.7,345.3 
							372.6,345.3 372.6,263.3 						"/>
					</defs>
					<clipPath id="SVGID_00000148650756958645819210000012550567461277834650_">
						<use xlink:href="#SVGID_00000138573629841742995410000006906573839997269418_"  style="overflow:visible;"/>
					</clipPath>
					
						<line style="clip-path:url(#SVGID_00000148650756958645819210000012550567461277834650_);fill:none;stroke:#B7BABB;stroke-width:0.25;" x1="373.1" y1="94.9" x2="373.1" y2="420.8"/>
					
						<line style="clip-path:url(#SVGID_00000148650756958645819210000012550567461277834650_);fill:none;stroke:#B7BABB;stroke-width:0.25;" x1="366" y1="94.9" x2="366" y2="420.8"/>
					
						<line style="clip-path:url(#SVGID_00000148650756958645819210000012550567461277834650_);fill:none;stroke:#B7BABB;stroke-width:0.25;" x1="358.9" y1="94.9" x2="358.9" y2="420.8"/>
					
						<line style="clip-path:url(#SVGID_00000148650756958645819210000012550567461277834650_);fill:none;stroke:#B7BABB;stroke-width:0.25;" x1="351.8" y1="94.9" x2="351.8" y2="420.8"/>
					
						<line style="clip-path:url(#SVGID_00000148650756958645819210000012550567461277834650_);fill:none;stroke:#B7BABB;stroke-width:0.25;" x1="344.7" y1="94.9" x2="344.7" y2="420.8"/>
					
						<line style="clip-path:url(#SVGID_00000148650756958645819210000012550567461277834650_);fill:none;stroke:#B7BABB;stroke-width:0.25;" x1="337.6" y1="94.9" x2="337.6" y2="420.8"/>
					
						<line style="clip-path:url(#SVGID_00000148650756958645819210000012550567461277834650_);fill:none;stroke:#B7BABB;stroke-width:0.25;" x1="330.5" y1="94.9" x2="330.5" y2="420.8"/>
					
						<line style="clip-path:url(#SVGID_00000148650756958645819210000012550567461277834650_);fill:none;stroke:#B7BABB;stroke-width:0.25;" x1="323.5" y1="94.9" x2="323.5" y2="420.8"/>
					
						<line style="clip-path:url(#SVGID_00000148650756958645819210000012550567461277834650_);fill:none;stroke:#B7BABB;stroke-width:0.25;" x1="316.4" y1="94.9" x2="316.4" y2="420.8"/>
					
						<line style="clip-path:url(#SVGID_00000148650756958645819210000012550567461277834650_);fill:none;stroke:#B7BABB;stroke-width:0.25;" x1="309.3" y1="94.9" x2="309.3" y2="420.8"/>
					
						<line style="clip-path:url(#SVGID_00000148650756958645819210000012550567461277834650_);fill:none;stroke:#B7BABB;stroke-width:0.25;" x1="302.2" y1="94.9" x2="302.2" y2="420.8"/>
					
						<line style="clip-path:url(#SVGID_00000148650756958645819210000012550567461277834650_);fill:none;stroke:#B7BABB;stroke-width:0.25;" x1="295.1" y1="94.9" x2="295.1" y2="420.8"/>
					
						<line style="clip-path:url(#SVGID_00000148650756958645819210000012550567461277834650_);fill:none;stroke:#B7BABB;stroke-width:0.25;" x1="288" y1="94.9" x2="288" y2="420.8"/>
					
						<line style="clip-path:url(#SVGID_00000148650756958645819210000012550567461277834650_);fill:none;stroke:#B7BABB;stroke-width:0.25;" x1="280.9" y1="94.9" x2="280.9" y2="420.8"/>
					
						<line style="clip-path:url(#SVGID_00000148650756958645819210000012550567461277834650_);fill:none;stroke:#B7BABB;stroke-width:0.25;" x1="273.9" y1="94.9" x2="273.9" y2="420.8"/>
					
						<line style="clip-path:url(#SVGID_00000148650756958645819210000012550567461277834650_);fill:none;stroke:#B7BABB;stroke-width:0.25;" x1="266.8" y1="94.9" x2="266.8" y2="420.8"/>
					
						<line style="clip-path:url(#SVGID_00000148650756958645819210000012550567461277834650_);fill:none;stroke:#B7BABB;stroke-width:0.25;" x1="259.7" y1="94.9" x2="259.7" y2="420.8"/>
					
						<line style="clip-path:url(#SVGID_00000148650756958645819210000012550567461277834650_);fill:none;stroke:#B7BABB;stroke-width:0.25;" x1="252.6" y1="94.9" x2="252.6" y2="420.8"/>
					
						<line style="clip-path:url(#SVGID_00000148650756958645819210000012550567461277834650_);fill:none;stroke:#B7BABB;stroke-width:0.25;" x1="245.5" y1="94.9" x2="245.5" y2="420.8"/>
					
						<line style="clip-path:url(#SVGID_00000148650756958645819210000012550567461277834650_);fill:none;stroke:#B7BABB;stroke-width:0.25;" x1="238.4" y1="94.9" x2="238.4" y2="420.8"/>
					
						<line style="clip-path:url(#SVGID_00000148650756958645819210000012550567461277834650_);fill:none;stroke:#B7BABB;stroke-width:0.25;" x1="231.3" y1="94.9" x2="231.3" y2="420.8"/>
					
						<line style="clip-path:url(#SVGID_00000148650756958645819210000012550567461277834650_);fill:none;stroke:#B7BABB;stroke-width:0.25;" x1="224.2" y1="94.9" x2="224.2" y2="420.8"/>
					
						<line style="clip-path:url(#SVGID_00000148650756958645819210000012550567461277834650_);fill:none;stroke:#B7BABB;stroke-width:0.25;" x1="217.2" y1="94.9" x2="217.2" y2="420.8"/>
					
						<line style="clip-path:url(#SVGID_00000148650756958645819210000012550567461277834650_);fill:none;stroke:#B7BABB;stroke-width:0.25;" x1="210.1" y1="94.9" x2="210.1" y2="420.8"/>
					
						<line style="clip-path:url(#SVGID_00000148650756958645819210000012550567461277834650_);fill:none;stroke:#B7BABB;stroke-width:0.25;" x1="203" y1="94.9" x2="203" y2="420.8"/>
					
						<line style="clip-path:url(#SVGID_00000148650756958645819210000012550567461277834650_);fill:none;stroke:#B7BABB;stroke-width:0.25;" x1="195.9" y1="94.9" x2="195.9" y2="420.8"/>
					
						<line style="clip-path:url(#SVGID_00000148650756958645819210000012550567461277834650_);fill:none;stroke:#B7BABB;stroke-width:0.25;" x1="188.8" y1="94.9" x2="188.8" y2="420.8"/>
					
						<line style="clip-path:url(#SVGID_00000148650756958645819210000012550567461277834650_);fill:none;stroke:#B7BABB;stroke-width:0.25;" x1="181.7" y1="94.9" x2="181.7" y2="420.8"/>
					
						<line style="clip-path:url(#SVGID_00000148650756958645819210000012550567461277834650_);fill:none;stroke:#B7BABB;stroke-width:0.25;" x1="174.6" y1="94.9" x2="174.6" y2="420.8"/>
					
						<line style="clip-path:url(#SVGID_00000148650756958645819210000012550567461277834650_);fill:none;stroke:#B7BABB;stroke-width:0.25;" x1="167.6" y1="94.9" x2="167.6" y2="420.8"/>
					
						<line style="clip-path:url(#SVGID_00000148650756958645819210000012550567461277834650_);fill:none;stroke:#B7BABB;stroke-width:0.25;" x1="160.5" y1="94.9" x2="160.5" y2="420.8"/>
					
						<line style="clip-path:url(#SVGID_00000148650756958645819210000012550567461277834650_);fill:none;stroke:#B7BABB;stroke-width:0.25;" x1="153.4" y1="94.9" x2="153.4" y2="420.8"/>
					
						<line style="clip-path:url(#SVGID_00000148650756958645819210000012550567461277834650_);fill:none;stroke:#B7BABB;stroke-width:0.25;" x1="146.3" y1="94.9" x2="146.3" y2="420.8"/>
					
						<line style="clip-path:url(#SVGID_00000148650756958645819210000012550567461277834650_);fill:none;stroke:#B7BABB;stroke-width:0.25;" x1="139.2" y1="94.9" x2="139.2" y2="420.8"/>
					
						<line style="clip-path:url(#SVGID_00000148650756958645819210000012550567461277834650_);fill:none;stroke:#B7BABB;stroke-width:0.25;" x1="132.1" y1="94.9" x2="132.1" y2="420.8"/>
					
						<line style="clip-path:url(#SVGID_00000148650756958645819210000012550567461277834650_);fill:none;stroke:#B7BABB;stroke-width:0.25;" x1="125" y1="94.9" x2="125" y2="420.8"/>
					
						<line style="clip-path:url(#SVGID_00000148650756958645819210000012550567461277834650_);fill:none;stroke:#B7BABB;stroke-width:0.25;" x1="117.9" y1="94.9" x2="117.9" y2="420.8"/>
					
						<line style="clip-path:url(#SVGID_00000148650756958645819210000012550567461277834650_);fill:none;stroke:#B7BABB;stroke-width:0.25;" x1="110.9" y1="94.9" x2="110.9" y2="420.8"/>
					
						<line style="clip-path:url(#SVGID_00000148650756958645819210000012550567461277834650_);fill:none;stroke:#B7BABB;stroke-width:0.25;" x1="103.8" y1="94.9" x2="103.8" y2="420.8"/>
					
						<line style="clip-path:url(#SVGID_00000148650756958645819210000012550567461277834650_);fill:none;stroke:#B7BABB;stroke-width:0.25;" x1="96.7" y1="94.9" x2="96.7" y2="420.8"/>
					
						<line style="clip-path:url(#SVGID_00000148650756958645819210000012550567461277834650_);fill:none;stroke:#B7BABB;stroke-width:0.25;" x1="89.6" y1="94.9" x2="89.6" y2="420.8"/>
					
						<line style="clip-path:url(#SVGID_00000148650756958645819210000012550567461277834650_);fill:none;stroke:#B7BABB;stroke-width:0.25;" x1="82.5" y1="94.9" x2="82.5" y2="420.8"/>
					
						<line style="clip-path:url(#SVGID_00000148650756958645819210000012550567461277834650_);fill:none;stroke:#B7BABB;stroke-width:0.25;" x1="75.4" y1="94.9" x2="75.4" y2="420.8"/>
					
						<line style="clip-path:url(#SVGID_00000148650756958645819210000012550567461277834650_);fill:none;stroke:#B7BABB;stroke-width:0.25;" x1="68.3" y1="94.9" x2="68.3" y2="420.8"/>
					
						<line style="clip-path:url(#SVGID_00000148650756958645819210000012550567461277834650_);fill:none;stroke:#B7BABB;stroke-width:0.25;" x1="61.3" y1="94.9" x2="61.3" y2="420.8"/>
					
						<line style="clip-path:url(#SVGID_00000148650756958645819210000012550567461277834650_);fill:none;stroke:#B7BABB;stroke-width:0.25;" x1="54.2" y1="94.9" x2="54.2" y2="420.8"/>
					
						<line style="clip-path:url(#SVGID_00000148650756958645819210000012550567461277834650_);fill:none;stroke:#B7BABB;stroke-width:0.25;" x1="47.1" y1="94.9" x2="47.1" y2="420.8"/>
					
						<line style="clip-path:url(#SVGID_00000148650756958645819210000012550567461277834650_);fill:none;stroke:#B7BABB;stroke-width:0.2;" x1="372.9" y1="343" x2="47" y2="343"/>
					
						<line style="clip-path:url(#SVGID_00000148650756958645819210000012550567461277834650_);fill:none;stroke:#B7BABB;stroke-width:0.2;" x1="372.9" y1="335.9" x2="47" y2="335.9"/>
					
						<line style="clip-path:url(#SVGID_00000148650756958645819210000012550567461277834650_);fill:none;stroke:#B7BABB;stroke-width:0.2;" x1="372.9" y1="328.8" x2="47" y2="328.8"/>
					
						<line style="clip-path:url(#SVGID_00000148650756958645819210000012550567461277834650_);fill:none;stroke:#B7BABB;stroke-width:0.2;" x1="372.9" y1="321.8" x2="47" y2="321.8"/>
					
						<line style="clip-path:url(#SVGID_00000148650756958645819210000012550567461277834650_);fill:none;stroke:#B7BABB;stroke-width:0.2;" x1="372.9" y1="314.7" x2="47" y2="314.7"/>
					
						<line style="clip-path:url(#SVGID_00000148650756958645819210000012550567461277834650_);fill:none;stroke:#B7BABB;stroke-width:0.2;" x1="372.9" y1="307.6" x2="47" y2="307.6"/>
					
						<line style="clip-path:url(#SVGID_00000148650756958645819210000012550567461277834650_);fill:none;stroke:#B7BABB;stroke-width:0.2;" x1="372.9" y1="300.5" x2="47" y2="300.5"/>
					
						<line style="clip-path:url(#SVGID_00000148650756958645819210000012550567461277834650_);fill:none;stroke:#B7BABB;stroke-width:0.2;" x1="372.9" y1="293.4" x2="47" y2="293.4"/>
					
						<line style="clip-path:url(#SVGID_00000148650756958645819210000012550567461277834650_);fill:none;stroke:#B7BABB;stroke-width:0.2;" x1="372.9" y1="286.3" x2="47" y2="286.3"/>
					
						<line style="clip-path:url(#SVGID_00000148650756958645819210000012550567461277834650_);fill:none;stroke:#B7BABB;stroke-width:0.2;" x1="372.9" y1="279.2" x2="47" y2="279.2"/>
					
						<line style="clip-path:url(#SVGID_00000148650756958645819210000012550567461277834650_);fill:none;stroke:#B7BABB;stroke-width:0.2;" x1="372.9" y1="272.2" x2="47" y2="272.2"/>
					
						<line style="clip-path:url(#SVGID_00000148650756958645819210000012550567461277834650_);fill:none;stroke:#B7BABB;stroke-width:0.2;" x1="372.9" y1="265.1" x2="47" y2="265.1"/>
				</g>
			</g>
		</g>
	</g>
	<polygon style="clip-path:url(#SVGID_00000160170845221667544100000011904740372260519070_);fill:#8B8F91;" points="250.5,305.3 
		250.5,321 292,321 293.9,319.1 293.9,305.3 	"/>
	<g style="clip-path:url(#SVGID_00000160170845221667544100000011904740372260519070_);">
		<text transform="matrix(1 0 0 1 252.4043 311.7789)" class="st6 st7 st8">Simple </text>
	</g>
	<g style="clip-path:url(#SVGID_00000160170845221667544100000011904740372260519070_);">
		<text transform="matrix(1 0 0 1 272.6006 311.7789)" class="st6 st7 st8"> </text>
	</g>
	<g style="clip-path:url(#SVGID_00000160170845221667544100000011904740372260519070_);">
		<text transform="matrix(1 0 0 1 251.7441 318.5074)"><tspan x="0" y="0" class="st6 st7 st8"> </tspan><tspan x="1.3" y="0" class="st6 st7 st8">S</tspan><tspan x="5" y="0" class="st6 st7 st8">t</tspan><tspan x="7.2" y="0" class="st6 st7 st8">a</tspan><tspan x="10.5" y="0" class="st6 st7 st8">ti</tspan><tspan x="14.4" y="0" class="st6 st7 st8">s</tspan><tspan x="17.3" y="0" class="st6 st7 st8">ti</tspan><tspan x="21.2" y="0" class="st6 st7 st8">c</tspan><tspan x="24.5" y="0" class="st6 st7 st8">s</tspan></text>
	</g>
	<polygon style="clip-path:url(#SVGID_00000160170845221667544100000011904740372260519070_);fill:#8B8F91;" points="250.9,268.4 
		250.9,276.8 292,276.8 293.9,274.9 293.9,268.4 	"/>
	<g style="clip-path:url(#SVGID_00000160170845221667544100000011904740372260519070_);">
		<text transform="matrix(1 0 0 1 255.3574 274.8751)"><tspan x="0" y="0" class="st6 st7 st8">V</tspan><tspan x="3.6" y="0" class="st6 st7 st8">is</tspan><tspan x="8" y="0" class="st6 st7 st8">u</tspan><tspan x="11.2" y="0" class="st6 st7 st8">alis</tspan><tspan x="20.4" y="0" class="st6 st7 st8">a</tspan><tspan x="23.6" y="0" class="st6 st7 st8">ti</tspan><tspan x="27.2" y="0" class="st6 st7 st8">o</tspan><tspan x="30.3" y="0" class="st6 st7 st8">n</tspan></text>
	</g>
	<polygon style="clip-path:url(#SVGID_00000160170845221667544100000011904740372260519070_);fill:#FFFFFF;" points="315.2,286.8 
		315.2,294.9 365,294.9 366.9,292.9 366.9,286.8 	"/>
	<g style="clip-path:url(#SVGID_00000160170845221667544100000011904740372260519070_);">
		<text transform="matrix(1 0 0 1 317.3896 292.443)"><tspan x="0" y="0" class="st10 st11 st12">F</tspan><tspan x="2.6" y="0" class="st10 st11 st12">r</tspan><tspan x="4.2" y="0" class="st10 st11 st12">equen</tspan><tspan x="17" y="0" class="st10 st11 st12">c</tspan><tspan x="19.5" y="0" class="st10 st11 st12">y Cou</tspan><tspan x="30.9" y="0" class="st10 st11 st12">n</tspan><tspan x="33.5" y="0" class="st10 st11 st12">t</tspan></text>
	</g>
	
		<polygon style="clip-path:url(#SVGID_00000160170845221667544100000011904740372260519070_);fill:none;stroke:#8B8F91;stroke-width:0.25;" points="
		315.2,286.8 315.2,294.9 365,294.9 366.9,292.9 366.9,286.8 	"/>
	<polygon style="clip-path:url(#SVGID_00000160170845221667544100000011904740372260519070_);fill:#FFFFFF;" points="315.2,330.9 
		315.2,339 365,339 366.9,337 366.9,330.9 	"/>
	<g style="clip-path:url(#SVGID_00000160170845221667544100000011904740372260519070_);">
		<text transform="matrix(1 0 0 1 317.417 336.4108)"><tspan x="0" y="0" class="st10 st11 st14">Multi</tspan><tspan x="9.3" y="0" class="st10 st11 st14">v</tspan><tspan x="11.3" y="0" class="st10 st11 st14">ari</tspan><tspan x="16.3" y="0" class="st10 st11 st14">a</tspan><tspan x="18.6" y="0" class="st10 st11 st14">te Anal</tspan><tspan x="31.9" y="0" class="st10 st11 st14">y</tspan><tspan x="34" y="0" class="st10 st11 st14">sis</tspan></text>
	</g>
	
		<polygon style="clip-path:url(#SVGID_00000160170845221667544100000011904740372260519070_);fill:none;stroke:#8B8F91;stroke-width:0.25;" points="
		315.2,330.9 315.2,339 365,339 366.9,337 366.9,330.9 	"/>
	<polygon style="clip-path:url(#SVGID_00000160170845221667544100000011904740372260519070_);fill:#FFFFFF;" points="315.3,268.6 
		315.3,276.7 365.1,276.7 367,274.7 367,268.6 	"/>
	<g style="clip-path:url(#SVGID_00000160170845221667544100000011904740372260519070_);">
		<text transform="matrix(1 0 0 1 317.5166 274.2438)"><tspan x="0" y="0" class="st10 st11 st12">Hi</tspan><tspan x="4.3" y="0" class="st10 st11 st12">s</tspan><tspan x="6.6" y="0" class="st10 st11 st12">tog</tspan><tspan x="13.5" y="0" class="st10 st11 st12">r</tspan><tspan x="15.1" y="0" class="st10 st11 st12">ams</tspan></text>
	</g>
	
		<polygon style="clip-path:url(#SVGID_00000160170845221667544100000011904740372260519070_);fill:none;stroke:#8B8F91;stroke-width:0.25;" points="
		315.3,268.6 315.3,276.7 365.1,276.7 367,274.7 367,268.6 	"/>
	<polygon style="clip-path:url(#SVGID_00000160170845221667544100000011904740372260519070_);fill:#FFFFFF;" points="315.2,319.8 
		315.2,327.9 365,327.9 366.9,326 366.9,319.8 	"/>
	<g style="clip-path:url(#SVGID_00000160170845221667544100000011904740372260519070_);">
		<text transform="matrix(1 0 0 1 317.3477 325.5211)"><tspan x="0" y="0" class="st10 st11 st12">Cor</tspan><tspan x="7.3" y="0" class="st10 st11 st12">r</tspan><tspan x="9" y="0" class="st10 st11 st12">e</tspan><tspan x="11.4" y="0" class="st10 st11 st12">c</tspan><tspan x="13.9" y="0" class="st10 st11 st12">tion Maps</tspan></text>
	</g>
	
		<polygon style="clip-path:url(#SVGID_00000160170845221667544100000011904740372260519070_);fill:none;stroke:#8B8F91;stroke-width:0.25;" points="
		315.2,319.8 315.2,327.9 365,327.9 366.9,326 366.9,319.8 	"/>
	
		<path style="clip-path:url(#SVGID_00000160170845221667544100000011904740372260519070_);fill:none;stroke:#000000;stroke-width:0.311;" d="
		M309.4,281.1"/>
	
		<path style="clip-path:url(#SVGID_00000160170845221667544100000011904740372260519070_);fill:none;stroke:#FFFFFF;stroke-width:0.311;" d="
		M327.6,281.1"/>
	<polygon style="clip-path:url(#SVGID_00000160170845221667544100000011904740372260519070_);fill:#FFFFFF;" points="315.2,297.8 
		315.2,305.9 365,305.9 366.9,304 366.9,297.8 	"/>
	<g style="clip-path:url(#SVGID_00000160170845221667544100000011904740372260519070_);">
		<text transform="matrix(1 0 0 1 317.3896 303.4694)"><tspan x="0" y="0" class="st10 st11 st12">Mean and</tspan><tspan x="20" y="0" class="st10 st11 st12"> </tspan><tspan x="21" y="0" class="st10 st11 st12">V</tspan><tspan x="23.5" y="0" class="st10 st11 st12">ariance</tspan></text>
	</g>
	
		<polygon style="clip-path:url(#SVGID_00000160170845221667544100000011904740372260519070_);fill:none;stroke:#8B8F91;stroke-width:0.25;" points="
		315.2,297.8 315.2,305.9 365,305.9 366.9,304 366.9,297.8 	"/>
	<polygon style="clip-path:url(#SVGID_00000160170845221667544100000011904740372260519070_);fill:#FFFFFF;" points="315.2,308.8 
		315.2,316.9 365,316.9 366.9,315 366.9,308.8 	"/>
	<g style="clip-path:url(#SVGID_00000160170845221667544100000011904740372260519070_);">
		<text transform="matrix(1 0 0 1 317.3896 314.4948)"><tspan x="0" y="0" class="st10 st11 st12">P</tspan><tspan x="2.8" y="0" class="st10 st11 st12">a</tspan><tspan x="5.3" y="0" class="st10 st11 st12">r</tspan><tspan x="7" y="0" class="st10 st11 st12">e</tspan><tspan x="9.4" y="0" class="st10 st11 st12">to Anal</tspan><tspan x="24" y="0" class="st10 st11 st12">y</tspan><tspan x="26.2" y="0" class="st10 st11 st12">sis</tspan></text>
	</g>
	
		<polygon style="clip-path:url(#SVGID_00000160170845221667544100000011904740372260519070_);fill:none;stroke:#8B8F91;stroke-width:0.25;" points="
		315.2,308.8 315.2,316.9 365,316.9 366.9,315 366.9,308.8 	"/>
	
		<polyline style="clip-path:url(#SVGID_00000160170845221667544100000011904740372260519070_);fill:none;stroke:#8B8F91;stroke-width:0.25;stroke-linecap:round;stroke-linejoin:round;" points="
		315.2,290.6 298.2,290.6 298.2,307.8 293.4,307.8 	"/>
	
		<polyline style="clip-path:url(#SVGID_00000160170845221667544100000011904740372260519070_);fill:none;stroke:#8B8F91;stroke-width:0.25;stroke-linecap:round;stroke-linejoin:round;" points="
		315,335.4 298.2,335.4 298.2,318.3 293.4,318.3 	"/>
	
		<polyline style="clip-path:url(#SVGID_00000160170845221667544100000011904740372260519070_);fill:none;stroke:#8B8F91;stroke-width:0.25;stroke-linecap:round;stroke-linejoin:round;" points="
		315.2,302 301.3,302 301.3,310.7 293.8,310.7 	"/>
	
		<polyline style="clip-path:url(#SVGID_00000160170845221667544100000011904740372260519070_);fill:none;stroke:#8B8F91;stroke-width:0.25;stroke-linecap:round;stroke-linejoin:round;" points="
		315.2,324.5 301.3,324.5 301.3,315.9 293.9,315.9 	"/>
	
		<polyline style="clip-path:url(#SVGID_00000160170845221667544100000011904740372260519070_);fill:none;stroke:#8B8F91;stroke-width:0.25;stroke-linecap:round;stroke-linejoin:round;" points="
		251.3,313.6 245.6,313.6 245.6,309 235.9,309 	"/>
	
		<polyline style="clip-path:url(#SVGID_00000160170845221667544100000011904740372260519070_);fill:none;stroke:#8B8F91;stroke-width:0.25;stroke-linecap:round;stroke-linejoin:round;" points="
		250.9,273.1 244,273.1 244,305.5 236.4,305.5 	"/>
	
		<line style="clip-path:url(#SVGID_00000160170845221667544100000011904740372260519070_);fill:none;stroke:#8B8F91;stroke-width:0.25;stroke-linecap:round;stroke-linejoin:round;" x1="293.3" y1="272.6" x2="315.3" y2="272.6"/>
	
		<line style="clip-path:url(#SVGID_00000160170845221667544100000011904740372260519070_);fill:none;stroke:#8B8F91;stroke-width:0.25;stroke-linecap:round;stroke-linejoin:round;" x1="315.2" y1="313.2" x2="293.9" y2="313.2"/>
	<g style="clip-path:url(#SVGID_00000160170845221667544100000011904740372260519070_);">
		<defs>
			<rect id="SVGID_00000103980319863313290880000014506462152882085535_" width="419.5" height="595.3"/>
		</defs>
		<clipPath id="SVGID_00000181809290551459347310000018395542071533916861_">
			<use xlink:href="#SVGID_00000103980319863313290880000014506462152882085535_"  style="overflow:visible;"/>
		</clipPath>
		<path style="clip-path:url(#SVGID_00000181809290551459347310000018395542071533916861_);fill:#FFFFFF;" d="M209.5,331.3
			c14.8,0,26.7-12,26.7-26.7c0-14.8-12-26.7-26.7-26.7s-26.7,12-26.7,26.7C182.8,319.4,194.7,331.3,209.5,331.3"/>
		
			<circle style="clip-path:url(#SVGID_00000181809290551459347310000018395542071533916861_);fill:none;stroke:#B7BABB;stroke-width:0.327;" cx="209.5" cy="304.6" r="26.7"/>
		<path style="clip-path:url(#SVGID_00000181809290551459347310000018395542071533916861_);fill:#E0E2E3;" d="M209.5,322.1
			c9.7,0,17.5-7.8,17.5-17.5s-7.8-17.5-17.5-17.5s-17.5,7.8-17.5,17.5S199.8,322.1,209.5,322.1"/>
		
			<path style="clip-path:url(#SVGID_00000181809290551459347310000018395542071533916861_);fill:none;stroke:#B7BABB;stroke-width:2.62;" d="
			M236.2,304.6c0-14.8-12-26.7-26.7-26.7"/>
	</g>
	<g style="clip-path:url(#SVGID_00000160170845221667544100000011904740372260519070_);">
		<text transform="matrix(1 0 0 1 181.7603 290.0934)"><tspan x="0" y="0" class="st22 st7 st23">D</tspan><tspan x="6.6" y="0" class="st22 st7 st23">a</tspan><tspan x="12.1" y="0" class="st22 st7 st23">t</tspan><tspan x="15.7" y="0" class="st22 st7 st23">a </tspan></text>
	</g>
	<g style="clip-path:url(#SVGID_00000160170845221667544100000011904740372260519070_);">
		<text transform="matrix(1 0 0 1 181.7603 298.3141)"><tspan x="0" y="0" class="st22 st7 st23">Explo</tspan><tspan x="24.9" y="0" class="st22 st7 st23">r</tspan><tspan x="28.3" y="0" class="st22 st7 st23">a</tspan><tspan x="33.8" y="0" class="st22 st7 st23">tion</tspan></text>
	</g>
	<g style="clip-path:url(#SVGID_00000160170845221667544100000011904740372260519070_);">
		<defs>
			<rect id="SVGID_00000108279556691540210740000017996774175443774862_" width="419.5" height="595.3"/>
		</defs>
		<clipPath id="SVGID_00000158720025689346982150000011365035569296026800_">
			<use xlink:href="#SVGID_00000108279556691540210740000017996774175443774862_"  style="overflow:visible;"/>
		</clipPath>
		<path style="clip-path:url(#SVGID_00000158720025689346982150000011365035569296026800_);fill:#8B8F91;" d="M202.3,303.6l6.2,2.7
			l-5.3,2.4l-0.3,0.2l-0.3,0.2l-0.2,0.1l-0.2-0.1l-0.3-0.2l-0.3-0.2l-5.3-2.4L202.3,303.6z M203.2,314.1l-0.3,0.2l-0.3,0.2l-0.2,0.1
			l-0.2-0.1l-0.3-0.2l-0.3-0.2l-5.3-2.4l3.1-1.4l2.9,1.3c0,0,0.1,0,0.1,0c0,0,0.1,0,0.1,0l2.9-1.3l3.1,1.4L203.2,314.1z
			 M202.3,319.8l-6.2-2.7l3.4-1.5l2.6,1.2c0,0,0.1,0,0.1,0c0,0,0.1,0,0.1,0l2.6-1.2l3.4,1.5L202.3,319.8z M209.4,306.3
			C209.4,306.3,209.4,306.3,209.4,306.3C209.4,306.3,209.4,306.2,209.4,306.3C209.4,306.2,209.4,306.2,209.4,306.3
			c-0.1-0.1-0.1-0.1-0.1-0.1c0,0,0,0,0,0c0,0,0,0,0,0c0,0,0,0,0,0c0,0,0,0,0,0l-6.8-3.1c-0.1,0-0.2,0-0.2,0l-6.8,3.1c0,0,0,0,0,0
			c0,0,0,0,0,0s0,0,0,0c0,0,0,0,0,0c0,0,0,0,0,0c0,0,0,0,0,0c0,0,0,0,0,0c0,0,0,0,0,0c0,0,0,0,0,0.1v1.9c0,0.1,0.1,0.2,0.2,0.3
			l3.3,1.4l-3.3,1.5c0,0,0,0,0,0c0,0,0,0,0,0c0,0,0,0,0,0c0,0,0,0,0,0c0,0,0,0,0,0c0,0,0,0,0,0c0,0,0,0,0,0c0,0,0,0,0,0
			c0,0,0,0,0,0.1v1.7c0,0.1,0.1,0.2,0.2,0.3l3.6,1.6l-3.6,1.6c0,0,0,0,0,0c0,0,0,0,0,0s0,0,0,0c0,0,0,0,0,0c0,0,0,0,0,0c0,0,0,0,0,0
			c0,0,0,0,0,0c0,0,0,0,0,0c0,0,0,0,0,0.1v1.7c0,0.1,0.1,0.2,0.2,0.3l6.8,3c0,0,0.1,0,0.1,0c0,0,0.1,0,0.1,0l6.8-3
			c0.1,0,0.2-0.1,0.2-0.3V317c0,0,0-0.1,0-0.1c0,0,0,0,0,0c0,0,0,0,0,0c0,0,0,0,0,0c0,0,0,0,0,0c0,0,0,0,0,0c0,0,0,0,0,0
			c0,0,0,0,0,0c0,0,0,0,0,0l-3.6-1.6l3.6-1.6c0.1,0,0.2-0.1,0.2-0.3v-1.7c0,0,0-0.1,0-0.1c0,0,0,0,0,0c0,0,0,0,0,0c0,0,0,0,0,0
			c0,0,0,0,0,0c0,0,0,0,0,0c0,0,0,0,0,0c0,0,0,0,0,0c0,0,0,0,0,0L206,310l3.3-1.4c0.1,0,0.2-0.1,0.2-0.3L209.4,306.3
			C209.5,306.3,209.4,306.3,209.4,306.3"/>
		<path style="clip-path:url(#SVGID_00000158720025689346982150000011365035569296026800_);fill:#8B8F91;" d="M218.3,316
			c3,0,5.4-2.4,5.4-5.4s-2.4-5.4-5.4-5.4s-5.4,2.4-5.4,5.4S215.3,316,218.3,316 M226.9,319.8c0.2,0.2,0.5,0.2,0.7,0
			c0.2-0.2,0.2-0.5,0-0.7l-4.4-4.4c-0.2,0.3-0.4,0.5-0.7,0.7L226.9,319.8z M218.3,304.1c3.6,0,6.4,2.9,6.4,6.4c0,1.2-0.4,2.4-1,3.4
			l4.6,4.6c0.6,0.6,0.6,1.5,0,2.1c-0.6,0.6-1.5,0.6-2.1,0l-4.6-4.6c-1,0.6-2.1,1-3.4,1c-3.6,0-6.4-2.9-6.4-6.4
			C211.8,307,214.7,304.1,218.3,304.1"/>
		<path style="clip-path:url(#SVGID_00000158720025689346982150000011365035569296026800_);fill:#8B8F91;" d="M216.8,313.7
			c-0.3-0.8-0.5-1.8-0.5-2.7h-1.5C215,312.2,215.8,313.2,216.8,313.7 M221.7,311h-1.5c0,0.9-0.2,1.9-0.5,2.7
			C220.8,313.2,221.5,312.2,221.7,311 M219.7,307.4c0.3,0.8,0.5,1.8,0.5,2.7h1.5C221.5,308.8,220.8,307.8,219.7,307.4 M219.3,310
			c-0.1-1.1-0.5-3-1-3c-0.6,0-0.9,2.1-1,3H219.3z M218.3,314c0.6,0,0.9-2.1,1-3h-2C217.4,312.1,217.8,314,218.3,314 M214.9,310h1.5
			c0-0.9,0.2-1.9,0.5-2.7C215.8,307.8,215,308.8,214.9,310 M218.3,306c2.5,0,4.5,2,4.5,4.5c0,2.5-2,4.5-4.5,4.5s-4.5-2-4.5-4.5
			C213.8,308,215.8,306,218.3,306"/>
	</g>
	<polygon style="clip-path:url(#SVGID_00000160170845221667544100000011904740372260519070_);fill:#FFFFFF;" points="47,317.9 
		47,324.7 76.6,324.7 78.5,322.8 78.5,317.9 	"/>
	<g style="clip-path:url(#SVGID_00000160170845221667544100000011904740372260519070_);">
		<text transform="matrix(1 0 0 1 49.2266 322.7115)"><tspan x="0" y="0" class="st10 st25 st26">Disc</tspan><tspan x="7.8" y="0" class="st10 st25 st26">r</tspan><tspan x="9.1" y="0" class="st10 st25 st26">e</tspan><tspan x="11.2" y="0" class="st10 st25 st26">t</tspan><tspan x="12.6" y="0" class="st10 st25 st26">e</tspan></text>
	</g>
	
		<polygon style="clip-path:url(#SVGID_00000160170845221667544100000011904740372260519070_);fill:none;stroke:#8B8F91;stroke-width:0.25;" points="
		47,317.9 47,324.7 76.6,324.7 78.5,322.8 78.5,317.9 	"/>
	<polygon style="clip-path:url(#SVGID_00000160170845221667544100000011904740372260519070_);fill:#FFFFFF;" points="46.8,308.8 
		46.8,315.7 76.4,315.7 78.3,313.8 78.3,308.8 	"/>
	<g style="clip-path:url(#SVGID_00000160170845221667544100000011904740372260519070_);">
		<text transform="matrix(1 0 0 1 48.9785 313.694)"><tspan x="0" y="0" class="st10 st25 st26">Co</tspan><tspan x="4.5" y="0" class="st10 st25 st26">n</tspan><tspan x="6.5" y="0" class="st10 st25 st26">tinuou</tspan><tspan x="16.6" y="0" class="st10 st25 st26">s</tspan></text>
	</g>
	
		<polygon style="clip-path:url(#SVGID_00000160170845221667544100000011904740372260519070_);fill:none;stroke:#8B8F91;stroke-width:0.25;" points="
		46.8,308.8 46.8,315.7 76.4,315.7 78.3,313.8 78.3,308.8 	"/>
	<polygon style="clip-path:url(#SVGID_00000160170845221667544100000011904740372260519070_);fill:#8B8F91;" points="135.4,291.7 
		135.4,301.2 166.1,301.2 168,299.3 168,291.7 	"/>
	<g style="clip-path:url(#SVGID_00000160170845221667544100000011904740372260519070_);">
		<text transform="matrix(1 0 0 1 137.9316 298.5944)"><tspan x="0" y="0" class="st6 st7 st27">V</tspan><tspan x="3.4" y="0" class="st6 st7 st27">ariabl</tspan><tspan x="19.6" y="0" class="st6 st7 st27">e</tspan><tspan x="22.8" y="0" class="st6 st7 st27">s</tspan></text>
	</g>
	
		<polyline style="clip-path:url(#SVGID_00000160170845221667544100000011904740372260519070_);fill:none;stroke:#8B8F91;stroke-width:0.25;stroke-linecap:round;stroke-linejoin:round;" points="
		136.1,295.3 128.7,295.3 128.7,289.3 122.3,289.3 	"/>
	
		<polyline style="clip-path:url(#SVGID_00000160170845221667544100000011904740372260519070_);fill:none;stroke:#8B8F91;stroke-width:0.25;stroke-linecap:round;stroke-linejoin:round;" points="
		182.5,306.4 174.6,306.4 174.6,296.3 168.1,296.3 	"/>
	
		<polyline style="clip-path:url(#SVGID_00000160170845221667544100000011904740372260519070_);fill:none;stroke:#8B8F91;stroke-width:0.25;stroke-linecap:round;stroke-linejoin:round;" points="
		136.1,298.1 128.7,298.1 128.7,303.3 121.3,303.3 	"/>
	
		<polyline style="clip-path:url(#SVGID_00000160170845221667544100000011904740372260519070_);fill:none;stroke:#8B8F91;stroke-width:0.25;stroke-linecap:round;stroke-linejoin:round;" points="
		87,315.4 80.5,315.4 80.5,312 78.5,312 	"/>
	
		<polyline style="clip-path:url(#SVGID_00000160170845221667544100000011904740372260519070_);fill:none;stroke:#8B8F91;stroke-width:0.25;stroke-linecap:round;stroke-linejoin:round;" points="
		87,317.9 80.5,317.9 80.5,321.3 78.5,321.3 	"/>
	<polygon style="clip-path:url(#SVGID_00000160170845221667544100000011904740372260519070_);fill:#FFFFFF;" points="87,314 
		87,322.7 121.6,322.7 123.6,320.7 123.6,314 	"/>
	<g style="clip-path:url(#SVGID_00000160170845221667544100000011904740372260519070_);">
		<text transform="matrix(1 0 0 1 89.2407 319.9938)" class="st10 st7 st28">Numerical</text>
	</g>
	
		<polygon style="clip-path:url(#SVGID_00000160170845221667544100000011904740372260519070_);fill:none;stroke:#8B8F91;stroke-width:0.25;" points="
		87,314 87,322.7 121.6,322.7 123.6,320.7 123.6,314 	"/>
	<polygon style="clip-path:url(#SVGID_00000160170845221667544100000011904740372260519070_);fill:#FFFFFF;" points="87,299.1 
		87,307.8 121.6,307.8 123.6,305.9 123.6,299.1 	"/>
	<g style="clip-path:url(#SVGID_00000160170845221667544100000011904740372260519070_);">
		<text transform="matrix(1 0 0 1 89.0703 305.1002)"><tspan x="0" y="0" class="st10 st7 st28">O</tspan><tspan x="3.3" y="0" class="st10 st7 st28">r</tspan><tspan x="5" y="0" class="st10 st7 st28">dinal</tspan></text>
	</g>
	
		<polygon style="clip-path:url(#SVGID_00000160170845221667544100000011904740372260519070_);fill:none;stroke:#8B8F91;stroke-width:0.25;" points="
		87,299.1 87,307.8 121.6,307.8 123.6,305.9 123.6,299.1 	"/>
	<polygon style="clip-path:url(#SVGID_00000160170845221667544100000011904740372260519070_);fill:#FFFFFF;" points="87,285.8 
		87,294.5 121.6,294.5 123.6,292.6 123.6,285.8 	"/>
	<g style="clip-path:url(#SVGID_00000160170845221667544100000011904740372260519070_);">
		<text transform="matrix(1 0 0 1 89.0703 291.8497)"><tspan x="0" y="0" class="st10 st7 st28">C</tspan><tspan x="3.2" y="0" class="st10 st7 st28">a</tspan><tspan x="5.8" y="0" class="st10 st7 st28">tegorical</tspan></text>
	</g>
	
		<polygon style="clip-path:url(#SVGID_00000160170845221667544100000011904740372260519070_);fill:none;stroke:#8B8F91;stroke-width:0.25;" points="
		87,285.8 87,294.5 121.6,294.5 123.6,292.6 123.6,285.8 	"/>
	<polygon style="clip-path:url(#SVGID_00000160170845221667544100000011904740372260519070_);fill:#00109F;" points="47,249 47,249 
		47,263.3 176.2,263.3 176.2,249 	"/>
	<g style="clip-path:url(#SVGID_00000160170845221667544100000011904740372260519070_);">
		<text transform="matrix(1 0 0 1 49.7656 252.8986)"><tspan x="0" y="0" class="st6 st25 st14">Figu</tspan><tspan x="8" y="0" class="st6 st25 st14">r</tspan><tspan x="9.4" y="0" class="st6 st25 st14">e </tspan><tspan x="12.6" y="0" class="st6 st25 st14">3</tspan><tspan x="15" y="0" class="st6 st25 st14">: </tspan></text>
	</g>
	<g style="clip-path:url(#SVGID_00000160170845221667544100000011904740372260519070_);">
		<text transform="matrix(1 0 0 1 66.665 252.8986)" class="st6 st25 st14"> </text>
	</g>
	<g style="clip-path:url(#SVGID_00000160170845221667544100000011904740372260519070_);">
		<text transform="matrix(1 0 0 1 49.7656 260.8986)"><tspan x="0" y="0" class="st6 st7 st30">The </tspan><tspan x="16.1" y="0" class="st6 st7 st30">D</tspan><tspan x="21.8" y="0" class="st6 st7 st30">a</tspan><tspan x="26.5" y="0" class="st6 st7 st30">t</tspan><tspan x="29.7" y="0" class="st6 st7 st30">a Explo</tspan><tspan x="58" y="0" class="st6 st7 st30">r</tspan><tspan x="60.9" y="0" class="st6 st7 st30">a</tspan><tspan x="65.7" y="0" class="st6 st7 st30">tion P</tspan><tspan x="88" y="0" class="st6 st7 st30">r</tspan><tspan x="91.1" y="0" class="st6 st7 st30">o</tspan><tspan x="95.8" y="0" class="st6 st7 st30">c</tspan><tspan x="100.4" y="0" class="st6 st7 st30">edu</tspan><tspan x="114.8" y="0" class="st6 st7 st30">r</tspan><tspan x="117.9" y="0" class="st6 st7 st30">e</tspan></text>
	</g>
	
		<line style="clip-path:url(#SVGID_00000160170845221667544100000011904740372260519070_);fill:none;stroke:#00109F;stroke-width:0.5;" x1="153.1" y1="263" x2="372.8" y2="263"/>
</g>
</svg>
