<?xml version="1.0" encoding="utf-8"?>
<!-- Generator: Adobe Illustrator 28.0.0, SVG Export Plug-In . SVG Version: 6.00 Build 0)  -->
<svg version="1.1" id="Layer_1" xmlns="http://www.w3.org/2000/svg" xmlns:xlink="http://www.w3.org/1999/xlink" x="0px" y="0px"
	 viewBox="0 0 419.5 595.3" style="enable-background:new 0 0 419.5 595.3;" xml:space="preserve">
<style type="text/css">
	.st0{clip-path:url(#SVGID_00000054965111831857318660000009183449361626059194_);}
	.st1{opacity:0.5;clip-path:url(#SVGID_00000152984216009581411440000000651165594012419242_);}
	.st2{clip-path:url(#SVGID_00000015328905500475270390000016393226115856183691_);}
	.st3{clip-path:url(#SVGID_00000142165157938630854740000002114309406477295292_);fill:none;stroke:#B7BABB;stroke-width:0.25;}
	.st4{clip-path:url(#SVGID_00000142165157938630854740000002114309406477295292_);fill:none;stroke:#B7BABB;stroke-width:0.2;}
	.st5{clip-path:url(#SVGID_00000054965111831857318660000009183449361626059194_);fill:#00109F;}
	.st6{fill:#FFFFFF;}
	.st7{font-family:'Colfax-Regular';}
	.st8{font-size:4px;}
	.st9{font-family:'Colfax-Bold';}
	.st10{font-size:8px;}
	.st11{clip-path:url(#SVGID_00000054965111831857318660000009183449361626059194_);fill:none;stroke:#00109F;stroke-width:0.5;}
	
		.st12{clip-path:url(#SVGID_00000054965111831857318660000009183449361626059194_);fill:none;stroke:#8B8F91;stroke-width:0.25;stroke-linecap:round;stroke-linejoin:round;}
	.st13{clip-path:url(#SVGID_00000054965111831857318660000009183449361626059194_);fill:#8B8F91;}
	.st14{font-size:5.733px;}
	.st15{clip-path:url(#SVGID_00000054965111831857318660000009183449361626059194_);fill:#FFFFFF;}
	.st16{clip-path:url(#SVGID_00000054965111831857318660000009183449361626059194_);fill:none;stroke:#00109F;}
	.st17{fill:#15233A;}
	.st18{font-size:7.0589px;}
	.st19{clip-path:url(#SVGID_00000036932644472417533100000014340125400490359729_);}
	.st20{fill:#8B8F91;}
	.st21{font-size:6px;}
</style>
<g>
	<defs>
		<rect id="SVGID_1_" width="419.5" height="595.3"/>
	</defs>
	<clipPath id="SVGID_00000088826221876243234370000009922668972986348726_">
		<use xlink:href="#SVGID_1_"  style="overflow:visible;"/>
	</clipPath>
	<g style="clip-path:url(#SVGID_00000088826221876243234370000009922668972986348726_);">
		<defs>
			<rect id="SVGID_00000082360616960746591420000012628138067198207120_" width="419.5" height="595.3"/>
		</defs>
		<clipPath id="SVGID_00000129172213058659246680000004248312842834521519_">
			<use xlink:href="#SVGID_00000082360616960746591420000012628138067198207120_"  style="overflow:visible;"/>
		</clipPath>
		<g style="opacity:0.5;clip-path:url(#SVGID_00000129172213058659246680000004248312842834521519_);">
			<g>
				<defs>
					<rect id="SVGID_00000036212712511057278390000005797947722358324120_" x="37.7" y="256.8" width="343.9" height="90"/>
				</defs>
				<clipPath id="SVGID_00000142177227228925306770000016086104745532652954_">
					<use xlink:href="#SVGID_00000036212712511057278390000005797947722358324120_"  style="overflow:visible;"/>
				</clipPath>
				<g style="clip-path:url(#SVGID_00000142177227228925306770000016086104745532652954_);">
					<defs>
						<polygon id="SVGID_00000101816109021665862470000003247768252730838705_" points="46.7,263.8 46.7,263.8 46.7,345.8 
							372.6,345.8 372.6,263.8 						"/>
					</defs>
					<clipPath id="SVGID_00000065053371493877378190000000776548303741036679_">
						<use xlink:href="#SVGID_00000101816109021665862470000003247768252730838705_"  style="overflow:visible;"/>
					</clipPath>
					
						<line style="clip-path:url(#SVGID_00000065053371493877378190000000776548303741036679_);fill:none;stroke:#B7BABB;stroke-width:0.25;" x1="373.1" y1="95.4" x2="373.1" y2="421.4"/>
					
						<line style="clip-path:url(#SVGID_00000065053371493877378190000000776548303741036679_);fill:none;stroke:#B7BABB;stroke-width:0.25;" x1="366" y1="95.4" x2="366" y2="421.4"/>
					
						<line style="clip-path:url(#SVGID_00000065053371493877378190000000776548303741036679_);fill:none;stroke:#B7BABB;stroke-width:0.25;" x1="358.9" y1="95.4" x2="358.9" y2="421.4"/>
					
						<line style="clip-path:url(#SVGID_00000065053371493877378190000000776548303741036679_);fill:none;stroke:#B7BABB;stroke-width:0.25;" x1="351.8" y1="95.4" x2="351.8" y2="421.4"/>
					
						<line style="clip-path:url(#SVGID_00000065053371493877378190000000776548303741036679_);fill:none;stroke:#B7BABB;stroke-width:0.25;" x1="344.7" y1="95.4" x2="344.7" y2="421.4"/>
					
						<line style="clip-path:url(#SVGID_00000065053371493877378190000000776548303741036679_);fill:none;stroke:#B7BABB;stroke-width:0.25;" x1="337.6" y1="95.4" x2="337.6" y2="421.4"/>
					
						<line style="clip-path:url(#SVGID_00000065053371493877378190000000776548303741036679_);fill:none;stroke:#B7BABB;stroke-width:0.25;" x1="330.5" y1="95.4" x2="330.5" y2="421.4"/>
					
						<line style="clip-path:url(#SVGID_00000065053371493877378190000000776548303741036679_);fill:none;stroke:#B7BABB;stroke-width:0.25;" x1="323.5" y1="95.4" x2="323.5" y2="421.4"/>
					
						<line style="clip-path:url(#SVGID_00000065053371493877378190000000776548303741036679_);fill:none;stroke:#B7BABB;stroke-width:0.25;" x1="316.4" y1="95.4" x2="316.4" y2="421.4"/>
					
						<line style="clip-path:url(#SVGID_00000065053371493877378190000000776548303741036679_);fill:none;stroke:#B7BABB;stroke-width:0.25;" x1="309.3" y1="95.4" x2="309.3" y2="421.4"/>
					
						<line style="clip-path:url(#SVGID_00000065053371493877378190000000776548303741036679_);fill:none;stroke:#B7BABB;stroke-width:0.25;" x1="302.2" y1="95.4" x2="302.2" y2="421.4"/>
					
						<line style="clip-path:url(#SVGID_00000065053371493877378190000000776548303741036679_);fill:none;stroke:#B7BABB;stroke-width:0.25;" x1="295.1" y1="95.4" x2="295.1" y2="421.4"/>
					
						<line style="clip-path:url(#SVGID_00000065053371493877378190000000776548303741036679_);fill:none;stroke:#B7BABB;stroke-width:0.25;" x1="288" y1="95.4" x2="288" y2="421.4"/>
					
						<line style="clip-path:url(#SVGID_00000065053371493877378190000000776548303741036679_);fill:none;stroke:#B7BABB;stroke-width:0.25;" x1="280.9" y1="95.4" x2="280.9" y2="421.4"/>
					
						<line style="clip-path:url(#SVGID_00000065053371493877378190000000776548303741036679_);fill:none;stroke:#B7BABB;stroke-width:0.25;" x1="273.9" y1="95.4" x2="273.9" y2="421.4"/>
					
						<line style="clip-path:url(#SVGID_00000065053371493877378190000000776548303741036679_);fill:none;stroke:#B7BABB;stroke-width:0.25;" x1="266.8" y1="95.4" x2="266.8" y2="421.4"/>
					
						<line style="clip-path:url(#SVGID_00000065053371493877378190000000776548303741036679_);fill:none;stroke:#B7BABB;stroke-width:0.25;" x1="259.7" y1="95.4" x2="259.7" y2="421.4"/>
					
						<line style="clip-path:url(#SVGID_00000065053371493877378190000000776548303741036679_);fill:none;stroke:#B7BABB;stroke-width:0.25;" x1="252.6" y1="95.4" x2="252.6" y2="421.4"/>
					
						<line style="clip-path:url(#SVGID_00000065053371493877378190000000776548303741036679_);fill:none;stroke:#B7BABB;stroke-width:0.25;" x1="245.5" y1="95.4" x2="245.5" y2="421.4"/>
					
						<line style="clip-path:url(#SVGID_00000065053371493877378190000000776548303741036679_);fill:none;stroke:#B7BABB;stroke-width:0.25;" x1="238.4" y1="95.4" x2="238.4" y2="421.4"/>
					
						<line style="clip-path:url(#SVGID_00000065053371493877378190000000776548303741036679_);fill:none;stroke:#B7BABB;stroke-width:0.25;" x1="231.3" y1="95.4" x2="231.3" y2="421.4"/>
					
						<line style="clip-path:url(#SVGID_00000065053371493877378190000000776548303741036679_);fill:none;stroke:#B7BABB;stroke-width:0.25;" x1="224.2" y1="95.4" x2="224.2" y2="421.4"/>
					
						<line style="clip-path:url(#SVGID_00000065053371493877378190000000776548303741036679_);fill:none;stroke:#B7BABB;stroke-width:0.25;" x1="217.2" y1="95.4" x2="217.2" y2="421.4"/>
					
						<line style="clip-path:url(#SVGID_00000065053371493877378190000000776548303741036679_);fill:none;stroke:#B7BABB;stroke-width:0.25;" x1="210.1" y1="95.4" x2="210.1" y2="421.4"/>
					
						<line style="clip-path:url(#SVGID_00000065053371493877378190000000776548303741036679_);fill:none;stroke:#B7BABB;stroke-width:0.25;" x1="203" y1="95.4" x2="203" y2="421.4"/>
					
						<line style="clip-path:url(#SVGID_00000065053371493877378190000000776548303741036679_);fill:none;stroke:#B7BABB;stroke-width:0.25;" x1="195.9" y1="95.4" x2="195.9" y2="421.4"/>
					
						<line style="clip-path:url(#SVGID_00000065053371493877378190000000776548303741036679_);fill:none;stroke:#B7BABB;stroke-width:0.25;" x1="188.8" y1="95.4" x2="188.8" y2="421.4"/>
					
						<line style="clip-path:url(#SVGID_00000065053371493877378190000000776548303741036679_);fill:none;stroke:#B7BABB;stroke-width:0.25;" x1="181.7" y1="95.4" x2="181.7" y2="421.4"/>
					
						<line style="clip-path:url(#SVGID_00000065053371493877378190000000776548303741036679_);fill:none;stroke:#B7BABB;stroke-width:0.25;" x1="174.6" y1="95.4" x2="174.6" y2="421.4"/>
					
						<line style="clip-path:url(#SVGID_00000065053371493877378190000000776548303741036679_);fill:none;stroke:#B7BABB;stroke-width:0.25;" x1="167.6" y1="95.4" x2="167.6" y2="421.4"/>
					
						<line style="clip-path:url(#SVGID_00000065053371493877378190000000776548303741036679_);fill:none;stroke:#B7BABB;stroke-width:0.25;" x1="160.5" y1="95.4" x2="160.5" y2="421.4"/>
					
						<line style="clip-path:url(#SVGID_00000065053371493877378190000000776548303741036679_);fill:none;stroke:#B7BABB;stroke-width:0.25;" x1="153.4" y1="95.4" x2="153.4" y2="421.4"/>
					
						<line style="clip-path:url(#SVGID_00000065053371493877378190000000776548303741036679_);fill:none;stroke:#B7BABB;stroke-width:0.25;" x1="146.3" y1="95.4" x2="146.3" y2="421.4"/>
					
						<line style="clip-path:url(#SVGID_00000065053371493877378190000000776548303741036679_);fill:none;stroke:#B7BABB;stroke-width:0.25;" x1="139.2" y1="95.4" x2="139.2" y2="421.4"/>
					
						<line style="clip-path:url(#SVGID_00000065053371493877378190000000776548303741036679_);fill:none;stroke:#B7BABB;stroke-width:0.25;" x1="132.1" y1="95.4" x2="132.1" y2="421.4"/>
					
						<line style="clip-path:url(#SVGID_00000065053371493877378190000000776548303741036679_);fill:none;stroke:#B7BABB;stroke-width:0.25;" x1="125" y1="95.4" x2="125" y2="421.4"/>
					
						<line style="clip-path:url(#SVGID_00000065053371493877378190000000776548303741036679_);fill:none;stroke:#B7BABB;stroke-width:0.25;" x1="117.9" y1="95.4" x2="117.9" y2="421.4"/>
					
						<line style="clip-path:url(#SVGID_00000065053371493877378190000000776548303741036679_);fill:none;stroke:#B7BABB;stroke-width:0.25;" x1="110.9" y1="95.4" x2="110.9" y2="421.4"/>
					
						<line style="clip-path:url(#SVGID_00000065053371493877378190000000776548303741036679_);fill:none;stroke:#B7BABB;stroke-width:0.25;" x1="103.8" y1="95.4" x2="103.8" y2="421.4"/>
					
						<line style="clip-path:url(#SVGID_00000065053371493877378190000000776548303741036679_);fill:none;stroke:#B7BABB;stroke-width:0.25;" x1="96.7" y1="95.4" x2="96.7" y2="421.4"/>
					
						<line style="clip-path:url(#SVGID_00000065053371493877378190000000776548303741036679_);fill:none;stroke:#B7BABB;stroke-width:0.25;" x1="89.6" y1="95.4" x2="89.6" y2="421.4"/>
					
						<line style="clip-path:url(#SVGID_00000065053371493877378190000000776548303741036679_);fill:none;stroke:#B7BABB;stroke-width:0.25;" x1="82.5" y1="95.4" x2="82.5" y2="421.4"/>
					
						<line style="clip-path:url(#SVGID_00000065053371493877378190000000776548303741036679_);fill:none;stroke:#B7BABB;stroke-width:0.25;" x1="75.4" y1="95.4" x2="75.4" y2="421.4"/>
					
						<line style="clip-path:url(#SVGID_00000065053371493877378190000000776548303741036679_);fill:none;stroke:#B7BABB;stroke-width:0.25;" x1="68.3" y1="95.4" x2="68.3" y2="421.4"/>
					
						<line style="clip-path:url(#SVGID_00000065053371493877378190000000776548303741036679_);fill:none;stroke:#B7BABB;stroke-width:0.25;" x1="61.3" y1="95.4" x2="61.3" y2="421.4"/>
					
						<line style="clip-path:url(#SVGID_00000065053371493877378190000000776548303741036679_);fill:none;stroke:#B7BABB;stroke-width:0.25;" x1="54.2" y1="95.4" x2="54.2" y2="421.4"/>
					
						<line style="clip-path:url(#SVGID_00000065053371493877378190000000776548303741036679_);fill:none;stroke:#B7BABB;stroke-width:0.25;" x1="47.1" y1="95.4" x2="47.1" y2="421.4"/>
					
						<line style="clip-path:url(#SVGID_00000065053371493877378190000000776548303741036679_);fill:none;stroke:#B7BABB;stroke-width:0.2;" x1="372.9" y1="343.5" x2="47" y2="343.5"/>
					
						<line style="clip-path:url(#SVGID_00000065053371493877378190000000776548303741036679_);fill:none;stroke:#B7BABB;stroke-width:0.2;" x1="372.9" y1="336.5" x2="47" y2="336.5"/>
					
						<line style="clip-path:url(#SVGID_00000065053371493877378190000000776548303741036679_);fill:none;stroke:#B7BABB;stroke-width:0.2;" x1="372.9" y1="329.4" x2="47" y2="329.4"/>
					
						<line style="clip-path:url(#SVGID_00000065053371493877378190000000776548303741036679_);fill:none;stroke:#B7BABB;stroke-width:0.2;" x1="372.9" y1="322.3" x2="47" y2="322.3"/>
					
						<line style="clip-path:url(#SVGID_00000065053371493877378190000000776548303741036679_);fill:none;stroke:#B7BABB;stroke-width:0.2;" x1="372.9" y1="315.2" x2="47" y2="315.2"/>
					
						<line style="clip-path:url(#SVGID_00000065053371493877378190000000776548303741036679_);fill:none;stroke:#B7BABB;stroke-width:0.2;" x1="372.9" y1="308.1" x2="47" y2="308.1"/>
					
						<line style="clip-path:url(#SVGID_00000065053371493877378190000000776548303741036679_);fill:none;stroke:#B7BABB;stroke-width:0.2;" x1="372.9" y1="301" x2="47" y2="301"/>
					
						<line style="clip-path:url(#SVGID_00000065053371493877378190000000776548303741036679_);fill:none;stroke:#B7BABB;stroke-width:0.2;" x1="372.9" y1="293.9" x2="47" y2="293.9"/>
					
						<line style="clip-path:url(#SVGID_00000065053371493877378190000000776548303741036679_);fill:none;stroke:#B7BABB;stroke-width:0.2;" x1="372.9" y1="286.9" x2="47" y2="286.9"/>
					
						<line style="clip-path:url(#SVGID_00000065053371493877378190000000776548303741036679_);fill:none;stroke:#B7BABB;stroke-width:0.2;" x1="372.9" y1="279.8" x2="47" y2="279.8"/>
					
						<line style="clip-path:url(#SVGID_00000065053371493877378190000000776548303741036679_);fill:none;stroke:#B7BABB;stroke-width:0.2;" x1="372.9" y1="272.7" x2="47" y2="272.7"/>
					
						<line style="clip-path:url(#SVGID_00000065053371493877378190000000776548303741036679_);fill:none;stroke:#B7BABB;stroke-width:0.2;" x1="372.9" y1="265.6" x2="47" y2="265.6"/>
				</g>
			</g>
		</g>
	</g>
	<polygon style="clip-path:url(#SVGID_00000088826221876243234370000009922668972986348726_);fill:#00109F;" points="47,249.5 
		47,249.5 47,263.8 134,263.8 134,249.5 	"/>
	<g style="clip-path:url(#SVGID_00000088826221876243234370000009922668972986348726_);">
		<text transform="matrix(1 0 0 1 49.7656 253.4215)"><tspan x="0" y="0" class="st6 st7 st8">Figu</tspan><tspan x="8" y="0" class="st6 st7 st8">r</tspan><tspan x="9.4" y="0" class="st6 st7 st8">e 1</tspan><tspan x="14" y="0" class="st6 st7 st8">5</tspan><tspan x="16.5" y="0" class="st6 st7 st8">: </tspan></text>
	</g>
	<g style="clip-path:url(#SVGID_00000088826221876243234370000009922668972986348726_);">
		<text transform="matrix(1 0 0 1 68.1372 253.4215)" class="st6 st7 st8"> </text>
	</g>
	<g style="clip-path:url(#SVGID_00000088826221876243234370000009922668972986348726_);">
		<text transform="matrix(1 0 0 1 49.7656 261.4215)"><tspan x="0" y="0" class="st6 st9 st10">Othe AI</tspan><tspan x="28.7" y="0" class="st6 st9 st10"> </tspan><tspan x="30.4" y="0" class="st6 st9 st10">T</tspan><tspan x="34.5" y="0" class="st6 st9 st10">echniqu</tspan><tspan x="65.5" y="0" class="st6 st9 st10">e</tspan><tspan x="70.1" y="0" class="st6 st9 st10">s</tspan></text>
	</g>
	
		<line style="clip-path:url(#SVGID_00000088826221876243234370000009922668972986348726_);fill:none;stroke:#00109F;stroke-width:0.5;" x1="134" y1="263.5" x2="372.8" y2="263.5"/>
	
		<line style="clip-path:url(#SVGID_00000088826221876243234370000009922668972986348726_);fill:none;stroke:#8B8F91;stroke-width:0.25;stroke-linecap:round;stroke-linejoin:round;" x1="272.7" y1="302.9" x2="261.4" y2="302.9"/>
	<polygon style="clip-path:url(#SVGID_00000088826221876243234370000009922668972986348726_);fill:#8B8F91;" points="142.5,314.6 
		142.5,324 178.7,324 180.6,322.1 180.6,314.6 	"/>
	<g style="clip-path:url(#SVGID_00000088826221876243234370000009922668972986348726_);">
		<text transform="matrix(1 0 0 1 145.0337 321.4713)"><tspan x="0" y="0" class="st6 st9 st14">Con</tspan><tspan x="10.9" y="0" class="st6 st9 st14">s</tspan><tspan x="13.9" y="0" class="st6 st9 st14">t</tspan><tspan x="16.1" y="0" class="st6 st9 st14">r</tspan><tspan x="18.3" y="0" class="st6 st9 st14">ai</tspan><tspan x="23.4" y="0" class="st6 st9 st14">n</tspan><tspan x="26.9" y="0" class="st6 st9 st14">ts</tspan></text>
	</g>
	<polygon style="clip-path:url(#SVGID_00000088826221876243234370000009922668972986348726_);fill:#8B8F91;" points="142.5,281.2 
		142.5,290.7 178.7,290.7 180.6,288.7 180.6,281.2 	"/>
	<g style="clip-path:url(#SVGID_00000088826221876243234370000009922668972986348726_);">
		<text transform="matrix(1 0 0 1 145.0337 288.0822)"><tspan x="0" y="0" class="st6 st9 st14">Obje</tspan><tspan x="12.8" y="0" class="st6 st9 st14">c</tspan><tspan x="16" y="0" class="st6 st9 st14">ti</tspan><tspan x="20" y="0" class="st6 st9 st14">v</tspan><tspan x="23" y="0" class="st6 st9 st14">e</tspan><tspan x="26.3" y="0" class="st6 st9 st14">s</tspan></text>
	</g>
	<polygon style="clip-path:url(#SVGID_00000088826221876243234370000009922668972986348726_);fill:#8B8F91;" points="272.9,298.2 
		272.9,307.6 309.1,307.6 311,305.7 311,298.2 	"/>
	<g style="clip-path:url(#SVGID_00000088826221876243234370000009922668972986348726_);">
		<text transform="matrix(1 0 0 1 275.582 305.0524)" class="st6 st9 st14">Decisions</text>
	</g>
	
		<polyline style="clip-path:url(#SVGID_00000088826221876243234370000009922668972986348726_);fill:none;stroke:#8B8F91;stroke-width:0.25;stroke-linecap:round;stroke-linejoin:round;" points="
		194.2,295.7 186.3,295.7 186.3,285.6 179.8,285.6 	"/>
	
		<polyline style="clip-path:url(#SVGID_00000088826221876243234370000009922668972986348726_);fill:none;stroke:#8B8F91;stroke-width:0.25;stroke-linecap:round;stroke-linejoin:round;" points="
		194.2,308 186.3,308 186.3,318 179.8,318 	"/>
	<polygon style="clip-path:url(#SVGID_00000088826221876243234370000009922668972986348726_);fill:#FFFFFF;" points="194.9,281.8 
		194.9,281.8 194.9,324 260.5,324 260.5,281.8 	"/>
	
		<line style="clip-path:url(#SVGID_00000088826221876243234370000009922668972986348726_);fill:none;stroke:#00109F;" x1="194.9" y1="281.8" x2="194.9" y2="324"/>
	<polygon style="clip-path:url(#SVGID_00000088826221876243234370000009922668972986348726_);fill:#8B8F91;" points="252.7,286.2 
		252.7,286.2 250.1,283.6 249.3,283.8 249.1,284.7 251.7,287.2 252.5,287 	"/>
	<polygon style="clip-path:url(#SVGID_00000088826221876243234370000009922668972986348726_);fill:#8B8F91;" points="257.7,291.2 
		257.7,291.2 255.2,288.6 254.3,288.8 254.1,289.7 256.7,292.3 257.5,292 	"/>
	<polygon style="clip-path:url(#SVGID_00000088826221876243234370000009922668972986348726_);fill:#8B8F91;" points="251.7,288.6 
		251.7,288.6 249.1,291.2 249.3,292 250.1,292.3 252.7,289.7 252.5,288.8 	"/>
	<polygon style="clip-path:url(#SVGID_00000088826221876243234370000009922668972986348726_);fill:#8B8F91;" points="256.7,283.6 
		256.7,283.6 254.1,286.2 254.3,287 255.2,287.2 257.7,284.7 257.5,283.8 	"/>
	<g style="clip-path:url(#SVGID_00000088826221876243234370000009922668972986348726_);">
		<text transform="matrix(1 0 0 1 197.3594 289.672)"><tspan x="0" y="0" class="st17 st9 st18">D</tspan><tspan x="5" y="0" class="st17 st9 st18">a</tspan><tspan x="9.2" y="0" class="st17 st9 st18">t</tspan><tspan x="12" y="0" class="st17 st9 st18">a </tspan></text>
	</g>
	<g style="clip-path:url(#SVGID_00000088826221876243234370000009922668972986348726_);">
		<text transform="matrix(1 0 0 1 197.3594 296.7311)"><tspan x="0" y="0" class="st17 st9 st18">O</tspan><tspan x="5.2" y="0" class="st17 st9 st18">p</tspan><tspan x="9.6" y="0" class="st17 st9 st18">timis</tspan><tspan x="26.8" y="0" class="st17 st9 st18">a</tspan><tspan x="31" y="0" class="st17 st9 st18">tion</tspan></text>
	</g>
	
		<line style="clip-path:url(#SVGID_00000088826221876243234370000009922668972986348726_);fill:none;stroke:#00109F;" x1="260.5" y1="281.8" x2="260.5" y2="324"/>
	<g style="clip-path:url(#SVGID_00000088826221876243234370000009922668972986348726_);">
		<defs>
			<rect id="SVGID_00000145031985279283187270000004615912537950396288_" width="419.5" height="595.3"/>
		</defs>
		<clipPath id="SVGID_00000183929181466561654920000013498840538233577618_">
			<use xlink:href="#SVGID_00000145031985279283187270000004615912537950396288_"  style="overflow:visible;"/>
		</clipPath>
		<path style="clip-path:url(#SVGID_00000183929181466561654920000013498840538233577618_);" d="M248.1,320.6L248.1,320.6
			c-0.2,0-0.4,0.2-0.3,0.4c0,0.2,0.2,0.3,0.3,0.3c0,0,0,0,0,0l0,0c0.2,0,0.3-0.2,0.3-0.4C248.5,320.7,248.3,320.6,248.1,320.6"/>
		<path style="clip-path:url(#SVGID_00000183929181466561654920000013498840538233577618_);" d="M246.9,320.7
			C246.9,320.7,246.9,320.7,246.9,320.7c0,0-0.1,0-0.1,0c-5.7,0-10.4-4.6-10.4-10.4S241,300,246.8,300c5.7,0,10.4,4.6,10.4,10.4
			c0,1.6-0.3,3.1-1,4.5c-0.1,0.2,0,0.4,0.2,0.5c0.2,0.1,0.4,0,0.5-0.2c0.7-1.5,1.1-3.1,1.1-4.8c0-3-1.2-5.7-3.3-7.8
			c-2.1-2.1-4.9-3.2-7.8-3.2c-3,0-5.8,1.2-7.8,3.2c-2.1,2.1-3.3,4.9-3.3,7.8c0,3,1.2,5.7,3.3,7.8c2.1,2.1,4.9,3.2,7.8,3.2
			c0,0,0.1,0,0.1,0c0.2,0,0.3-0.2,0.3-0.4C247.3,320.9,247.1,320.7,246.9,320.7"/>
		<path style="clip-path:url(#SVGID_00000183929181466561654920000013498840538233577618_);" d="M254.3,311.3h-0.6
			c-0.2,0-0.3,0.1-0.3,0.3c-0.1,0.3-0.1,0.6-0.3,1c-0.1,0.2,0,0.4,0.2,0.4c0.2,0.1,0.4,0,0.4-0.2c0.1-0.3,0.2-0.5,0.2-0.8h0.3
			c0.9,0,1.7-0.8,1.7-1.7c0-0.9-0.8-1.7-1.7-1.7H254c-0.2-0.8-0.5-1.6-0.9-2.3l0.2-0.2c0.7-0.7,0.7-1.7,0-2.4
			c-0.7-0.7-1.7-0.7-2.4,0l-0.2,0.2c-0.7-0.4-1.5-0.8-2.3-0.9v-0.3c0-0.9-0.8-1.7-1.7-1.7c-0.9,0-1.7,0.8-1.7,1.7v0.3
			c-0.8,0.2-1.6,0.5-2.3,0.9l-0.2-0.2c-0.7-0.7-1.7-0.7-2.4,0c-0.3,0.3-0.5,0.7-0.5,1.2c0,0.4,0.2,0.9,0.5,1.2l0.2,0.2
			c-0.4,0.7-0.8,1.5-0.9,2.3h-0.3c-0.9,0-1.7,0.8-1.7,1.7s0.8,1.7,1.7,1.7h0.3c0.2,0.8,0.5,1.6,0.9,2.3l-0.2,0.2
			c-0.3,0.3-0.5,0.7-0.5,1.2c0,0.4,0.2,0.9,0.5,1.2c0.7,0.7,1.7,0.7,2.4,0l0.2-0.2c0.7,0.4,1.5,0.8,2.3,0.9v0.3
			c0,0.9,0.8,1.7,1.7,1.7c0.9,0,1.7-0.8,1.7-1.7v-0.3c0.3-0.1,0.5-0.1,0.8-0.2c0.2-0.1,0.3-0.3,0.2-0.4c-0.1-0.2-0.3-0.3-0.4-0.2
			c-0.3,0.1-0.6,0.2-1,0.3c-0.2,0-0.3,0.2-0.3,0.3v0.6c0,0.5-0.4,1-1,1s-1-0.4-1-1v-0.6c0-0.2-0.1-0.3-0.3-0.3
			c-0.9-0.2-1.8-0.5-2.5-1c-0.1-0.1-0.3-0.1-0.4,0l-0.4,0.4c-0.4,0.4-1,0.4-1.4,0c-0.2-0.2-0.3-0.4-0.3-0.7c0-0.3,0.1-0.5,0.3-0.7
			l0.4-0.4c0.1-0.1,0.1-0.3,0-0.4c-0.5-0.8-0.9-1.6-1-2.5c0-0.2-0.2-0.3-0.3-0.3h-0.6c-0.5,0-1-0.4-1-1s0.4-1,1-1h0.6
			c0.2,0,0.3-0.1,0.3-0.3c0.2-0.9,0.5-1.8,1-2.5c0.1-0.1,0.1-0.3,0-0.4l-0.4-0.4c-0.2-0.2-0.3-0.4-0.3-0.7s0.1-0.5,0.3-0.7
			c0.4-0.4,1-0.4,1.4,0l0.4,0.4c0.1,0.1,0.3,0.1,0.4,0c0.8-0.5,1.6-0.9,2.5-1c0.2,0,0.3-0.2,0.3-0.3v-0.6c0-0.5,0.4-1,1-1s1,0.4,1,1
			v0.6c0,0.2,0.1,0.3,0.3,0.3c0.9,0.2,1.8,0.5,2.5,1c0.1,0.1,0.3,0.1,0.4,0l0.4-0.4c0.4-0.4,1-0.4,1.4,0c0.4,0.4,0.4,1,0,1.4
			l-0.4,0.4c-0.1,0.1-0.1,0.3,0,0.4c0.5,0.8,0.9,1.6,1,2.5c0,0.2,0.2,0.3,0.3,0.3h0.6c0.5,0,1,0.4,1,1S254.9,311.3,254.3,311.3"/>
		<path style="clip-path:url(#SVGID_00000183929181466561654920000013498840538233577618_);" d="M249.5,320.3L249.5,320.3
			c-0.2,0.1-0.3,0.3-0.3,0.4c0,0.2,0.2,0.3,0.3,0.3c0,0,0.1,0,0.1,0l0,0c0.2-0.1,0.3-0.2,0.2-0.4
			C249.9,320.4,249.7,320.3,249.5,320.3"/>
		<path style="clip-path:url(#SVGID_00000183929181466561654920000013498840538233577618_);" d="M257,319.2l-1.3,1.3
			c-0.2,0.2-0.6,0.2-0.8,0l-4-4c-0.1-0.1-0.2-0.3-0.2-0.4c0-0.2,0.1-0.3,0.2-0.4l1.3-1.3c0.1-0.1,0.3-0.2,0.4-0.2
			c0.2,0,0.3,0.1,0.4,0.2l4,4C257.2,318.6,257.2,319,257,319.2 M250.1,314.4c0.2-0.1,0.3-0.2,0.4-0.4c0.1-0.1,0.3-0.3,0.4-0.4
			l0.5,0.5l-0.8,0.8L250.1,314.4z M249.3,314.1C249.3,314.1,249.3,314.1,249.3,314.1c-0.8,0.5-1.7,0.8-2.6,0.8
			c-1.2,0-2.4-0.5-3.2-1.3c-0.9-0.9-1.3-2-1.3-3.2c0-1.2,0.5-2.4,1.3-3.2c0.9-0.9,2.1-1.3,3.2-1.3c1.2,0,2.3,0.4,3.2,1.3
			c1.6,1.6,1.8,4,0.6,5.7c0,0,0,0,0,0c-0.2,0.2-0.3,0.5-0.6,0.7C249.8,313.7,249.6,313.9,249.3,314.1 M253.5,313.9L253.5,313.9
			c-0.2-0.2-0.6-0.4-0.9-0.4c-0.2,0-0.4,0.1-0.6,0.2l-0.6-0.6c1.2-2,0.9-4.7-0.8-6.4c-2.1-2-5.4-2-7.4,0c-1,1-1.5,2.3-1.5,3.7
			c0,1.4,0.5,2.7,1.5,3.7s2.3,1.5,3.7,1.5c1,0,1.9-0.3,2.7-0.7l0.6,0.6c-0.1,0.2-0.2,0.4-0.2,0.6c0,0.3,0.1,0.7,0.4,0.9l4,4
			c0.2,0.2,0.6,0.4,0.9,0.4s0.7-0.1,0.9-0.4l1.3-1.3c0.5-0.5,0.5-1.3,0-1.8L253.5,313.9z"/>
		<path style="clip-path:url(#SVGID_00000183929181466561654920000013498840538233577618_);" d="M248.8,312.4
			c-0.6,0.6-1.3,0.9-2.1,0.9s-1.5-0.3-2.1-0.9c-1.1-1.1-1.1-3,0-4.1c1.1-1.1,3-1.1,4.1,0C250,309.4,250,311.2,248.8,312.4
			 M244.2,307.8c-1.4,1.4-1.4,3.7,0,5.1c0.7,0.7,1.6,1.1,2.6,1.1c0.9,0,1.9-0.4,2.6-1.1c1.4-1.4,1.4-3.7,0-5.1
			C247.9,306.4,245.6,306.4,244.2,307.8"/>
		<path style="clip-path:url(#SVGID_00000183929181466561654920000013498840538233577618_);" d="M251.3,319.7L251.3,319.7
			c-0.2,0.1-0.3,0.3-0.2,0.5c0.1,0.1,0.2,0.2,0.3,0.2c0.1,0,0.1,0,0.2,0l0,0c0.2-0.1,0.2-0.3,0.2-0.5
			C251.7,319.7,251.5,319.6,251.3,319.7"/>
	</g>
	
		<rect x="60" y="281.2" style="clip-path:url(#SVGID_00000088826221876243234370000009922668972986348726_);fill:#FFFFFF;" width="71.7" height="18.9"/>
	<g style="clip-path:url(#SVGID_00000088826221876243234370000009922668972986348726_);">
		<text transform="matrix(1 0 0 1 60.688 285.7052)"><tspan x="0" y="0" class="st20 st7 st21">Minimise co</tspan><tspan x="33" y="0" class="st20 st7 st21">s</tspan><tspan x="36.1" y="0" class="st20 st7 st21">t </tspan></text>
	</g>
	<g style="clip-path:url(#SVGID_00000088826221876243234370000009922668972986348726_);">
		<text transform="matrix(1 0 0 1 100.4683 285.7052)" class="st20 st7 st21"> </text>
	</g>
	<g style="clip-path:url(#SVGID_00000088826221876243234370000009922668972986348726_);">
		<text transform="matrix(1 0 0 1 60.688 292.9049)"><tspan x="0" y="0" class="st20 st7 st21">Maximise</tspan><tspan x="26.3" y="0" class="st20 st7 st21"> </tspan><tspan x="27.7" y="0" class="st20 st7 st21">v</tspan><tspan x="30.6" y="0" class="st20 st7 st21">alue</tspan></text>
	</g>
	<g style="clip-path:url(#SVGID_00000088826221876243234370000009922668972986348726_);">
		<text transform="matrix(1 0 0 1 60.5439 300.1051)"><tspan x="0" y="0" class="st20 st7 st21">O</tspan><tspan x="4.4" y="0" class="st20 st7 st21">p</tspan><tspan x="7.9" y="0" class="st20 st7 st21">timise business goals</tspan></text>
	</g>
	
		<rect x="313.5" y="293.3" style="clip-path:url(#SVGID_00000088826221876243234370000009922668972986348726_);fill:#FFFFFF;" width="50.7" height="18.9"/>
	<g style="clip-path:url(#SVGID_00000088826221876243234370000009922668972986348726_);">
		<text transform="matrix(1 0 0 1 313.9707 297.8273)"><tspan x="0" y="0" class="st20 st7 st21">O</tspan><tspan x="4.4" y="0" class="st20 st7 st21">p</tspan><tspan x="7.9" y="0" class="st20 st7 st21">timal S</tspan><tspan x="27.5" y="0" class="st20 st7 st21">e</tspan><tspan x="30.8" y="0" class="st20 st7 st21">t</tspan><tspan x="33" y="0" class="st20 st7 st21">up</tspan></text>
	</g>
	<g style="clip-path:url(#SVGID_00000088826221876243234370000009922668972986348726_);">
		<text transform="matrix(1 0 0 1 313.9707 305.027)"><tspan x="0" y="0" class="st20 st7 st21">O</tspan><tspan x="4.4" y="0" class="st20 st7 st21">p</tspan><tspan x="7.9" y="0" class="st20 st7 st21">timal Design</tspan></text>
	</g>
	<g style="clip-path:url(#SVGID_00000088826221876243234370000009922668972986348726_);">
		<text transform="matrix(1 0 0 1 313.9707 312.2272)"><tspan x="0" y="0" class="st20 st7 st21">O</tspan><tspan x="4.4" y="0" class="st20 st7 st21">p</tspan><tspan x="7.9" y="0" class="st20 st7 st21">timal Solution</tspan></text>
	</g>
	
		<rect x="60" y="314.6" style="clip-path:url(#SVGID_00000088826221876243234370000009922668972986348726_);fill:#FFFFFF;" width="79.4" height="18.9"/>
	<g style="clip-path:url(#SVGID_00000088826221876243234370000009922668972986348726_);">
		<text transform="matrix(1 0 0 1 60.5454 319.0944)"><tspan x="0" y="0" class="st20 st7 st21">C</tspan><tspan x="4.2" y="0" class="st20 st7 st21">apaci</tspan><tspan x="19.5" y="0" class="st20 st7 st21">t</tspan><tspan x="21.8" y="0" class="st20 st7 st21">y con</tspan><tspan x="36.6" y="0" class="st20 st7 st21">s</tspan><tspan x="39.7" y="0" class="st20 st7 st21">t</tspan><tspan x="41.9" y="0" class="st20 st7 st21">r</tspan><tspan x="43.9" y="0" class="st20 st7 st21">ains</tspan></text>
	</g>
	<g style="clip-path:url(#SVGID_00000088826221876243234370000009922668972986348726_);">
		<text transform="matrix(1 0 0 1 60.6895 326.2946)"><tspan x="0" y="0" class="st20 st7 st21">L</tspan><tspan x="3.3" y="0" class="st20 st7 st21">egal and social limi</tspan><tspan x="56.4" y="0" class="st20 st7 st21">t</tspan><tspan x="58.6" y="0" class="st20 st7 st21">a</tspan><tspan x="62.1" y="0" class="st20 st7 st21">tions</tspan></text>
	</g>
	<g style="clip-path:url(#SVGID_00000088826221876243234370000009922668972986348726_);">
		<text transform="matrix(1 0 0 1 60.6895 333.4938)"><tspan x="0" y="0" class="st20 st7 st21">B</tspan><tspan x="4" y="0" class="st20 st7 st21">usiness </tspan><tspan x="26.7" y="0" class="st20 st7 st21">R</tspan><tspan x="30.7" y="0" class="st20 st7 st21">ules</tspan></text>
	</g>
</g>
</svg>
