<?xml version="1.0" encoding="utf-8"?>
<!-- Generator: Adobe Illustrator 28.0.0, SVG Export Plug-In . SVG Version: 6.00 Build 0)  -->
<svg version="1.1" id="Layer_1" xmlns="http://www.w3.org/2000/svg" xmlns:xlink="http://www.w3.org/1999/xlink" x="0px" y="0px"
	 viewBox="0 0 419.5 595.3" style="enable-background:new 0 0 419.5 595.3;" xml:space="preserve">
<style type="text/css">
	.st0{clip-path:url(#SVGID_00000102523500498571986840000009075491727339604629_);}
	.st1{opacity:0.5;clip-path:url(#SVGID_00000061429192824774841950000015389852865637506178_);}
	.st2{clip-path:url(#SVGID_00000047048444179032478850000002985492492937442989_);}
	.st3{clip-path:url(#SVGID_00000182511892555601300280000002310572234550261897_);fill:none;stroke:#B7BABB;stroke-width:0.25;}
	.st4{clip-path:url(#SVGID_00000047048444179032478850000002985492492937442989_);fill:none;stroke:#B7BABB;stroke-width:0.2;}
	.st5{clip-path:url(#SVGID_00000102523500498571986840000009075491727339604629_);fill:#00109F;}
	.st6{fill:#FFFFFF;}
	.st7{font-family:'Colfax-Regular';}
	.st8{font-size:4px;}
	.st9{font-family:'Colfax-Bold';}
	.st10{font-size:8px;}
	.st11{clip-path:url(#SVGID_00000102523500498571986840000009075491727339604629_);fill:none;stroke:#00109F;stroke-width:0.5;}
	.st12{clip-path:url(#SVGID_00000102523500498571986840000009075491727339604629_);fill:#95999B;}
	.st13{clip-path:url(#SVGID_00000102523500498571986840000009075491727339604629_);fill:#E0E2E3;}
	
		.st14{clip-path:url(#SVGID_00000102523500498571986840000009075491727339604629_);fill:none;stroke:#FFFFFF;stroke-width:0.177;stroke-miterlimit:10;}
	
		.st15{clip-path:url(#SVGID_00000102523500498571986840000009075491727339604629_);fill:none;stroke:#FFFFFF;stroke-width:0.188;stroke-miterlimit:10;}
	.st16{font-size:5.25px;}
	.st17{fill:#15233A;}
	.st18{clip-path:url(#SVGID_00000114793643681496483860000003097934901240707212_);fill:#00109F;}
	
		.st19{clip-path:url(#SVGID_00000102523500498571986840000009075491727339604629_);fill:none;stroke:#8A919D;stroke-width:1.064;stroke-miterlimit:10;}
	.st20{clip-path:url(#SVGID_00000095297289195240583590000015465986917192952192_);fill:#00109F;}
	.st21{fill:#00109F;}
	.st22{font-size:5.31px;}
	.st23{clip-path:url(#SVGID_00000061444124119562351170000013412577669980274606_);fill:#00109F;}
	.st24{clip-path:url(#SVGID_00000060729528406469617020000006489873019295214759_);fill:#00109F;}
	.st25{font-size:6px;}
</style>
<g>
	<defs>
		<rect id="SVGID_1_" width="419.5" height="595.3"/>
	</defs>
	<clipPath id="SVGID_00000106134534240177437000000013080599748539291538_">
		<use xlink:href="#SVGID_1_"  style="overflow:visible;"/>
	</clipPath>
	<g style="clip-path:url(#SVGID_00000106134534240177437000000013080599748539291538_);">
		<defs>
			<rect id="SVGID_00000106147967696937786830000009290910631248149412_" width="419.5" height="595.3"/>
		</defs>
		<clipPath id="SVGID_00000037684294835524311080000000364423887044576918_">
			<use xlink:href="#SVGID_00000106147967696937786830000009290910631248149412_"  style="overflow:visible;"/>
		</clipPath>
		<g style="opacity:0.5;clip-path:url(#SVGID_00000037684294835524311080000000364423887044576918_);">
			<g>
				<defs>
					<rect id="SVGID_00000107546966767183052140000014809583965142959509_" x="37.4" y="249.9" width="344.1" height="103.7"/>
				</defs>
				<clipPath id="SVGID_00000085955876200997819580000007161360462946555283_">
					<use xlink:href="#SVGID_00000107546966767183052140000014809583965142959509_"  style="overflow:visible;"/>
				</clipPath>
				<g style="clip-path:url(#SVGID_00000085955876200997819580000007161360462946555283_);">
					<defs>
						<polygon id="SVGID_00000177447437218903015250000000732256333857298837_" points="46.4,256.9 46.4,256.9 46.4,352.6 
							372.5,352.6 372.5,256.9 						"/>
					</defs>
					<clipPath id="SVGID_00000101091201104572132470000005750781251012802457_">
						<use xlink:href="#SVGID_00000177447437218903015250000000732256333857298837_"  style="overflow:visible;"/>
					</clipPath>
					
						<line style="clip-path:url(#SVGID_00000101091201104572132470000005750781251012802457_);fill:none;stroke:#B7BABB;stroke-width:0.25;" x1="372.5" y1="88.6" x2="372.5" y2="414.6"/>
					
						<line style="clip-path:url(#SVGID_00000101091201104572132470000005750781251012802457_);fill:none;stroke:#B7BABB;stroke-width:0.25;" x1="365.5" y1="88.6" x2="365.5" y2="414.6"/>
					
						<line style="clip-path:url(#SVGID_00000101091201104572132470000005750781251012802457_);fill:none;stroke:#B7BABB;stroke-width:0.25;" x1="358.4" y1="88.6" x2="358.4" y2="414.6"/>
					
						<line style="clip-path:url(#SVGID_00000101091201104572132470000005750781251012802457_);fill:none;stroke:#B7BABB;stroke-width:0.25;" x1="351.3" y1="88.6" x2="351.3" y2="414.6"/>
					
						<line style="clip-path:url(#SVGID_00000101091201104572132470000005750781251012802457_);fill:none;stroke:#B7BABB;stroke-width:0.25;" x1="344.2" y1="88.6" x2="344.2" y2="414.6"/>
					
						<line style="clip-path:url(#SVGID_00000101091201104572132470000005750781251012802457_);fill:none;stroke:#B7BABB;stroke-width:0.25;" x1="337.1" y1="88.6" x2="337.1" y2="414.6"/>
					
						<line style="clip-path:url(#SVGID_00000101091201104572132470000005750781251012802457_);fill:none;stroke:#B7BABB;stroke-width:0.25;" x1="330" y1="88.6" x2="330" y2="414.6"/>
					
						<line style="clip-path:url(#SVGID_00000101091201104572132470000005750781251012802457_);fill:none;stroke:#B7BABB;stroke-width:0.25;" x1="322.9" y1="88.6" x2="322.9" y2="414.6"/>
					
						<line style="clip-path:url(#SVGID_00000101091201104572132470000005750781251012802457_);fill:none;stroke:#B7BABB;stroke-width:0.25;" x1="315.8" y1="88.6" x2="315.8" y2="414.6"/>
					
						<line style="clip-path:url(#SVGID_00000101091201104572132470000005750781251012802457_);fill:none;stroke:#B7BABB;stroke-width:0.25;" x1="308.8" y1="88.6" x2="308.8" y2="414.6"/>
					
						<line style="clip-path:url(#SVGID_00000101091201104572132470000005750781251012802457_);fill:none;stroke:#B7BABB;stroke-width:0.25;" x1="301.7" y1="88.6" x2="301.7" y2="414.6"/>
					
						<line style="clip-path:url(#SVGID_00000101091201104572132470000005750781251012802457_);fill:none;stroke:#B7BABB;stroke-width:0.25;" x1="294.6" y1="88.6" x2="294.6" y2="414.6"/>
					
						<line style="clip-path:url(#SVGID_00000101091201104572132470000005750781251012802457_);fill:none;stroke:#B7BABB;stroke-width:0.25;" x1="287.5" y1="88.6" x2="287.5" y2="414.6"/>
					
						<line style="clip-path:url(#SVGID_00000101091201104572132470000005750781251012802457_);fill:none;stroke:#B7BABB;stroke-width:0.25;" x1="280.4" y1="88.6" x2="280.4" y2="414.6"/>
					
						<line style="clip-path:url(#SVGID_00000101091201104572132470000005750781251012802457_);fill:none;stroke:#B7BABB;stroke-width:0.25;" x1="273.3" y1="88.6" x2="273.3" y2="414.6"/>
					
						<line style="clip-path:url(#SVGID_00000101091201104572132470000005750781251012802457_);fill:none;stroke:#B7BABB;stroke-width:0.25;" x1="266.2" y1="88.6" x2="266.2" y2="414.6"/>
					
						<line style="clip-path:url(#SVGID_00000101091201104572132470000005750781251012802457_);fill:none;stroke:#B7BABB;stroke-width:0.25;" x1="259.2" y1="88.6" x2="259.2" y2="414.6"/>
					
						<line style="clip-path:url(#SVGID_00000101091201104572132470000005750781251012802457_);fill:none;stroke:#B7BABB;stroke-width:0.25;" x1="252.1" y1="88.6" x2="252.1" y2="414.6"/>
					
						<line style="clip-path:url(#SVGID_00000101091201104572132470000005750781251012802457_);fill:none;stroke:#B7BABB;stroke-width:0.25;" x1="245" y1="88.6" x2="245" y2="414.6"/>
					
						<line style="clip-path:url(#SVGID_00000101091201104572132470000005750781251012802457_);fill:none;stroke:#B7BABB;stroke-width:0.25;" x1="237.9" y1="88.6" x2="237.9" y2="414.6"/>
					
						<line style="clip-path:url(#SVGID_00000101091201104572132470000005750781251012802457_);fill:none;stroke:#B7BABB;stroke-width:0.25;" x1="230.8" y1="88.6" x2="230.8" y2="414.6"/>
					
						<line style="clip-path:url(#SVGID_00000101091201104572132470000005750781251012802457_);fill:none;stroke:#B7BABB;stroke-width:0.25;" x1="223.7" y1="88.6" x2="223.7" y2="414.6"/>
					
						<line style="clip-path:url(#SVGID_00000101091201104572132470000005750781251012802457_);fill:none;stroke:#B7BABB;stroke-width:0.25;" x1="216.6" y1="88.6" x2="216.6" y2="414.6"/>
					
						<line style="clip-path:url(#SVGID_00000101091201104572132470000005750781251012802457_);fill:none;stroke:#B7BABB;stroke-width:0.25;" x1="209.5" y1="88.6" x2="209.5" y2="414.6"/>
					
						<line style="clip-path:url(#SVGID_00000101091201104572132470000005750781251012802457_);fill:none;stroke:#B7BABB;stroke-width:0.25;" x1="202.5" y1="88.6" x2="202.5" y2="414.6"/>
					
						<line style="clip-path:url(#SVGID_00000101091201104572132470000005750781251012802457_);fill:none;stroke:#B7BABB;stroke-width:0.25;" x1="195.4" y1="88.6" x2="195.4" y2="414.6"/>
					
						<line style="clip-path:url(#SVGID_00000101091201104572132470000005750781251012802457_);fill:none;stroke:#B7BABB;stroke-width:0.25;" x1="188.3" y1="88.6" x2="188.3" y2="414.6"/>
					
						<line style="clip-path:url(#SVGID_00000101091201104572132470000005750781251012802457_);fill:none;stroke:#B7BABB;stroke-width:0.25;" x1="181.2" y1="88.6" x2="181.2" y2="414.6"/>
					
						<line style="clip-path:url(#SVGID_00000101091201104572132470000005750781251012802457_);fill:none;stroke:#B7BABB;stroke-width:0.25;" x1="174.1" y1="88.6" x2="174.1" y2="414.6"/>
					
						<line style="clip-path:url(#SVGID_00000101091201104572132470000005750781251012802457_);fill:none;stroke:#B7BABB;stroke-width:0.25;" x1="167" y1="88.6" x2="167" y2="414.6"/>
					
						<line style="clip-path:url(#SVGID_00000101091201104572132470000005750781251012802457_);fill:none;stroke:#B7BABB;stroke-width:0.25;" x1="159.9" y1="88.6" x2="159.9" y2="414.6"/>
					
						<line style="clip-path:url(#SVGID_00000101091201104572132470000005750781251012802457_);fill:none;stroke:#B7BABB;stroke-width:0.25;" x1="152.9" y1="88.6" x2="152.9" y2="414.6"/>
					
						<line style="clip-path:url(#SVGID_00000101091201104572132470000005750781251012802457_);fill:none;stroke:#B7BABB;stroke-width:0.25;" x1="145.8" y1="88.6" x2="145.8" y2="414.6"/>
					
						<line style="clip-path:url(#SVGID_00000101091201104572132470000005750781251012802457_);fill:none;stroke:#B7BABB;stroke-width:0.25;" x1="138.7" y1="88.6" x2="138.7" y2="414.6"/>
					
						<line style="clip-path:url(#SVGID_00000101091201104572132470000005750781251012802457_);fill:none;stroke:#B7BABB;stroke-width:0.25;" x1="131.6" y1="88.6" x2="131.6" y2="414.6"/>
					
						<line style="clip-path:url(#SVGID_00000101091201104572132470000005750781251012802457_);fill:none;stroke:#B7BABB;stroke-width:0.25;" x1="124.5" y1="88.6" x2="124.5" y2="414.6"/>
					
						<line style="clip-path:url(#SVGID_00000101091201104572132470000005750781251012802457_);fill:none;stroke:#B7BABB;stroke-width:0.25;" x1="117.4" y1="88.6" x2="117.4" y2="414.6"/>
					
						<line style="clip-path:url(#SVGID_00000101091201104572132470000005750781251012802457_);fill:none;stroke:#B7BABB;stroke-width:0.25;" x1="110.3" y1="88.6" x2="110.3" y2="414.6"/>
					
						<line style="clip-path:url(#SVGID_00000101091201104572132470000005750781251012802457_);fill:none;stroke:#B7BABB;stroke-width:0.25;" x1="103.3" y1="88.6" x2="103.3" y2="414.6"/>
					
						<line style="clip-path:url(#SVGID_00000101091201104572132470000005750781251012802457_);fill:none;stroke:#B7BABB;stroke-width:0.25;" x1="96.2" y1="88.6" x2="96.2" y2="414.6"/>
					
						<line style="clip-path:url(#SVGID_00000101091201104572132470000005750781251012802457_);fill:none;stroke:#B7BABB;stroke-width:0.25;" x1="89.1" y1="88.6" x2="89.1" y2="414.6"/>
					
						<line style="clip-path:url(#SVGID_00000101091201104572132470000005750781251012802457_);fill:none;stroke:#B7BABB;stroke-width:0.25;" x1="82" y1="88.6" x2="82" y2="414.6"/>
					
						<line style="clip-path:url(#SVGID_00000101091201104572132470000005750781251012802457_);fill:none;stroke:#B7BABB;stroke-width:0.25;" x1="74.9" y1="88.6" x2="74.9" y2="414.6"/>
					
						<line style="clip-path:url(#SVGID_00000101091201104572132470000005750781251012802457_);fill:none;stroke:#B7BABB;stroke-width:0.25;" x1="67.8" y1="88.6" x2="67.8" y2="414.6"/>
					
						<line style="clip-path:url(#SVGID_00000101091201104572132470000005750781251012802457_);fill:none;stroke:#B7BABB;stroke-width:0.25;" x1="60.7" y1="88.6" x2="60.7" y2="414.6"/>
					
						<line style="clip-path:url(#SVGID_00000101091201104572132470000005750781251012802457_);fill:none;stroke:#B7BABB;stroke-width:0.25;" x1="53.6" y1="88.6" x2="53.6" y2="414.6"/>
					
						<line style="clip-path:url(#SVGID_00000101091201104572132470000005750781251012802457_);fill:none;stroke:#B7BABB;stroke-width:0.25;" x1="46.6" y1="88.6" x2="46.6" y2="414.6"/>
				</g>
				
					<line style="clip-path:url(#SVGID_00000085955876200997819580000007161360462946555283_);fill:none;stroke:#B7BABB;stroke-width:0.2;" x1="372.4" y1="351" x2="46.4" y2="351"/>
				
					<line style="clip-path:url(#SVGID_00000085955876200997819580000007161360462946555283_);fill:none;stroke:#B7BABB;stroke-width:0.2;" x1="372.4" y1="343.9" x2="46.4" y2="343.9"/>
				
					<line style="clip-path:url(#SVGID_00000085955876200997819580000007161360462946555283_);fill:none;stroke:#B7BABB;stroke-width:0.2;" x1="372.4" y1="336.8" x2="46.4" y2="336.8"/>
				
					<line style="clip-path:url(#SVGID_00000085955876200997819580000007161360462946555283_);fill:none;stroke:#B7BABB;stroke-width:0.2;" x1="372.4" y1="329.7" x2="46.4" y2="329.7"/>
				
					<line style="clip-path:url(#SVGID_00000085955876200997819580000007161360462946555283_);fill:none;stroke:#B7BABB;stroke-width:0.2;" x1="372.4" y1="322.6" x2="46.4" y2="322.6"/>
				
					<line style="clip-path:url(#SVGID_00000085955876200997819580000007161360462946555283_);fill:none;stroke:#B7BABB;stroke-width:0.2;" x1="372.4" y1="315.5" x2="46.4" y2="315.5"/>
				
					<line style="clip-path:url(#SVGID_00000085955876200997819580000007161360462946555283_);fill:none;stroke:#B7BABB;stroke-width:0.2;" x1="372.4" y1="308.4" x2="46.4" y2="308.4"/>
				
					<line style="clip-path:url(#SVGID_00000085955876200997819580000007161360462946555283_);fill:none;stroke:#B7BABB;stroke-width:0.2;" x1="372.4" y1="301.4" x2="46.4" y2="301.4"/>
				
					<line style="clip-path:url(#SVGID_00000085955876200997819580000007161360462946555283_);fill:none;stroke:#B7BABB;stroke-width:0.2;" x1="372.4" y1="294.3" x2="46.4" y2="294.3"/>
				
					<line style="clip-path:url(#SVGID_00000085955876200997819580000007161360462946555283_);fill:none;stroke:#B7BABB;stroke-width:0.2;" x1="372.4" y1="287.2" x2="46.4" y2="287.2"/>
				
					<line style="clip-path:url(#SVGID_00000085955876200997819580000007161360462946555283_);fill:none;stroke:#B7BABB;stroke-width:0.2;" x1="372.4" y1="280.1" x2="46.4" y2="280.1"/>
				
					<line style="clip-path:url(#SVGID_00000085955876200997819580000007161360462946555283_);fill:none;stroke:#B7BABB;stroke-width:0.2;" x1="372.4" y1="273" x2="46.4" y2="273"/>
				
					<line style="clip-path:url(#SVGID_00000085955876200997819580000007161360462946555283_);fill:none;stroke:#B7BABB;stroke-width:0.2;" x1="372.4" y1="265.9" x2="46.4" y2="265.9"/>
				
					<line style="clip-path:url(#SVGID_00000085955876200997819580000007161360462946555283_);fill:none;stroke:#B7BABB;stroke-width:0.2;" x1="372.4" y1="258.8" x2="46.4" y2="258.8"/>
			</g>
		</g>
	</g>
	<polygon style="clip-path:url(#SVGID_00000106134534240177437000000013080599748539291538_);fill:#00109F;" points="46.5,242.7 
		46.5,242.7 46.5,257 86.8,257 86.8,242.7 	"/>
	<g style="clip-path:url(#SVGID_00000106134534240177437000000013080599748539291538_);">
		<text transform="matrix(1 0 0 1 49.2437 246.6661)"><tspan x="0" y="0" class="st6 st7 st8">Figu</tspan><tspan x="8" y="0" class="st6 st7 st8">r</tspan><tspan x="9.4" y="0" class="st6 st7 st8">e 10: </tspan></text>
	</g>
	<g style="clip-path:url(#SVGID_00000106134534240177437000000013080599748539291538_);">
		<text transform="matrix(1 0 0 1 67.6719 246.6661)" class="st6 st7 st8"> </text>
	</g>
	<g style="clip-path:url(#SVGID_00000106134534240177437000000013080599748539291538_);">
		<text transform="matrix(1 0 0 1 49.2437 254.6661)" class="st6 st9 st10">Masking</text>
	</g>
	
		<line style="clip-path:url(#SVGID_00000106134534240177437000000013080599748539291538_);fill:none;stroke:#00109F;stroke-width:0.5;" x1="83.9" y1="256.9" x2="372.5" y2="256.9"/>
	<path style="clip-path:url(#SVGID_00000106134534240177437000000013080599748539291538_);fill:#95999B;" d="M332.5,306h40.2v12.5
		h-40.2V306z M292.3,306h40.2v12.5h-40.2V306z M252.1,306h40.2v12.5h-40.2V306z M225.1,306h27v12.5h-27V306z"/>
	<path style="clip-path:url(#SVGID_00000106134534240177437000000013080599748539291538_);fill:#E0E2E3;" d="M332.5,330.9h40.2v12.5
		h-40.2V330.9z M292.3,330.9h40.2v12.5h-40.2V330.9z M252.1,330.9h40.2v12.5h-40.2V330.9z M225.1,330.9h27v12.5h-27V330.9z
		 M332.5,318.4h40.2v12.5h-40.2V318.4z M292.3,318.4h40.2v12.5h-40.2V318.4z M252.1,318.4h40.2v12.5h-40.2V318.4z M225.1,318.4h27
		v12.5h-27V318.4z"/>
	
		<line style="clip-path:url(#SVGID_00000106134534240177437000000013080599748539291538_);fill:none;stroke:#FFFFFF;stroke-width:0.177;stroke-miterlimit:10;" x1="252.1" y1="318.4" x2="252.1" y2="306"/>
	
		<line style="clip-path:url(#SVGID_00000106134534240177437000000013080599748539291538_);fill:none;stroke:#FFFFFF;stroke-width:0.177;stroke-miterlimit:10;" x1="292.3" y1="318.4" x2="292.3" y2="306"/>
	
		<line style="clip-path:url(#SVGID_00000106134534240177437000000013080599748539291538_);fill:none;stroke:#FFFFFF;stroke-width:0.188;stroke-miterlimit:10;" x1="332.5" y1="318.4" x2="332.5" y2="306"/>
	
		<line style="clip-path:url(#SVGID_00000106134534240177437000000013080599748539291538_);fill:none;stroke:#FFFFFF;stroke-width:0.188;stroke-miterlimit:10;" x1="252.1" y1="330.8" x2="252.1" y2="318.4"/>
	
		<line style="clip-path:url(#SVGID_00000106134534240177437000000013080599748539291538_);fill:none;stroke:#FFFFFF;stroke-width:0.188;stroke-miterlimit:10;" x1="292.3" y1="330.8" x2="292.3" y2="318.4"/>
	
		<line style="clip-path:url(#SVGID_00000106134534240177437000000013080599748539291538_);fill:none;stroke:#FFFFFF;stroke-width:0.188;stroke-miterlimit:10;" x1="332.5" y1="330.8" x2="332.5" y2="318.4"/>
	
		<line style="clip-path:url(#SVGID_00000106134534240177437000000013080599748539291538_);fill:none;stroke:#FFFFFF;stroke-width:0.188;stroke-miterlimit:10;" x1="225.1" y1="330.9" x2="252.1" y2="330.9"/>
	
		<line style="clip-path:url(#SVGID_00000106134534240177437000000013080599748539291538_);fill:none;stroke:#FFFFFF;stroke-width:0.188;stroke-miterlimit:10;" x1="252.1" y1="330.9" x2="292.3" y2="330.9"/>
	
		<line style="clip-path:url(#SVGID_00000106134534240177437000000013080599748539291538_);fill:none;stroke:#FFFFFF;stroke-width:0.188;stroke-miterlimit:10;" x1="252.1" y1="343.4" x2="252.1" y2="331"/>
	
		<line style="clip-path:url(#SVGID_00000106134534240177437000000013080599748539291538_);fill:none;stroke:#FFFFFF;stroke-width:0.188;stroke-miterlimit:10;" x1="292.3" y1="330.9" x2="332.5" y2="330.9"/>
	
		<line style="clip-path:url(#SVGID_00000106134534240177437000000013080599748539291538_);fill:none;stroke:#FFFFFF;stroke-width:0.188;stroke-miterlimit:10;" x1="292.3" y1="343.4" x2="292.3" y2="331"/>
	
		<line style="clip-path:url(#SVGID_00000106134534240177437000000013080599748539291538_);fill:none;stroke:#FFFFFF;stroke-width:0.188;stroke-miterlimit:10;" x1="332.5" y1="330.9" x2="372.8" y2="330.9"/>
	
		<line style="clip-path:url(#SVGID_00000106134534240177437000000013080599748539291538_);fill:none;stroke:#FFFFFF;stroke-width:0.188;stroke-miterlimit:10;" x1="332.5" y1="343.4" x2="332.5" y2="331"/>
	<g style="clip-path:url(#SVGID_00000106134534240177437000000013080599748539291538_);">
		<text transform="matrix(1 0 0 1 236.2354 314.1832)" class="st6 st7 st16">ID</text>
	</g>
	<g style="clip-path:url(#SVGID_00000106134534240177437000000013080599748539291538_);">
		<text transform="matrix(1 0 0 1 266.1133 314.1832)"><tspan x="0" y="0" class="st6 st7 st16">L</tspan><tspan x="3" y="0" class="st6 st7 st16">A</tspan><tspan x="6.6" y="0" class="st6 st7 st16">S</tspan><tspan x="9.8" y="0" class="st6 st7 st16">T</tspan></text>
	</g>
	<g style="clip-path:url(#SVGID_00000106134534240177437000000013080599748539291538_);">
		<text transform="matrix(1 0 0 1 303.8037 314.1832)"><tspan x="0" y="0" class="st6 st7 st16">FIRS</tspan><tspan x="11.5" y="0" class="st6 st7 st16">R</tspan><tspan x="14.9" y="0" class="st6 st7 st16">T</tspan></text>
	</g>
	<g style="clip-path:url(#SVGID_00000106134534240177437000000013080599748539291538_);">
		<text transform="matrix(1 0 0 1 347.4834 314.1832)"><tspan x="0" y="0" class="st6 st7 st16">S</tspan><tspan x="3.4" y="0" class="st6 st7 st16">SN</tspan></text>
	</g>
	<g style="clip-path:url(#SVGID_00000106134534240177437000000013080599748539291538_);">
		<text transform="matrix(1 0 0 1 232.6602 326.652)"><tspan x="0" y="0" class="st6 st7 st16">2</tspan><tspan x="3.1" y="0" class="st6 st7 st16">8</tspan><tspan x="6.3" y="0" class="st6 st7 st16">7</tspan><tspan x="8.9" y="0" class="st6 st7 st16">4</tspan></text>
	</g>
	<g style="clip-path:url(#SVGID_00000106134534240177437000000013080599748539291538_);">
		<text transform="matrix(1 0 0 1 255.4932 326.652)" class="st17 st7 st16">SMITH </text>
	</g>
	<g style="clip-path:url(#SVGID_00000106134534240177437000000013080599748539291538_);">
		<text transform="matrix(1 0 0 1 295.1299 326.652)" class="st17 st7 st16">JOHN</text>
	</g>
	<g style="clip-path:url(#SVGID_00000106134534240177437000000013080599748539291538_);">
		<text transform="matrix(1 0 0 1 336.3535 326.652)"><tspan x="0" y="0" class="st6 st7 st16">XX</tspan><tspan x="6.6" y="0" class="st6 st7 st16">X-</tspan><tspan x="11.4" y="0" class="st6 st7 st16">X</tspan><tspan x="14.8" y="0" class="st6 st7 st16">X</tspan><tspan x="17.7" y="0" class="st6 st7 st16">-</tspan><tspan x="19.8" y="0" class="st6 st7 st16">555</tspan><tspan x="29.6" y="0" class="st6 st7 st16">5</tspan></text>
	</g>
	<g style="clip-path:url(#SVGID_00000106134534240177437000000013080599748539291538_);">
		<text transform="matrix(1 0 0 1 232.9443 339.1207)"><tspan x="0" y="0" class="st6 st7 st16">3</tspan><tspan x="3.2" y="0" class="st6 st7 st16">2</tspan><tspan x="6.3" y="0" class="st6 st7 st16">8</tspan><tspan x="9.5" y="0" class="st6 st7 st16">1</tspan></text>
	</g>
	<g style="clip-path:url(#SVGID_00000106134534240177437000000013080599748539291538_);">
		<text transform="matrix(1 0 0 1 255.1465 339.1207)"><tspan x="0" y="0" class="st17 st7 st16">TEMPLE</tspan><tspan x="19.8" y="0" class="st17 st7 st16">T</tspan><tspan x="22.6" y="0" class="st17 st7 st16">ON</tspan></text>
	</g>
	<g style="clip-path:url(#SVGID_00000106134534240177437000000013080599748539291538_);">
		<text transform="matrix(1 0 0 1 295.876 339.1207)" class="st17 st7 st16">RICHARD</text>
	</g>
	<g style="clip-path:url(#SVGID_00000106134534240177437000000013080599748539291538_);">
		<text transform="matrix(1 0 0 1 336.4531 339.1207)"><tspan x="0" y="0" class="st6 st7 st16">XX</tspan><tspan x="6.6" y="0" class="st6 st7 st16">X-</tspan><tspan x="11.4" y="0" class="st6 st7 st16">X</tspan><tspan x="14.8" y="0" class="st6 st7 st16">X</tspan><tspan x="17.7" y="0" class="st6 st7 st16">-</tspan><tspan x="19.9" y="0" class="st6 st7 st16">4444</tspan></text>
	</g>
	<path style="clip-path:url(#SVGID_00000106134534240177437000000013080599748539291538_);fill:#95999B;" d="M154.1,306h40.2v12.5
		h-40.2V306z M113.8,306h40.2v12.5h-40.2V306z M73.6,306h40.2v12.5H73.6V306z M46.6,306h27v12.5h-27V306z"/>
	<path style="clip-path:url(#SVGID_00000106134534240177437000000013080599748539291538_);fill:#E0E2E3;" d="M154.1,330.9h40.2v12.5
		h-40.2V330.9z M113.8,330.9h40.2v12.5h-40.2V330.9z M73.6,330.9h40.2v12.5H73.6V330.9z M46.6,330.9h27v12.5h-27V330.9z
		 M154.1,318.4h40.2v12.5h-40.2V318.4z M113.8,318.4h40.2v12.5h-40.2V318.4z M73.6,318.4h40.2v12.5H73.6V318.4z M46.6,318.4h27v12.5
		h-27V318.4z"/>
	
		<line style="clip-path:url(#SVGID_00000106134534240177437000000013080599748539291538_);fill:none;stroke:#FFFFFF;stroke-width:0.177;stroke-miterlimit:10;" x1="73.6" y1="318.4" x2="73.6" y2="306"/>
	
		<line style="clip-path:url(#SVGID_00000106134534240177437000000013080599748539291538_);fill:none;stroke:#FFFFFF;stroke-width:0.177;stroke-miterlimit:10;" x1="113.8" y1="318.4" x2="113.8" y2="306"/>
	
		<line style="clip-path:url(#SVGID_00000106134534240177437000000013080599748539291538_);fill:none;stroke:#FFFFFF;stroke-width:0.188;stroke-miterlimit:10;" x1="154.1" y1="318.4" x2="154.1" y2="306"/>
	
		<line style="clip-path:url(#SVGID_00000106134534240177437000000013080599748539291538_);fill:none;stroke:#FFFFFF;stroke-width:0.188;stroke-miterlimit:10;" x1="73.6" y1="330.8" x2="73.6" y2="318.4"/>
	
		<line style="clip-path:url(#SVGID_00000106134534240177437000000013080599748539291538_);fill:none;stroke:#FFFFFF;stroke-width:0.188;stroke-miterlimit:10;" x1="113.8" y1="330.8" x2="113.8" y2="318.4"/>
	
		<line style="clip-path:url(#SVGID_00000106134534240177437000000013080599748539291538_);fill:none;stroke:#FFFFFF;stroke-width:0.188;stroke-miterlimit:10;" x1="154.1" y1="330.8" x2="154.1" y2="318.4"/>
	
		<line style="clip-path:url(#SVGID_00000106134534240177437000000013080599748539291538_);fill:none;stroke:#FFFFFF;stroke-width:0.188;stroke-miterlimit:10;" x1="46.6" y1="330.9" x2="73.6" y2="330.9"/>
	
		<line style="clip-path:url(#SVGID_00000106134534240177437000000013080599748539291538_);fill:none;stroke:#FFFFFF;stroke-width:0.188;stroke-miterlimit:10;" x1="73.6" y1="330.9" x2="113.8" y2="330.9"/>
	
		<line style="clip-path:url(#SVGID_00000106134534240177437000000013080599748539291538_);fill:none;stroke:#FFFFFF;stroke-width:0.188;stroke-miterlimit:10;" x1="73.6" y1="343.4" x2="73.6" y2="331"/>
	
		<line style="clip-path:url(#SVGID_00000106134534240177437000000013080599748539291538_);fill:none;stroke:#FFFFFF;stroke-width:0.188;stroke-miterlimit:10;" x1="113.8" y1="330.9" x2="154.1" y2="330.9"/>
	
		<line style="clip-path:url(#SVGID_00000106134534240177437000000013080599748539291538_);fill:none;stroke:#FFFFFF;stroke-width:0.188;stroke-miterlimit:10;" x1="113.8" y1="343.4" x2="113.8" y2="331"/>
	
		<line style="clip-path:url(#SVGID_00000106134534240177437000000013080599748539291538_);fill:none;stroke:#FFFFFF;stroke-width:0.188;stroke-miterlimit:10;" x1="154.1" y1="330.9" x2="194.3" y2="330.9"/>
	
		<line style="clip-path:url(#SVGID_00000106134534240177437000000013080599748539291538_);fill:none;stroke:#FFFFFF;stroke-width:0.188;stroke-miterlimit:10;" x1="154.1" y1="343.4" x2="154.1" y2="331"/>
	<g style="clip-path:url(#SVGID_00000106134534240177437000000013080599748539291538_);">
		<text transform="matrix(1 0 0 1 57.7632 314.1832)" class="st6 st7 st16">ID</text>
	</g>
	<g style="clip-path:url(#SVGID_00000106134534240177437000000013080599748539291538_);">
		<text transform="matrix(1 0 0 1 87.6406 314.1832)"><tspan x="0" y="0" class="st6 st7 st16">L</tspan><tspan x="3.1" y="0" class="st6 st7 st16">A</tspan><tspan x="6.6" y="0" class="st6 st7 st16">S</tspan><tspan x="9.8" y="0" class="st6 st7 st16">T</tspan></text>
	</g>
	<g style="clip-path:url(#SVGID_00000106134534240177437000000013080599748539291538_);">
		<text transform="matrix(1 0 0 1 125.3306 314.1832)"><tspan x="0" y="0" class="st6 st7 st16">FIRS</tspan><tspan x="11.5" y="0" class="st6 st7 st16">R</tspan><tspan x="14.9" y="0" class="st6 st7 st16">T</tspan></text>
	</g>
	<g style="clip-path:url(#SVGID_00000106134534240177437000000013080599748539291538_);">
		<text transform="matrix(1 0 0 1 169.0107 314.1832)"><tspan x="0" y="0" class="st6 st7 st16">S</tspan><tspan x="3.4" y="0" class="st6 st7 st16">SN</tspan></text>
	</g>
	<g style="clip-path:url(#SVGID_00000106134534240177437000000013080599748539291538_);">
		<text transform="matrix(1 0 0 1 55.6211 326.652)" class="st17 st7 st16">11111</text>
	</g>
	<g style="clip-path:url(#SVGID_00000106134534240177437000000013080599748539291538_);">
		<text transform="matrix(1 0 0 1 77.02 326.652)" class="st17 st7 st16">SMITH </text>
	</g>
	<g style="clip-path:url(#SVGID_00000106134534240177437000000013080599748539291538_);">
		<text transform="matrix(1 0 0 1 116.6577 326.652)" class="st17 st7 st16">JOHN</text>
	</g>
	<g style="clip-path:url(#SVGID_00000106134534240177437000000013080599748539291538_);">
		<text transform="matrix(1 0 0 1 158.4214 326.652)"><tspan x="0" y="0" class="st17 st7 st16">55</tspan><tspan x="6.5" y="0" class="st17 st7 st16">5</tspan><tspan x="9.8" y="0" class="st17 st7 st16">-</tspan><tspan x="11.8" y="0" class="st17 st7 st16">1</tspan><tspan x="13.7" y="0" class="st17 st7 st16">2</tspan><tspan x="16.7" y="0" class="st17 st7 st16">-</tspan><tspan x="18.8" y="0" class="st17 st7 st16">5</tspan><tspan x="22.1" y="0" class="st17 st7 st16">55</tspan><tspan x="28.6" y="0" class="st17 st7 st16">5</tspan></text>
	</g>
	<g style="clip-path:url(#SVGID_00000106134534240177437000000013080599748539291538_);">
		<text transform="matrix(1 0 0 1 55.0381 339.1207)" class="st17 st7 st16">11112</text>
	</g>
	<g style="clip-path:url(#SVGID_00000106134534240177437000000013080599748539291538_);">
		<text transform="matrix(1 0 0 1 76.6733 339.1207)"><tspan x="0" y="0" class="st17 st7 st16">TEMPLE</tspan><tspan x="19.8" y="0" class="st17 st7 st16">T</tspan><tspan x="22.6" y="0" class="st17 st7 st16">ON</tspan></text>
	</g>
	<g style="clip-path:url(#SVGID_00000106134534240177437000000013080599748539291538_);">
		<text transform="matrix(1 0 0 1 117.4028 339.1207)" class="st17 st7 st16">RICHARD</text>
	</g>
	<g style="clip-path:url(#SVGID_00000106134534240177437000000013080599748539291538_);">
		<text transform="matrix(1 0 0 1 158.5 339.1207)"><tspan x="0" y="0" class="st17 st7 st16">44</tspan><tspan x="6.4" y="0" class="st17 st7 st16">4</tspan><tspan x="9.6" y="0" class="st17 st7 st16">-</tspan><tspan x="11.7" y="0" class="st17 st7 st16">1</tspan><tspan x="13.5" y="0" class="st17 st7 st16">2</tspan><tspan x="16.5" y="0" class="st17 st7 st16">-</tspan><tspan x="18.7" y="0" class="st17 st7 st16">4444</tspan></text>
	</g>
	<g style="clip-path:url(#SVGID_00000106134534240177437000000013080599748539291538_);">
		<defs>
			<rect id="SVGID_00000076565887346285302150000002614497107071063170_" width="419.5" height="595.3"/>
		</defs>
		<clipPath id="SVGID_00000159438376536824486740000014524376574874278831_">
			<use xlink:href="#SVGID_00000076565887346285302150000002614497107071063170_"  style="overflow:visible;"/>
		</clipPath>
		<path style="clip-path:url(#SVGID_00000159438376536824486740000014524376574874278831_);fill:#00109F;" d="M229.1,318.5
			c-1.2,0-2.1,1-2.1,2.1v18.5c0,1.2,1,2.1,2.1,2.1h19.2c1.2,0,2.1-1,2.1-2.1v-18.5c0-1.2-1-2.1-2.1-2.1H229.1z"/>
	</g>
	
		<polyline style="clip-path:url(#SVGID_00000106134534240177437000000013080599748539291538_);fill:none;stroke:#8A919D;stroke-width:1.064;stroke-miterlimit:10;" points="
		209.8,326.4 213.2,331 209.8,335.6 	"/>
	
		<polyline style="clip-path:url(#SVGID_00000106134534240177437000000013080599748539291538_);fill:none;stroke:#8A919D;stroke-width:1.064;stroke-miterlimit:10;" points="
		206.1,326.4 209.5,331 206.1,335.6 	"/>
	<g style="clip-path:url(#SVGID_00000106134534240177437000000013080599748539291538_);">
		<defs>
			<rect id="SVGID_00000178201018336773786260000013556397663807706518_" width="419.5" height="595.3"/>
		</defs>
		<clipPath id="SVGID_00000000188347295589235510000009807814715908654489_">
			<use xlink:href="#SVGID_00000178201018336773786260000013556397663807706518_"  style="overflow:visible;"/>
		</clipPath>
		<path style="clip-path:url(#SVGID_00000000188347295589235510000009807814715908654489_);fill:#00109F;" d="M147.4,268l5.4,2.4
			l-4.7,2.1l-0.3,0.1l-0.3,0.1l-0.1,0.1l-0.1-0.1l-0.3-0.1l-0.3-0.1l-4.7-2.1L147.4,268z M148.1,277.2l-0.3,0.1l-0.3,0.1l-0.1,0.1
			l-0.1-0.1l-0.3-0.1l-0.3-0.1l-4.7-2.1l2.8-1.2l2.6,1.1c0,0,0.1,0,0.1,0c0,0,0.1,0,0.1,0l2.6-1.1l2.8,1.2L148.1,277.2z
			 M147.4,282.3l-5.4-2.4l3-1.4l2.3,1c0,0,0.1,0,0.1,0c0,0,0.1,0,0.1,0l2.3-1l3,1.4L147.4,282.3z M153.7,270.4
			C153.7,270.4,153.7,270.4,153.7,270.4C153.7,270.3,153.6,270.3,153.7,270.4C153.6,270.3,153.6,270.3,153.7,270.4
			c0-0.1-0.1-0.1-0.1-0.1c0,0,0,0,0,0c0,0,0,0,0,0c0,0,0,0,0,0c0,0,0,0,0,0l-6-2.7c-0.1,0-0.1,0-0.2,0l-6,2.7c0,0,0,0,0,0
			c0,0,0,0,0,0c0,0,0,0,0,0c0,0,0,0,0,0c0,0,0,0,0,0c0,0,0,0,0,0c0,0,0,0,0,0c0,0,0,0,0,0c0,0,0,0,0,0.1v1.7c0,0.1,0.1,0.2,0.1,0.2
			l2.9,1.3l-2.9,1.3c0,0,0,0,0,0c0,0,0,0,0,0s0,0,0,0c0,0,0,0,0,0c0,0,0,0,0,0c0,0,0,0,0,0c0,0,0,0,0,0c0,0,0,0,0,0c0,0,0,0,0,0.1
			v1.5c0,0.1,0.1,0.2,0.1,0.2l3.1,1.4l-3.1,1.4c0,0,0,0,0,0c0,0,0,0,0,0c0,0,0,0,0,0c0,0,0,0,0,0c0,0,0,0,0,0c0,0,0,0,0,0
			c0,0,0,0,0,0c0,0,0,0,0,0c0,0,0,0,0,0.1v1.5c0,0.1,0.1,0.2,0.1,0.2l6,2.7c0,0,0.1,0,0.1,0c0,0,0.1,0,0.1,0l6-2.7
			c0.1,0,0.1-0.1,0.1-0.2v-1.5c0,0,0,0,0-0.1c0,0,0,0,0,0c0,0,0,0,0,0c0,0,0,0,0,0c0,0,0,0,0,0c0,0,0,0,0,0c0,0,0,0,0,0c0,0,0,0,0,0
			c0,0,0,0,0,0l-3.1-1.4l3.1-1.4c0.1,0,0.1-0.1,0.1-0.2v-1.5v0c0,0,0,0,0-0.1c0,0,0,0,0,0c0,0,0,0,0,0c0,0,0,0,0,0c0,0,0,0,0,0
			c0,0,0,0,0,0c0,0,0,0,0,0s0,0,0,0c0,0,0,0,0,0l-2.9-1.3l2.9-1.3c0.1,0,0.1-0.1,0.1-0.2L153.7,270.4L153.7,270.4
			C153.7,270.4,153.7,270.4,153.7,270.4"/>
	</g>
	<g style="clip-path:url(#SVGID_00000106134534240177437000000013080599748539291538_);">
		<text transform="matrix(1 0 0 1 157.999 274.5358)"><tspan x="0" y="0" class="st21 st9 st22">PRODU</tspan><tspan x="18.9" y="0" class="st21 st9 st22">C</tspan><tspan x="22.6" y="0" class="st21 st9 st22">TION </tspan></text>
	</g>
	<g style="clip-path:url(#SVGID_00000106134534240177437000000013080599748539291538_);">
		<text transform="matrix(1 0 0 1 157.999 280.9078)"><tspan x="0" y="0" class="st21 st9 st22">D</tspan><tspan x="3.6" y="0" class="st21 st9 st22">AT</tspan><tspan x="9.8" y="0" class="st21 st9 st22">A</tspan><tspan x="13.6" y="0" class="st21 st9 st22">B</tspan><tspan x="17.2" y="0" class="st21 st9 st22">A</tspan><tspan x="20.9" y="0" class="st21 st9 st22">SE</tspan></text>
	</g>
	<g style="clip-path:url(#SVGID_00000106134534240177437000000013080599748539291538_);">
		<defs>
			<rect id="SVGID_00000004532581681259421830000012001909160911194513_" width="419.5" height="595.3"/>
		</defs>
		<clipPath id="SVGID_00000109014990991402541340000012065576827100851094_">
			<use xlink:href="#SVGID_00000004532581681259421830000012001909160911194513_"  style="overflow:visible;"/>
		</clipPath>
		<path style="clip-path:url(#SVGID_00000109014990991402541340000012065576827100851094_);fill:#00109F;" d="M301.4,265.4l5.4,2.4
			l-4.7,2.1l-0.3,0.1l-0.3,0.1l-0.1,0.1l-0.1-0.1l-0.3-0.1l-0.3-0.1l-4.7-2.1L301.4,265.4z M302.2,274.6l-0.3,0.1l-0.3,0.1l-0.1,0.1
			l-0.1-0.1l-0.3-0.1l-0.3-0.1l-4.7-2.1l2.8-1.2l2.6,1.1c0,0,0.1,0,0.1,0c0,0,0.1,0,0.1,0l2.6-1.1l2.8,1.2L302.2,274.6z
			 M301.4,279.7l-5.4-2.4l3-1.4l2.3,1c0,0,0.1,0,0.1,0c0,0,0.1,0,0.1,0l2.3-1l3,1.4L301.4,279.7z M307.7,267.8
			C307.7,267.8,307.7,267.8,307.7,267.8C307.7,267.7,307.7,267.7,307.7,267.8C307.7,267.7,307.7,267.7,307.7,267.8
			c0-0.1-0.1-0.1-0.1-0.1c0,0,0,0,0,0c0,0,0,0,0,0c0,0,0,0,0,0c0,0,0,0,0,0l-6-2.7c-0.1,0-0.1,0-0.2,0l-6,2.7c0,0,0,0,0,0
			c0,0,0,0,0,0c0,0,0,0,0,0c0,0,0,0,0,0c0,0,0,0,0,0c0,0,0,0,0,0c0,0,0,0,0,0c0,0,0,0,0,0c0,0,0,0,0,0.1v1.7c0,0.1,0.1,0.2,0.1,0.2
			l2.9,1.3l-2.9,1.3c0,0,0,0,0,0c0,0,0,0,0,0s0,0,0,0c0,0,0,0,0,0c0,0,0,0,0,0c0,0,0,0,0,0c0,0,0,0,0,0c0,0,0,0,0,0c0,0,0,0,0,0.1
			v1.5c0,0.1,0.1,0.2,0.1,0.2l3.1,1.4l-3.1,1.4c0,0,0,0,0,0c0,0,0,0,0,0c0,0,0,0,0,0c0,0,0,0,0,0c0,0,0,0,0,0c0,0,0,0,0,0
			c0,0,0,0,0,0c0,0,0,0,0,0c0,0,0,0,0,0.1v1.5c0,0.1,0.1,0.2,0.1,0.2l6,2.7c0,0,0.1,0,0.1,0c0,0,0.1,0,0.1,0l6-2.7
			c0.1,0,0.1-0.1,0.1-0.2v-1.5c0,0,0,0,0-0.1c0,0,0,0,0,0c0,0,0,0,0,0c0,0,0,0,0,0c0,0,0,0,0,0c0,0,0,0,0,0c0,0,0,0,0,0c0,0,0,0,0,0
			c0,0,0,0,0,0l-3.1-1.4l3.1-1.4c0.1,0,0.1-0.1,0.1-0.2v-1.5v0c0,0,0,0,0-0.1c0,0,0,0,0,0c0,0,0,0,0,0c0,0,0,0,0,0c0,0,0,0,0,0
			c0,0,0,0,0,0c0,0,0,0,0,0c0,0,0,0,0,0c0,0,0,0,0,0l-2.9-1.3l2.9-1.3c0.1,0,0.1-0.1,0.1-0.2L307.7,267.8L307.7,267.8
			C307.7,267.8,307.7,267.8,307.7,267.8"/>
		<path style="clip-path:url(#SVGID_00000109014990991402541340000012065576827100851094_);fill:#00109F;" d="M316.8,276.2l5.4,2.4
			l-4.7,2.1l-0.3,0.1l-0.3,0.1l-0.1,0.1l-0.1-0.1l-0.3-0.1l-0.3-0.1l-4.7-2.1L316.8,276.2z M317.6,285.4l-0.3,0.1l-0.3,0.1l-0.1,0.1
			l-0.1-0.1l-0.3-0.1l-0.3-0.1l-4.7-2.1l2.8-1.2l2.6,1.1c0,0,0.1,0,0.1,0c0,0,0.1,0,0.1,0l2.6-1.1l2.8,1.2L317.6,285.4z
			 M316.8,290.4l-5.4-2.4l3-1.4l2.3,1c0,0,0.1,0,0.1,0c0,0,0.1,0,0.1,0l2.3-1l3,1.4L316.8,290.4z M323.1,278.5
			C323.1,278.5,323.1,278.5,323.1,278.5C323.1,278.5,323.1,278.5,323.1,278.5C323.1,278.5,323.1,278.4,323.1,278.5
			c0-0.1-0.1-0.1-0.1-0.1c0,0,0,0,0,0c0,0,0,0,0,0c0,0,0,0,0,0c0,0,0,0,0,0l-6-2.7c-0.1,0-0.1,0-0.2,0l-6,2.7c0,0,0,0,0,0
			c0,0,0,0,0,0c0,0,0,0,0,0c0,0,0,0,0,0c0,0,0,0,0,0c0,0,0,0,0,0c0,0,0,0,0,0c0,0,0,0,0,0c0,0,0,0,0,0.1v1.7c0,0.1,0.1,0.2,0.1,0.2
			l2.9,1.3l-2.9,1.3c0,0,0,0,0,0c0,0,0,0,0,0s0,0,0,0c0,0,0,0,0,0c0,0,0,0,0,0c0,0,0,0,0,0c0,0,0,0,0,0c0,0,0,0,0,0c0,0,0,0,0,0.1
			v1.5c0,0.1,0.1,0.2,0.1,0.2l3.1,1.4l-3.1,1.4c0,0,0,0,0,0c0,0,0,0,0,0c0,0,0,0,0,0c0,0,0,0,0,0c0,0,0,0,0,0c0,0,0,0,0,0
			c0,0,0,0,0,0c0,0,0,0,0,0c0,0,0,0,0,0.1v1.5c0,0.1,0.1,0.2,0.1,0.2l6,2.7c0,0,0.1,0,0.1,0c0,0,0.1,0,0.1,0l6-2.7
			c0.1,0,0.1-0.1,0.1-0.2V288c0,0,0,0,0-0.1c0,0,0,0,0,0c0,0,0,0,0,0c0,0,0,0,0,0c0,0,0,0,0,0c0,0,0,0,0,0c0,0,0,0,0,0c0,0,0,0,0,0
			c0,0,0,0,0,0l-3.1-1.4l3.1-1.4c0.1,0,0.1-0.1,0.1-0.2v-1.5v0c0,0,0,0,0-0.1c0,0,0,0,0,0c0,0,0,0,0,0c0,0,0,0,0,0c0,0,0,0,0,0
			c0,0,0,0,0,0c0,0,0,0,0,0c0,0,0,0,0,0c0,0,0,0,0,0l-2.9-1.3l2.9-1.3c0.1,0,0.1-0.1,0.1-0.2L323.1,278.5L323.1,278.5
			C323.1,278.6,323.1,278.5,323.1,278.5"/>
		<path style="clip-path:url(#SVGID_00000109014990991402541340000012065576827100851094_);fill:#00109F;" d="M332.2,286.9l5.4,2.4
			l-4.7,2.1l-0.3,0.1l-0.3,0.1l-0.1,0.1l-0.1-0.1l-0.3-0.1l-0.3-0.1l-4.7-2.1L332.2,286.9z M333,296.1l-0.3,0.1l-0.3,0.1l-0.1,0.1
			l-0.1-0.1l-0.3-0.1l-0.3-0.1l-4.7-2.1l2.8-1.2l2.6,1.1c0,0,0.1,0,0.1,0c0,0,0.1,0,0.1,0l2.6-1.1l2.8,1.2L333,296.1z M332.2,301.1
			l-5.4-2.4l3-1.4l2.3,1c0,0,0.1,0,0.1,0c0,0,0.1,0,0.1,0l2.3-1l3,1.4L332.2,301.1z M338.5,289.3
			C338.5,289.3,338.5,289.2,338.5,289.3C338.5,289.2,338.5,289.2,338.5,289.3C338.5,289.2,338.5,289.2,338.5,289.3
			c0-0.1-0.1-0.1-0.1-0.1c0,0,0,0,0,0c0,0,0,0,0,0c0,0,0,0,0,0c0,0,0,0,0,0l-6-2.7c-0.1,0-0.1,0-0.2,0l-6,2.7c0,0,0,0,0,0
			c0,0,0,0,0,0c0,0,0,0,0,0c0,0,0,0,0,0c0,0,0,0,0,0c0,0,0,0,0,0c0,0,0,0,0,0c0,0,0,0,0,0c0,0,0,0,0,0.1v1.7c0,0.1,0.1,0.2,0.1,0.2
			l2.9,1.3l-2.9,1.3c0,0,0,0,0,0c0,0,0,0,0,0s0,0,0,0c0,0,0,0,0,0c0,0,0,0,0,0c0,0,0,0,0,0c0,0,0,0,0,0c0,0,0,0,0,0c0,0,0,0,0,0.1
			v1.5c0,0.1,0.1,0.2,0.1,0.2l3.1,1.4l-3.1,1.4c0,0,0,0,0,0c0,0,0,0,0,0c0,0,0,0,0,0c0,0,0,0,0,0c0,0,0,0,0,0c0,0,0,0,0,0
			c0,0,0,0,0,0c0,0,0,0,0,0c0,0,0,0,0,0.1v1.5c0,0.1,0.1,0.2,0.1,0.2l6,2.7c0,0,0.1,0,0.1,0c0,0,0.1,0,0.1,0l6-2.7
			c0.1,0,0.1-0.1,0.1-0.2v-1.5c0,0,0,0,0-0.1c0,0,0,0,0,0c0,0,0,0,0,0c0,0,0,0,0,0c0,0,0,0,0,0c0,0,0,0,0,0c0,0,0,0,0,0c0,0,0,0,0,0
			c0,0,0,0,0,0l-3.1-1.4l3.1-1.4c0.1,0,0.1-0.1,0.1-0.2V294v0c0,0,0,0,0-0.1c0,0,0,0,0,0c0,0,0,0,0,0c0,0,0,0,0,0c0,0,0,0,0,0
			c0,0,0,0,0,0c0,0,0,0,0,0c0,0,0,0,0,0c0,0,0,0,0,0l-2.9-1.3l2.9-1.3c0.1,0,0.1-0.1,0.1-0.2L338.5,289.3L338.5,289.3
			C338.5,289.3,338.5,289.3,338.5,289.3"/>
	</g>
	<g style="clip-path:url(#SVGID_00000106134534240177437000000013080599748539291538_);">
		<text transform="matrix(1 0 0 1 311.4561 271.0079)"><tspan x="0" y="0" class="st21 st9 st22">DEV </tspan><tspan x="12" y="0" class="st21 st9 st22">D</tspan><tspan x="15.6" y="0" class="st21 st9 st22">AT</tspan><tspan x="21.8" y="0" class="st21 st9 st22">A</tspan><tspan x="25.6" y="0" class="st21 st9 st22">B</tspan><tspan x="29.1" y="0" class="st21 st9 st22">A</tspan><tspan x="32.9" y="0" class="st21 st9 st22">SE</tspan></text>
	</g>
	<g style="clip-path:url(#SVGID_00000106134534240177437000000013080599748539291538_);">
		<text transform="matrix(1 0 0 1 326.4668 281.6334)"><tspan x="0" y="0" class="st21 st9 st22">TE</tspan><tspan x="6.5" y="0" class="st21 st9 st22">S</tspan><tspan x="9.8" y="0" class="st21 st9 st22">T</tspan><tspan x="13" y="0" class="st21 st9 st22">D</tspan><tspan x="16.7" y="0" class="st21 st9 st22">AT</tspan><tspan x="22.9" y="0" class="st21 st9 st22">A</tspan><tspan x="26.7" y="0" class="st21 st9 st22">B</tspan><tspan x="30.2" y="0" class="st21 st9 st22">A</tspan><tspan x="33.9" y="0" class="st21 st9 st22">SE</tspan></text>
	</g>
	<g style="clip-path:url(#SVGID_00000106134534240177437000000013080599748539291538_);">
		<text transform="matrix(1 0 0 1 341.1602 293.4215)"><tspan x="0" y="0" class="st21 st9 st22">ANA</tspan><tspan x="11.5" y="0" class="st21 st9 st22">L</tspan><tspan x="14.1" y="0" class="st21 st9 st22">Y</tspan><tspan x="17.6" y="0" class="st21 st9 st22">TICS</tspan></text>
	</g>
	<g style="clip-path:url(#SVGID_00000106134534240177437000000013080599748539291538_);">
		<text transform="matrix(1 0 0 1 370.9258 293.4235)" class="st21 st9 st22"> </text>
	</g>
	<g style="clip-path:url(#SVGID_00000106134534240177437000000013080599748539291538_);">
		<text transform="matrix(1 0 0 1 341.582 299.7955)"><tspan x="0" y="0" class="st21 st9 st22">D</tspan><tspan x="3.6" y="0" class="st21 st9 st22">AT</tspan><tspan x="9.8" y="0" class="st21 st9 st22">A</tspan><tspan x="13.6" y="0" class="st21 st9 st22">B</tspan><tspan x="17.2" y="0" class="st21 st9 st22">A</tspan><tspan x="20.9" y="0" class="st21 st9 st22">SE</tspan></text>
	</g>
	<polygon style="clip-path:url(#SVGID_00000106134534240177437000000013080599748539291538_);fill:#00109F;" points="225.2,265.3 
		225.2,265.3 225.2,305.8 227.7,305.8 227.7,265.3 	"/>
	<polygon style="clip-path:url(#SVGID_00000106134534240177437000000013080599748539291538_);fill:#00109F;" points="46.6,265.3 
		46.6,265.3 46.6,305.8 49.1,305.8 49.1,265.3 	"/>
	
		<line style="clip-path:url(#SVGID_00000106134534240177437000000013080599748539291538_);fill:none;stroke:#FFFFFF;stroke-width:0.188;stroke-miterlimit:10;" x1="252.2" y1="330.8" x2="252.2" y2="318.4"/>
	
		<line style="clip-path:url(#SVGID_00000106134534240177437000000013080599748539291538_);fill:none;stroke:#FFFFFF;stroke-width:0.188;stroke-miterlimit:10;" x1="225.2" y1="330.9" x2="252.3" y2="330.9"/>
	
		<line style="clip-path:url(#SVGID_00000106134534240177437000000013080599748539291538_);fill:none;stroke:#FFFFFF;stroke-width:0.188;stroke-miterlimit:10;" x1="252.2" y1="343.4" x2="252.2" y2="331"/>
	<g style="clip-path:url(#SVGID_00000106134534240177437000000013080599748539291538_);">
		<text transform="matrix(1 0 0 1 232.7725 326.653)"><tspan x="0" y="0" class="st6 st7 st16">2</tspan><tspan x="3.1" y="0" class="st6 st7 st16">8</tspan><tspan x="6.3" y="0" class="st6 st7 st16">7</tspan><tspan x="8.9" y="0" class="st6 st7 st16">4</tspan></text>
	</g>
	<g style="clip-path:url(#SVGID_00000106134534240177437000000013080599748539291538_);">
		<text transform="matrix(1 0 0 1 233.0508 339.1217)"><tspan x="0" y="0" class="st6 st7 st16">3</tspan><tspan x="3.2" y="0" class="st6 st7 st16">2</tspan><tspan x="6.3" y="0" class="st6 st7 st16">8</tspan><tspan x="9.5" y="0" class="st6 st7 st16">1</tspan></text>
	</g>
	<g style="clip-path:url(#SVGID_00000106134534240177437000000013080599748539291538_);">
		<defs>
			<rect id="SVGID_00000124124100044190043600000003891679238315743923_" width="419.5" height="595.3"/>
		</defs>
		<clipPath id="SVGID_00000011710000113262009340000008283530686426275493_">
			<use xlink:href="#SVGID_00000124124100044190043600000003891679238315743923_"  style="overflow:visible;"/>
		</clipPath>
		<path style="clip-path:url(#SVGID_00000011710000113262009340000008283530686426275493_);fill:#00109F;" d="M335.9,318.5
			c-1.2,0-2.1,1-2.1,2.1v18.5c0,1.2,1,2.1,2.1,2.1h33.5c1.2,0,2.1-1,2.1-2.1v-18.5c0-1.2-1-2.1-2.1-2.1H335.9z"/>
	</g>
	<g style="clip-path:url(#SVGID_00000106134534240177437000000013080599748539291538_);">
		<text transform="matrix(1 0 0 1 336.3789 325.6559)"><tspan x="0" y="0" class="st6 st7 st16">XX</tspan><tspan x="6.6" y="0" class="st6 st7 st16">X-</tspan><tspan x="11.4" y="0" class="st6 st7 st16">X</tspan><tspan x="14.8" y="0" class="st6 st7 st16">X</tspan><tspan x="17.7" y="0" class="st6 st7 st16">-</tspan><tspan x="19.8" y="0" class="st6 st7 st16">555</tspan><tspan x="29.6" y="0" class="st6 st7 st16">5</tspan></text>
	</g>
	<g style="clip-path:url(#SVGID_00000106134534240177437000000013080599748539291538_);">
		<text transform="matrix(1 0 0 1 336.4736 338.1246)"><tspan x="0" y="0" class="st6 st7 st16">XX</tspan><tspan x="6.6" y="0" class="st6 st7 st16">X-</tspan><tspan x="11.4" y="0" class="st6 st7 st16">X</tspan><tspan x="14.8" y="0" class="st6 st7 st16">X</tspan><tspan x="17.7" y="0" class="st6 st7 st16">-</tspan><tspan x="19.9" y="0" class="st6 st7 st16">4444</tspan></text>
	</g>
	<g style="clip-path:url(#SVGID_00000106134534240177437000000013080599748539291538_);">
		<text transform="matrix(1 0 0 1 53.1855 271.9962)"><tspan x="0" y="0" class="st17 st9 st25">EMP</tspan><tspan x="12.7" y="0" class="st17 st9 st25">L</tspan><tspan x="16.1" y="0" class="st17 st9 st25">O</tspan><tspan x="20.2" y="0" class="st17 st9 st25">YEE</tspan><tspan x="31.7" y="0" class="st17 st9 st25"> </tspan><tspan x="33" y="0" class="st17 st9 st25">T</tspan><tspan x="36.1" y="0" class="st17 st9 st25">ABLE</tspan></text>
	</g>
	<g style="clip-path:url(#SVGID_00000106134534240177437000000013080599748539291538_);">
		<text transform="matrix(1 0 0 1 231.0312 271.9962)"><tspan x="0" y="0" class="st17 st9 st25">M</tspan><tspan x="5" y="0" class="st17 st9 st25">A</tspan><tspan x="9.2" y="0" class="st17 st9 st25">SKED</tspan><tspan x="25.2" y="0" class="st17 st9 st25"> </tspan><tspan x="26.4" y="0" class="st17 st9 st25">VIEW</tspan></text>
	</g>
</g>
</svg>
