<?xml version="1.0" encoding="utf-8"?>
<!-- Generator: Adobe Illustrator 28.0.0, SVG Export Plug-In . SVG Version: 6.00 Build 0)  -->
<svg version="1.1" id="Layer_1" xmlns="http://www.w3.org/2000/svg" xmlns:xlink="http://www.w3.org/1999/xlink" x="0px" y="0px"
	 viewBox="0 0 419.5 595.3" style="enable-background:new 0 0 419.5 595.3;" xml:space="preserve">
<style type="text/css">
	.st0{clip-path:url(#SVGID_00000087399871567327828220000003034699366347742595_);}
	.st1{opacity:0.5;clip-path:url(#SVGID_00000083788176021489908870000013419322593779703731_);}
	.st2{clip-path:url(#SVGID_00000123443372777233881810000017926051577588420239_);}
	.st3{clip-path:url(#SVGID_00000046319554926639762230000000851183956779988896_);fill:none;stroke:#B7BABB;stroke-width:0.25;}
	.st4{clip-path:url(#SVGID_00000123443372777233881810000017926051577588420239_);fill:none;stroke:#B7BABB;stroke-width:0.2;}
	.st5{clip-path:url(#SVGID_00000087399871567327828220000003034699366347742595_);fill:#B7BABB;}
	.st6{clip-path:url(#SVGID_00000087399871567327828220000003034699366347742595_);fill:#E0E2E3;}
	
		.st7{clip-path:url(#SVGID_00000087399871567327828220000003034699366347742595_);fill:none;stroke:#8B8F91;stroke-width:0.236;stroke-miterlimit:10;}
	.st8{fill:#FFFFFF;}
	.st9{font-family:'Colfax-Bold';}
	.st10{font-size:6px;}
	.st11{fill:#8B8F91;}
	.st12{font-family:'Colfax-Regular';}
	.st13{clip-path:url(#SVGID_00000157272049154275943880000006076371262738710919_);fill:#F04E29;}
	.st14{clip-path:url(#SVGID_00000157272049154275943880000006076371262738710919_);fill:#FFFF00;}
	.st15{clip-path:url(#SVGID_00000157272049154275943880000006076371262738710919_);fill:#00608E;}
	
		.st16{clip-path:url(#SVGID_00000087399871567327828220000003034699366347742595_);fill:none;stroke:#8A919D;stroke-width:1.419;stroke-miterlimit:10;}
	.st17{clip-path:url(#SVGID_00000087399871567327828220000003034699366347742595_);fill:#00109F;}
	.st18{font-size:4px;}
	.st19{font-size:8px;}
	.st20{clip-path:url(#SVGID_00000087399871567327828220000003034699366347742595_);fill:none;stroke:#00109F;stroke-width:0.5;}
</style>
<g>
	<defs>
		<rect id="SVGID_1_" width="419.5" height="595.3"/>
	</defs>
	<clipPath id="SVGID_00000047757326450025470850000003722158098754877321_">
		<use xlink:href="#SVGID_1_"  style="overflow:visible;"/>
	</clipPath>
	<g style="clip-path:url(#SVGID_00000047757326450025470850000003722158098754877321_);">
		<defs>
			<rect id="SVGID_00000035508879840213923300000015568934143709605526_" width="419.5" height="595.3"/>
		</defs>
		<clipPath id="SVGID_00000001634835287542790050000015291485853744703164_">
			<use xlink:href="#SVGID_00000035508879840213923300000015568934143709605526_"  style="overflow:visible;"/>
		</clipPath>
		<g style="opacity:0.5;clip-path:url(#SVGID_00000001634835287542790050000015291485853744703164_);">
			<g>
				<defs>
					<rect id="SVGID_00000099643492058565546570000003945912057322878379_" x="38.1" y="264.9" width="343.9" height="59.5"/>
				</defs>
				<clipPath id="SVGID_00000160904281712670518570000005988783317801119406_">
					<use xlink:href="#SVGID_00000099643492058565546570000003945912057322878379_"  style="overflow:visible;"/>
				</clipPath>
				<g style="clip-path:url(#SVGID_00000160904281712670518570000005988783317801119406_);">
					<defs>
						<polygon id="SVGID_00000005254914608709155510000009362697179613709725_" points="47.1,271.9 47.1,271.9 47.1,323.4 
							373.1,323.4 373.1,271.9 						"/>
					</defs>
					<clipPath id="SVGID_00000006670570753228749010000010084572049227324862_">
						<use xlink:href="#SVGID_00000005254914608709155510000009362697179613709725_"  style="overflow:visible;"/>
					</clipPath>
					
						<line style="clip-path:url(#SVGID_00000006670570753228749010000010084572049227324862_);fill:none;stroke:#B7BABB;stroke-width:0.25;" x1="373.6" y1="121.9" x2="373.6" y2="447.9"/>
					
						<line style="clip-path:url(#SVGID_00000006670570753228749010000010084572049227324862_);fill:none;stroke:#B7BABB;stroke-width:0.25;" x1="366.5" y1="121.9" x2="366.5" y2="447.9"/>
					
						<line style="clip-path:url(#SVGID_00000006670570753228749010000010084572049227324862_);fill:none;stroke:#B7BABB;stroke-width:0.25;" x1="359.4" y1="121.9" x2="359.4" y2="447.9"/>
					
						<line style="clip-path:url(#SVGID_00000006670570753228749010000010084572049227324862_);fill:none;stroke:#B7BABB;stroke-width:0.25;" x1="352.3" y1="121.9" x2="352.3" y2="447.9"/>
					
						<line style="clip-path:url(#SVGID_00000006670570753228749010000010084572049227324862_);fill:none;stroke:#B7BABB;stroke-width:0.25;" x1="345.2" y1="121.9" x2="345.2" y2="447.9"/>
					
						<line style="clip-path:url(#SVGID_00000006670570753228749010000010084572049227324862_);fill:none;stroke:#B7BABB;stroke-width:0.25;" x1="338.1" y1="121.9" x2="338.1" y2="447.9"/>
					
						<line style="clip-path:url(#SVGID_00000006670570753228749010000010084572049227324862_);fill:none;stroke:#B7BABB;stroke-width:0.25;" x1="331" y1="121.9" x2="331" y2="447.9"/>
					
						<line style="clip-path:url(#SVGID_00000006670570753228749010000010084572049227324862_);fill:none;stroke:#B7BABB;stroke-width:0.25;" x1="324" y1="121.9" x2="324" y2="447.9"/>
					
						<line style="clip-path:url(#SVGID_00000006670570753228749010000010084572049227324862_);fill:none;stroke:#B7BABB;stroke-width:0.25;" x1="316.9" y1="121.9" x2="316.9" y2="447.9"/>
					
						<line style="clip-path:url(#SVGID_00000006670570753228749010000010084572049227324862_);fill:none;stroke:#B7BABB;stroke-width:0.25;" x1="309.8" y1="121.9" x2="309.8" y2="447.9"/>
					
						<line style="clip-path:url(#SVGID_00000006670570753228749010000010084572049227324862_);fill:none;stroke:#B7BABB;stroke-width:0.25;" x1="302.7" y1="121.9" x2="302.7" y2="447.9"/>
					
						<line style="clip-path:url(#SVGID_00000006670570753228749010000010084572049227324862_);fill:none;stroke:#B7BABB;stroke-width:0.25;" x1="295.6" y1="121.9" x2="295.6" y2="447.9"/>
					
						<line style="clip-path:url(#SVGID_00000006670570753228749010000010084572049227324862_);fill:none;stroke:#B7BABB;stroke-width:0.25;" x1="288.5" y1="121.9" x2="288.5" y2="447.9"/>
					
						<line style="clip-path:url(#SVGID_00000006670570753228749010000010084572049227324862_);fill:none;stroke:#B7BABB;stroke-width:0.25;" x1="281.4" y1="121.9" x2="281.4" y2="447.9"/>
					
						<line style="clip-path:url(#SVGID_00000006670570753228749010000010084572049227324862_);fill:none;stroke:#B7BABB;stroke-width:0.25;" x1="274.3" y1="121.9" x2="274.3" y2="447.9"/>
					
						<line style="clip-path:url(#SVGID_00000006670570753228749010000010084572049227324862_);fill:none;stroke:#B7BABB;stroke-width:0.25;" x1="267.3" y1="121.9" x2="267.3" y2="447.9"/>
					
						<line style="clip-path:url(#SVGID_00000006670570753228749010000010084572049227324862_);fill:none;stroke:#B7BABB;stroke-width:0.25;" x1="260.2" y1="121.9" x2="260.2" y2="447.9"/>
					
						<line style="clip-path:url(#SVGID_00000006670570753228749010000010084572049227324862_);fill:none;stroke:#B7BABB;stroke-width:0.25;" x1="253.1" y1="121.9" x2="253.1" y2="447.9"/>
					
						<line style="clip-path:url(#SVGID_00000006670570753228749010000010084572049227324862_);fill:none;stroke:#B7BABB;stroke-width:0.25;" x1="246" y1="121.9" x2="246" y2="447.9"/>
					
						<line style="clip-path:url(#SVGID_00000006670570753228749010000010084572049227324862_);fill:none;stroke:#B7BABB;stroke-width:0.25;" x1="238.9" y1="121.9" x2="238.9" y2="447.9"/>
					
						<line style="clip-path:url(#SVGID_00000006670570753228749010000010084572049227324862_);fill:none;stroke:#B7BABB;stroke-width:0.25;" x1="231.8" y1="121.9" x2="231.8" y2="447.9"/>
					
						<line style="clip-path:url(#SVGID_00000006670570753228749010000010084572049227324862_);fill:none;stroke:#B7BABB;stroke-width:0.25;" x1="224.7" y1="121.9" x2="224.7" y2="447.9"/>
					
						<line style="clip-path:url(#SVGID_00000006670570753228749010000010084572049227324862_);fill:none;stroke:#B7BABB;stroke-width:0.25;" x1="217.7" y1="121.9" x2="217.7" y2="447.9"/>
					
						<line style="clip-path:url(#SVGID_00000006670570753228749010000010084572049227324862_);fill:none;stroke:#B7BABB;stroke-width:0.25;" x1="210.6" y1="121.9" x2="210.6" y2="447.9"/>
					
						<line style="clip-path:url(#SVGID_00000006670570753228749010000010084572049227324862_);fill:none;stroke:#B7BABB;stroke-width:0.25;" x1="203.5" y1="121.9" x2="203.5" y2="447.9"/>
					
						<line style="clip-path:url(#SVGID_00000006670570753228749010000010084572049227324862_);fill:none;stroke:#B7BABB;stroke-width:0.25;" x1="196.4" y1="121.9" x2="196.4" y2="447.9"/>
					
						<line style="clip-path:url(#SVGID_00000006670570753228749010000010084572049227324862_);fill:none;stroke:#B7BABB;stroke-width:0.25;" x1="189.3" y1="121.9" x2="189.3" y2="447.9"/>
					
						<line style="clip-path:url(#SVGID_00000006670570753228749010000010084572049227324862_);fill:none;stroke:#B7BABB;stroke-width:0.25;" x1="182.2" y1="121.9" x2="182.2" y2="447.9"/>
					
						<line style="clip-path:url(#SVGID_00000006670570753228749010000010084572049227324862_);fill:none;stroke:#B7BABB;stroke-width:0.25;" x1="175.1" y1="121.9" x2="175.1" y2="447.9"/>
					
						<line style="clip-path:url(#SVGID_00000006670570753228749010000010084572049227324862_);fill:none;stroke:#B7BABB;stroke-width:0.25;" x1="168" y1="121.9" x2="168" y2="447.9"/>
					
						<line style="clip-path:url(#SVGID_00000006670570753228749010000010084572049227324862_);fill:none;stroke:#B7BABB;stroke-width:0.25;" x1="161" y1="121.9" x2="161" y2="447.9"/>
					
						<line style="clip-path:url(#SVGID_00000006670570753228749010000010084572049227324862_);fill:none;stroke:#B7BABB;stroke-width:0.25;" x1="153.9" y1="121.9" x2="153.9" y2="447.9"/>
					
						<line style="clip-path:url(#SVGID_00000006670570753228749010000010084572049227324862_);fill:none;stroke:#B7BABB;stroke-width:0.25;" x1="146.8" y1="121.9" x2="146.8" y2="447.9"/>
					
						<line style="clip-path:url(#SVGID_00000006670570753228749010000010084572049227324862_);fill:none;stroke:#B7BABB;stroke-width:0.25;" x1="139.7" y1="121.9" x2="139.7" y2="447.9"/>
					
						<line style="clip-path:url(#SVGID_00000006670570753228749010000010084572049227324862_);fill:none;stroke:#B7BABB;stroke-width:0.25;" x1="132.6" y1="121.9" x2="132.6" y2="447.9"/>
					
						<line style="clip-path:url(#SVGID_00000006670570753228749010000010084572049227324862_);fill:none;stroke:#B7BABB;stroke-width:0.25;" x1="125.5" y1="121.9" x2="125.5" y2="447.9"/>
					
						<line style="clip-path:url(#SVGID_00000006670570753228749010000010084572049227324862_);fill:none;stroke:#B7BABB;stroke-width:0.25;" x1="118.4" y1="121.9" x2="118.4" y2="447.9"/>
					
						<line style="clip-path:url(#SVGID_00000006670570753228749010000010084572049227324862_);fill:none;stroke:#B7BABB;stroke-width:0.25;" x1="111.4" y1="121.9" x2="111.4" y2="447.9"/>
					
						<line style="clip-path:url(#SVGID_00000006670570753228749010000010084572049227324862_);fill:none;stroke:#B7BABB;stroke-width:0.25;" x1="104.3" y1="121.9" x2="104.3" y2="447.9"/>
					
						<line style="clip-path:url(#SVGID_00000006670570753228749010000010084572049227324862_);fill:none;stroke:#B7BABB;stroke-width:0.25;" x1="97.2" y1="121.9" x2="97.2" y2="447.9"/>
					
						<line style="clip-path:url(#SVGID_00000006670570753228749010000010084572049227324862_);fill:none;stroke:#B7BABB;stroke-width:0.25;" x1="90.1" y1="121.9" x2="90.1" y2="447.9"/>
					
						<line style="clip-path:url(#SVGID_00000006670570753228749010000010084572049227324862_);fill:none;stroke:#B7BABB;stroke-width:0.25;" x1="83" y1="121.9" x2="83" y2="447.9"/>
					
						<line style="clip-path:url(#SVGID_00000006670570753228749010000010084572049227324862_);fill:none;stroke:#B7BABB;stroke-width:0.25;" x1="75.9" y1="121.9" x2="75.9" y2="447.9"/>
					
						<line style="clip-path:url(#SVGID_00000006670570753228749010000010084572049227324862_);fill:none;stroke:#B7BABB;stroke-width:0.25;" x1="68.8" y1="121.9" x2="68.8" y2="447.9"/>
					
						<line style="clip-path:url(#SVGID_00000006670570753228749010000010084572049227324862_);fill:none;stroke:#B7BABB;stroke-width:0.25;" x1="61.7" y1="121.9" x2="61.7" y2="447.9"/>
					
						<line style="clip-path:url(#SVGID_00000006670570753228749010000010084572049227324862_);fill:none;stroke:#B7BABB;stroke-width:0.25;" x1="54.7" y1="121.9" x2="54.7" y2="447.9"/>
					
						<line style="clip-path:url(#SVGID_00000006670570753228749010000010084572049227324862_);fill:none;stroke:#B7BABB;stroke-width:0.25;" x1="47.6" y1="121.9" x2="47.6" y2="447.9"/>
				</g>
				
					<line style="clip-path:url(#SVGID_00000160904281712670518570000005988783317801119406_);fill:none;stroke:#B7BABB;stroke-width:0.2;" x1="373.4" y1="320.5" x2="47.4" y2="320.5"/>
				
					<line style="clip-path:url(#SVGID_00000160904281712670518570000005988783317801119406_);fill:none;stroke:#B7BABB;stroke-width:0.2;" x1="373.4" y1="313.4" x2="47.4" y2="313.4"/>
				
					<line style="clip-path:url(#SVGID_00000160904281712670518570000005988783317801119406_);fill:none;stroke:#B7BABB;stroke-width:0.2;" x1="373.4" y1="306.3" x2="47.4" y2="306.3"/>
				
					<line style="clip-path:url(#SVGID_00000160904281712670518570000005988783317801119406_);fill:none;stroke:#B7BABB;stroke-width:0.2;" x1="373.4" y1="299.2" x2="47.4" y2="299.2"/>
				
					<line style="clip-path:url(#SVGID_00000160904281712670518570000005988783317801119406_);fill:none;stroke:#B7BABB;stroke-width:0.2;" x1="373.4" y1="292.1" x2="47.4" y2="292.1"/>
				
					<line style="clip-path:url(#SVGID_00000160904281712670518570000005988783317801119406_);fill:none;stroke:#B7BABB;stroke-width:0.2;" x1="373.4" y1="285" x2="47.4" y2="285"/>
				
					<line style="clip-path:url(#SVGID_00000160904281712670518570000005988783317801119406_);fill:none;stroke:#B7BABB;stroke-width:0.2;" x1="373.4" y1="277.9" x2="47.4" y2="277.9"/>
			</g>
		</g>
	</g>
	
		<rect x="159.3" y="272.1" style="clip-path:url(#SVGID_00000047757326450025470850000003722158098754877321_);fill:#B7BABB;" width="48.6" height="8.5"/>
	<path style="clip-path:url(#SVGID_00000047757326450025470850000003722158098754877321_);fill:#E0E2E3;" d="M159.3,314.6h48.6v8.5
		h-48.6V314.6z M159.3,306.1h48.6v8.5h-48.6V306.1z M159.3,297.6h48.6v8.5h-48.6V297.6z M159.3,289.1h48.6v8.5h-48.6V289.1z
		 M159.3,280.6h48.6v8.5h-48.6V280.6z"/>
	
		<line style="clip-path:url(#SVGID_00000047757326450025470850000003722158098754877321_);fill:none;stroke:#8B8F91;stroke-width:0.236;stroke-miterlimit:10;" x1="159.3" y1="280.6" x2="207.9" y2="280.6"/>
	
		<line style="clip-path:url(#SVGID_00000047757326450025470850000003722158098754877321_);fill:none;stroke:#8B8F91;stroke-width:0.236;stroke-miterlimit:10;" x1="159.3" y1="289.1" x2="207.9" y2="289.1"/>
	
		<line style="clip-path:url(#SVGID_00000047757326450025470850000003722158098754877321_);fill:none;stroke:#8B8F91;stroke-width:0.236;stroke-miterlimit:10;" x1="159.3" y1="297.6" x2="207.9" y2="297.6"/>
	
		<line style="clip-path:url(#SVGID_00000047757326450025470850000003722158098754877321_);fill:none;stroke:#8B8F91;stroke-width:0.236;stroke-miterlimit:10;" x1="159.3" y1="306.1" x2="207.9" y2="306.1"/>
	
		<line style="clip-path:url(#SVGID_00000047757326450025470850000003722158098754877321_);fill:none;stroke:#8B8F91;stroke-width:0.236;stroke-miterlimit:10;" x1="159.3" y1="314.6" x2="207.9" y2="314.6"/>
	<g style="clip-path:url(#SVGID_00000047757326450025470850000003722158098754877321_);">
		<text transform="matrix(1 0 0 1 171.2349 278.6285)"><tspan x="0" y="0" class="st8 st9 st10">CO</tspan><tspan x="8.7" y="0" class="st8 st9 st10">L</tspan><tspan x="12" y="0" class="st8 st9 st10">OUR</tspan></text>
	</g>
	<g style="clip-path:url(#SVGID_00000047757326450025470850000003722158098754877321_);">
		<text transform="matrix(1 0 0 1 177.8472 286.5485)" class="st11 st12 st10">RED</text>
	</g>
	<g style="clip-path:url(#SVGID_00000047757326450025470850000003722158098754877321_);">
		<text transform="matrix(1 0 0 1 177.8472 295.0504)" class="st11 st12 st10">RED</text>
	</g>
	<g style="clip-path:url(#SVGID_00000047757326450025470850000003722158098754877321_);">
		<text transform="matrix(1 0 0 1 171.7812 303.5524)"><tspan x="0" y="0" class="st11 st12 st10">YEL</tspan><tspan x="10.7" y="0" class="st11 st12 st10">L</tspan><tspan x="13.9" y="0" class="st11 st12 st10">O</tspan><tspan x="18.2" y="0" class="st11 st12 st10">W</tspan></text>
	</g>
	<g style="clip-path:url(#SVGID_00000047757326450025470850000003722158098754877321_);">
		<text transform="matrix(1 0 0 1 173.7671 312.0543)" class="st11 st12 st10">GREEN</text>
	</g>
	<g style="clip-path:url(#SVGID_00000047757326450025470850000003722158098754877321_);">
		<text transform="matrix(1 0 0 1 171.7812 320.5563)"><tspan x="0" y="0" class="st11 st12 st10">YEL</tspan><tspan x="10.7" y="0" class="st11 st12 st10">L</tspan><tspan x="13.9" y="0" class="st11 st12 st10">O</tspan><tspan x="18.2" y="0" class="st11 st12 st10">W</tspan></text>
	</g>
	<path style="clip-path:url(#SVGID_00000047757326450025470850000003722158098754877321_);fill:#B7BABB;" d="M325.2,272.1h48.6v8.5
		h-48.6V272.1z M276.6,272.1h48.6v8.5h-48.6V272.1z M228,272.1h48.6v8.5H228V272.1z"/>
	<path style="clip-path:url(#SVGID_00000047757326450025470850000003722158098754877321_);fill:#E0E2E3;" d="M325.2,312.4h48.6V323
		h-48.6V312.4z M276.6,312.4h48.6V323h-48.6V312.4z M228,312.4h48.6V323H228V312.4z M325.2,301.8h48.6v10.6h-48.6V301.8z
		 M276.6,301.8h48.6v10.6h-48.6V301.8z M228,301.8h48.6v10.6H228V301.8z M325.2,291.2h48.6v10.6h-48.6V291.2z M276.6,291.2h48.6
		v10.6h-48.6V291.2z M228,291.2h48.6v10.6H228V291.2z M325.2,280.6h48.6v10.6h-48.6V280.6z M276.6,280.6h48.6v10.6h-48.6V280.6z
		 M228,280.6h48.6v10.6H228V280.6z"/>
	
		<line style="clip-path:url(#SVGID_00000047757326450025470850000003722158098754877321_);fill:none;stroke:#8B8F91;stroke-width:0.236;stroke-miterlimit:10;" x1="228" y1="280.6" x2="276.6" y2="280.6"/>
	
		<line style="clip-path:url(#SVGID_00000047757326450025470850000003722158098754877321_);fill:none;stroke:#8B8F91;stroke-width:0.236;stroke-miterlimit:10;" x1="276.6" y1="280.6" x2="325.2" y2="280.6"/>
	
		<line style="clip-path:url(#SVGID_00000047757326450025470850000003722158098754877321_);fill:none;stroke:#8B8F91;stroke-width:0.236;stroke-miterlimit:10;" x1="325.2" y1="280.6" x2="373.8" y2="280.6"/>
	
		<line style="clip-path:url(#SVGID_00000047757326450025470850000003722158098754877321_);fill:none;stroke:#8B8F91;stroke-width:0.236;stroke-miterlimit:10;" x1="228" y1="291.2" x2="276.6" y2="291.2"/>
	
		<line style="clip-path:url(#SVGID_00000047757326450025470850000003722158098754877321_);fill:none;stroke:#8B8F91;stroke-width:0.236;stroke-miterlimit:10;" x1="276.6" y1="291.2" x2="325.2" y2="291.2"/>
	
		<line style="clip-path:url(#SVGID_00000047757326450025470850000003722158098754877321_);fill:none;stroke:#8B8F91;stroke-width:0.236;stroke-miterlimit:10;" x1="325.2" y1="291.2" x2="373.8" y2="291.2"/>
	
		<line style="clip-path:url(#SVGID_00000047757326450025470850000003722158098754877321_);fill:none;stroke:#8B8F91;stroke-width:0.236;stroke-miterlimit:10;" x1="228" y1="301.8" x2="276.6" y2="301.8"/>
	
		<line style="clip-path:url(#SVGID_00000047757326450025470850000003722158098754877321_);fill:none;stroke:#8B8F91;stroke-width:0.236;stroke-miterlimit:10;" x1="276.6" y1="301.8" x2="325.2" y2="301.8"/>
	
		<line style="clip-path:url(#SVGID_00000047757326450025470850000003722158098754877321_);fill:none;stroke:#8B8F91;stroke-width:0.236;stroke-miterlimit:10;" x1="325.2" y1="301.8" x2="373.8" y2="301.8"/>
	
		<line style="clip-path:url(#SVGID_00000047757326450025470850000003722158098754877321_);fill:none;stroke:#8B8F91;stroke-width:0.236;stroke-miterlimit:10;" x1="228" y1="312.4" x2="276.6" y2="312.4"/>
	
		<line style="clip-path:url(#SVGID_00000047757326450025470850000003722158098754877321_);fill:none;stroke:#8B8F91;stroke-width:0.236;stroke-miterlimit:10;" x1="276.6" y1="312.4" x2="325.2" y2="312.4"/>
	
		<line style="clip-path:url(#SVGID_00000047757326450025470850000003722158098754877321_);fill:none;stroke:#8B8F91;stroke-width:0.236;stroke-miterlimit:10;" x1="325.2" y1="312.4" x2="373.8" y2="312.4"/>
	
		<line style="clip-path:url(#SVGID_00000047757326450025470850000003722158098754877321_);fill:none;stroke:#8B8F91;stroke-width:0.236;stroke-miterlimit:10;" x1="228" y1="323" x2="276.6" y2="323"/>
	
		<line style="clip-path:url(#SVGID_00000047757326450025470850000003722158098754877321_);fill:none;stroke:#8B8F91;stroke-width:0.236;stroke-miterlimit:10;" x1="276.6" y1="323" x2="325.2" y2="323"/>
	
		<line style="clip-path:url(#SVGID_00000047757326450025470850000003722158098754877321_);fill:none;stroke:#8B8F91;stroke-width:0.236;stroke-miterlimit:10;" x1="325.2" y1="323" x2="373.8" y2="323"/>
	<g style="clip-path:url(#SVGID_00000047757326450025470850000003722158098754877321_);">
		<text transform="matrix(1 0 0 1 246.3447 278.6285)" class="st8 st9 st10">RED</text>
	</g>
	<g style="clip-path:url(#SVGID_00000047757326450025470850000003722158098754877321_);">
		<text transform="matrix(1 0 0 1 288.5195 278.6285)"><tspan x="0" y="0" class="st8 st9 st10">YEL</tspan><tspan x="11.2" y="0" class="st8 st9 st10">L</tspan><tspan x="14.6" y="0" class="st8 st9 st10">O</tspan><tspan x="18.9" y="0" class="st8 st9 st10">W</tspan></text>
	</g>
	<g style="clip-path:url(#SVGID_00000047757326450025470850000003722158098754877321_);">
		<text transform="matrix(1 0 0 1 339.3867 278.6285)" class="st8 st9 st10">GREEN</text>
	</g>
	<g style="clip-path:url(#SVGID_00000047757326450025470850000003722158098754877321_);">
		<text transform="matrix(1 0 0 1 251.3311 288.1803)" class="st11 st12 st10">1</text>
	</g>
	<g style="clip-path:url(#SVGID_00000047757326450025470850000003722158098754877321_);">
		<text transform="matrix(1 0 0 1 299.1689 288.1803)" class="st11 st12 st10">0</text>
	</g>
	<g style="clip-path:url(#SVGID_00000047757326450025470850000003722158098754877321_);">
		<text transform="matrix(1 0 0 1 347.7695 288.1803)" class="st11 st12 st10">0</text>
	</g>
	<g style="clip-path:url(#SVGID_00000047757326450025470850000003722158098754877321_);">
		<text transform="matrix(1 0 0 1 251.3311 298.7819)" class="st11 st12 st10">1</text>
	</g>
	<g style="clip-path:url(#SVGID_00000047757326450025470850000003722158098754877321_);">
		<text transform="matrix(1 0 0 1 299.1689 298.7819)" class="st11 st12 st10">0</text>
	</g>
	<g style="clip-path:url(#SVGID_00000047757326450025470850000003722158098754877321_);">
		<text transform="matrix(1 0 0 1 347.7695 298.7819)" class="st11 st12 st10">0</text>
	</g>
	<g style="clip-path:url(#SVGID_00000047757326450025470850000003722158098754877321_);">
		<text transform="matrix(1 0 0 1 250.5752 309.3844)" class="st11 st12 st10">0</text>
	</g>
	<g style="clip-path:url(#SVGID_00000047757326450025470850000003722158098754877321_);">
		<text transform="matrix(1 0 0 1 299.9307 309.3844)" class="st11 st12 st10">1</text>
	</g>
	<g style="clip-path:url(#SVGID_00000047757326450025470850000003722158098754877321_);">
		<text transform="matrix(1 0 0 1 347.7695 309.3844)" class="st11 st12 st10">0</text>
	</g>
	<g style="clip-path:url(#SVGID_00000047757326450025470850000003722158098754877321_);">
		<text transform="matrix(1 0 0 1 250.5752 319.986)" class="st11 st12 st10">0</text>
	</g>
	<g style="clip-path:url(#SVGID_00000047757326450025470850000003722158098754877321_);">
		<text transform="matrix(1 0 0 1 299.9307 319.986)" class="st11 st12 st10">1</text>
	</g>
	<g style="clip-path:url(#SVGID_00000047757326450025470850000003722158098754877321_);">
		<text transform="matrix(1 0 0 1 348.5312 319.986)" class="st11 st12 st10">1</text>
	</g>
	<g style="clip-path:url(#SVGID_00000047757326450025470850000003722158098754877321_);">
		<defs>
			<rect id="SVGID_00000147189926151534481420000004545722320528196541_" width="419.5" height="595.3"/>
		</defs>
		<clipPath id="SVGID_00000021098405981086057950000016958999676066939288_">
			<use xlink:href="#SVGID_00000147189926151534481420000004545722320528196541_"  style="overflow:visible;"/>
		</clipPath>
		<path style="clip-path:url(#SVGID_00000021098405981086057950000016958999676066939288_);fill:#F04E29;" d="M164.5,286.2
			c0.7,0,1.2-0.6,1.2-1.2c0-0.7-0.6-1.2-1.2-1.2s-1.2,0.6-1.2,1.2C163.2,285.6,163.8,286.2,164.5,286.2"/>
		<path style="clip-path:url(#SVGID_00000021098405981086057950000016958999676066939288_);fill:#F04E29;" d="M243.3,278.3
			c0.7,0,1.2-0.6,1.2-1.2c0-0.7-0.6-1.2-1.2-1.2s-1.2,0.6-1.2,1.2C242.1,277.7,242.6,278.3,243.3,278.3"/>
		<path style="clip-path:url(#SVGID_00000021098405981086057950000016958999676066939288_);fill:#F04E29;" d="M164.5,294.6
			c0.7,0,1.2-0.6,1.2-1.2s-0.6-1.2-1.2-1.2s-1.2,0.6-1.2,1.2S163.8,294.6,164.5,294.6"/>
		<path style="clip-path:url(#SVGID_00000021098405981086057950000016958999676066939288_);fill:#FFFF00;" d="M164.5,303.1
			c0.7,0,1.2-0.6,1.2-1.2s-0.6-1.2-1.2-1.2s-1.2,0.6-1.2,1.2S163.8,303.1,164.5,303.1"/>
		<path style="clip-path:url(#SVGID_00000021098405981086057950000016958999676066939288_);fill:#FFFF00;" d="M282.8,278.9
			c0.7,0,1.2-0.6,1.2-1.2c0-0.7-0.6-1.2-1.2-1.2s-1.2,0.6-1.2,1.2C281.5,278.3,282.1,278.9,282.8,278.9"/>
		<path style="clip-path:url(#SVGID_00000021098405981086057950000016958999676066939288_);fill:#FFFF00;" d="M164.5,320
			c0.7,0,1.2-0.6,1.2-1.2c0-0.7-0.6-1.2-1.2-1.2s-1.2,0.6-1.2,1.2C163.2,319.5,163.8,320,164.5,320"/>
		<path style="clip-path:url(#SVGID_00000021098405981086057950000016958999676066939288_);fill:#00608E;" d="M164.5,311.6
			c0.7,0,1.2-0.6,1.2-1.2c0-0.7-0.6-1.2-1.2-1.2s-1.2,0.6-1.2,1.2C163.2,311,163.8,311.6,164.5,311.6"/>
		<path style="clip-path:url(#SVGID_00000021098405981086057950000016958999676066939288_);fill:#00608E;" d="M334,278.3
			c0.7,0,1.2-0.6,1.2-1.2c0-0.7-0.6-1.2-1.2-1.2s-1.2,0.6-1.2,1.2C332.8,277.7,333.3,278.3,334,278.3"/>
	</g>
	
		<polyline style="clip-path:url(#SVGID_00000047757326450025470850000003722158098754877321_);fill:none;stroke:#8A919D;stroke-width:1.419;stroke-miterlimit:10;" points="
		218.7,293.8 221.1,297.6 218.7,301.4 	"/>
	
		<polyline style="clip-path:url(#SVGID_00000047757326450025470850000003722158098754877321_);fill:none;stroke:#8A919D;stroke-width:1.419;stroke-miterlimit:10;" points="
		215.6,293.8 217.9,297.6 215.6,301.4 	"/>
	<polygon style="clip-path:url(#SVGID_00000047757326450025470850000003722158098754877321_);fill:#00109F;" points="47.2,271.9 
		47.2,271.9 47.2,286.2 125.6,286.2 125.6,271.9 	"/>
	<g style="clip-path:url(#SVGID_00000047757326450025470850000003722158098754877321_);">
		<text transform="matrix(1 0 0 1 49.979 275.8385)"><tspan x="0" y="0" class="st8 st12 st18">Figu</tspan><tspan x="8" y="0" class="st8 st12 st18">r</tspan><tspan x="9.4" y="0" class="st8 st12 st18">e 4: </tspan></text>
	</g>
	<g style="clip-path:url(#SVGID_00000047757326450025470850000003722158098754877321_);">
		<text transform="matrix(1 0 0 1 66.9351 275.8385)" class="st8 st12 st18"> </text>
	</g>
	<g style="clip-path:url(#SVGID_00000047757326450025470850000003722158098754877321_);">
		<text transform="matrix(1 0 0 1 49.979 283.8385)"><tspan x="0" y="0" class="st8 st9 st19">On</tspan><tspan x="10.8" y="0" class="st8 st9 st19">e</tspan><tspan x="15.3" y="0" class="st8 st9 st19">-H</tspan><tspan x="24.4" y="0" class="st8 st9 st19">o</tspan><tspan x="29" y="0" class="st8 st9 st19">t En</tspan><tspan x="44" y="0" class="st8 st9 st19">c</tspan><tspan x="48.6" y="0" class="st8 st9 st19">oding</tspan></text>
	</g>
	
		<line style="clip-path:url(#SVGID_00000047757326450025470850000003722158098754877321_);fill:none;stroke:#00109F;stroke-width:0.5;" x1="125.6" y1="272.1" x2="159.3" y2="272.1"/>
</g>
</svg>
