<?xml version="1.0" encoding="utf-8"?>
<!-- Generator: Adobe Illustrator 28.0.0, SVG Export Plug-In . SVG Version: 6.00 Build 0)  -->
<svg version="1.1" id="Layer_1" xmlns="http://www.w3.org/2000/svg" xmlns:xlink="http://www.w3.org/1999/xlink" x="0px" y="0px"
	 viewBox="0 0 419.5 595.3" style="enable-background:new 0 0 419.5 595.3;" xml:space="preserve">
<style type="text/css">
	.st0{clip-path:url(#SVGID_00000046331097272744542120000008445396854082341544_);}
	.st1{opacity:0.5;clip-path:url(#SVGID_00000167359617571934180100000009769260592238279298_);}
	.st2{clip-path:url(#SVGID_00000150076261287392501410000001230544683860384177_);}
	.st3{clip-path:url(#SVGID_00000109724616726819547190000004694524951414485663_);fill:none;stroke:#B7BABB;stroke-width:0.25;}
	.st4{clip-path:url(#SVGID_00000109724616726819547190000004694524951414485663_);fill:none;stroke:#B7BABB;stroke-width:0.2;}
	.st5{clip-path:url(#SVGID_00000046331097272744542120000008445396854082341544_);fill:#8B8F91;}
	.st6{fill:#FFFFFF;}
	.st7{font-family:'Colfax-Bold';}
	.st8{font-size:5.733px;}
	.st9{clip-path:url(#SVGID_00000046331097272744542120000008445396854082341544_);fill:#B7BABB;}
	.st10{font-size:4.459px;}
	.st11{clip-path:url(#SVGID_00000046331097272744542120000008445396854082341544_);fill:#FFFFFF;}
	.st12{fill:#8B8F91;}
	.st13{font-family:'Colfax-Regular';}
	.st14{font-size:3.822px;}
	.st15{clip-path:url(#SVGID_00000046331097272744542120000008445396854082341544_);fill:none;stroke:#8B8F91;stroke-width:0.25;}
	.st16{clip-path:url(#SVGID_00000046331097272744542120000008445396854082341544_);fill:#D2D4D5;}
	.st17{clip-path:url(#SVGID_00000046331097272744542120000008445396854082341544_);fill:none;stroke:#000000;stroke-width:0.318;}
	.st18{clip-path:url(#SVGID_00000046331097272744542120000008445396854082341544_);fill:none;stroke:#FFFFFF;stroke-width:0.318;}
	
		.st19{clip-path:url(#SVGID_00000046331097272744542120000008445396854082341544_);fill:none;stroke:#8B8F91;stroke-width:0.5;stroke-linecap:round;stroke-linejoin:round;}
	
		.st20{clip-path:url(#SVGID_00000046331097272744542120000008445396854082341544_);fill:none;stroke:#8B8F91;stroke-width:0.25;stroke-linecap:round;stroke-linejoin:round;}
	.st21{clip-path:url(#SVGID_00000005263467390172515120000015644059218661415603_);fill:#FFFFFF;}
	.st22{clip-path:url(#SVGID_00000005263467390172515120000015644059218661415603_);fill:none;stroke:#B7BABB;stroke-width:0.329;}
	.st23{clip-path:url(#SVGID_00000005263467390172515120000015644059218661415603_);fill:#E0E2E3;}
	.st24{clip-path:url(#SVGID_00000005263467390172515120000015644059218661415603_);fill:none;stroke:#B7BABB;stroke-width:2.63;}
	.st25{fill:#15233A;}
	.st26{font-size:9.2825px;}
	.st27{clip-path:url(#SVGID_00000153696571437015042560000009024862290653664936_);fill:#8B8F91;}
	.st28{clip-path:url(#SVGID_00000046331097272744542120000008445396854082341544_);fill:#00109F;}
	.st29{font-size:4px;}
	.st30{font-size:8px;}
	.st31{clip-path:url(#SVGID_00000046331097272744542120000008445396854082341544_);fill:none;stroke:#00109F;stroke-width:0.5;}
</style>
<g>
	<defs>
		<rect id="SVGID_1_" width="419.5" height="595.3"/>
	</defs>
	<clipPath id="SVGID_00000051365604539527708210000004648949820275066295_">
		<use xlink:href="#SVGID_1_"  style="overflow:visible;"/>
	</clipPath>
	<g style="clip-path:url(#SVGID_00000051365604539527708210000004648949820275066295_);">
		<defs>
			<rect id="SVGID_00000031197119318193651330000004230525169515594887_" width="419.5" height="595.3"/>
		</defs>
		<clipPath id="SVGID_00000143613910245695598150000010955609793873372041_">
			<use xlink:href="#SVGID_00000031197119318193651330000004230525169515594887_"  style="overflow:visible;"/>
		</clipPath>
		<g style="opacity:0.5;clip-path:url(#SVGID_00000143613910245695598150000010955609793873372041_);">
			<g>
				<defs>
					<rect id="SVGID_00000110430511509272502070000006148523704491243150_" x="51" y="244.3" width="343" height="111.5"/>
				</defs>
				<clipPath id="SVGID_00000112611542618807179950000018027028937552065197_">
					<use xlink:href="#SVGID_00000110430511509272502070000006148523704491243150_"  style="overflow:visible;"/>
				</clipPath>
				<g style="clip-path:url(#SVGID_00000112611542618807179950000018027028937552065197_);">
					<defs>
						<polygon id="SVGID_00000150800216507886401170000001632293784275039924_" points="60,251.3 60,251.3 60,354.8 385,354.8 
							385,251.3 						"/>
					</defs>
					<clipPath id="SVGID_00000098901127495888647250000010288646473839368596_">
						<use xlink:href="#SVGID_00000150800216507886401170000001632293784275039924_"  style="overflow:visible;"/>
					</clipPath>
					
						<line style="clip-path:url(#SVGID_00000098901127495888647250000010288646473839368596_);fill:none;stroke:#B7BABB;stroke-width:0.25;" x1="385.5" y1="102.5" x2="385.5" y2="428.5"/>
					
						<line style="clip-path:url(#SVGID_00000098901127495888647250000010288646473839368596_);fill:none;stroke:#B7BABB;stroke-width:0.25;" x1="378.4" y1="102.5" x2="378.4" y2="428.5"/>
					
						<line style="clip-path:url(#SVGID_00000098901127495888647250000010288646473839368596_);fill:none;stroke:#B7BABB;stroke-width:0.25;" x1="371.3" y1="102.5" x2="371.3" y2="428.5"/>
					
						<line style="clip-path:url(#SVGID_00000098901127495888647250000010288646473839368596_);fill:none;stroke:#B7BABB;stroke-width:0.25;" x1="364.3" y1="102.5" x2="364.3" y2="428.5"/>
					
						<line style="clip-path:url(#SVGID_00000098901127495888647250000010288646473839368596_);fill:none;stroke:#B7BABB;stroke-width:0.25;" x1="357.2" y1="102.5" x2="357.2" y2="428.5"/>
					
						<line style="clip-path:url(#SVGID_00000098901127495888647250000010288646473839368596_);fill:none;stroke:#B7BABB;stroke-width:0.25;" x1="350.1" y1="102.5" x2="350.1" y2="428.5"/>
					
						<line style="clip-path:url(#SVGID_00000098901127495888647250000010288646473839368596_);fill:none;stroke:#B7BABB;stroke-width:0.25;" x1="343" y1="102.5" x2="343" y2="428.5"/>
					
						<line style="clip-path:url(#SVGID_00000098901127495888647250000010288646473839368596_);fill:none;stroke:#B7BABB;stroke-width:0.25;" x1="335.9" y1="102.5" x2="335.9" y2="428.5"/>
					
						<line style="clip-path:url(#SVGID_00000098901127495888647250000010288646473839368596_);fill:none;stroke:#B7BABB;stroke-width:0.25;" x1="328.8" y1="102.5" x2="328.8" y2="428.5"/>
					
						<line style="clip-path:url(#SVGID_00000098901127495888647250000010288646473839368596_);fill:none;stroke:#B7BABB;stroke-width:0.25;" x1="321.7" y1="102.5" x2="321.7" y2="428.5"/>
					
						<line style="clip-path:url(#SVGID_00000098901127495888647250000010288646473839368596_);fill:none;stroke:#B7BABB;stroke-width:0.25;" x1="314.6" y1="102.5" x2="314.6" y2="428.5"/>
					
						<line style="clip-path:url(#SVGID_00000098901127495888647250000010288646473839368596_);fill:none;stroke:#B7BABB;stroke-width:0.25;" x1="307.6" y1="102.5" x2="307.6" y2="428.5"/>
					
						<line style="clip-path:url(#SVGID_00000098901127495888647250000010288646473839368596_);fill:none;stroke:#B7BABB;stroke-width:0.25;" x1="300.5" y1="102.5" x2="300.5" y2="428.5"/>
					
						<line style="clip-path:url(#SVGID_00000098901127495888647250000010288646473839368596_);fill:none;stroke:#B7BABB;stroke-width:0.25;" x1="293.4" y1="102.5" x2="293.4" y2="428.5"/>
					
						<line style="clip-path:url(#SVGID_00000098901127495888647250000010288646473839368596_);fill:none;stroke:#B7BABB;stroke-width:0.25;" x1="286.3" y1="102.5" x2="286.3" y2="428.5"/>
					
						<line style="clip-path:url(#SVGID_00000098901127495888647250000010288646473839368596_);fill:none;stroke:#B7BABB;stroke-width:0.25;" x1="279.2" y1="102.5" x2="279.2" y2="428.5"/>
					
						<line style="clip-path:url(#SVGID_00000098901127495888647250000010288646473839368596_);fill:none;stroke:#B7BABB;stroke-width:0.25;" x1="272.1" y1="102.5" x2="272.1" y2="428.5"/>
					
						<line style="clip-path:url(#SVGID_00000098901127495888647250000010288646473839368596_);fill:none;stroke:#B7BABB;stroke-width:0.25;" x1="265" y1="102.5" x2="265" y2="428.5"/>
					
						<line style="clip-path:url(#SVGID_00000098901127495888647250000010288646473839368596_);fill:none;stroke:#B7BABB;stroke-width:0.25;" x1="258" y1="102.5" x2="258" y2="428.5"/>
					
						<line style="clip-path:url(#SVGID_00000098901127495888647250000010288646473839368596_);fill:none;stroke:#B7BABB;stroke-width:0.25;" x1="250.9" y1="102.5" x2="250.9" y2="428.5"/>
					
						<line style="clip-path:url(#SVGID_00000098901127495888647250000010288646473839368596_);fill:none;stroke:#B7BABB;stroke-width:0.25;" x1="243.8" y1="102.5" x2="243.8" y2="428.5"/>
					
						<line style="clip-path:url(#SVGID_00000098901127495888647250000010288646473839368596_);fill:none;stroke:#B7BABB;stroke-width:0.25;" x1="236.7" y1="102.5" x2="236.7" y2="428.5"/>
					
						<line style="clip-path:url(#SVGID_00000098901127495888647250000010288646473839368596_);fill:none;stroke:#B7BABB;stroke-width:0.25;" x1="229.6" y1="102.5" x2="229.6" y2="428.5"/>
					
						<line style="clip-path:url(#SVGID_00000098901127495888647250000010288646473839368596_);fill:none;stroke:#B7BABB;stroke-width:0.25;" x1="222.5" y1="102.5" x2="222.5" y2="428.5"/>
					
						<line style="clip-path:url(#SVGID_00000098901127495888647250000010288646473839368596_);fill:none;stroke:#B7BABB;stroke-width:0.25;" x1="215.4" y1="102.5" x2="215.4" y2="428.5"/>
					
						<line style="clip-path:url(#SVGID_00000098901127495888647250000010288646473839368596_);fill:none;stroke:#B7BABB;stroke-width:0.25;" x1="208.3" y1="102.5" x2="208.3" y2="428.5"/>
					
						<line style="clip-path:url(#SVGID_00000098901127495888647250000010288646473839368596_);fill:none;stroke:#B7BABB;stroke-width:0.25;" x1="201.3" y1="102.5" x2="201.3" y2="428.5"/>
					
						<line style="clip-path:url(#SVGID_00000098901127495888647250000010288646473839368596_);fill:none;stroke:#B7BABB;stroke-width:0.25;" x1="194.2" y1="102.5" x2="194.2" y2="428.5"/>
					
						<line style="clip-path:url(#SVGID_00000098901127495888647250000010288646473839368596_);fill:none;stroke:#B7BABB;stroke-width:0.25;" x1="187.1" y1="102.5" x2="187.1" y2="428.5"/>
					
						<line style="clip-path:url(#SVGID_00000098901127495888647250000010288646473839368596_);fill:none;stroke:#B7BABB;stroke-width:0.25;" x1="180" y1="102.5" x2="180" y2="428.5"/>
					
						<line style="clip-path:url(#SVGID_00000098901127495888647250000010288646473839368596_);fill:none;stroke:#B7BABB;stroke-width:0.25;" x1="172.9" y1="102.5" x2="172.9" y2="428.5"/>
					
						<line style="clip-path:url(#SVGID_00000098901127495888647250000010288646473839368596_);fill:none;stroke:#B7BABB;stroke-width:0.25;" x1="165.8" y1="102.5" x2="165.8" y2="428.5"/>
					
						<line style="clip-path:url(#SVGID_00000098901127495888647250000010288646473839368596_);fill:none;stroke:#B7BABB;stroke-width:0.25;" x1="158.7" y1="102.5" x2="158.7" y2="428.5"/>
					
						<line style="clip-path:url(#SVGID_00000098901127495888647250000010288646473839368596_);fill:none;stroke:#B7BABB;stroke-width:0.25;" x1="151.7" y1="102.5" x2="151.7" y2="428.5"/>
					
						<line style="clip-path:url(#SVGID_00000098901127495888647250000010288646473839368596_);fill:none;stroke:#B7BABB;stroke-width:0.25;" x1="144.6" y1="102.5" x2="144.6" y2="428.5"/>
					
						<line style="clip-path:url(#SVGID_00000098901127495888647250000010288646473839368596_);fill:none;stroke:#B7BABB;stroke-width:0.25;" x1="137.5" y1="102.5" x2="137.5" y2="428.5"/>
					
						<line style="clip-path:url(#SVGID_00000098901127495888647250000010288646473839368596_);fill:none;stroke:#B7BABB;stroke-width:0.25;" x1="130.4" y1="102.5" x2="130.4" y2="428.5"/>
					
						<line style="clip-path:url(#SVGID_00000098901127495888647250000010288646473839368596_);fill:none;stroke:#B7BABB;stroke-width:0.25;" x1="123.3" y1="102.5" x2="123.3" y2="428.5"/>
					
						<line style="clip-path:url(#SVGID_00000098901127495888647250000010288646473839368596_);fill:none;stroke:#B7BABB;stroke-width:0.25;" x1="116.2" y1="102.5" x2="116.2" y2="428.5"/>
					
						<line style="clip-path:url(#SVGID_00000098901127495888647250000010288646473839368596_);fill:none;stroke:#B7BABB;stroke-width:0.25;" x1="109.1" y1="102.5" x2="109.1" y2="428.5"/>
					
						<line style="clip-path:url(#SVGID_00000098901127495888647250000010288646473839368596_);fill:none;stroke:#B7BABB;stroke-width:0.25;" x1="102" y1="102.5" x2="102" y2="428.5"/>
					
						<line style="clip-path:url(#SVGID_00000098901127495888647250000010288646473839368596_);fill:none;stroke:#B7BABB;stroke-width:0.25;" x1="95" y1="102.5" x2="95" y2="428.5"/>
					
						<line style="clip-path:url(#SVGID_00000098901127495888647250000010288646473839368596_);fill:none;stroke:#B7BABB;stroke-width:0.25;" x1="87.9" y1="102.5" x2="87.9" y2="428.5"/>
					
						<line style="clip-path:url(#SVGID_00000098901127495888647250000010288646473839368596_);fill:none;stroke:#B7BABB;stroke-width:0.25;" x1="80.8" y1="102.5" x2="80.8" y2="428.5"/>
					
						<line style="clip-path:url(#SVGID_00000098901127495888647250000010288646473839368596_);fill:none;stroke:#B7BABB;stroke-width:0.25;" x1="73.7" y1="102.5" x2="73.7" y2="428.5"/>
					
						<line style="clip-path:url(#SVGID_00000098901127495888647250000010288646473839368596_);fill:none;stroke:#B7BABB;stroke-width:0.25;" x1="66.6" y1="102.5" x2="66.6" y2="428.5"/>
					
						<line style="clip-path:url(#SVGID_00000098901127495888647250000010288646473839368596_);fill:none;stroke:#B7BABB;stroke-width:0.25;" x1="59.5" y1="102.5" x2="59.5" y2="428.5"/>
					
						<line style="clip-path:url(#SVGID_00000098901127495888647250000010288646473839368596_);fill:none;stroke:#B7BABB;stroke-width:0.2;" x1="385.4" y1="350.7" x2="59.4" y2="350.7"/>
					
						<line style="clip-path:url(#SVGID_00000098901127495888647250000010288646473839368596_);fill:none;stroke:#B7BABB;stroke-width:0.2;" x1="385.4" y1="343.6" x2="59.4" y2="343.6"/>
					
						<line style="clip-path:url(#SVGID_00000098901127495888647250000010288646473839368596_);fill:none;stroke:#B7BABB;stroke-width:0.2;" x1="385.4" y1="336.5" x2="59.4" y2="336.5"/>
					
						<line style="clip-path:url(#SVGID_00000098901127495888647250000010288646473839368596_);fill:none;stroke:#B7BABB;stroke-width:0.2;" x1="385.4" y1="329.4" x2="59.4" y2="329.4"/>
					
						<line style="clip-path:url(#SVGID_00000098901127495888647250000010288646473839368596_);fill:none;stroke:#B7BABB;stroke-width:0.2;" x1="385.4" y1="322.3" x2="59.4" y2="322.3"/>
					
						<line style="clip-path:url(#SVGID_00000098901127495888647250000010288646473839368596_);fill:none;stroke:#B7BABB;stroke-width:0.2;" x1="385.4" y1="315.2" x2="59.4" y2="315.2"/>
					
						<line style="clip-path:url(#SVGID_00000098901127495888647250000010288646473839368596_);fill:none;stroke:#B7BABB;stroke-width:0.2;" x1="385.4" y1="308.1" x2="59.4" y2="308.1"/>
					
						<line style="clip-path:url(#SVGID_00000098901127495888647250000010288646473839368596_);fill:none;stroke:#B7BABB;stroke-width:0.2;" x1="385.4" y1="301.1" x2="59.4" y2="301.1"/>
					
						<line style="clip-path:url(#SVGID_00000098901127495888647250000010288646473839368596_);fill:none;stroke:#B7BABB;stroke-width:0.2;" x1="385.4" y1="294" x2="59.4" y2="294"/>
					
						<line style="clip-path:url(#SVGID_00000098901127495888647250000010288646473839368596_);fill:none;stroke:#B7BABB;stroke-width:0.2;" x1="385.4" y1="286.9" x2="59.4" y2="286.9"/>
					
						<line style="clip-path:url(#SVGID_00000098901127495888647250000010288646473839368596_);fill:none;stroke:#B7BABB;stroke-width:0.2;" x1="385.4" y1="279.8" x2="59.4" y2="279.8"/>
					
						<line style="clip-path:url(#SVGID_00000098901127495888647250000010288646473839368596_);fill:none;stroke:#B7BABB;stroke-width:0.2;" x1="385.4" y1="272.7" x2="59.4" y2="272.7"/>
					
						<line style="clip-path:url(#SVGID_00000098901127495888647250000010288646473839368596_);fill:none;stroke:#B7BABB;stroke-width:0.2;" x1="385.4" y1="265.6" x2="59.4" y2="265.6"/>
					
						<line style="clip-path:url(#SVGID_00000098901127495888647250000010288646473839368596_);fill:none;stroke:#B7BABB;stroke-width:0.2;" x1="385.4" y1="258.5" x2="59.4" y2="258.5"/>
					
						<line style="clip-path:url(#SVGID_00000098901127495888647250000010288646473839368596_);fill:none;stroke:#B7BABB;stroke-width:0.2;" x1="385.4" y1="251.4" x2="59.4" y2="251.4"/>
				</g>
			</g>
		</g>
	</g>
	<polygon style="clip-path:url(#SVGID_00000051365604539527708210000004648949820275066295_);fill:#8B8F91;" points="255.3,290.8 
		255.3,300.3 291.2,300.3 293.1,298.4 293.1,290.8 	"/>
	<g style="clip-path:url(#SVGID_00000051365604539527708210000004648949820275066295_);">
		<text transform="matrix(1 0 0 1 257.1797 296.3341)"><tspan x="0" y="0" class="st6 st7 st8">S</tspan><tspan x="3.7" y="0" class="st6 st7 st8">to</tspan><tspan x="9.4" y="0" class="st6 st7 st8">r</tspan><tspan x="11.5" y="0" class="st6 st7 st8">age</tspan></text>
	</g>
	<polygon style="clip-path:url(#SVGID_00000051365604539527708210000004648949820275066295_);fill:#8B8F91;" points="255.3,267.6 
		255.3,277.2 291.2,277.2 293.1,275.3 293.1,267.6 	"/>
	<g style="clip-path:url(#SVGID_00000051365604539527708210000004648949820275066295_);">
		<text transform="matrix(1 0 0 1 257.3223 273.2062)"><tspan x="0" y="0" class="st6 st7 st8">Pl</tspan><tspan x="5.5" y="0" class="st6 st7 st8">a</tspan><tspan x="8.9" y="0" class="st6 st7 st8">t</tspan><tspan x="11.2" y="0" class="st6 st7 st8">f</tspan><tspan x="13.3" y="0" class="st6 st7 st8">orms</tspan></text>
	</g>
	<polygon style="clip-path:url(#SVGID_00000051365604539527708210000004648949820275066295_);fill:#B7BABB;" points="302.6,280 
		302.6,288.2 331.2,288.2 333.2,286.3 333.2,280 	"/>
	<g style="clip-path:url(#SVGID_00000051365604539527708210000004648949820275066295_);">
		<text transform="matrix(1 0 0 1 304.7441 285.775)"><tspan x="0" y="0" class="st6 st7 st10">D</tspan><tspan x="3.2" y="0" class="st6 st7 st10">a</tspan><tspan x="5.8" y="0" class="st6 st7 st10">ta</tspan><tspan x="10.3" y="0" class="st6 st7 st10">b</tspan><tspan x="13" y="0" class="st6 st7 st10">ase</tspan></text>
	</g>
	<polygon style="clip-path:url(#SVGID_00000051365604539527708210000004648949820275066295_);fill:#FFFFFF;" points="48.8,296.2 
		48.8,308 78.4,308 80.3,306.1 80.3,296.2 	"/>
	<g style="clip-path:url(#SVGID_00000051365604539527708210000004648949820275066295_);">
		<text transform="matrix(1 0 0 1 51.0034 301.2682)"><tspan x="0" y="0" class="st12 st13 st14">G</tspan><tspan x="2.7" y="0" class="st12 st13 st14">r</tspan><tspan x="4" y="0" class="st12 st13 st14">ouped </tspan></text>
	</g>
	<g style="clip-path:url(#SVGID_00000051365604539527708210000004648949820275066295_);">
		<text transform="matrix(1 0 0 1 67.0249 301.2682)" class="st12 st13 st14"> </text>
	</g>
	<g style="clip-path:url(#SVGID_00000051365604539527708210000004648949820275066295_);">
		<text transform="matrix(1 0 0 1 50.207 305.8541)"><tspan x="0" y="0" class="st12 st13 st14"> d</tspan><tspan x="3.2" y="0" class="st12 st13 st14">a</tspan><tspan x="5.4" y="0" class="st12 st13 st14">t</tspan><tspan x="6.8" y="0" class="st12 st13 st14">a sou</tspan><tspan x="16.3" y="0" class="st12 st13 st14">r</tspan><tspan x="17.6" y="0" class="st12 st13 st14">ces</tspan></text>
	</g>
	
		<polygon style="clip-path:url(#SVGID_00000051365604539527708210000004648949820275066295_);fill:none;stroke:#8B8F91;stroke-width:0.25;" points="
		48.8,296.2 48.8,308 78.4,308 80.3,306.1 80.3,296.2 	"/>
	<polygon style="clip-path:url(#SVGID_00000051365604539527708210000004648949820275066295_);fill:#FFFFFF;" points="49,266.7 
		49,273.6 78.7,273.6 80.6,271.6 80.6,266.7 	"/>
	<g style="clip-path:url(#SVGID_00000051365604539527708210000004648949820275066295_);">
		<text transform="matrix(1 0 0 1 51.1064 271.5729)"><tspan x="0" y="0" class="st12 st13 st14">1 d</tspan><tspan x="4.5" y="0" class="st12 st13 st14">a</tspan><tspan x="6.7" y="0" class="st12 st13 st14">t</tspan><tspan x="8.1" y="0" class="st12 st13 st14">a sou</tspan><tspan x="17.7" y="0" class="st12 st13 st14">r</tspan><tspan x="19" y="0" class="st12 st13 st14">ce</tspan></text>
	</g>
	
		<polygon style="clip-path:url(#SVGID_00000051365604539527708210000004648949820275066295_);fill:none;stroke:#8B8F91;stroke-width:0.25;" points="
		49,266.7 49,273.6 78.7,273.6 80.6,271.6 80.6,266.7 	"/>
	<polygon style="clip-path:url(#SVGID_00000051365604539527708210000004648949820275066295_);fill:#FFFFFF;" points="341.6,285.2 
		341.6,292 369.3,292 371.2,290.1 371.2,285.2 	"/>
	<g style="clip-path:url(#SVGID_00000051365604539527708210000004648949820275066295_);">
		<text transform="matrix(1 0 0 1 343.7998 289.463)" class="st12 st13 st14">No SQL</text>
	</g>
	
		<polygon style="clip-path:url(#SVGID_00000051365604539527708210000004648949820275066295_);fill:none;stroke:#8B8F91;stroke-width:0.25;" points="
		341.6,285.2 341.6,292 369.3,292 371.2,290.1 371.2,285.2 	"/>
	<polygon style="clip-path:url(#SVGID_00000051365604539527708210000004648949820275066295_);fill:#D2D4D5;" points="89,341.1 
		89,349.8 127.2,349.8 129.1,347.9 129.1,341.1 	"/>
	<g style="clip-path:url(#SVGID_00000051365604539527708210000004648949820275066295_);">
		<text transform="matrix(1 0 0 1 91.1387 347.1461)"><tspan x="0" y="0" class="st12 st7 st10">Su</tspan><tspan x="5.4" y="0" class="st12 st7 st10">b</tspan><tspan x="8" y="0" class="st12 st7 st10">topi</tspan><tspan x="16.1" y="0" class="st12 st7 st10">c</tspan></text>
	</g>
	<polygon style="clip-path:url(#SVGID_00000051365604539527708210000004648949820275066295_);fill:#FFFFFF;" points="48.8,278 
		48.8,284.9 78.4,284.9 80.3,283 80.3,278 	"/>
	<g style="clip-path:url(#SVGID_00000051365604539527708210000004648949820275066295_);">
		<text transform="matrix(1 0 0 1 51.0557 282.8932)"><tspan x="0" y="0" class="st12 st13 st14">P</tspan><tspan x="2.4" y="0" class="st12 st13 st14">eriodici</tspan><tspan x="15.3" y="0" class="st12 st13 st14">t</tspan><tspan x="16.8" y="0" class="st12 st13 st14">y</tspan></text>
	</g>
	
		<polygon style="clip-path:url(#SVGID_00000051365604539527708210000004648949820275066295_);fill:none;stroke:#8B8F91;stroke-width:0.25;" points="
		48.8,278 48.8,284.9 78.4,284.9 80.3,283 80.3,278 	"/>
	<polygon style="clip-path:url(#SVGID_00000051365604539527708210000004648949820275066295_);fill:#FFFFFF;" points="48.8,287.3 
		48.8,294.2 78.4,294.2 80.3,292.3 80.3,287.3 	"/>
	<g style="clip-path:url(#SVGID_00000051365604539527708210000004648949820275066295_);">
		<text transform="matrix(1 0 0 1 51.0068 292.1935)"><tspan x="0" y="0" class="st12 st13 st14">Si</tspan><tspan x="3.4" y="0" class="st12 st13 st14">z</tspan><tspan x="5.3" y="0" class="st12 st13 st14">e</tspan></text>
	</g>
	
		<polygon style="clip-path:url(#SVGID_00000051365604539527708210000004648949820275066295_);fill:none;stroke:#8B8F91;stroke-width:0.25;" points="
		48.8,287.3 48.8,294.2 78.4,294.2 80.3,292.3 80.3,287.3 	"/>
	<polygon style="clip-path:url(#SVGID_00000051365604539527708210000004648949820275066295_);fill:#FFFFFF;" points="341.6,305.9 
		341.6,312.8 369.3,312.8 371.2,310.9 371.2,305.9 	"/>
	<g style="clip-path:url(#SVGID_00000051365604539527708210000004648949820275066295_);">
		<text transform="matrix(1 0 0 1 343.666 310.2037)"><tspan x="0" y="0" class="st12 st13 st14">on-p</tspan><tspan x="8.3" y="0" class="st12 st13 st14">r</tspan><tspan x="9.6" y="0" class="st12 st13 st14">emises</tspan></text>
	</g>
	
		<polygon style="clip-path:url(#SVGID_00000051365604539527708210000004648949820275066295_);fill:none;stroke:#8B8F91;stroke-width:0.25;" points="
		341.6,305.9 341.6,312.8 369.3,312.8 371.2,310.9 371.2,305.9 	"/>
	<polygon style="clip-path:url(#SVGID_00000051365604539527708210000004648949820275066295_);fill:#FFFFFF;" points="341.6,315 
		341.6,321.8 369.3,321.8 371.2,319.9 371.2,315 	"/>
	<g style="clip-path:url(#SVGID_00000051365604539527708210000004648949820275066295_);">
		<text transform="matrix(1 0 0 1 343.7471 319.2164)" class="st12 st13 st14">Cloud</text>
	</g>
	
		<polygon style="clip-path:url(#SVGID_00000051365604539527708210000004648949820275066295_);fill:none;stroke:#8B8F91;stroke-width:0.25;" points="
		341.6,315 341.6,321.8 369.3,321.8 371.2,319.9 371.2,315 	"/>
	<polygon style="clip-path:url(#SVGID_00000051365604539527708210000004648949820275066295_);fill:#FFFFFF;" points="48.8,257.7 
		48.8,264.5 78.5,264.5 80.4,262.6 80.4,257.7 	"/>
	<g style="clip-path:url(#SVGID_00000051365604539527708210000004648949820275066295_);">
		<text transform="matrix(1 0 0 1 51.0898 262.5553)"><tspan x="0" y="0" class="st12 st13 st14">Mic</tspan><tspan x="5.5" y="0" class="st12 st13 st14">r</tspan><tspan x="6.7" y="0" class="st12 st13 st14">o </tspan><tspan x="9.4" y="0" class="st12 st13 st14">Ba</tspan><tspan x="13.7" y="0" class="st12 st13 st14">t</tspan><tspan x="14.9" y="0" class="st12 st13 st14">chin</tspan><tspan x="21.8" y="0" class="st12 st13 st14">g</tspan></text>
	</g>
	
		<polygon style="clip-path:url(#SVGID_00000051365604539527708210000004648949820275066295_);fill:none;stroke:#8B8F91;stroke-width:0.25;" points="
		48.8,257.7 48.8,264.5 78.5,264.5 80.4,262.6 80.4,257.7 	"/>
	<polygon style="clip-path:url(#SVGID_00000051365604539527708210000004648949820275066295_);fill:#FFFFFF;" points="341.6,276.2 
		341.6,283 369.3,283 371.2,281.1 371.2,276.2 	"/>
	<g style="clip-path:url(#SVGID_00000051365604539527708210000004648949820275066295_);">
		<text transform="matrix(1 0 0 1 343.75 280.4498)"><tspan x="0" y="0" class="st12 st13 st14">SQ</tspan><tspan x="4.9" y="0" class="st12 st13 st14">L</tspan></text>
	</g>
	
		<polygon style="clip-path:url(#SVGID_00000051365604539527708210000004648949820275066295_);fill:none;stroke:#8B8F91;stroke-width:0.25;" points="
		341.6,276.2 341.6,283 369.3,283 371.2,281.1 371.2,276.2 	"/>
	<polygon style="clip-path:url(#SVGID_00000051365604539527708210000004648949820275066295_);fill:#8B8F91;" points="138.1,267.6 
		138.1,277.2 177.6,277.2 179.5,275.3 179.5,267.6 	"/>
	<g style="clip-path:url(#SVGID_00000051365604539527708210000004648949820275066295_);">
		<text transform="matrix(1 0 0 1 140.4365 274.5602)"><tspan x="0" y="0" class="st6 st7 st8">A</tspan><tspan x="4" y="0" class="st6 st7 st8">c</tspan><tspan x="7.3" y="0" class="st6 st7 st8">quisition</tspan></text>
	</g>
	<polygon style="clip-path:url(#SVGID_00000051365604539527708210000004648949820275066295_);fill:#8B8F91;" points="138.1,290.8 
		138.1,300.3 177.6,300.3 179.5,298.4 179.5,290.8 	"/>
	<g style="clip-path:url(#SVGID_00000051365604539527708210000004648949820275066295_);">
		<text transform="matrix(1 0 0 1 140.6978 297.6876)"><tspan x="0" y="0" class="st6 st7 st8">Colle</tspan><tspan x="14.1" y="0" class="st6 st7 st8">c</tspan><tspan x="17.4" y="0" class="st6 st7 st8">tion</tspan></text>
	</g>
	
		<path style="clip-path:url(#SVGID_00000051365604539527708210000004648949820275066295_);fill:none;stroke:#000000;stroke-width:0.318;" d="
		M315.5,277.4"/>
	
		<path style="clip-path:url(#SVGID_00000051365604539527708210000004648949820275066295_);fill:none;stroke:#FFFFFF;stroke-width:0.318;" d="
		M334.1,277.4"/>
	<polygon style="clip-path:url(#SVGID_00000051365604539527708210000004648949820275066295_);fill:#B7BABB;" points="302.6,309.7 
		302.6,318 331.2,318 333.2,316.1 333.2,309.7 	"/>
	<g style="clip-path:url(#SVGID_00000051365604539527708210000004648949820275066295_);">
		<text transform="matrix(1 0 0 1 304.7432 315.528)"><tspan x="0" y="0" class="st6 st7 st10">L</tspan><tspan x="2.6" y="0" class="st6 st7 st10">ocal</tspan></text>
	</g>
	<polygon style="clip-path:url(#SVGID_00000051365604539527708210000004648949820275066295_);fill:#B7BABB;" points="302.6,326.5 
		302.6,334.7 331.2,334.7 333.2,332.8 333.2,326.5 	"/>
	<g style="clip-path:url(#SVGID_00000051365604539527708210000004648949820275066295_);">
		<text transform="matrix(1 0 0 1 304.7441 332.275)"><tspan x="0" y="0" class="st6 st7 st10">D</tspan><tspan x="3.2" y="0" class="st6 st7 st10">a</tspan><tspan x="5.8" y="0" class="st6 st7 st10">ta La</tspan><tspan x="16.6" y="0" class="st6 st7 st10">k</tspan><tspan x="19.1" y="0" class="st6 st7 st10">e</tspan></text>
	</g>
	
		<polyline style="clip-path:url(#SVGID_00000051365604539527708210000004648949820275066295_);fill:none;stroke:#8B8F91;stroke-width:0.5;stroke-linecap:round;stroke-linejoin:round;" points="
		301.4,330.7 283.5,330.7 283.5,300.5 	"/>
	
		<polyline style="clip-path:url(#SVGID_00000051365604539527708210000004648949820275066295_);fill:none;stroke:#8B8F91;stroke-width:0.5;stroke-linecap:round;stroke-linejoin:round;" points="
		301.4,313.5 287.8,313.5 287.8,300.5 	"/>
	
		<polyline style="clip-path:url(#SVGID_00000051365604539527708210000004648949820275066295_);fill:none;stroke:#8B8F91;stroke-width:0.5;stroke-linecap:round;stroke-linejoin:round;" points="
		301.4,285.4 287.8,285.4 287.8,291.4 	"/>
	
		<polyline style="clip-path:url(#SVGID_00000051365604539527708210000004648949820275066295_);fill:none;stroke:#8B8F91;stroke-width:0.25;stroke-linecap:round;stroke-linejoin:round;" points="
		138.1,271.2 128.6,271.2 128.6,265.2 124.4,265.2 	"/>
	
		<polyline style="clip-path:url(#SVGID_00000051365604539527708210000004648949820275066295_);fill:none;stroke:#8B8F91;stroke-width:0.25;stroke-linecap:round;stroke-linejoin:round;" points="
		190.2,282.8 181.5,282.8 181.5,272.7 179.6,272.7 	"/>
	
		<polyline style="clip-path:url(#SVGID_00000051365604539527708210000004648949820275066295_);fill:none;stroke:#8B8F91;stroke-width:0.25;stroke-linecap:round;stroke-linejoin:round;" points="
		236,282.8 252.8,282.8 252.8,272.7 255.1,272.7 	"/>
	
		<polyline style="clip-path:url(#SVGID_00000051365604539527708210000004648949820275066295_);fill:none;stroke:#8B8F91;stroke-width:0.25;stroke-linecap:round;stroke-linejoin:round;" points="
		190.2,288.9 181.5,288.9 181.5,295.7 179.6,295.7 	"/>
	
		<polyline style="clip-path:url(#SVGID_00000051365604539527708210000004648949820275066295_);fill:none;stroke:#8B8F91;stroke-width:0.25;stroke-linecap:round;stroke-linejoin:round;" points="
		241.5,288.9 252.8,288.9 252.8,295.7 255.1,295.7 	"/>
	
		<polyline style="clip-path:url(#SVGID_00000051365604539527708210000004648949820275066295_);fill:none;stroke:#8B8F91;stroke-width:0.25;stroke-linecap:round;stroke-linejoin:round;" points="
		138.1,274.8 128.6,274.8 128.6,280.1 123.3,280.1 	"/>
	
		<polyline style="clip-path:url(#SVGID_00000051365604539527708210000004648949820275066295_);fill:none;stroke:#8B8F91;stroke-width:0.25;stroke-linecap:round;stroke-linejoin:round;" points="
		138.1,297.9 131.4,297.9 131.4,307.6 129.1,307.6 	"/>
	
		<polyline style="clip-path:url(#SVGID_00000051365604539527708210000004648949820275066295_);fill:none;stroke:#8B8F91;stroke-width:0.25;stroke-linecap:round;stroke-linejoin:round;" points="
		89,268.1 82.6,268.1 82.6,270 80.6,270 	"/>
	
		<polyline style="clip-path:url(#SVGID_00000051365604539527708210000004648949820275066295_);fill:none;stroke:#8B8F91;stroke-width:0.25;stroke-linecap:round;stroke-linejoin:round;" points="
		89,282.3 85.2,282.3 85.2,301.7 80.5,301.7 	"/>
	
		<polyline style="clip-path:url(#SVGID_00000051365604539527708210000004648949820275066295_);fill:none;stroke:#8B8F91;stroke-width:0.25;stroke-linecap:round;stroke-linejoin:round;" points="
		89,281.2 83.8,281.2 83.8,289.6 80.5,289.6 	"/>
	
		<polyline style="clip-path:url(#SVGID_00000051365604539527708210000004648949820275066295_);fill:none;stroke:#8B8F91;stroke-width:0.25;stroke-linecap:round;stroke-linejoin:round;" points="
		333.2,315.4 335.5,315.4 335.5,318.6 341.4,318.6 	"/>
	
		<polyline style="clip-path:url(#SVGID_00000051365604539527708210000004648949820275066295_);fill:none;stroke:#8B8F91;stroke-width:0.25;stroke-linecap:round;stroke-linejoin:round;" points="
		333.2,285.3 335.5,285.3 335.5,288.5 341.4,288.5 	"/>
	
		<polyline style="clip-path:url(#SVGID_00000051365604539527708210000004648949820275066295_);fill:none;stroke:#8B8F91;stroke-width:0.25;stroke-linecap:round;stroke-linejoin:round;" points="
		333.2,312.7 335.5,312.7 335.5,309.8 341.4,309.8 	"/>
	
		<polyline style="clip-path:url(#SVGID_00000051365604539527708210000004648949820275066295_);fill:none;stroke:#8B8F91;stroke-width:0.25;stroke-linecap:round;stroke-linejoin:round;" points="
		333.2,282.6 335.5,282.6 335.5,279.7 341.4,279.7 	"/>
	
		<polyline style="clip-path:url(#SVGID_00000051365604539527708210000004648949820275066295_);fill:none;stroke:#8B8F91;stroke-width:0.25;stroke-linecap:round;stroke-linejoin:round;" points="
		89,264.3 82.6,264.3 82.6,260.9 80.6,260.9 	"/>
	
		<line style="clip-path:url(#SVGID_00000051365604539527708210000004648949820275066295_);fill:none;stroke:#8B8F91;stroke-width:0.25;stroke-linecap:round;stroke-linejoin:round;" x1="138.1" y1="295.7" x2="129.1" y2="295.7"/>
	
		<polyline style="clip-path:url(#SVGID_00000051365604539527708210000004648949820275066295_);fill:none;stroke:#8B8F91;stroke-width:0.25;stroke-linecap:round;stroke-linejoin:round;" points="
		152.5,300.3 152.5,345.2 129.1,345.2 	"/>
	
		<polyline style="clip-path:url(#SVGID_00000051365604539527708210000004648949820275066295_);fill:none;stroke:#8B8F91;stroke-width:0.25;stroke-linecap:round;stroke-linejoin:round;" points="
		146.7,300.1 146.7,332.5 129,332.5 	"/>
	
		<polyline style="clip-path:url(#SVGID_00000051365604539527708210000004648949820275066295_);fill:none;stroke:#8B8F91;stroke-width:0.25;stroke-linecap:round;stroke-linejoin:round;" points="
		140.9,300.3 140.9,319.9 127.3,319.9 	"/>
	
		<line style="clip-path:url(#SVGID_00000051365604539527708210000004648949820275066295_);fill:none;stroke:#8B8F91;stroke-width:0.25;stroke-linecap:round;stroke-linejoin:round;" x1="89" y1="280.1" x2="80.5" y2="280.1"/>
	<polygon style="clip-path:url(#SVGID_00000051365604539527708210000004648949820275066295_);fill:#B7BABB;" points="89,275.7 
		89,284.4 123.7,284.4 125.6,282.5 125.6,275.7 	"/>
	<g style="clip-path:url(#SVGID_00000051365604539527708210000004648949820275066295_);">
		<text transform="matrix(1 0 0 1 91.1738 281.7565)"><tspan x="0" y="0" class="st6 st7 st10">B</tspan><tspan x="3" y="0" class="st6 st7 st10">a</tspan><tspan x="5.7" y="0" class="st6 st7 st10">tch</tspan></text>
	</g>
	<polygon style="clip-path:url(#SVGID_00000051365604539527708210000004648949820275066295_);fill:#B7BABB;" points="89,261.8 
		89,270.4 123.7,270.4 125.6,268.5 125.6,261.8 	"/>
	<g style="clip-path:url(#SVGID_00000051365604539527708210000004648949820275066295_);">
		<text transform="matrix(1 0 0 1 91.1387 267.7653)"><tspan x="0" y="0" class="st6 st7 st10">S</tspan><tspan x="2.9" y="0" class="st6 st7 st10">t</tspan><tspan x="4.7" y="0" class="st6 st7 st10">re</tspan><tspan x="8.9" y="0" class="st6 st7 st10">aming</tspan></text>
	</g>
	<polygon style="clip-path:url(#SVGID_00000051365604539527708210000004648949820275066295_);fill:#D2D4D5;" points="89,303.8 
		89,312.5 127.2,312.5 129.1,310.6 129.1,303.8 	"/>
	<g style="clip-path:url(#SVGID_00000051365604539527708210000004648949820275066295_);">
		<text transform="matrix(1 0 0 1 91.1738 309.8414)"><tspan x="0" y="0" class="st12 st7 st10">F</tspan><tspan x="2.6" y="0" class="st12 st7 st10">ocus G</tspan><tspan x="17.1" y="0" class="st12 st7 st10">r</tspan><tspan x="18.9" y="0" class="st12 st7 st10">oup</tspan></text>
	</g>
	<polygon style="clip-path:url(#SVGID_00000051365604539527708210000004648949820275066295_);fill:#D2D4D5;" points="89,291.4 
		89,300.1 127.2,300.1 129.1,298.2 129.1,291.4 	"/>
	<g style="clip-path:url(#SVGID_00000051365604539527708210000004648949820275066295_);">
		<text transform="matrix(1 0 0 1 91.1387 297.4059)"><tspan x="0" y="0" class="st12 st7 st10">Su</tspan><tspan x="5.6" y="0" class="st12 st7 st10">r</tspan><tspan x="7.4" y="0" class="st12 st7 st10">v</tspan><tspan x="9.8" y="0" class="st12 st7 st10">e</tspan><tspan x="12.2" y="0" class="st12 st7 st10">y</tspan><tspan x="14.6" y="0" class="st12 st7 st10">s</tspan></text>
	</g>
	<polygon style="clip-path:url(#SVGID_00000051365604539527708210000004648949820275066295_);fill:#D2D4D5;" points="89,328.7 
		89,337.4 127.2,337.4 129.1,335.5 129.1,328.7 	"/>
	<g style="clip-path:url(#SVGID_00000051365604539527708210000004648949820275066295_);">
		<text transform="matrix(1 0 0 1 91.0034 334.7115)"><tspan x="0" y="0" class="st12 st7 st10">Qu</tspan><tspan x="5.8" y="0" class="st12 st7 st10">e</tspan><tspan x="8.2" y="0" class="st12 st7 st10">s</tspan><tspan x="10.4" y="0" class="st12 st7 st10">tionnai</tspan><tspan x="24.8" y="0" class="st12 st7 st10">re</tspan><tspan x="28.8" y="0" class="st12 st7 st10">s</tspan></text>
	</g>
	<polygon style="clip-path:url(#SVGID_00000051365604539527708210000004648949820275066295_);fill:#D2D4D5;" points="89,316.3 
		89,324.9 127.2,324.9 129.1,323 129.1,316.3 	"/>
	<g style="clip-path:url(#SVGID_00000051365604539527708210000004648949820275066295_);">
		<text transform="matrix(1 0 0 1 91.147 322.276)"><tspan x="0" y="0" class="st12 st7 st10">I</tspan><tspan x="1.4" y="0" class="st12 st7 st10">n</tspan><tspan x="4.1" y="0" class="st12 st7 st10">te</tspan><tspan x="8.4" y="0" class="st12 st7 st10">r</tspan><tspan x="10.2" y="0" class="st12 st7 st10">vi</tspan><tspan x="13.9" y="0" class="st12 st7 st10">e</tspan><tspan x="16.5" y="0" class="st12 st7 st10">w</tspan><tspan x="20" y="0" class="st12 st7 st10">s</tspan></text>
	</g>
	<g style="clip-path:url(#SVGID_00000051365604539527708210000004648949820275066295_);">
		<defs>
			<rect id="SVGID_00000085930188717675239120000001884864725626476422_" width="419.5" height="595.3"/>
		</defs>
		<clipPath id="SVGID_00000003063874717499495860000017080189535413765773_">
			<use xlink:href="#SVGID_00000085930188717675239120000001884864725626476422_"  style="overflow:visible;"/>
		</clipPath>
		<path style="clip-path:url(#SVGID_00000003063874717499495860000017080189535413765773_);fill:#FFFFFF;" d="M217.4,330.5
			c14.8,0,26.8-12,26.8-26.8c0-14.8-12-26.8-26.8-26.8s-26.8,12-26.8,26.8C190.6,318.5,202.6,330.5,217.4,330.5"/>
		
			<path style="clip-path:url(#SVGID_00000003063874717499495860000017080189535413765773_);fill:none;stroke:#B7BABB;stroke-width:0.329;" d="
			M217.4,330.5c14.8,0,26.8-12,26.8-26.8c0-14.8-12-26.8-26.8-26.8s-26.8,12-26.8,26.8C190.6,318.5,202.6,330.5,217.4,330.5z"/>
		<path style="clip-path:url(#SVGID_00000003063874717499495860000017080189535413765773_);fill:#E0E2E3;" d="M217.4,321.2
			c9.7,0,17.6-7.9,17.6-17.6c0-9.7-7.9-17.6-17.6-17.6s-17.6,7.9-17.6,17.6C199.8,313.4,207.7,321.2,217.4,321.2"/>
		
			<path style="clip-path:url(#SVGID_00000003063874717499495860000017080189535413765773_);fill:none;stroke:#B7BABB;stroke-width:2.63;" d="
			M244.3,303.6c0-14.8-12-26.8-26.8-26.8"/>
	</g>
	<g style="clip-path:url(#SVGID_00000051365604539527708210000004648949820275066295_);">
		<text transform="matrix(1 0 0 1 191.1611 289.1012)"><tspan x="0" y="0" class="st25 st7 st26">D</tspan><tspan x="6.6" y="0" class="st25 st7 st26">a</tspan><tspan x="12.1" y="0" class="st25 st7 st26">t</tspan><tspan x="15.8" y="0" class="st25 st7 st26">a </tspan></text>
	</g>
	<g style="clip-path:url(#SVGID_00000051365604539527708210000004648949820275066295_);">
		<text transform="matrix(1 0 0 1 191.1611 297.3536)"><tspan x="0" y="0" class="st25 st7 st26">Ing</tspan><tspan x="14.4" y="0" class="st25 st7 st26">e</tspan><tspan x="19.6" y="0" class="st25 st7 st26">s</tspan><tspan x="24.4" y="0" class="st25 st7 st26">tion</tspan></text>
	</g>
	<path style="clip-path:url(#SVGID_00000051365604539527708210000004648949820275066295_);fill:#8B8F91;" d="M225.2,309.2v1.7
		l-1.3,0.5v-2.6L225.2,309.2z M223.1,312.7l-7.1,2.1v-9.5l7.1,2.1V312.7z M215.3,315.9h-1.3v-11.8h1.3V315.9z M223.9,306.8l-7.8-2.3
		v-1.1h-2.8v13.2h2.8v-1.1l7.8-2.3v-1.2l2-0.7v-2.8l-2-0.7V306.8z"/>
	<g style="clip-path:url(#SVGID_00000051365604539527708210000004648949820275066295_);">
		<defs>
			<rect id="SVGID_00000072986290007808810750000000441234048417213611_" width="419.5" height="595.3"/>
		</defs>
		<clipPath id="SVGID_00000011750989284157437530000003657343674236011680_">
			<use xlink:href="#SVGID_00000072986290007808810750000000441234048417213611_"  style="overflow:visible;"/>
		</clipPath>
		<path style="clip-path:url(#SVGID_00000011750989284157437530000003657343674236011680_);fill:#8B8F91;" d="M206.1,302.6l5.8,2.4
			c0,0,0.1,0,0.1,0c0.1,0,0.3-0.1,0.3-0.2c0.1-0.2,0-0.4-0.2-0.5l-5.8-2.4c-0.2-0.1-0.4,0-0.5,0.2
			C205.8,302.3,205.9,302.5,206.1,302.6"/>
		<path style="clip-path:url(#SVGID_00000011750989284157437530000003657343674236011680_);fill:#8B8F91;" d="M212.3,308.1l-6.1-1.3
			c-0.2,0-0.4,0.1-0.4,0.3c0,0.2,0.1,0.4,0.3,0.4l6.1,1.3c0,0,0.1,0,0.1,0c0.2,0,0.3-0.1,0.4-0.3
			C212.6,308.3,212.5,308.1,212.3,308.1"/>
		<path style="clip-path:url(#SVGID_00000011750989284157437530000003657343674236011680_);fill:#8B8F91;" d="M212.1,311.2l-6.1,1.3
			c-0.2,0-0.3,0.2-0.3,0.4c0,0.2,0.2,0.3,0.4,0.3c0,0,0.1,0,0.1,0l6.1-1.3c0.2,0,0.3-0.2,0.3-0.4
			C212.5,311.3,212.3,311.2,212.1,311.2"/>
		<path style="clip-path:url(#SVGID_00000011750989284157437530000003657343674236011680_);fill:#8B8F91;" d="M211.9,315.1l-5.8,2.4
			c-0.2,0.1-0.3,0.3-0.2,0.5c0.1,0.1,0.2,0.2,0.3,0.2c0,0,0.1,0,0.1,0l5.8-2.4c0.2-0.1,0.3-0.3,0.2-0.5
			C212.3,315.1,212.1,315,211.9,315.1"/>
		<path style="clip-path:url(#SVGID_00000011750989284157437530000003657343674236011680_);fill:#8B8F91;" d="M226.9,309.5h6.8
			c0.2,0,0.4-0.2,0.4-0.4c0-0.2-0.2-0.4-0.4-0.4h-6.8c-0.2,0-0.4,0.2-0.4,0.4C226.5,309.3,226.7,309.5,226.9,309.5"/>
		<path style="clip-path:url(#SVGID_00000011750989284157437530000003657343674236011680_);fill:#8B8F91;" d="M233.6,310.5h-6.8
			c-0.2,0-0.4,0.2-0.4,0.4c0,0.2,0.2,0.4,0.4,0.4h6.8c0.2,0,0.4-0.2,0.4-0.4C234,310.7,233.8,310.5,233.6,310.5"/>
	</g>
	<polygon style="clip-path:url(#SVGID_00000051365604539527708210000004648949820275066295_);fill:#00109F;" points="46.5,237 
		46.5,237 46.5,251.3 152.6,251.3 152.6,237 	"/>
	<g style="clip-path:url(#SVGID_00000051365604539527708210000004648949820275066295_);">
		<text transform="matrix(1 0 0 1 49.2656 240.9767)"><tspan x="0" y="0" class="st6 st13 st29">Figu</tspan><tspan x="8" y="0" class="st6 st13 st29">r</tspan><tspan x="9.4" y="0" class="st6 st13 st29">e 2: </tspan></text>
	</g>
	<g style="clip-path:url(#SVGID_00000051365604539527708210000004648949820275066295_);">
		<text transform="matrix(1 0 0 1 66.1616 240.9767)" class="st6 st13 st29"> </text>
	</g>
	<g style="clip-path:url(#SVGID_00000051365604539527708210000004648949820275066295_);">
		<text transform="matrix(1 0 0 1 49.2656 248.9767)"><tspan x="0" y="0" class="st6 st7 st30">The Ing</tspan><tspan x="28.5" y="0" class="st6 st7 st30">e</tspan><tspan x="33" y="0" class="st6 st7 st30">s</tspan><tspan x="37.2" y="0" class="st6 st7 st30">tion Mechanism</tspan></text>
	</g>
	
		<line style="clip-path:url(#SVGID_00000051365604539527708210000004648949820275066295_);fill:none;stroke:#00109F;stroke-width:0.5;" x1="46.8" y1="354.6" x2="372.3" y2="354.6"/>
	
		<line style="clip-path:url(#SVGID_00000051365604539527708210000004648949820275066295_);fill:none;stroke:#00109F;stroke-width:0.5;" x1="152.6" y1="251.1" x2="372.3" y2="251.1"/>
</g>
</svg>
