<?xml version="1.0" encoding="utf-8"?>
<!-- Generator: Adobe Illustrator 28.0.0, SVG Export Plug-In . SVG Version: 6.00 Build 0)  -->
<svg version="1.1" id="Layer_1" xmlns="http://www.w3.org/2000/svg" xmlns:xlink="http://www.w3.org/1999/xlink" x="0px" y="0px"
	 viewBox="0 0 419.5 595.3" style="enable-background:new 0 0 419.5 595.3;" xml:space="preserve">
<style type="text/css">
	.st0{clip-path:url(#SVGID_00000021098586470329624250000007084598545528970664_);}
	.st1{opacity:0.5;clip-path:url(#SVGID_00000082328929572372919190000001495985728876599201_);}
	.st2{clip-path:url(#SVGID_00000127004645846321486240000012746283339423158956_);}
	.st3{clip-path:url(#SVGID_00000111179567968454792260000004356035632309525172_);fill:none;stroke:#B7BABB;stroke-width:0.25;}
	.st4{clip-path:url(#SVGID_00000111179567968454792260000004356035632309525172_);fill:none;stroke:#B7BABB;stroke-width:0.2;}
	.st5{clip-path:url(#SVGID_00000021098586470329624250000007084598545528970664_);fill:#00109F;}
	.st6{fill:#FFFFFF;}
	.st7{font-family:'Colfax-Regular';}
	.st8{font-size:4px;}
	.st9{font-family:'Colfax-Bold';}
	.st10{font-size:8px;}
	.st11{clip-path:url(#SVGID_00000021098586470329624250000007084598545528970664_);fill:none;stroke:#00109F;stroke-width:0.5;}
	.st12{clip-path:url(#SVGID_00000021098586470329624250000007084598545528970664_);fill:#8B8F91;}
	.st13{font-family:'HelveticaNeue-Bold';}
	.st14{font-size:4.815px;}
	.st15{clip-path:url(#SVGID_00000021098586470329624250000007084598545528970664_);fill:#FFFFFF;}
	.st16{fill:#4D4D4D;}
	.st17{font-family:'HelveticaNeue-Medium';}
	.st18{font-size:3.745px;}
	.st19{clip-path:url(#SVGID_00000021098586470329624250000007084598545528970664_);fill:none;stroke:#8B8F91;stroke-width:0.25;}
	
		.st20{clip-path:url(#SVGID_00000021098586470329624250000007084598545528970664_);fill:none;stroke:#8B8F91;stroke-width:0.25;stroke-linecap:round;stroke-linejoin:round;}
	
		.st21{clip-path:url(#SVGID_00000021098586470329624250000007084598545528970664_);fill:none;stroke:#88003E;stroke-width:0.535;stroke-linecap:round;stroke-linejoin:round;}
	.st22{clip-path:url(#SVGID_00000005250274158291693470000007670398552027122870_);fill:#FFFFFF;}
	.st23{clip-path:url(#SVGID_00000005250274158291693470000007670398552027122870_);fill:none;stroke:#B7BABB;stroke-width:0.327;}
	.st24{clip-path:url(#SVGID_00000005250274158291693470000007670398552027122870_);fill:#E0E2E3;}
	.st25{clip-path:url(#SVGID_00000005250274158291693470000007670398552027122870_);fill:none;stroke:#B7BABB;stroke-width:2.62;}
	.st26{fill:#15233A;}
	.st27{font-size:9.2472px;}
</style>
<g>
	<defs>
		<rect id="SVGID_1_" width="419.5" height="595.3"/>
	</defs>
	<clipPath id="SVGID_00000054956222548095887100000015768239365972364990_">
		<use xlink:href="#SVGID_1_"  style="overflow:visible;"/>
	</clipPath>
	<g style="clip-path:url(#SVGID_00000054956222548095887100000015768239365972364990_);">
		<defs>
			<rect id="SVGID_00000145757615729406136730000006663000814283283379_" width="419.5" height="595.3"/>
		</defs>
		<clipPath id="SVGID_00000084532555978358194480000014787207177340486287_">
			<use xlink:href="#SVGID_00000145757615729406136730000006663000814283283379_"  style="overflow:visible;"/>
		</clipPath>
		<g style="opacity:0.5;clip-path:url(#SVGID_00000084532555978358194480000014787207177340486287_);">
			<g>
				<defs>
					<rect id="SVGID_00000016039459689347269180000009168096263437019540_" x="37.8" y="250.8" width="344.1" height="94.5"/>
				</defs>
				<clipPath id="SVGID_00000108268729149614227730000004207529170586093961_">
					<use xlink:href="#SVGID_00000016039459689347269180000009168096263437019540_"  style="overflow:visible;"/>
				</clipPath>
				<g style="clip-path:url(#SVGID_00000108268729149614227730000004207529170586093961_);">
					<defs>
						<polygon id="SVGID_00000068643729450068316780000007308986958057991101_" points="46.8,257.8 46.8,257.8 46.8,344.3 
							372.9,344.3 372.9,257.8 						"/>
					</defs>
					<clipPath id="SVGID_00000058562938486890661490000007756203984882783648_">
						<use xlink:href="#SVGID_00000068643729450068316780000007308986958057991101_"  style="overflow:visible;"/>
					</clipPath>
					
						<line style="clip-path:url(#SVGID_00000058562938486890661490000007756203984882783648_);fill:none;stroke:#B7BABB;stroke-width:0.25;" x1="372.9" y1="89.6" x2="372.9" y2="415.5"/>
					
						<line style="clip-path:url(#SVGID_00000058562938486890661490000007756203984882783648_);fill:none;stroke:#B7BABB;stroke-width:0.25;" x1="365.8" y1="89.6" x2="365.8" y2="415.5"/>
					
						<line style="clip-path:url(#SVGID_00000058562938486890661490000007756203984882783648_);fill:none;stroke:#B7BABB;stroke-width:0.25;" x1="358.7" y1="89.6" x2="358.7" y2="415.5"/>
					
						<line style="clip-path:url(#SVGID_00000058562938486890661490000007756203984882783648_);fill:none;stroke:#B7BABB;stroke-width:0.25;" x1="351.6" y1="89.6" x2="351.6" y2="415.5"/>
					
						<line style="clip-path:url(#SVGID_00000058562938486890661490000007756203984882783648_);fill:none;stroke:#B7BABB;stroke-width:0.25;" x1="344.5" y1="89.6" x2="344.5" y2="415.5"/>
					
						<line style="clip-path:url(#SVGID_00000058562938486890661490000007756203984882783648_);fill:none;stroke:#B7BABB;stroke-width:0.25;" x1="337.4" y1="89.6" x2="337.4" y2="415.5"/>
					
						<line style="clip-path:url(#SVGID_00000058562938486890661490000007756203984882783648_);fill:none;stroke:#B7BABB;stroke-width:0.25;" x1="330.4" y1="89.6" x2="330.4" y2="415.5"/>
					
						<line style="clip-path:url(#SVGID_00000058562938486890661490000007756203984882783648_);fill:none;stroke:#B7BABB;stroke-width:0.25;" x1="323.3" y1="89.6" x2="323.3" y2="415.5"/>
					
						<line style="clip-path:url(#SVGID_00000058562938486890661490000007756203984882783648_);fill:none;stroke:#B7BABB;stroke-width:0.25;" x1="316.2" y1="89.6" x2="316.2" y2="415.5"/>
					
						<line style="clip-path:url(#SVGID_00000058562938486890661490000007756203984882783648_);fill:none;stroke:#B7BABB;stroke-width:0.25;" x1="309.1" y1="89.6" x2="309.1" y2="415.5"/>
					
						<line style="clip-path:url(#SVGID_00000058562938486890661490000007756203984882783648_);fill:none;stroke:#B7BABB;stroke-width:0.25;" x1="302" y1="89.6" x2="302" y2="415.5"/>
					
						<line style="clip-path:url(#SVGID_00000058562938486890661490000007756203984882783648_);fill:none;stroke:#B7BABB;stroke-width:0.25;" x1="294.9" y1="89.6" x2="294.9" y2="415.5"/>
					
						<line style="clip-path:url(#SVGID_00000058562938486890661490000007756203984882783648_);fill:none;stroke:#B7BABB;stroke-width:0.25;" x1="287.8" y1="89.6" x2="287.8" y2="415.5"/>
					
						<line style="clip-path:url(#SVGID_00000058562938486890661490000007756203984882783648_);fill:none;stroke:#B7BABB;stroke-width:0.25;" x1="280.8" y1="89.6" x2="280.8" y2="415.5"/>
					
						<line style="clip-path:url(#SVGID_00000058562938486890661490000007756203984882783648_);fill:none;stroke:#B7BABB;stroke-width:0.25;" x1="273.7" y1="89.6" x2="273.7" y2="415.5"/>
					
						<line style="clip-path:url(#SVGID_00000058562938486890661490000007756203984882783648_);fill:none;stroke:#B7BABB;stroke-width:0.25;" x1="266.6" y1="89.6" x2="266.6" y2="415.5"/>
					
						<line style="clip-path:url(#SVGID_00000058562938486890661490000007756203984882783648_);fill:none;stroke:#B7BABB;stroke-width:0.25;" x1="259.5" y1="89.6" x2="259.5" y2="415.5"/>
					
						<line style="clip-path:url(#SVGID_00000058562938486890661490000007756203984882783648_);fill:none;stroke:#B7BABB;stroke-width:0.25;" x1="252.4" y1="89.6" x2="252.4" y2="415.5"/>
					
						<line style="clip-path:url(#SVGID_00000058562938486890661490000007756203984882783648_);fill:none;stroke:#B7BABB;stroke-width:0.25;" x1="245.3" y1="89.6" x2="245.3" y2="415.5"/>
					
						<line style="clip-path:url(#SVGID_00000058562938486890661490000007756203984882783648_);fill:none;stroke:#B7BABB;stroke-width:0.25;" x1="238.2" y1="89.6" x2="238.2" y2="415.5"/>
					
						<line style="clip-path:url(#SVGID_00000058562938486890661490000007756203984882783648_);fill:none;stroke:#B7BABB;stroke-width:0.25;" x1="231.1" y1="89.6" x2="231.1" y2="415.5"/>
					
						<line style="clip-path:url(#SVGID_00000058562938486890661490000007756203984882783648_);fill:none;stroke:#B7BABB;stroke-width:0.25;" x1="224.1" y1="89.6" x2="224.1" y2="415.5"/>
					
						<line style="clip-path:url(#SVGID_00000058562938486890661490000007756203984882783648_);fill:none;stroke:#B7BABB;stroke-width:0.25;" x1="217" y1="89.6" x2="217" y2="415.5"/>
					
						<line style="clip-path:url(#SVGID_00000058562938486890661490000007756203984882783648_);fill:none;stroke:#B7BABB;stroke-width:0.25;" x1="209.9" y1="89.6" x2="209.9" y2="415.5"/>
					
						<line style="clip-path:url(#SVGID_00000058562938486890661490000007756203984882783648_);fill:none;stroke:#B7BABB;stroke-width:0.25;" x1="202.8" y1="89.6" x2="202.8" y2="415.5"/>
					
						<line style="clip-path:url(#SVGID_00000058562938486890661490000007756203984882783648_);fill:none;stroke:#B7BABB;stroke-width:0.25;" x1="195.7" y1="89.6" x2="195.7" y2="415.5"/>
					
						<line style="clip-path:url(#SVGID_00000058562938486890661490000007756203984882783648_);fill:none;stroke:#B7BABB;stroke-width:0.25;" x1="188.6" y1="89.6" x2="188.6" y2="415.5"/>
					
						<line style="clip-path:url(#SVGID_00000058562938486890661490000007756203984882783648_);fill:none;stroke:#B7BABB;stroke-width:0.25;" x1="181.5" y1="89.6" x2="181.5" y2="415.5"/>
					
						<line style="clip-path:url(#SVGID_00000058562938486890661490000007756203984882783648_);fill:none;stroke:#B7BABB;stroke-width:0.25;" x1="174.5" y1="89.6" x2="174.5" y2="415.5"/>
					
						<line style="clip-path:url(#SVGID_00000058562938486890661490000007756203984882783648_);fill:none;stroke:#B7BABB;stroke-width:0.25;" x1="167.4" y1="89.6" x2="167.4" y2="415.5"/>
					
						<line style="clip-path:url(#SVGID_00000058562938486890661490000007756203984882783648_);fill:none;stroke:#B7BABB;stroke-width:0.25;" x1="160.3" y1="89.6" x2="160.3" y2="415.5"/>
					
						<line style="clip-path:url(#SVGID_00000058562938486890661490000007756203984882783648_);fill:none;stroke:#B7BABB;stroke-width:0.25;" x1="153.2" y1="89.6" x2="153.2" y2="415.5"/>
					
						<line style="clip-path:url(#SVGID_00000058562938486890661490000007756203984882783648_);fill:none;stroke:#B7BABB;stroke-width:0.25;" x1="146.1" y1="89.6" x2="146.1" y2="415.5"/>
					
						<line style="clip-path:url(#SVGID_00000058562938486890661490000007756203984882783648_);fill:none;stroke:#B7BABB;stroke-width:0.25;" x1="139" y1="89.6" x2="139" y2="415.5"/>
					
						<line style="clip-path:url(#SVGID_00000058562938486890661490000007756203984882783648_);fill:none;stroke:#B7BABB;stroke-width:0.25;" x1="131.9" y1="89.6" x2="131.9" y2="415.5"/>
					
						<line style="clip-path:url(#SVGID_00000058562938486890661490000007756203984882783648_);fill:none;stroke:#B7BABB;stroke-width:0.25;" x1="124.8" y1="89.6" x2="124.8" y2="415.5"/>
					
						<line style="clip-path:url(#SVGID_00000058562938486890661490000007756203984882783648_);fill:none;stroke:#B7BABB;stroke-width:0.25;" x1="117.8" y1="89.6" x2="117.8" y2="415.5"/>
					
						<line style="clip-path:url(#SVGID_00000058562938486890661490000007756203984882783648_);fill:none;stroke:#B7BABB;stroke-width:0.25;" x1="110.7" y1="89.6" x2="110.7" y2="415.5"/>
					
						<line style="clip-path:url(#SVGID_00000058562938486890661490000007756203984882783648_);fill:none;stroke:#B7BABB;stroke-width:0.25;" x1="103.6" y1="89.6" x2="103.6" y2="415.5"/>
					
						<line style="clip-path:url(#SVGID_00000058562938486890661490000007756203984882783648_);fill:none;stroke:#B7BABB;stroke-width:0.25;" x1="96.5" y1="89.6" x2="96.5" y2="415.5"/>
					
						<line style="clip-path:url(#SVGID_00000058562938486890661490000007756203984882783648_);fill:none;stroke:#B7BABB;stroke-width:0.25;" x1="89.4" y1="89.6" x2="89.4" y2="415.5"/>
					
						<line style="clip-path:url(#SVGID_00000058562938486890661490000007756203984882783648_);fill:none;stroke:#B7BABB;stroke-width:0.25;" x1="82.3" y1="89.6" x2="82.3" y2="415.5"/>
					
						<line style="clip-path:url(#SVGID_00000058562938486890661490000007756203984882783648_);fill:none;stroke:#B7BABB;stroke-width:0.25;" x1="75.2" y1="89.6" x2="75.2" y2="415.5"/>
					
						<line style="clip-path:url(#SVGID_00000058562938486890661490000007756203984882783648_);fill:none;stroke:#B7BABB;stroke-width:0.25;" x1="68.2" y1="89.6" x2="68.2" y2="415.5"/>
					
						<line style="clip-path:url(#SVGID_00000058562938486890661490000007756203984882783648_);fill:none;stroke:#B7BABB;stroke-width:0.25;" x1="61.1" y1="89.6" x2="61.1" y2="415.5"/>
					
						<line style="clip-path:url(#SVGID_00000058562938486890661490000007756203984882783648_);fill:none;stroke:#B7BABB;stroke-width:0.25;" x1="54" y1="89.6" x2="54" y2="415.5"/>
					
						<line style="clip-path:url(#SVGID_00000058562938486890661490000007756203984882783648_);fill:none;stroke:#B7BABB;stroke-width:0.25;" x1="46.9" y1="89.6" x2="46.9" y2="415.5"/>
					
						<line style="clip-path:url(#SVGID_00000058562938486890661490000007756203984882783648_);fill:none;stroke:#B7BABB;stroke-width:0.2;" x1="372.8" y1="337.7" x2="46.8" y2="337.7"/>
					
						<line style="clip-path:url(#SVGID_00000058562938486890661490000007756203984882783648_);fill:none;stroke:#B7BABB;stroke-width:0.2;" x1="372.8" y1="330.6" x2="46.8" y2="330.6"/>
					
						<line style="clip-path:url(#SVGID_00000058562938486890661490000007756203984882783648_);fill:none;stroke:#B7BABB;stroke-width:0.2;" x1="372.8" y1="323.5" x2="46.8" y2="323.5"/>
					
						<line style="clip-path:url(#SVGID_00000058562938486890661490000007756203984882783648_);fill:none;stroke:#B7BABB;stroke-width:0.2;" x1="372.8" y1="316.5" x2="46.8" y2="316.5"/>
					
						<line style="clip-path:url(#SVGID_00000058562938486890661490000007756203984882783648_);fill:none;stroke:#B7BABB;stroke-width:0.2;" x1="372.8" y1="309.4" x2="46.8" y2="309.4"/>
					
						<line style="clip-path:url(#SVGID_00000058562938486890661490000007756203984882783648_);fill:none;stroke:#B7BABB;stroke-width:0.2;" x1="372.8" y1="302.3" x2="46.8" y2="302.3"/>
					
						<line style="clip-path:url(#SVGID_00000058562938486890661490000007756203984882783648_);fill:none;stroke:#B7BABB;stroke-width:0.2;" x1="372.8" y1="295.2" x2="46.8" y2="295.2"/>
					
						<line style="clip-path:url(#SVGID_00000058562938486890661490000007756203984882783648_);fill:none;stroke:#B7BABB;stroke-width:0.2;" x1="372.8" y1="288.1" x2="46.8" y2="288.1"/>
					
						<line style="clip-path:url(#SVGID_00000058562938486890661490000007756203984882783648_);fill:none;stroke:#B7BABB;stroke-width:0.2;" x1="372.8" y1="281" x2="46.8" y2="281"/>
					
						<line style="clip-path:url(#SVGID_00000058562938486890661490000007756203984882783648_);fill:none;stroke:#B7BABB;stroke-width:0.2;" x1="372.8" y1="273.9" x2="46.8" y2="273.9"/>
					
						<line style="clip-path:url(#SVGID_00000058562938486890661490000007756203984882783648_);fill:none;stroke:#B7BABB;stroke-width:0.2;" x1="372.8" y1="266.8" x2="46.8" y2="266.8"/>
					
						<line style="clip-path:url(#SVGID_00000058562938486890661490000007756203984882783648_);fill:none;stroke:#B7BABB;stroke-width:0.2;" x1="372.8" y1="259.8" x2="46.8" y2="259.8"/>
				</g>
			</g>
		</g>
	</g>
	<polygon style="clip-path:url(#SVGID_00000054956222548095887100000015768239365972364990_);fill:#00109F;" points="46.8,243.6 
		46.8,243.6 46.8,258 172.1,258 172.1,243.6 	"/>
	<g style="clip-path:url(#SVGID_00000054956222548095887100000015768239365972364990_);">
		<text transform="matrix(1 0 0 1 49.5825 247.587)"><tspan x="0" y="0" class="st6 st7 st8">Figu</tspan><tspan x="8" y="0" class="st6 st7 st8">r</tspan><tspan x="9.4" y="0" class="st6 st7 st8">e </tspan><tspan x="12.6" y="0" class="st6 st7 st8">7</tspan><tspan x="14.5" y="0" class="st6 st7 st8">: </tspan></text>
	</g>
	<g style="clip-path:url(#SVGID_00000054956222548095887100000015768239365972364990_);">
		<text transform="matrix(1 0 0 1 66.002 247.587)" class="st6 st7 st8"> </text>
	</g>
	<g style="clip-path:url(#SVGID_00000054956222548095887100000015768239365972364990_);">
		<text transform="matrix(1 0 0 1 49.5825 255.587)"><tspan x="0" y="0" class="st6 st9 st10">The Model Sele</tspan><tspan x="58" y="0" class="st6 st9 st10">c</tspan><tspan x="62.5" y="0" class="st6 st9 st10">tion P</tspan><tspan x="84.8" y="0" class="st6 st9 st10">r</tspan><tspan x="87.9" y="0" class="st6 st9 st10">o</tspan><tspan x="92.6" y="0" class="st6 st9 st10">c</tspan><tspan x="97.3" y="0" class="st6 st9 st10">edu</tspan><tspan x="111.6" y="0" class="st6 st9 st10">r</tspan><tspan x="114.7" y="0" class="st6 st9 st10">e</tspan></text>
	</g>
	
		<line style="clip-path:url(#SVGID_00000054956222548095887100000015768239365972364990_);fill:none;stroke:#00109F;stroke-width:0.5;" x1="152.9" y1="257.7" x2="372.6" y2="257.7"/>
	<polygon style="clip-path:url(#SVGID_00000054956222548095887100000015768239365972364990_);fill:#8B8F91;" points="278.3,298.8 
		278.3,306.8 308.5,306.8 310.4,304.9 310.4,298.8 	"/>
	<g style="clip-path:url(#SVGID_00000054956222548095887100000015768239365972364990_);">
		<text transform="matrix(1 0 0 1 280.2217 304.5621)" class="st6 st13 st14">Ensemble</text>
	</g>
	<polygon style="clip-path:url(#SVGID_00000054956222548095887100000015768239365972364990_);fill:#FFFFFF;" points="76.2,304.5 
		76.2,311.4 114.4,311.4 116.3,309.5 116.3,304.5 	"/>
	<g style="clip-path:url(#SVGID_00000054956222548095887100000015768239365972364990_);">
		<text transform="matrix(1 0 0 1 78.2642 309.3239)" class="st16 st17 st18">Factor Analysis</text>
	</g>
	
		<polygon style="clip-path:url(#SVGID_00000054956222548095887100000015768239365972364990_);fill:none;stroke:#8B8F91;stroke-width:0.25;" points="
		76.2,304.5 76.2,311.4 114.4,311.4 116.3,309.5 116.3,304.5 	"/>
	<polygon style="clip-path:url(#SVGID_00000054956222548095887100000015768239365972364990_);fill:#FFFFFF;" points="327.8,299.2 
		327.8,306.1 349.4,306.1 351.3,304.2 351.3,299.2 	"/>
	<g style="clip-path:url(#SVGID_00000054956222548095887100000015768239365972364990_);">
		<text transform="matrix(1 0 0 1 329.8652 303.9967)" class="st16 st17 st18">Boosting</text>
	</g>
	
		<polygon style="clip-path:url(#SVGID_00000054956222548095887100000015768239365972364990_);fill:none;stroke:#8B8F91;stroke-width:0.25;" points="
		327.8,299.2 327.8,306.1 349.4,306.1 351.3,304.2 351.3,299.2 	"/>
	<polygon style="clip-path:url(#SVGID_00000054956222548095887100000015768239365972364990_);fill:#FFFFFF;" points="76.2,280.3 
		76.2,287.2 114.4,287.2 116.3,285.3 116.3,280.3 	"/>
	<g style="clip-path:url(#SVGID_00000054956222548095887100000015768239365972364990_);">
		<text transform="matrix(1 0 0 1 78.2642 285.1207)"><tspan x="0" y="0" class="st16 st17 st18">Reg</tspan><tspan x="6.9" y="0" class="st16 st17 st18">r</tspan><tspan x="8.2" y="0" class="st16 st17 st18">ession</tspan></text>
	</g>
	
		<polygon style="clip-path:url(#SVGID_00000054956222548095887100000015768239365972364990_);fill:none;stroke:#8B8F91;stroke-width:0.25;" points="
		76.2,280.3 76.2,287.2 114.4,287.2 116.3,285.3 116.3,280.3 	"/>
	<polygon style="clip-path:url(#SVGID_00000054956222548095887100000015768239365972364990_);fill:#FFFFFF;" points="76.2,314.9 
		76.2,321.8 114.4,321.8 116.3,319.9 116.3,314.9 	"/>
	<g style="clip-path:url(#SVGID_00000054956222548095887100000015768239365972364990_);">
		<text transform="matrix(1 0 0 1 78.168 319.6969)" class="st16 st17 st18">Association</text>
	</g>
	
		<polygon style="clip-path:url(#SVGID_00000054956222548095887100000015768239365972364990_);fill:none;stroke:#8B8F91;stroke-width:0.25;" points="
		76.2,314.9 76.2,321.8 114.4,321.8 116.3,319.9 116.3,314.9 	"/>
	<polygon style="clip-path:url(#SVGID_00000054956222548095887100000015768239365972364990_);fill:#FFFFFF;" points="327.8,309.5 
		327.8,316.5 349.4,316.5 351.3,314.6 351.3,309.5 	"/>
	<g style="clip-path:url(#SVGID_00000054956222548095887100000015768239365972364990_);">
		<text transform="matrix(1 0 0 1 329.8926 314.3698)" class="st16 st17 st18">Stacking</text>
	</g>
	
		<polygon style="clip-path:url(#SVGID_00000054956222548095887100000015768239365972364990_);fill:none;stroke:#8B8F91;stroke-width:0.25;" points="
		327.8,309.5 327.8,316.5 349.4,316.5 351.3,314.6 351.3,309.5 	"/>
	<polygon style="clip-path:url(#SVGID_00000054956222548095887100000015768239365972364990_);fill:#FFFFFF;" points="76.2,325.2 
		76.2,332.2 114.4,332.2 116.3,330.3 116.3,325.2 	"/>
	<g style="clip-path:url(#SVGID_00000054956222548095887100000015768239365972364990_);">
		<text transform="matrix(1 0 0 1 78.2642 330.0699)" class="st16 st17 st18">Density Estimation</text>
	</g>
	
		<polygon style="clip-path:url(#SVGID_00000054956222548095887100000015768239365972364990_);fill:none;stroke:#8B8F91;stroke-width:0.25;" points="
		76.2,325.2 76.2,332.2 114.4,332.2 116.3,330.3 116.3,325.2 	"/>
	<polygon style="clip-path:url(#SVGID_00000054956222548095887100000015768239365972364990_);fill:#FFFFFF;" points="76.2,294.1 
		76.2,301.1 114.4,301.1 116.3,299.1 116.3,294.1 	"/>
	<g style="clip-path:url(#SVGID_00000054956222548095887100000015768239365972364990_);">
		<text transform="matrix(1 0 0 1 78.2725 298.9508)" class="st16 st17 st18">Clastering</text>
	</g>
	
		<polygon style="clip-path:url(#SVGID_00000054956222548095887100000015768239365972364990_);fill:none;stroke:#8B8F91;stroke-width:0.25;" points="
		76.2,294.1 76.2,301.1 114.4,301.1 116.3,299.1 116.3,294.1 	"/>
	<polygon style="clip-path:url(#SVGID_00000054956222548095887100000015768239365972364990_);fill:#FFFFFF;" points="327.8,288.8 
		327.8,295.7 349.4,295.7 351.3,293.8 351.3,288.8 	"/>
	<g style="clip-path:url(#SVGID_00000054956222548095887100000015768239365972364990_);">
		<text transform="matrix(1 0 0 1 329.8652 293.6237)" class="st16 st17 st18">Bagging</text>
	</g>
	
		<polygon style="clip-path:url(#SVGID_00000054956222548095887100000015768239365972364990_);fill:none;stroke:#8B8F91;stroke-width:0.25;" points="
		327.8,288.8 327.8,295.7 349.4,295.7 351.3,293.8 351.3,288.8 	"/>
	<polygon style="clip-path:url(#SVGID_00000054956222548095887100000015768239365972364990_);fill:#FFFFFF;" points="76.2,269.9 
		76.2,276.9 114.4,276.9 116.3,274.9 116.3,269.9 	"/>
	<g style="clip-path:url(#SVGID_00000054956222548095887100000015768239365972364990_);">
		<text transform="matrix(1 0 0 1 78.2725 274.7472)" class="st16 st17 st18">Clastering</text>
	</g>
	
		<polygon style="clip-path:url(#SVGID_00000054956222548095887100000015768239365972364990_);fill:none;stroke:#8B8F91;stroke-width:0.25;" points="
		76.2,269.9 76.2,276.9 114.4,276.9 116.3,274.9 116.3,269.9 	"/>
	<polygon style="clip-path:url(#SVGID_00000054956222548095887100000015768239365972364990_);fill:#8B8F91;" points="150.3,296.7 
		150.3,307.4 188.5,307.4 190.4,305.5 190.4,296.7 	"/>
	<g style="clip-path:url(#SVGID_00000054956222548095887100000015768239365972364990_);">
		<text transform="matrix(1 0 0 1 152.2627 304.4244)" class="st6 st13 st14">Unsupervised</text>
	</g>
	<polygon style="clip-path:url(#SVGID_00000054956222548095887100000015768239365972364990_);fill:#8B8F91;" points="150.3,324.1 
		150.3,332.2 188.5,332.2 190.4,330.3 190.4,324.1 	"/>
	<g style="clip-path:url(#SVGID_00000054956222548095887100000015768239365972364990_);">
		<text transform="matrix(1 0 0 1 152.248 330.5299)"><tspan x="0" y="0" class="st6 st13 st14">Reinfo</tspan><tspan x="14.9" y="0" class="st6 st13 st14">r</tspan><tspan x="16.7" y="0" class="st6 st13 st14">cement</tspan></text>
	</g>
	<polygon style="clip-path:url(#SVGID_00000054956222548095887100000015768239365972364990_);fill:#8B8F91;" points="150.3,278.2 
		150.3,286.3 188.5,286.3 190.4,284.4 190.4,278.2 	"/>
	<g style="clip-path:url(#SVGID_00000054956222548095887100000015768239365972364990_);">
		<text transform="matrix(1 0 0 1 152.2012 284.5743)" class="st6 st13 st14">Supervised</text>
	</g>
	
		<polyline style="clip-path:url(#SVGID_00000054956222548095887100000015768239365972364990_);fill:none;stroke:#8B8F91;stroke-width:0.25;stroke-linecap:round;stroke-linejoin:round;" points="
		150.3,281.2 138.5,281.2 138.5,273.4 116.6,273.4 	"/>
	
		<polyline style="clip-path:url(#SVGID_00000054956222548095887100000015768239365972364990_);fill:none;stroke:#8B8F91;stroke-width:0.25;stroke-linecap:round;stroke-linejoin:round;" points="
		210.7,305 198.8,305 198.8,327.9 190.7,327.9 	"/>
	
		<polyline style="clip-path:url(#SVGID_00000054956222548095887100000015768239365972364990_);fill:none;stroke:#8B8F91;stroke-width:0.25;stroke-linecap:round;stroke-linejoin:round;" points="
		309.6,304.6 321.1,304.6 321.1,313.1 327.4,313.1 	"/>
	
		<polyline style="clip-path:url(#SVGID_00000054956222548095887100000015768239365972364990_);fill:none;stroke:#8B8F91;stroke-width:0.25;stroke-linecap:round;stroke-linejoin:round;" points="
		150.3,303.2 132.5,303.2 132.6,318.2 116.6,318.2 	"/>
	
		<polyline style="clip-path:url(#SVGID_00000054956222548095887100000015768239365972364990_);fill:none;stroke:#8B8F91;stroke-width:0.25;stroke-linecap:round;stroke-linejoin:round;" points="
		150.3,305.7 139,305.7 139.2,329.2 116.6,329.2 	"/>
	
		<polyline style="clip-path:url(#SVGID_00000054956222548095887100000015768239365972364990_);fill:none;stroke:#8B8F91;stroke-width:0.25;stroke-linecap:round;stroke-linejoin:round;" points="
		211,299.2 195,299.2 195,282.7 190.7,282.7 	"/>
	
		<polyline style="clip-path:url(#SVGID_00000054956222548095887100000015768239365972364990_);fill:none;stroke:#8B8F91;stroke-width:0.25;stroke-linecap:round;stroke-linejoin:round;" points="
		309.6,300.7 321.5,300.7 321.5,292.2 326.1,292.2 	"/>
	
		<polyline style="clip-path:url(#SVGID_00000054956222548095887100000015768239365972364990_);fill:none;stroke:#8B8F91;stroke-width:0.25;stroke-linecap:round;stroke-linejoin:round;" points="
		150.3,301 127.9,301 127.9,307.7 116.6,307.7 	"/>
	
		<polyline style="clip-path:url(#SVGID_00000054956222548095887100000015768239365972364990_);fill:none;stroke:#8B8F91;stroke-width:0.25;stroke-linecap:round;stroke-linejoin:round;" points="
		150.3,298.7 127.9,298.7 127.9,297 116.6,297 	"/>
	
		<line style="clip-path:url(#SVGID_00000054956222548095887100000015768239365972364990_);fill:none;stroke:#8B8F91;stroke-width:0.25;stroke-linecap:round;stroke-linejoin:round;" x1="211" y1="302.1" x2="190.7" y2="302.1"/>
	
		<line style="clip-path:url(#SVGID_00000054956222548095887100000015768239365972364990_);fill:none;stroke:#8B8F91;stroke-width:0.25;stroke-linecap:round;stroke-linejoin:round;" x1="309.6" y1="302.7" x2="327.2" y2="302.7"/>
	
		<line style="clip-path:url(#SVGID_00000054956222548095887100000015768239365972364990_);fill:none;stroke:#8B8F91;stroke-width:0.25;stroke-linecap:round;stroke-linejoin:round;" x1="278.3" y1="302.7" x2="264.1" y2="302.7"/>
	
		<path style="clip-path:url(#SVGID_00000054956222548095887100000015768239365972364990_);fill:none;stroke:#88003E;stroke-width:0.535;stroke-linecap:round;stroke-linejoin:round;" d="
		M150.3,302.7"/>
	
		<line style="clip-path:url(#SVGID_00000054956222548095887100000015768239365972364990_);fill:none;stroke:#8B8F91;stroke-width:0.25;stroke-linecap:round;stroke-linejoin:round;" x1="150.3" y1="284" x2="116" y2="284"/>
	<g style="clip-path:url(#SVGID_00000054956222548095887100000015768239365972364990_);">
		<defs>
			<rect id="SVGID_00000158026009280439692760000000146728006381529268_" width="419.5" height="595.3"/>
		</defs>
		<clipPath id="SVGID_00000042696767759695413670000009815467055321058992_">
			<use xlink:href="#SVGID_00000158026009280439692760000000146728006381529268_"  style="overflow:visible;"/>
		</clipPath>
		<path style="clip-path:url(#SVGID_00000042696767759695413670000009815467055321058992_);fill:#FFFFFF;" d="M238,328.6
			c14.8,0,26.7-12,26.7-26.7c0-14.8-12-26.7-26.7-26.7s-26.7,12-26.7,26.7C211.3,316.6,223.2,328.6,238,328.6"/>
		
			<circle style="clip-path:url(#SVGID_00000042696767759695413670000009815467055321058992_);fill:none;stroke:#B7BABB;stroke-width:0.327;" cx="238" cy="301.8" r="26.7"/>
		<path style="clip-path:url(#SVGID_00000042696767759695413670000009815467055321058992_);fill:#E0E2E3;" d="M238,319.3
			c9.7,0,17.5-7.8,17.5-17.5s-7.8-17.5-17.5-17.5s-17.5,7.8-17.5,17.5S228.3,319.3,238,319.3"/>
		
			<path style="clip-path:url(#SVGID_00000042696767759695413670000009815467055321058992_);fill:none;stroke:#B7BABB;stroke-width:2.62;" d="
			M264.7,301.8c0-14.8-12-26.7-26.7-26.7"/>
	</g>
	<g style="clip-path:url(#SVGID_00000054956222548095887100000015768239365972364990_);">
		<text transform="matrix(1 0 0 1 210.249 287.3317)" class="st26 st9 st27">Model</text>
	</g>
	<g style="clip-path:url(#SVGID_00000054956222548095887100000015768239365972364990_);">
		<text transform="matrix(1 0 0 1 210.249 295.5524)"><tspan x="0" y="0" class="st26 st9 st27">Sele</tspan><tspan x="19.3" y="0" class="st26 st9 st27">c</tspan><tspan x="24.6" y="0" class="st26 st9 st27">tion</tspan></text>
	</g>
	<polygon style="clip-path:url(#SVGID_00000054956222548095887100000015768239365972364990_);fill:#8B8F91;" points="223.3,305.3 
		222.1,305.3 222.1,301.2 226.3,301.2 226.3,302.4 223.3,302.4 	"/>
	<polygon style="clip-path:url(#SVGID_00000054956222548095887100000015768239365972364990_);fill:#8B8F91;" points="235.7,314.4 
		231.6,314.4 231.6,313.2 234.6,313.2 234.6,310.2 235.7,310.2 	"/>
	<polygon style="clip-path:url(#SVGID_00000054956222548095887100000015768239365972364990_);fill:#8B8F91;" points="235.7,305.3 
		234.6,305.3 234.6,302.4 231.6,302.4 231.6,301.2 235.7,301.2 	"/>
	<polygon style="clip-path:url(#SVGID_00000054956222548095887100000015768239365972364990_);fill:#8B8F91;" points="226.3,314.4 
		222.1,314.4 222.1,310.2 223.3,310.2 223.3,313.2 226.3,313.2 	"/>
	<polygon style="clip-path:url(#SVGID_00000054956222548095887100000015768239365972364990_);fill:#8B8F91;" points="246.4,322.2 
		247.7,316.1 253.9,314.9 240.7,309.2 	"/>
</g>
</svg>
