<?xml version="1.0" encoding="utf-8"?>
<!-- Generator: Adobe Illustrator 28.0.0, SVG Export Plug-In . SVG Version: 6.00 Build 0)  -->
<svg version="1.1" id="Layer_1" xmlns="http://www.w3.org/2000/svg" xmlns:xlink="http://www.w3.org/1999/xlink" x="0px" y="0px"
	 viewBox="0 0 419.5 595.3" style="enable-background:new 0 0 419.5 595.3;" xml:space="preserve">
<style type="text/css">
	.st0{clip-path:url(#SVGID_00000173151802634887059460000002536156550477736121_);}
	.st1{opacity:0.5;clip-path:url(#SVGID_00000083067438421747586070000010796687706994310582_);}
	.st2{clip-path:url(#SVGID_00000142178578521510848290000018276277112937503122_);}
	.st3{clip-path:url(#SVGID_00000144319133122017747120000011216380646962655923_);fill:none;stroke:#B7BABB;stroke-width:0.25;}
	.st4{clip-path:url(#SVGID_00000144319133122017747120000011216380646962655923_);fill:none;stroke:#B7BABB;stroke-width:0.2;}
	.st5{clip-path:url(#SVGID_00000083067438421747586070000010796687706994310582_);fill:#FFFFFF;}
	.st6{clip-path:url(#SVGID_00000083067438421747586070000010796687706994310582_);fill:none;stroke:#B7BABB;stroke-width:0.327;}
	.st7{clip-path:url(#SVGID_00000083067438421747586070000010796687706994310582_);fill:#E0E2E3;}
	.st8{clip-path:url(#SVGID_00000083067438421747586070000010796687706994310582_);fill:none;stroke:#B7BABB;stroke-width:2.62;}
	.st9{fill:#15233A;}
	.st10{font-family:'Colfax-Bold';}
	.st11{font-size:9.2472px;}
	.st12{clip-path:url(#SVGID_00000173151802634887059460000002536156550477736121_);fill:#FFFFFF;}
	.st13{fill:#8B8F91;}
	.st14{font-family:'Colfax-Regular';}
	.st15{font-size:3.822px;}
	.st16{clip-path:url(#SVGID_00000173151802634887059460000002536156550477736121_);fill:none;stroke:#8B8F91;stroke-width:0.25;}
	.st17{clip-path:url(#SVGID_00000173151802634887059460000002536156550477736121_);fill:#8B8F91;}
	.st18{fill:#FFFFFF;}
	.st19{font-size:5.733px;}
	
		.st20{clip-path:url(#SVGID_00000173151802634887059460000002536156550477736121_);fill:none;stroke:#8B8F91;stroke-width:0.25;stroke-linecap:round;stroke-linejoin:round;}
	.st21{font-size:4.459px;}
	.st22{clip-path:url(#SVGID_00000173151802634887059460000002536156550477736121_);fill:#00109F;}
	.st23{font-size:4px;}
	.st24{font-size:8px;}
	.st25{clip-path:url(#SVGID_00000173151802634887059460000002536156550477736121_);fill:none;stroke:#00109F;stroke-width:0.5;}
	.st26{clip-path:url(#SVGID_00000163753373724586480770000015425796099697147832_);fill:#8B8F91;}
	.st27{clip-path:url(#SVGID_00000164494509599121986280000002769636644034630846_);fill:#8B8F91;}
</style>
<g>
	<defs>
		<rect id="SVGID_1_" width="419.5" height="595.3"/>
	</defs>
	<clipPath id="SVGID_00000127736972773424065190000000096433723809785508_">
		<use xlink:href="#SVGID_1_"  style="overflow:visible;"/>
	</clipPath>
	<g style="clip-path:url(#SVGID_00000127736972773424065190000000096433723809785508_);">
		<defs>
			<rect id="SVGID_00000092428944032744887980000016209125916441085874_" width="419.5" height="595.3"/>
		</defs>
		<clipPath id="SVGID_00000060018860425918649050000003330622955073055399_">
			<use xlink:href="#SVGID_00000092428944032744887980000016209125916441085874_"  style="overflow:visible;"/>
		</clipPath>
		<g style="opacity:0.5;clip-path:url(#SVGID_00000060018860425918649050000003330622955073055399_);">
			<g>
				<defs>
					<rect id="SVGID_00000106126338629430625940000008838417200960542871_" x="37.6" y="250.8" width="344.1" height="94.5"/>
				</defs>
				<clipPath id="SVGID_00000005251054190249481990000011153800339538658434_">
					<use xlink:href="#SVGID_00000106126338629430625940000008838417200960542871_"  style="overflow:visible;"/>
				</clipPath>
				<g style="clip-path:url(#SVGID_00000005251054190249481990000011153800339538658434_);">
					<defs>
						<polygon id="SVGID_00000003088763586926733970000009639292351069229440_" points="46.6,257.8 46.6,257.8 46.6,344.3 
							372.8,344.3 372.8,257.8 						"/>
					</defs>
					<clipPath id="SVGID_00000140734106255530267830000007841674746531904175_">
						<use xlink:href="#SVGID_00000003088763586926733970000009639292351069229440_"  style="overflow:visible;"/>
					</clipPath>
					
						<line style="clip-path:url(#SVGID_00000140734106255530267830000007841674746531904175_);fill:none;stroke:#B7BABB;stroke-width:0.25;" x1="371.8" y1="89.6" x2="371.8" y2="415.5"/>
					
						<line style="clip-path:url(#SVGID_00000140734106255530267830000007841674746531904175_);fill:none;stroke:#B7BABB;stroke-width:0.25;" x1="364.7" y1="89.6" x2="364.7" y2="415.5"/>
					
						<line style="clip-path:url(#SVGID_00000140734106255530267830000007841674746531904175_);fill:none;stroke:#B7BABB;stroke-width:0.25;" x1="357.7" y1="89.6" x2="357.7" y2="415.5"/>
					
						<line style="clip-path:url(#SVGID_00000140734106255530267830000007841674746531904175_);fill:none;stroke:#B7BABB;stroke-width:0.25;" x1="350.6" y1="89.6" x2="350.6" y2="415.5"/>
					
						<line style="clip-path:url(#SVGID_00000140734106255530267830000007841674746531904175_);fill:none;stroke:#B7BABB;stroke-width:0.25;" x1="343.5" y1="89.6" x2="343.5" y2="415.5"/>
					
						<line style="clip-path:url(#SVGID_00000140734106255530267830000007841674746531904175_);fill:none;stroke:#B7BABB;stroke-width:0.25;" x1="336.4" y1="89.6" x2="336.4" y2="415.5"/>
					
						<line style="clip-path:url(#SVGID_00000140734106255530267830000007841674746531904175_);fill:none;stroke:#B7BABB;stroke-width:0.25;" x1="329.3" y1="89.6" x2="329.3" y2="415.5"/>
					
						<line style="clip-path:url(#SVGID_00000140734106255530267830000007841674746531904175_);fill:none;stroke:#B7BABB;stroke-width:0.25;" x1="322.2" y1="89.6" x2="322.2" y2="415.5"/>
					
						<line style="clip-path:url(#SVGID_00000140734106255530267830000007841674746531904175_);fill:none;stroke:#B7BABB;stroke-width:0.25;" x1="315.1" y1="89.6" x2="315.1" y2="415.5"/>
					
						<line style="clip-path:url(#SVGID_00000140734106255530267830000007841674746531904175_);fill:none;stroke:#B7BABB;stroke-width:0.25;" x1="308.1" y1="89.6" x2="308.1" y2="415.5"/>
					
						<line style="clip-path:url(#SVGID_00000140734106255530267830000007841674746531904175_);fill:none;stroke:#B7BABB;stroke-width:0.25;" x1="301" y1="89.6" x2="301" y2="415.5"/>
					
						<line style="clip-path:url(#SVGID_00000140734106255530267830000007841674746531904175_);fill:none;stroke:#B7BABB;stroke-width:0.25;" x1="293.9" y1="89.6" x2="293.9" y2="415.5"/>
					
						<line style="clip-path:url(#SVGID_00000140734106255530267830000007841674746531904175_);fill:none;stroke:#B7BABB;stroke-width:0.25;" x1="286.8" y1="89.6" x2="286.8" y2="415.5"/>
					
						<line style="clip-path:url(#SVGID_00000140734106255530267830000007841674746531904175_);fill:none;stroke:#B7BABB;stroke-width:0.25;" x1="279.7" y1="89.6" x2="279.7" y2="415.5"/>
					
						<line style="clip-path:url(#SVGID_00000140734106255530267830000007841674746531904175_);fill:none;stroke:#B7BABB;stroke-width:0.25;" x1="272.6" y1="89.6" x2="272.6" y2="415.5"/>
					
						<line style="clip-path:url(#SVGID_00000140734106255530267830000007841674746531904175_);fill:none;stroke:#B7BABB;stroke-width:0.25;" x1="265.5" y1="89.6" x2="265.5" y2="415.5"/>
					
						<line style="clip-path:url(#SVGID_00000140734106255530267830000007841674746531904175_);fill:none;stroke:#B7BABB;stroke-width:0.25;" x1="258.4" y1="89.6" x2="258.4" y2="415.5"/>
					
						<line style="clip-path:url(#SVGID_00000140734106255530267830000007841674746531904175_);fill:none;stroke:#B7BABB;stroke-width:0.25;" x1="251.4" y1="89.6" x2="251.4" y2="415.5"/>
					
						<line style="clip-path:url(#SVGID_00000140734106255530267830000007841674746531904175_);fill:none;stroke:#B7BABB;stroke-width:0.25;" x1="244.3" y1="89.6" x2="244.3" y2="415.5"/>
					
						<line style="clip-path:url(#SVGID_00000140734106255530267830000007841674746531904175_);fill:none;stroke:#B7BABB;stroke-width:0.25;" x1="237.2" y1="89.6" x2="237.2" y2="415.5"/>
					
						<line style="clip-path:url(#SVGID_00000140734106255530267830000007841674746531904175_);fill:none;stroke:#B7BABB;stroke-width:0.25;" x1="230.1" y1="89.6" x2="230.1" y2="415.5"/>
					
						<line style="clip-path:url(#SVGID_00000140734106255530267830000007841674746531904175_);fill:none;stroke:#B7BABB;stroke-width:0.25;" x1="223" y1="89.6" x2="223" y2="415.5"/>
					
						<line style="clip-path:url(#SVGID_00000140734106255530267830000007841674746531904175_);fill:none;stroke:#B7BABB;stroke-width:0.25;" x1="215.9" y1="89.6" x2="215.9" y2="415.5"/>
					
						<line style="clip-path:url(#SVGID_00000140734106255530267830000007841674746531904175_);fill:none;stroke:#B7BABB;stroke-width:0.25;" x1="208.8" y1="89.6" x2="208.8" y2="415.5"/>
					
						<line style="clip-path:url(#SVGID_00000140734106255530267830000007841674746531904175_);fill:none;stroke:#B7BABB;stroke-width:0.25;" x1="201.8" y1="89.6" x2="201.8" y2="415.5"/>
					
						<line style="clip-path:url(#SVGID_00000140734106255530267830000007841674746531904175_);fill:none;stroke:#B7BABB;stroke-width:0.25;" x1="194.7" y1="89.6" x2="194.7" y2="415.5"/>
					
						<line style="clip-path:url(#SVGID_00000140734106255530267830000007841674746531904175_);fill:none;stroke:#B7BABB;stroke-width:0.25;" x1="187.6" y1="89.6" x2="187.6" y2="415.5"/>
					
						<line style="clip-path:url(#SVGID_00000140734106255530267830000007841674746531904175_);fill:none;stroke:#B7BABB;stroke-width:0.25;" x1="180.5" y1="89.6" x2="180.5" y2="415.5"/>
					
						<line style="clip-path:url(#SVGID_00000140734106255530267830000007841674746531904175_);fill:none;stroke:#B7BABB;stroke-width:0.25;" x1="173.4" y1="89.6" x2="173.4" y2="415.5"/>
					
						<line style="clip-path:url(#SVGID_00000140734106255530267830000007841674746531904175_);fill:none;stroke:#B7BABB;stroke-width:0.25;" x1="166.3" y1="89.6" x2="166.3" y2="415.5"/>
					
						<line style="clip-path:url(#SVGID_00000140734106255530267830000007841674746531904175_);fill:none;stroke:#B7BABB;stroke-width:0.25;" x1="159.2" y1="89.6" x2="159.2" y2="415.5"/>
					
						<line style="clip-path:url(#SVGID_00000140734106255530267830000007841674746531904175_);fill:none;stroke:#B7BABB;stroke-width:0.25;" x1="152.1" y1="89.6" x2="152.1" y2="415.5"/>
					
						<line style="clip-path:url(#SVGID_00000140734106255530267830000007841674746531904175_);fill:none;stroke:#B7BABB;stroke-width:0.25;" x1="145.1" y1="89.6" x2="145.1" y2="415.5"/>
					
						<line style="clip-path:url(#SVGID_00000140734106255530267830000007841674746531904175_);fill:none;stroke:#B7BABB;stroke-width:0.25;" x1="138" y1="89.6" x2="138" y2="415.5"/>
					
						<line style="clip-path:url(#SVGID_00000140734106255530267830000007841674746531904175_);fill:none;stroke:#B7BABB;stroke-width:0.25;" x1="130.9" y1="89.6" x2="130.9" y2="415.5"/>
					
						<line style="clip-path:url(#SVGID_00000140734106255530267830000007841674746531904175_);fill:none;stroke:#B7BABB;stroke-width:0.25;" x1="123.8" y1="89.6" x2="123.8" y2="415.5"/>
					
						<line style="clip-path:url(#SVGID_00000140734106255530267830000007841674746531904175_);fill:none;stroke:#B7BABB;stroke-width:0.25;" x1="116.7" y1="89.6" x2="116.7" y2="415.5"/>
					
						<line style="clip-path:url(#SVGID_00000140734106255530267830000007841674746531904175_);fill:none;stroke:#B7BABB;stroke-width:0.25;" x1="109.6" y1="89.6" x2="109.6" y2="415.5"/>
					
						<line style="clip-path:url(#SVGID_00000140734106255530267830000007841674746531904175_);fill:none;stroke:#B7BABB;stroke-width:0.25;" x1="102.5" y1="89.6" x2="102.5" y2="415.5"/>
					
						<line style="clip-path:url(#SVGID_00000140734106255530267830000007841674746531904175_);fill:none;stroke:#B7BABB;stroke-width:0.25;" x1="95.5" y1="89.6" x2="95.5" y2="415.5"/>
					
						<line style="clip-path:url(#SVGID_00000140734106255530267830000007841674746531904175_);fill:none;stroke:#B7BABB;stroke-width:0.25;" x1="88.4" y1="89.6" x2="88.4" y2="415.5"/>
					
						<line style="clip-path:url(#SVGID_00000140734106255530267830000007841674746531904175_);fill:none;stroke:#B7BABB;stroke-width:0.25;" x1="81.3" y1="89.6" x2="81.3" y2="415.5"/>
					
						<line style="clip-path:url(#SVGID_00000140734106255530267830000007841674746531904175_);fill:none;stroke:#B7BABB;stroke-width:0.25;" x1="74.2" y1="89.6" x2="74.2" y2="415.5"/>
					
						<line style="clip-path:url(#SVGID_00000140734106255530267830000007841674746531904175_);fill:none;stroke:#B7BABB;stroke-width:0.25;" x1="67.1" y1="89.6" x2="67.1" y2="415.5"/>
					
						<line style="clip-path:url(#SVGID_00000140734106255530267830000007841674746531904175_);fill:none;stroke:#B7BABB;stroke-width:0.25;" x1="60" y1="89.6" x2="60" y2="415.5"/>
					
						<line style="clip-path:url(#SVGID_00000140734106255530267830000007841674746531904175_);fill:none;stroke:#B7BABB;stroke-width:0.25;" x1="52.9" y1="89.6" x2="52.9" y2="415.5"/>
					
						<line style="clip-path:url(#SVGID_00000140734106255530267830000007841674746531904175_);fill:none;stroke:#B7BABB;stroke-width:0.25;" x1="45.8" y1="89.6" x2="45.8" y2="415.5"/>
					
						<line style="clip-path:url(#SVGID_00000140734106255530267830000007841674746531904175_);fill:none;stroke:#B7BABB;stroke-width:0.2;" x1="371.7" y1="337.7" x2="45.7" y2="337.7"/>
					
						<line style="clip-path:url(#SVGID_00000140734106255530267830000007841674746531904175_);fill:none;stroke:#B7BABB;stroke-width:0.2;" x1="371.7" y1="330.6" x2="45.7" y2="330.6"/>
					
						<line style="clip-path:url(#SVGID_00000140734106255530267830000007841674746531904175_);fill:none;stroke:#B7BABB;stroke-width:0.2;" x1="371.7" y1="323.5" x2="45.7" y2="323.5"/>
					
						<line style="clip-path:url(#SVGID_00000140734106255530267830000007841674746531904175_);fill:none;stroke:#B7BABB;stroke-width:0.2;" x1="371.7" y1="316.5" x2="45.7" y2="316.5"/>
					
						<line style="clip-path:url(#SVGID_00000140734106255530267830000007841674746531904175_);fill:none;stroke:#B7BABB;stroke-width:0.2;" x1="371.7" y1="309.4" x2="45.7" y2="309.4"/>
					
						<line style="clip-path:url(#SVGID_00000140734106255530267830000007841674746531904175_);fill:none;stroke:#B7BABB;stroke-width:0.2;" x1="371.7" y1="302.3" x2="45.7" y2="302.3"/>
					
						<line style="clip-path:url(#SVGID_00000140734106255530267830000007841674746531904175_);fill:none;stroke:#B7BABB;stroke-width:0.2;" x1="371.7" y1="295.2" x2="45.7" y2="295.2"/>
					
						<line style="clip-path:url(#SVGID_00000140734106255530267830000007841674746531904175_);fill:none;stroke:#B7BABB;stroke-width:0.2;" x1="371.7" y1="288.1" x2="45.7" y2="288.1"/>
					
						<line style="clip-path:url(#SVGID_00000140734106255530267830000007841674746531904175_);fill:none;stroke:#B7BABB;stroke-width:0.2;" x1="371.7" y1="281" x2="45.7" y2="281"/>
					
						<line style="clip-path:url(#SVGID_00000140734106255530267830000007841674746531904175_);fill:none;stroke:#B7BABB;stroke-width:0.2;" x1="371.7" y1="273.9" x2="45.7" y2="273.9"/>
					
						<line style="clip-path:url(#SVGID_00000140734106255530267830000007841674746531904175_);fill:none;stroke:#B7BABB;stroke-width:0.2;" x1="371.7" y1="266.8" x2="45.7" y2="266.8"/>
					
						<line style="clip-path:url(#SVGID_00000140734106255530267830000007841674746531904175_);fill:none;stroke:#B7BABB;stroke-width:0.2;" x1="371.7" y1="259.8" x2="45.7" y2="259.8"/>
				</g>
			</g>
		</g>
		<path style="clip-path:url(#SVGID_00000060018860425918649050000003330622955073055399_);fill:#FFFFFF;" d="M140.5,335.9
			c14.8,0,26.7-12,26.7-26.7c0-14.8-12-26.7-26.7-26.7s-26.7,12-26.7,26.7C113.8,324,125.8,335.9,140.5,335.9"/>
		
			<circle style="clip-path:url(#SVGID_00000060018860425918649050000003330622955073055399_);fill:none;stroke:#B7BABB;stroke-width:0.327;" cx="140.5" cy="309.2" r="26.7"/>
		<path style="clip-path:url(#SVGID_00000060018860425918649050000003330622955073055399_);fill:#E0E2E3;" d="M140.5,326.7
			c9.7,0,17.5-7.8,17.5-17.5c0-9.7-7.8-17.5-17.5-17.5s-17.5,7.8-17.5,17.5C123,318.9,130.9,326.7,140.5,326.7"/>
		
			<path style="clip-path:url(#SVGID_00000060018860425918649050000003330622955073055399_);fill:none;stroke:#B7BABB;stroke-width:2.62;" d="
			M167.3,309.2c0-14.8-12-26.7-26.7-26.7"/>
	</g>
	<g style="clip-path:url(#SVGID_00000127736972773424065190000000096433723809785508_);">
		<text transform="matrix(1 0 0 1 112.7886 294.7032)"><tspan x="0" y="0" class="st9 st10 st11">F</tspan><tspan x="5.5" y="0" class="st9 st10 st11">e</tspan><tspan x="10.7" y="0" class="st9 st10 st11">a</tspan><tspan x="16.1" y="0" class="st9 st10 st11">tu</tspan><tspan x="25.4" y="0" class="st9 st10 st11">r</tspan><tspan x="29" y="0" class="st9 st10 st11">e </tspan></text>
	</g>
	<g style="clip-path:url(#SVGID_00000127736972773424065190000000096433723809785508_);">
		<text transform="matrix(1 0 0 1 112.7886 302.9244)"><tspan x="0" y="0" class="st9 st10 st11">Sele</tspan><tspan x="19.3" y="0" class="st9 st10 st11">c</tspan><tspan x="24.6" y="0" class="st9 st10 st11">tion</tspan></text>
	</g>
	<polygon style="clip-path:url(#SVGID_00000127736972773424065190000000096433723809785508_);fill:#FFFFFF;" points="280,327.8 
		280,334.6 309.6,334.6 311.5,332.7 311.5,327.8 	"/>
	<g style="clip-path:url(#SVGID_00000127736972773424065190000000096433723809785508_);">
		<text transform="matrix(1 0 0 1 282.2646 332.6549)"><tspan x="0" y="0" class="st13 st14 st15">F</tspan><tspan x="1.9" y="0" class="st13 st14 st15">a</tspan><tspan x="4" y="0" class="st13 st14 st15">ct</tspan><tspan x="7.1" y="0" class="st13 st14 st15">or Anal</tspan><tspan x="18.2" y="0" class="st13 st14 st15">y</tspan><tspan x="20" y="0" class="st13 st14 st15">si</tspan><tspan x="22.6" y="0" class="st13 st14 st15">s</tspan></text>
	</g>
	
		<polygon style="clip-path:url(#SVGID_00000127736972773424065190000000096433723809785508_);fill:none;stroke:#8B8F91;stroke-width:0.25;" points="
		280,327.8 280,334.6 309.6,334.6 311.5,332.7 311.5,327.8 	"/>
	<polygon style="clip-path:url(#SVGID_00000127736972773424065190000000096433723809785508_);fill:#8B8F91;" points="178.6,291 
		178.6,300.4 209.6,300.4 211.5,298.5 211.5,291 	"/>
	<g style="clip-path:url(#SVGID_00000127736972773424065190000000096433723809785508_);">
		<text transform="matrix(1 0 0 1 181.1172 297.8395)"><tspan x="0" y="0" class="st18 st10 st19">S</tspan><tspan x="3.8" y="0" class="st18 st10 st19">e</tspan><tspan x="7" y="0" class="st18 st10 st19">a</tspan><tspan x="10.5" y="0" class="st18 st10 st19">r</tspan><tspan x="12.7" y="0" class="st18 st10 st19">ch</tspan></text>
	</g>
	<polygon style="clip-path:url(#SVGID_00000127736972773424065190000000096433723809785508_);fill:#8B8F91;" points="178.6,312.4 
		178.6,321.9 221.3,321.9 223.2,320 223.2,312.4 	"/>
	<g style="clip-path:url(#SVGID_00000127736972773424065190000000096433723809785508_);">
		<text transform="matrix(1 0 0 1 181.2598 319.3268)"><tspan x="0" y="0" class="st18 st10 st19">Labelled </tspan><tspan x="25.3" y="0" class="st18 st10 st19">D</tspan><tspan x="29.4" y="0" class="st18 st10 st19">a</tspan><tspan x="32.8" y="0" class="st18 st10 st19">ta</tspan></text>
	</g>
	
		<polyline style="clip-path:url(#SVGID_00000127736972773424065190000000096433723809785508_);fill:none;stroke:#8B8F91;stroke-width:0.25;stroke-linecap:round;stroke-linejoin:round;" points="
		232.3,267.9 217.1,267.8 217.1,293.5 211.5,293.5 	"/>
	
		<polyline style="clip-path:url(#SVGID_00000127736972773424065190000000096433723809785508_);fill:none;stroke:#8B8F91;stroke-width:0.25;stroke-linecap:round;stroke-linejoin:round;" points="
		233.7,282 218.5,282 218.6,295.1 211.4,295.1 	"/>
	
		<polyline style="clip-path:url(#SVGID_00000127736972773424065190000000096433723809785508_);fill:none;stroke:#8B8F91;stroke-width:0.25;stroke-linecap:round;stroke-linejoin:round;" points="
		231.9,331.4 228.2,331.4 228.2,318.3 223.3,318.3 	"/>
	<polygon style="clip-path:url(#SVGID_00000127736972773424065190000000096433723809785508_);fill:#FFFFFF;" points="232,277.5 
		232,286.1 266.7,286.1 268.6,284.2 268.6,277.5 	"/>
	<g style="clip-path:url(#SVGID_00000127736972773424065190000000096433723809785508_);">
		<text transform="matrix(1 0 0 1 234.207 283.4772)"><tspan x="0" y="0" class="st13 st10 st21">W</tspan><tspan x="4.3" y="0" class="st13 st10 st21">r</tspan><tspan x="5.9" y="0" class="st13 st10 st21">apper</tspan></text>
	</g>
	
		<polygon style="clip-path:url(#SVGID_00000127736972773424065190000000096433723809785508_);fill:none;stroke:#8B8F91;stroke-width:0.25;" points="
		232,277.5 232,286.1 266.7,286.1 268.6,284.2 268.6,277.5 	"/>
	<polygon style="clip-path:url(#SVGID_00000127736972773424065190000000096433723809785508_);fill:#FFFFFF;" points="232,327.1 
		232,335.7 266.7,335.7 268.6,333.8 268.6,327.1 	"/>
	<g style="clip-path:url(#SVGID_00000127736972773424065190000000096433723809785508_);">
		<text transform="matrix(1 0 0 1 234.2744 333.0836)"><tspan x="0" y="0" class="st13 st10 st21">Unsupe</tspan><tspan x="16.3" y="0" class="st13 st10 st21">r</tspan><tspan x="18.1" y="0" class="st13 st10 st21">vised</tspan></text>
	</g>
	
		<polygon style="clip-path:url(#SVGID_00000127736972773424065190000000096433723809785508_);fill:none;stroke:#8B8F91;stroke-width:0.25;" points="
		232,327.1 232,335.7 266.7,335.7 268.6,333.8 268.6,327.1 	"/>
	<polygon style="clip-path:url(#SVGID_00000127736972773424065190000000096433723809785508_);fill:#FFFFFF;" points="232,290.8 
		232,299.4 266.7,299.4 268.6,297.5 268.6,290.8 	"/>
	<g style="clip-path:url(#SVGID_00000127736972773424065190000000096433723809785508_);">
		<text transform="matrix(1 0 0 1 234.2529 296.7736)" class="st13 st10 st21">Embedded</text>
	</g>
	
		<polygon style="clip-path:url(#SVGID_00000127736972773424065190000000096433723809785508_);fill:none;stroke:#8B8F91;stroke-width:0.25;" points="
		232,290.8 232,299.4 266.7,299.4 268.6,297.5 268.6,290.8 	"/>
	<polygon style="clip-path:url(#SVGID_00000127736972773424065190000000096433723809785508_);fill:#FFFFFF;" points="232,264.2 
		232,272.8 266.7,272.8 268.6,270.9 268.6,264.2 	"/>
	<g style="clip-path:url(#SVGID_00000127736972773424065190000000096433723809785508_);">
		<text transform="matrix(1 0 0 1 234.2529 270.1813)" class="st13 st10 st21">Filter</text>
	</g>
	
		<polygon style="clip-path:url(#SVGID_00000127736972773424065190000000096433723809785508_);fill:none;stroke:#8B8F91;stroke-width:0.25;" points="
		232,264.2 232,272.8 266.7,272.8 268.6,270.9 268.6,264.2 	"/>
	<polygon style="clip-path:url(#SVGID_00000127736972773424065190000000096433723809785508_);fill:#FFFFFF;" points="232,312.6 
		232,321.2 266.7,321.2 268.6,319.3 268.6,312.6 	"/>
	<g style="clip-path:url(#SVGID_00000127736972773424065190000000096433723809785508_);">
		<text transform="matrix(1 0 0 1 234.2188 318.5826)"><tspan x="0" y="0" class="st13 st10 st21">Supe</tspan><tspan x="10.9" y="0" class="st13 st10 st21">r</tspan><tspan x="12.7" y="0" class="st13 st10 st21">vised</tspan></text>
	</g>
	
		<polygon style="clip-path:url(#SVGID_00000127736972773424065190000000096433723809785508_);fill:none;stroke:#8B8F91;stroke-width:0.25;" points="
		232,312.6 232,321.2 266.7,321.2 268.6,319.3 268.6,312.6 	"/>
	<polygon style="clip-path:url(#SVGID_00000127736972773424065190000000096433723809785508_);fill:#00109F;" points="46.7,243.6 
		46.7,243.6 46.7,258 183.6,258 183.6,243.6 	"/>
	<g style="clip-path:url(#SVGID_00000127736972773424065190000000096433723809785508_);">
		<text transform="matrix(1 0 0 1 49.4575 247.587)"><tspan x="0" y="0" class="st18 st14 st23">Figu</tspan><tspan x="8" y="0" class="st18 st14 st23">r</tspan><tspan x="9.4" y="0" class="st18 st14 st23">e 6: </tspan></text>
	</g>
	<g style="clip-path:url(#SVGID_00000127736972773424065190000000096433723809785508_);">
		<text transform="matrix(1 0 0 1 66.3657 247.587)" class="st18 st14 st23"> </text>
	</g>
	<g style="clip-path:url(#SVGID_00000127736972773424065190000000096433723809785508_);">
		<text transform="matrix(1 0 0 1 49.4575 255.587)"><tspan x="0" y="0" class="st18 st10 st24">The</tspan><tspan x="14.2" y="0" class="st18 st10 st24"> </tspan><tspan x="16" y="0" class="st18 st10 st24">F</tspan><tspan x="20.7" y="0" class="st18 st10 st24">e</tspan><tspan x="25.2" y="0" class="st18 st10 st24">a</tspan><tspan x="30" y="0" class="st18 st10 st24">tu</tspan><tspan x="38" y="0" class="st18 st10 st24">r</tspan><tspan x="41.1" y="0" class="st18 st10 st24">e</tspan><tspan x="45.6" y="0" class="st18 st10 st24"> </tspan><tspan x="47.4" y="0" class="st18 st10 st24">E</tspan><tspan x="52.4" y="0" class="st18 st10 st24">x</tspan><tspan x="56.8" y="0" class="st18 st10 st24">t</tspan><tspan x="60" y="0" class="st18 st10 st24">r</tspan><tspan x="63" y="0" class="st18 st10 st24">a</tspan><tspan x="67.8" y="0" class="st18 st10 st24">c</tspan><tspan x="72.4" y="0" class="st18 st10 st24">tion</tspan><tspan x="87.4" y="0" class="st18 st10 st24"> </tspan><tspan x="89.3" y="0" class="st18 st10 st24">P</tspan><tspan x="94.6" y="0" class="st18 st10 st24">r</tspan><tspan x="97.7" y="0" class="st18 st10 st24">o</tspan><tspan x="102.4" y="0" class="st18 st10 st24">c</tspan><tspan x="107" y="0" class="st18 st10 st24">edu</tspan><tspan x="121.4" y="0" class="st18 st10 st24">r</tspan><tspan x="124.5" y="0" class="st18 st10 st24">e</tspan></text>
	</g>
	
		<line style="clip-path:url(#SVGID_00000127736972773424065190000000096433723809785508_);fill:none;stroke:#00109F;stroke-width:0.5;" x1="152.8" y1="257.7" x2="372.4" y2="257.7"/>
	
		<line style="clip-path:url(#SVGID_00000127736972773424065190000000096433723809785508_);fill:none;stroke:#8B8F91;stroke-width:0.25;stroke-linecap:round;stroke-linejoin:round;" x1="211.2" y1="296.5" x2="231.8" y2="296.5"/>
	
		<line style="clip-path:url(#SVGID_00000127736972773424065190000000096433723809785508_);fill:none;stroke:#8B8F91;stroke-width:0.25;stroke-linecap:round;stroke-linejoin:round;" x1="223.2" y1="316.5" x2="231.8" y2="316.5"/>
	
		<line style="clip-path:url(#SVGID_00000127736972773424065190000000096433723809785508_);fill:none;stroke:#8B8F91;stroke-width:0.25;stroke-linecap:round;stroke-linejoin:round;" x1="279.8" y1="331.4" x2="268.7" y2="331.4"/>
	<g style="clip-path:url(#SVGID_00000127736972773424065190000000096433723809785508_);">
		<defs>
			<rect id="SVGID_00000132089292966675320720000003643295149262822786_" width="419.5" height="595.3"/>
		</defs>
		<clipPath id="SVGID_00000129899228707020643280000000809390972635200427_">
			<use xlink:href="#SVGID_00000132089292966675320720000003643295149262822786_"  style="overflow:visible;"/>
		</clipPath>
		<path style="clip-path:url(#SVGID_00000129899228707020643280000000809390972635200427_);fill:#8B8F91;" d="M134.8,322.1h8.9
			c0.6,0,1.1-0.5,1.1-1.2v-3.5h-2.2v2.4h-6.7v-7.1h3.3v-2.4h-4.4c-0.6,0-1.1,0.5-1.1,1.2v9.4C133.7,321.5,134.2,322.1,134.8,322.1"
			/>
		<path style="clip-path:url(#SVGID_00000129899228707020643280000000809390972635200427_);fill:#8B8F91;" d="M139.2,315.7l-1.4-1.5
			l-1.6,1.7l2.2,2.4c0.2,0.2,0.5,0.3,0.8,0.3s0.6-0.1,0.8-0.3l6.7-7.1l-1.6-1.7L139.2,315.7z"/>
	</g>
	<g style="clip-path:url(#SVGID_00000127736972773424065190000000096433723809785508_);">
		<defs>
			<path id="SVGID_00000015322858072090208220000006583966421226904496_" d="M139.2,315.7l-1.4-1.5l-1.6,1.7l2.2,2.4
				c0.2,0.2,0.5,0.3,0.8,0.3c0.3,0,0.6-0.1,0.8-0.3l6.7-7.1l-1.6-1.7L139.2,315.7z"/>
		</defs>
		<clipPath id="SVGID_00000163762071017966195330000008093665518179366583_">
			<use xlink:href="#SVGID_00000015322858072090208220000006583966421226904496_"  style="overflow:visible;"/>
		</clipPath>
		<path style="clip-path:url(#SVGID_00000163762071017966195330000008093665518179366583_);fill:#8B8F91;" d="M139.2,315.7l-1.4-1.5
			l-1.6,1.7l2.2,2.4c0.2,0.2,0.5,0.3,0.8,0.3s0.6-0.1,0.8-0.3l6.7-7.1l-1.6-1.7L139.2,315.7z"/>
	</g>
	
		<line style="clip-path:url(#SVGID_00000127736972773424065190000000096433723809785508_);fill:none;stroke:#8B8F91;stroke-width:0.25;stroke-linecap:round;stroke-linejoin:round;" x1="164.3" y1="295.5" x2="177.5" y2="295.5"/>
	
		<line style="clip-path:url(#SVGID_00000127736972773424065190000000096433723809785508_);fill:none;stroke:#8B8F91;stroke-width:0.25;stroke-linecap:round;stroke-linejoin:round;" x1="165.4" y1="317.5" x2="177.5" y2="317.5"/>
</g>
</svg>
