<?xml version="1.0" encoding="utf-8"?>
<!-- Generator: Adobe Illustrator 28.0.0, SVG Export Plug-In . SVG Version: 6.00 Build 0)  -->
<svg version="1.1" id="Layer_1" xmlns="http://www.w3.org/2000/svg" xmlns:xlink="http://www.w3.org/1999/xlink" x="0px" y="0px"
	 viewBox="0 0 419.5 595.3" style="enable-background:new 0 0 419.5 595.3;" xml:space="preserve">
<style type="text/css">
	.st0{clip-path:url(#SVGID_00000066476391193775677810000018186982800340357310_);}
	.st1{opacity:0.5;clip-path:url(#SVGID_00000063606247077020483930000006907814300212942730_);}
	.st2{clip-path:url(#SVGID_00000150811326196551056120000005615760406307560072_);}
	.st3{clip-path:url(#SVGID_00000032629409878920022400000001548185700140381331_);fill:none;stroke:#B7BABB;stroke-width:0.25;}
	.st4{clip-path:url(#SVGID_00000150811326196551056120000005615760406307560072_);fill:none;stroke:#B7BABB;stroke-width:0.2;}
	.st5{clip-path:url(#SVGID_00000066476391193775677810000018186982800340357310_);fill:#00109F;}
	.st6{fill:#FFFFFF;}
	.st7{font-family:'Colfax-Regular';}
	.st8{font-size:4px;}
	.st9{font-family:'Colfax-Bold';}
	.st10{font-size:8px;}
	.st11{clip-path:url(#SVGID_00000066476391193775677810000018186982800340357310_);fill:none;stroke:#00109F;stroke-width:0.5;}
	.st12{clip-path:url(#SVGID_00000066476391193775677810000018186982800340357310_);fill:#FFFFFF;}
	
		.st13{clip-path:url(#SVGID_00000066476391193775677810000018186982800340357310_);fill:none;stroke:#8B8F91;stroke-width:0.25;stroke-miterlimit:10;}
	.st14{fill:#15233A;}
	.st15{font-size:5px;}
	.st16{font-family:'BodoniSvtyTwoITCTT-Book';}
	.st17{font-size:8.28px;}
	.st18{font-size:4.8272px;}
	.st19{font-family:'CambriaMath';}
	.st20{font-family:'Times-Italic';}
	.st21{fill:#F04E29;}
	.st22{clip-path:url(#SVGID_00000066476391193775677810000018186982800340357310_);fill:none;stroke:#8B8F91;stroke-width:0.5;}
	.st23{clip-path:url(#SVGID_00000066476391193775677810000018186982800340357310_);fill:#8B8F91;}
</style>
<g>
	<defs>
		<rect id="SVGID_1_" width="419.5" height="595.3"/>
	</defs>
	<clipPath id="SVGID_00000091698862768966765760000016570685859643120543_">
		<use xlink:href="#SVGID_1_"  style="overflow:visible;"/>
	</clipPath>
	<g style="clip-path:url(#SVGID_00000091698862768966765760000016570685859643120543_);">
		<defs>
			<rect id="SVGID_00000056417410999113156900000005590433593278935955_" width="419.5" height="595.3"/>
		</defs>
		<clipPath id="SVGID_00000124858074569712264060000010066921470832614073_">
			<use xlink:href="#SVGID_00000056417410999113156900000005590433593278935955_"  style="overflow:visible;"/>
		</clipPath>
		<g style="opacity:0.5;clip-path:url(#SVGID_00000124858074569712264060000010066921470832614073_);">
			<g>
				<defs>
					<rect id="SVGID_00000164473868950064159110000006782229815020608128_" x="48.4" y="258.6" width="344.1" height="88.2"/>
				</defs>
				<clipPath id="SVGID_00000078729911525959799680000013128438437341497260_">
					<use xlink:href="#SVGID_00000164473868950064159110000006782229815020608128_"  style="overflow:visible;"/>
				</clipPath>
				<g style="clip-path:url(#SVGID_00000078729911525959799680000013128438437341497260_);">
					<defs>
						<polygon id="SVGID_00000000185695465091538610000002234972616316443302_" points="57.4,265.6 57.4,265.6 57.4,345.8 
							383.5,345.8 383.5,265.6 						"/>
					</defs>
					<clipPath id="SVGID_00000039128656199533632550000003925563221328608432_">
						<use xlink:href="#SVGID_00000000185695465091538610000002234972616316443302_"  style="overflow:visible;"/>
					</clipPath>
					
						<line style="clip-path:url(#SVGID_00000039128656199533632550000003925563221328608432_);fill:none;stroke:#B7BABB;stroke-width:0.25;" x1="383.5" y1="97.4" x2="383.5" y2="423.3"/>
					
						<line style="clip-path:url(#SVGID_00000039128656199533632550000003925563221328608432_);fill:none;stroke:#B7BABB;stroke-width:0.25;" x1="376.4" y1="97.4" x2="376.4" y2="423.3"/>
					
						<line style="clip-path:url(#SVGID_00000039128656199533632550000003925563221328608432_);fill:none;stroke:#B7BABB;stroke-width:0.25;" x1="369.3" y1="97.4" x2="369.3" y2="423.3"/>
					
						<line style="clip-path:url(#SVGID_00000039128656199533632550000003925563221328608432_);fill:none;stroke:#B7BABB;stroke-width:0.25;" x1="362.3" y1="97.4" x2="362.3" y2="423.3"/>
					
						<line style="clip-path:url(#SVGID_00000039128656199533632550000003925563221328608432_);fill:none;stroke:#B7BABB;stroke-width:0.25;" x1="355.2" y1="97.4" x2="355.2" y2="423.3"/>
					
						<line style="clip-path:url(#SVGID_00000039128656199533632550000003925563221328608432_);fill:none;stroke:#B7BABB;stroke-width:0.25;" x1="348.1" y1="97.4" x2="348.1" y2="423.3"/>
					
						<line style="clip-path:url(#SVGID_00000039128656199533632550000003925563221328608432_);fill:none;stroke:#B7BABB;stroke-width:0.25;" x1="341" y1="97.4" x2="341" y2="423.3"/>
					
						<line style="clip-path:url(#SVGID_00000039128656199533632550000003925563221328608432_);fill:none;stroke:#B7BABB;stroke-width:0.25;" x1="333.9" y1="97.4" x2="333.9" y2="423.3"/>
					
						<line style="clip-path:url(#SVGID_00000039128656199533632550000003925563221328608432_);fill:none;stroke:#B7BABB;stroke-width:0.25;" x1="326.8" y1="97.4" x2="326.8" y2="423.3"/>
					
						<line style="clip-path:url(#SVGID_00000039128656199533632550000003925563221328608432_);fill:none;stroke:#B7BABB;stroke-width:0.25;" x1="319.7" y1="97.4" x2="319.7" y2="423.3"/>
					
						<line style="clip-path:url(#SVGID_00000039128656199533632550000003925563221328608432_);fill:none;stroke:#B7BABB;stroke-width:0.25;" x1="312.6" y1="97.4" x2="312.6" y2="423.3"/>
					
						<line style="clip-path:url(#SVGID_00000039128656199533632550000003925563221328608432_);fill:none;stroke:#B7BABB;stroke-width:0.25;" x1="305.6" y1="97.4" x2="305.6" y2="423.3"/>
					
						<line style="clip-path:url(#SVGID_00000039128656199533632550000003925563221328608432_);fill:none;stroke:#B7BABB;stroke-width:0.25;" x1="298.5" y1="97.4" x2="298.5" y2="423.3"/>
					
						<line style="clip-path:url(#SVGID_00000039128656199533632550000003925563221328608432_);fill:none;stroke:#B7BABB;stroke-width:0.25;" x1="291.4" y1="97.4" x2="291.4" y2="423.3"/>
					
						<line style="clip-path:url(#SVGID_00000039128656199533632550000003925563221328608432_);fill:none;stroke:#B7BABB;stroke-width:0.25;" x1="284.3" y1="97.4" x2="284.3" y2="423.3"/>
					
						<line style="clip-path:url(#SVGID_00000039128656199533632550000003925563221328608432_);fill:none;stroke:#B7BABB;stroke-width:0.25;" x1="277.2" y1="97.4" x2="277.2" y2="423.3"/>
					
						<line style="clip-path:url(#SVGID_00000039128656199533632550000003925563221328608432_);fill:none;stroke:#B7BABB;stroke-width:0.25;" x1="270.1" y1="97.4" x2="270.1" y2="423.3"/>
					
						<line style="clip-path:url(#SVGID_00000039128656199533632550000003925563221328608432_);fill:none;stroke:#B7BABB;stroke-width:0.25;" x1="263" y1="97.4" x2="263" y2="423.3"/>
					
						<line style="clip-path:url(#SVGID_00000039128656199533632550000003925563221328608432_);fill:none;stroke:#B7BABB;stroke-width:0.25;" x1="256" y1="97.4" x2="256" y2="423.3"/>
					
						<line style="clip-path:url(#SVGID_00000039128656199533632550000003925563221328608432_);fill:none;stroke:#B7BABB;stroke-width:0.25;" x1="248.9" y1="97.4" x2="248.9" y2="423.3"/>
					
						<line style="clip-path:url(#SVGID_00000039128656199533632550000003925563221328608432_);fill:none;stroke:#B7BABB;stroke-width:0.25;" x1="241.8" y1="97.4" x2="241.8" y2="423.3"/>
					
						<line style="clip-path:url(#SVGID_00000039128656199533632550000003925563221328608432_);fill:none;stroke:#B7BABB;stroke-width:0.25;" x1="234.7" y1="97.4" x2="234.7" y2="423.3"/>
					
						<line style="clip-path:url(#SVGID_00000039128656199533632550000003925563221328608432_);fill:none;stroke:#B7BABB;stroke-width:0.25;" x1="227.6" y1="97.4" x2="227.6" y2="423.3"/>
					
						<line style="clip-path:url(#SVGID_00000039128656199533632550000003925563221328608432_);fill:none;stroke:#B7BABB;stroke-width:0.25;" x1="220.5" y1="97.4" x2="220.5" y2="423.3"/>
					
						<line style="clip-path:url(#SVGID_00000039128656199533632550000003925563221328608432_);fill:none;stroke:#B7BABB;stroke-width:0.25;" x1="213.4" y1="97.4" x2="213.4" y2="423.3"/>
					
						<line style="clip-path:url(#SVGID_00000039128656199533632550000003925563221328608432_);fill:none;stroke:#B7BABB;stroke-width:0.25;" x1="206.3" y1="97.4" x2="206.3" y2="423.3"/>
					
						<line style="clip-path:url(#SVGID_00000039128656199533632550000003925563221328608432_);fill:none;stroke:#B7BABB;stroke-width:0.25;" x1="199.3" y1="97.4" x2="199.3" y2="423.3"/>
					
						<line style="clip-path:url(#SVGID_00000039128656199533632550000003925563221328608432_);fill:none;stroke:#B7BABB;stroke-width:0.25;" x1="192.2" y1="97.4" x2="192.2" y2="423.3"/>
					
						<line style="clip-path:url(#SVGID_00000039128656199533632550000003925563221328608432_);fill:none;stroke:#B7BABB;stroke-width:0.25;" x1="185.1" y1="97.4" x2="185.1" y2="423.3"/>
					
						<line style="clip-path:url(#SVGID_00000039128656199533632550000003925563221328608432_);fill:none;stroke:#B7BABB;stroke-width:0.25;" x1="178" y1="97.4" x2="178" y2="423.3"/>
					
						<line style="clip-path:url(#SVGID_00000039128656199533632550000003925563221328608432_);fill:none;stroke:#B7BABB;stroke-width:0.25;" x1="170.9" y1="97.4" x2="170.9" y2="423.3"/>
					
						<line style="clip-path:url(#SVGID_00000039128656199533632550000003925563221328608432_);fill:none;stroke:#B7BABB;stroke-width:0.25;" x1="163.8" y1="97.4" x2="163.8" y2="423.3"/>
					
						<line style="clip-path:url(#SVGID_00000039128656199533632550000003925563221328608432_);fill:none;stroke:#B7BABB;stroke-width:0.25;" x1="156.7" y1="97.4" x2="156.7" y2="423.3"/>
					
						<line style="clip-path:url(#SVGID_00000039128656199533632550000003925563221328608432_);fill:none;stroke:#B7BABB;stroke-width:0.25;" x1="149.7" y1="97.4" x2="149.7" y2="423.3"/>
					
						<line style="clip-path:url(#SVGID_00000039128656199533632550000003925563221328608432_);fill:none;stroke:#B7BABB;stroke-width:0.25;" x1="142.6" y1="97.4" x2="142.6" y2="423.3"/>
					
						<line style="clip-path:url(#SVGID_00000039128656199533632550000003925563221328608432_);fill:none;stroke:#B7BABB;stroke-width:0.25;" x1="135.5" y1="97.4" x2="135.5" y2="423.3"/>
					
						<line style="clip-path:url(#SVGID_00000039128656199533632550000003925563221328608432_);fill:none;stroke:#B7BABB;stroke-width:0.25;" x1="128.4" y1="97.4" x2="128.4" y2="423.3"/>
					
						<line style="clip-path:url(#SVGID_00000039128656199533632550000003925563221328608432_);fill:none;stroke:#B7BABB;stroke-width:0.25;" x1="121.3" y1="97.4" x2="121.3" y2="423.3"/>
					
						<line style="clip-path:url(#SVGID_00000039128656199533632550000003925563221328608432_);fill:none;stroke:#B7BABB;stroke-width:0.25;" x1="114.2" y1="97.4" x2="114.2" y2="423.3"/>
					
						<line style="clip-path:url(#SVGID_00000039128656199533632550000003925563221328608432_);fill:none;stroke:#B7BABB;stroke-width:0.25;" x1="107.1" y1="97.4" x2="107.1" y2="423.3"/>
					
						<line style="clip-path:url(#SVGID_00000039128656199533632550000003925563221328608432_);fill:none;stroke:#B7BABB;stroke-width:0.25;" x1="100" y1="97.4" x2="100" y2="423.3"/>
					
						<line style="clip-path:url(#SVGID_00000039128656199533632550000003925563221328608432_);fill:none;stroke:#B7BABB;stroke-width:0.25;" x1="93" y1="97.4" x2="93" y2="423.3"/>
					
						<line style="clip-path:url(#SVGID_00000039128656199533632550000003925563221328608432_);fill:none;stroke:#B7BABB;stroke-width:0.25;" x1="85.9" y1="97.4" x2="85.9" y2="423.3"/>
					
						<line style="clip-path:url(#SVGID_00000039128656199533632550000003925563221328608432_);fill:none;stroke:#B7BABB;stroke-width:0.25;" x1="78.8" y1="97.4" x2="78.8" y2="423.3"/>
					
						<line style="clip-path:url(#SVGID_00000039128656199533632550000003925563221328608432_);fill:none;stroke:#B7BABB;stroke-width:0.25;" x1="71.7" y1="97.4" x2="71.7" y2="423.3"/>
					
						<line style="clip-path:url(#SVGID_00000039128656199533632550000003925563221328608432_);fill:none;stroke:#B7BABB;stroke-width:0.25;" x1="64.6" y1="97.4" x2="64.6" y2="423.3"/>
					
						<line style="clip-path:url(#SVGID_00000039128656199533632550000003925563221328608432_);fill:none;stroke:#B7BABB;stroke-width:0.25;" x1="57.5" y1="97.4" x2="57.5" y2="423.3"/>
				</g>
				
					<line style="clip-path:url(#SVGID_00000078729911525959799680000013128438437341497260_);fill:none;stroke:#B7BABB;stroke-width:0.2;" x1="383.4" y1="345.5" x2="57.4" y2="345.5"/>
				
					<line style="clip-path:url(#SVGID_00000078729911525959799680000013128438437341497260_);fill:none;stroke:#B7BABB;stroke-width:0.2;" x1="383.4" y1="338.4" x2="57.4" y2="338.4"/>
				
					<line style="clip-path:url(#SVGID_00000078729911525959799680000013128438437341497260_);fill:none;stroke:#B7BABB;stroke-width:0.2;" x1="383.4" y1="331.3" x2="57.4" y2="331.3"/>
				
					<line style="clip-path:url(#SVGID_00000078729911525959799680000013128438437341497260_);fill:none;stroke:#B7BABB;stroke-width:0.2;" x1="383.4" y1="324.3" x2="57.4" y2="324.3"/>
				
					<line style="clip-path:url(#SVGID_00000078729911525959799680000013128438437341497260_);fill:none;stroke:#B7BABB;stroke-width:0.2;" x1="383.4" y1="317.2" x2="57.4" y2="317.2"/>
				
					<line style="clip-path:url(#SVGID_00000078729911525959799680000013128438437341497260_);fill:none;stroke:#B7BABB;stroke-width:0.2;" x1="383.4" y1="310.1" x2="57.4" y2="310.1"/>
				
					<line style="clip-path:url(#SVGID_00000078729911525959799680000013128438437341497260_);fill:none;stroke:#B7BABB;stroke-width:0.2;" x1="383.4" y1="303" x2="57.4" y2="303"/>
				
					<line style="clip-path:url(#SVGID_00000078729911525959799680000013128438437341497260_);fill:none;stroke:#B7BABB;stroke-width:0.2;" x1="383.4" y1="295.9" x2="57.4" y2="295.9"/>
				
					<line style="clip-path:url(#SVGID_00000078729911525959799680000013128438437341497260_);fill:none;stroke:#B7BABB;stroke-width:0.2;" x1="383.4" y1="288.8" x2="57.4" y2="288.8"/>
				
					<line style="clip-path:url(#SVGID_00000078729911525959799680000013128438437341497260_);fill:none;stroke:#B7BABB;stroke-width:0.2;" x1="383.4" y1="281.7" x2="57.4" y2="281.7"/>
				
					<line style="clip-path:url(#SVGID_00000078729911525959799680000013128438437341497260_);fill:none;stroke:#B7BABB;stroke-width:0.2;" x1="383.4" y1="274.7" x2="57.4" y2="274.7"/>
				
					<line style="clip-path:url(#SVGID_00000078729911525959799680000013128438437341497260_);fill:none;stroke:#B7BABB;stroke-width:0.2;" x1="383.4" y1="267.6" x2="57.4" y2="267.6"/>
			</g>
		</g>
	</g>
	<polygon style="clip-path:url(#SVGID_00000091698862768966765760000016570685859643120543_);fill:#00109F;" points="57.5,251.2 
		57.5,251.2 57.5,265.5 160.9,265.5 160.9,251.2 	"/>
	<g style="clip-path:url(#SVGID_00000091698862768966765760000016570685859643120543_);">
		<text transform="matrix(1 0 0 1 60.2749 255.1447)"><tspan x="0" y="0" class="st6 st7 st8">Figu</tspan><tspan x="8" y="0" class="st6 st7 st8">r</tspan><tspan x="9.4" y="0" class="st6 st7 st8">e 14: </tspan></text>
	</g>
	<g style="clip-path:url(#SVGID_00000091698862768966765760000016570685859643120543_);">
		<text transform="matrix(1 0 0 1 78.6309 255.1447)" class="st6 st7 st8"> </text>
	</g>
	<g style="clip-path:url(#SVGID_00000091698862768966765760000016570685859643120543_);">
		<text transform="matrix(1 0 0 1 60.2749 263.1447)"><tspan x="0" y="0" class="st6 st9 st10">T</tspan><tspan x="4.1" y="0" class="st6 st9 st10">empo</tspan><tspan x="25.7" y="0" class="st6 st9 st10">r</tspan><tspan x="28.7" y="0" class="st6 st9 st10">al </tspan><tspan x="37.8" y="0" class="st6 st9 st10">D</tspan><tspan x="43.5" y="0" class="st6 st9 st10">a</tspan><tspan x="48.2" y="0" class="st6 st9 st10">t</tspan><tspan x="51.4" y="0" class="st6 st9 st10">a Sequen</tspan><tspan x="87.1" y="0" class="st6 st9 st10">c</tspan><tspan x="91.8" y="0" class="st6 st9 st10">e</tspan></text>
	</g>
	
		<line style="clip-path:url(#SVGID_00000091698862768966765760000016570685859643120543_);fill:none;stroke:#00109F;stroke-width:0.5;" x1="115.9" y1="265.4" x2="383.6" y2="265.4"/>
	<path style="clip-path:url(#SVGID_00000091698862768966765760000016570685859643120543_);fill:#FFFFFF;" d="M250.3,299.6h45.6v8.7
		h-45.6V299.6z M236.1,299.6h14.2v8.7h-14.2V299.6z M233.1,299.6h3v8.7h-3V299.6z M219,299.6h14.2v8.7H219V299.6z M204.8,299.6H219
		v8.7h-14.2V299.6z M190.6,299.6h14.2v8.7h-14.2V299.6z M176.4,299.6h14.2v8.7h-14.2V299.6z M162.3,299.6h14.2v8.7h-14.2V299.6z
		 M148.1,299.6h14.2v8.7h-14.2V299.6z M133.9,299.6h14.2v8.7h-14.2V299.6z M119.7,299.6h14.2v8.7h-14.2V299.6z M105.6,299.6h14.2
		v8.7h-14.2V299.6z M91.4,299.6h14.2v8.7H91.4V299.6z M250.3,290.8h45.6v8.7h-45.6V290.8z M236.1,290.8h14.2v8.7h-14.2V290.8z
		 M233.1,290.8h3v8.7h-3V290.8z M219,290.8h14.2v8.7H219V290.8z M204.8,290.8H219v8.7h-14.2V290.8z M190.6,290.8h14.2v8.7h-14.2
		V290.8z M176.4,290.8h14.2v8.7h-14.2V290.8z M162.3,290.8h14.2v8.7h-14.2V290.8z M148.1,290.8h14.2v8.7h-14.2V290.8z M133.9,290.8
		h14.2v8.7h-14.2V290.8z M119.7,290.8h14.2v8.7h-14.2V290.8z M105.6,290.8h14.2v8.7h-14.2V290.8z M91.4,290.8h14.2v8.7H91.4V290.8z"
		/>
	
		<line style="clip-path:url(#SVGID_00000091698862768966765760000016570685859643120543_);fill:none;stroke:#8B8F91;stroke-width:0.25;stroke-miterlimit:10;" x1="91.3" y1="290.8" x2="105.6" y2="290.8"/>
	
		<line style="clip-path:url(#SVGID_00000091698862768966765760000016570685859643120543_);fill:none;stroke:#8B8F91;stroke-width:0.25;stroke-miterlimit:10;" x1="91.4" y1="299.4" x2="91.4" y2="291"/>
	
		<line style="clip-path:url(#SVGID_00000091698862768966765760000016570685859643120543_);fill:none;stroke:#8B8F91;stroke-width:0.25;stroke-miterlimit:10;" x1="105.6" y1="290.8" x2="119.7" y2="290.8"/>
	
		<line style="clip-path:url(#SVGID_00000091698862768966765760000016570685859643120543_);fill:none;stroke:#8B8F91;stroke-width:0.25;stroke-miterlimit:10;" x1="105.6" y1="299.4" x2="105.6" y2="291"/>
	
		<line style="clip-path:url(#SVGID_00000091698862768966765760000016570685859643120543_);fill:none;stroke:#8B8F91;stroke-width:0.25;stroke-miterlimit:10;" x1="119.7" y1="290.8" x2="133.9" y2="290.8"/>
	
		<line style="clip-path:url(#SVGID_00000091698862768966765760000016570685859643120543_);fill:none;stroke:#8B8F91;stroke-width:0.25;stroke-miterlimit:10;" x1="119.7" y1="299.4" x2="119.7" y2="291"/>
	
		<line style="clip-path:url(#SVGID_00000091698862768966765760000016570685859643120543_);fill:none;stroke:#8B8F91;stroke-width:0.25;stroke-miterlimit:10;" x1="133.9" y1="290.8" x2="148.1" y2="290.8"/>
	
		<line style="clip-path:url(#SVGID_00000091698862768966765760000016570685859643120543_);fill:none;stroke:#8B8F91;stroke-width:0.25;stroke-miterlimit:10;" x1="133.9" y1="299.4" x2="133.9" y2="291"/>
	
		<line style="clip-path:url(#SVGID_00000091698862768966765760000016570685859643120543_);fill:none;stroke:#8B8F91;stroke-width:0.25;stroke-miterlimit:10;" x1="148.1" y1="290.8" x2="162.3" y2="290.8"/>
	
		<line style="clip-path:url(#SVGID_00000091698862768966765760000016570685859643120543_);fill:none;stroke:#8B8F91;stroke-width:0.25;stroke-miterlimit:10;" x1="148.1" y1="299.4" x2="148.1" y2="291"/>
	
		<line style="clip-path:url(#SVGID_00000091698862768966765760000016570685859643120543_);fill:none;stroke:#8B8F91;stroke-width:0.25;stroke-miterlimit:10;" x1="162.3" y1="290.8" x2="176.4" y2="290.8"/>
	
		<line style="clip-path:url(#SVGID_00000091698862768966765760000016570685859643120543_);fill:none;stroke:#8B8F91;stroke-width:0.25;stroke-miterlimit:10;" x1="162.3" y1="299.4" x2="162.3" y2="291"/>
	
		<line style="clip-path:url(#SVGID_00000091698862768966765760000016570685859643120543_);fill:none;stroke:#8B8F91;stroke-width:0.25;stroke-miterlimit:10;" x1="176.4" y1="290.8" x2="190.6" y2="290.8"/>
	
		<line style="clip-path:url(#SVGID_00000091698862768966765760000016570685859643120543_);fill:none;stroke:#8B8F91;stroke-width:0.25;stroke-miterlimit:10;" x1="176.4" y1="299.4" x2="176.4" y2="291"/>
	
		<line style="clip-path:url(#SVGID_00000091698862768966765760000016570685859643120543_);fill:none;stroke:#8B8F91;stroke-width:0.25;stroke-miterlimit:10;" x1="190.6" y1="290.8" x2="204.8" y2="290.8"/>
	
		<line style="clip-path:url(#SVGID_00000091698862768966765760000016570685859643120543_);fill:none;stroke:#8B8F91;stroke-width:0.25;stroke-miterlimit:10;" x1="190.6" y1="299.4" x2="190.6" y2="291"/>
	
		<line style="clip-path:url(#SVGID_00000091698862768966765760000016570685859643120543_);fill:none;stroke:#8B8F91;stroke-width:0.25;stroke-miterlimit:10;" x1="204.8" y1="290.8" x2="219" y2="290.8"/>
	
		<line style="clip-path:url(#SVGID_00000091698862768966765760000016570685859643120543_);fill:none;stroke:#8B8F91;stroke-width:0.25;stroke-miterlimit:10;" x1="204.8" y1="299.4" x2="204.8" y2="291"/>
	
		<line style="clip-path:url(#SVGID_00000091698862768966765760000016570685859643120543_);fill:none;stroke:#8B8F91;stroke-width:0.25;stroke-miterlimit:10;" x1="219" y1="290.8" x2="233.1" y2="290.8"/>
	
		<line style="clip-path:url(#SVGID_00000091698862768966765760000016570685859643120543_);fill:none;stroke:#8B8F91;stroke-width:0.25;stroke-miterlimit:10;" x1="219" y1="299.4" x2="219" y2="291"/>
	
		<line style="clip-path:url(#SVGID_00000091698862768966765760000016570685859643120543_);fill:none;stroke:#8B8F91;stroke-width:0.25;stroke-miterlimit:10;" x1="233.1" y1="290.8" x2="236.1" y2="290.8"/>
	
		<line style="clip-path:url(#SVGID_00000091698862768966765760000016570685859643120543_);fill:none;stroke:#8B8F91;stroke-width:0.25;stroke-miterlimit:10;" x1="233.1" y1="299.4" x2="233.1" y2="291"/>
	
		<line style="clip-path:url(#SVGID_00000091698862768966765760000016570685859643120543_);fill:none;stroke:#8B8F91;stroke-width:0.25;stroke-miterlimit:10;" x1="236.1" y1="290.8" x2="250.4" y2="290.8"/>
	
		<line style="clip-path:url(#SVGID_00000091698862768966765760000016570685859643120543_);fill:none;stroke:#8B8F91;stroke-width:0.25;stroke-miterlimit:10;" x1="236.1" y1="299.4" x2="236.1" y2="291"/>
	
		<line style="clip-path:url(#SVGID_00000091698862768966765760000016570685859643120543_);fill:none;stroke:#8B8F91;stroke-width:0.25;stroke-miterlimit:10;" x1="250.3" y1="299.4" x2="250.3" y2="291"/>
	
		<line style="clip-path:url(#SVGID_00000091698862768966765760000016570685859643120543_);fill:none;stroke:#8B8F91;stroke-width:0.25;stroke-miterlimit:10;" x1="91.3" y1="299.6" x2="105.6" y2="299.6"/>
	
		<line style="clip-path:url(#SVGID_00000091698862768966765760000016570685859643120543_);fill:none;stroke:#8B8F91;stroke-width:0.25;stroke-miterlimit:10;" x1="91.4" y1="308.1" x2="91.4" y2="299.7"/>
	
		<line style="clip-path:url(#SVGID_00000091698862768966765760000016570685859643120543_);fill:none;stroke:#8B8F91;stroke-width:0.25;stroke-miterlimit:10;" x1="105.6" y1="299.6" x2="119.7" y2="299.6"/>
	
		<line style="clip-path:url(#SVGID_00000091698862768966765760000016570685859643120543_);fill:none;stroke:#8B8F91;stroke-width:0.25;stroke-miterlimit:10;" x1="105.6" y1="308.1" x2="105.6" y2="299.7"/>
	
		<line style="clip-path:url(#SVGID_00000091698862768966765760000016570685859643120543_);fill:none;stroke:#8B8F91;stroke-width:0.25;stroke-miterlimit:10;" x1="119.7" y1="299.6" x2="133.9" y2="299.6"/>
	
		<line style="clip-path:url(#SVGID_00000091698862768966765760000016570685859643120543_);fill:none;stroke:#8B8F91;stroke-width:0.25;stroke-miterlimit:10;" x1="119.7" y1="308.1" x2="119.7" y2="299.7"/>
	
		<line style="clip-path:url(#SVGID_00000091698862768966765760000016570685859643120543_);fill:none;stroke:#8B8F91;stroke-width:0.25;stroke-miterlimit:10;" x1="133.9" y1="299.6" x2="148.1" y2="299.6"/>
	
		<line style="clip-path:url(#SVGID_00000091698862768966765760000016570685859643120543_);fill:none;stroke:#8B8F91;stroke-width:0.25;stroke-miterlimit:10;" x1="133.9" y1="308.1" x2="133.9" y2="299.7"/>
	
		<line style="clip-path:url(#SVGID_00000091698862768966765760000016570685859643120543_);fill:none;stroke:#8B8F91;stroke-width:0.25;stroke-miterlimit:10;" x1="148.1" y1="299.6" x2="162.3" y2="299.6"/>
	
		<line style="clip-path:url(#SVGID_00000091698862768966765760000016570685859643120543_);fill:none;stroke:#8B8F91;stroke-width:0.25;stroke-miterlimit:10;" x1="148.1" y1="308.1" x2="148.1" y2="299.7"/>
	
		<line style="clip-path:url(#SVGID_00000091698862768966765760000016570685859643120543_);fill:none;stroke:#8B8F91;stroke-width:0.25;stroke-miterlimit:10;" x1="162.3" y1="299.6" x2="176.4" y2="299.6"/>
	
		<line style="clip-path:url(#SVGID_00000091698862768966765760000016570685859643120543_);fill:none;stroke:#8B8F91;stroke-width:0.25;stroke-miterlimit:10;" x1="162.3" y1="308.1" x2="162.3" y2="299.7"/>
	
		<line style="clip-path:url(#SVGID_00000091698862768966765760000016570685859643120543_);fill:none;stroke:#8B8F91;stroke-width:0.25;stroke-miterlimit:10;" x1="176.4" y1="299.6" x2="190.6" y2="299.6"/>
	
		<line style="clip-path:url(#SVGID_00000091698862768966765760000016570685859643120543_);fill:none;stroke:#8B8F91;stroke-width:0.25;stroke-miterlimit:10;" x1="176.4" y1="308.1" x2="176.4" y2="299.7"/>
	
		<line style="clip-path:url(#SVGID_00000091698862768966765760000016570685859643120543_);fill:none;stroke:#8B8F91;stroke-width:0.25;stroke-miterlimit:10;" x1="190.6" y1="299.6" x2="204.8" y2="299.6"/>
	
		<line style="clip-path:url(#SVGID_00000091698862768966765760000016570685859643120543_);fill:none;stroke:#8B8F91;stroke-width:0.25;stroke-miterlimit:10;" x1="190.6" y1="308.1" x2="190.6" y2="299.7"/>
	
		<line style="clip-path:url(#SVGID_00000091698862768966765760000016570685859643120543_);fill:none;stroke:#8B8F91;stroke-width:0.25;stroke-miterlimit:10;" x1="204.8" y1="299.6" x2="219" y2="299.6"/>
	
		<line style="clip-path:url(#SVGID_00000091698862768966765760000016570685859643120543_);fill:none;stroke:#8B8F91;stroke-width:0.25;stroke-miterlimit:10;" x1="204.8" y1="308.1" x2="204.8" y2="299.7"/>
	
		<line style="clip-path:url(#SVGID_00000091698862768966765760000016570685859643120543_);fill:none;stroke:#8B8F91;stroke-width:0.25;stroke-miterlimit:10;" x1="219" y1="299.6" x2="233.1" y2="299.6"/>
	
		<line style="clip-path:url(#SVGID_00000091698862768966765760000016570685859643120543_);fill:none;stroke:#8B8F91;stroke-width:0.25;stroke-miterlimit:10;" x1="219" y1="308.1" x2="219" y2="299.7"/>
	
		<line style="clip-path:url(#SVGID_00000091698862768966765760000016570685859643120543_);fill:none;stroke:#8B8F91;stroke-width:0.25;stroke-miterlimit:10;" x1="233.1" y1="299.6" x2="236.1" y2="299.6"/>
	
		<line style="clip-path:url(#SVGID_00000091698862768966765760000016570685859643120543_);fill:none;stroke:#8B8F91;stroke-width:0.25;stroke-miterlimit:10;" x1="233.1" y1="308.1" x2="233.1" y2="299.7"/>
	
		<line style="clip-path:url(#SVGID_00000091698862768966765760000016570685859643120543_);fill:none;stroke:#8B8F91;stroke-width:0.25;stroke-miterlimit:10;" x1="236.1" y1="299.6" x2="250.4" y2="299.6"/>
	
		<line style="clip-path:url(#SVGID_00000091698862768966765760000016570685859643120543_);fill:none;stroke:#8B8F91;stroke-width:0.25;stroke-miterlimit:10;" x1="236.1" y1="308.1" x2="236.1" y2="299.7"/>
	
		<line style="clip-path:url(#SVGID_00000091698862768966765760000016570685859643120543_);fill:none;stroke:#8B8F91;stroke-width:0.25;stroke-miterlimit:10;" x1="250.3" y1="308.1" x2="250.3" y2="299.7"/>
	
		<line style="clip-path:url(#SVGID_00000091698862768966765760000016570685859643120543_);fill:none;stroke:#8B8F91;stroke-width:0.25;stroke-miterlimit:10;" x1="91.3" y1="308.3" x2="105.6" y2="308.3"/>
	
		<line style="clip-path:url(#SVGID_00000091698862768966765760000016570685859643120543_);fill:none;stroke:#8B8F91;stroke-width:0.25;stroke-miterlimit:10;" x1="105.6" y1="308.3" x2="119.7" y2="308.3"/>
	
		<line style="clip-path:url(#SVGID_00000091698862768966765760000016570685859643120543_);fill:none;stroke:#8B8F91;stroke-width:0.25;stroke-miterlimit:10;" x1="119.7" y1="308.3" x2="133.9" y2="308.3"/>
	
		<line style="clip-path:url(#SVGID_00000091698862768966765760000016570685859643120543_);fill:none;stroke:#8B8F91;stroke-width:0.25;stroke-miterlimit:10;" x1="133.9" y1="308.3" x2="148.1" y2="308.3"/>
	
		<line style="clip-path:url(#SVGID_00000091698862768966765760000016570685859643120543_);fill:none;stroke:#8B8F91;stroke-width:0.25;stroke-miterlimit:10;" x1="148.1" y1="308.3" x2="162.3" y2="308.3"/>
	
		<line style="clip-path:url(#SVGID_00000091698862768966765760000016570685859643120543_);fill:none;stroke:#8B8F91;stroke-width:0.25;stroke-miterlimit:10;" x1="162.3" y1="308.3" x2="176.4" y2="308.3"/>
	
		<line style="clip-path:url(#SVGID_00000091698862768966765760000016570685859643120543_);fill:none;stroke:#8B8F91;stroke-width:0.25;stroke-miterlimit:10;" x1="176.4" y1="308.3" x2="190.6" y2="308.3"/>
	
		<line style="clip-path:url(#SVGID_00000091698862768966765760000016570685859643120543_);fill:none;stroke:#8B8F91;stroke-width:0.25;stroke-miterlimit:10;" x1="190.6" y1="308.3" x2="204.8" y2="308.3"/>
	
		<line style="clip-path:url(#SVGID_00000091698862768966765760000016570685859643120543_);fill:none;stroke:#8B8F91;stroke-width:0.25;stroke-miterlimit:10;" x1="204.8" y1="308.3" x2="219" y2="308.3"/>
	
		<line style="clip-path:url(#SVGID_00000091698862768966765760000016570685859643120543_);fill:none;stroke:#8B8F91;stroke-width:0.25;stroke-miterlimit:10;" x1="219" y1="308.3" x2="233.1" y2="308.3"/>
	
		<line style="clip-path:url(#SVGID_00000091698862768966765760000016570685859643120543_);fill:none;stroke:#8B8F91;stroke-width:0.25;stroke-miterlimit:10;" x1="233.1" y1="308.3" x2="236.1" y2="308.3"/>
	
		<line style="clip-path:url(#SVGID_00000091698862768966765760000016570685859643120543_);fill:none;stroke:#8B8F91;stroke-width:0.25;stroke-miterlimit:10;" x1="236.1" y1="308.3" x2="250.4" y2="308.3"/>
	<g style="clip-path:url(#SVGID_00000091698862768966765760000016570685859643120543_);">
		<text transform="matrix(1 0 0 1 95.8613 297.0753)"><tspan x="0" y="0" class="st14 st7 st15">9</tspan><tspan x="2.9" y="0" class="st14 st7 st15">7</tspan></text>
	</g>
	<g style="clip-path:url(#SVGID_00000091698862768966765760000016570685859643120543_);">
		<text transform="matrix(1 0 0 1 109.8564 297.0753)"><tspan x="0" y="0" class="st14 st7 st15">9</tspan><tspan x="2.9" y="0" class="st14 st7 st15">6</tspan></text>
	</g>
	<g style="clip-path:url(#SVGID_00000091698862768966765760000016570685859643120543_);">
		<text transform="matrix(1 0 0 1 123.936 297.0753)"><tspan x="0" y="0" class="st14 st7 st15">9</tspan><tspan x="2.9" y="0" class="st14 st7 st15">5</tspan></text>
	</g>
	<g style="clip-path:url(#SVGID_00000091698862768966765760000016570685859643120543_);">
		<text transform="matrix(1 0 0 1 138.1514 297.0753)"><tspan x="0" y="0" class="st14 st7 st15">9</tspan><tspan x="2.9" y="0" class="st14 st7 st15">3</tspan></text>
	</g>
	<g style="clip-path:url(#SVGID_00000091698862768966765760000016570685859643120543_);">
		<text transform="matrix(1 0 0 1 152.3511 297.0753)"><tspan x="0" y="0" class="st14 st7 st15">9</tspan><tspan x="3" y="0" class="st14 st7 st15">2</tspan></text>
	</g>
	<g style="clip-path:url(#SVGID_00000091698862768966765760000016570685859643120543_);">
		<text transform="matrix(1 0 0 1 167.0864 297.0753)" class="st14 st7 st15">91</text>
	</g>
	<g style="clip-path:url(#SVGID_00000091698862768966765760000016570685859643120543_);">
		<text transform="matrix(1 0 0 1 180.5063 297.0753)" class="st14 st7 st15">88</text>
	</g>
	<g style="clip-path:url(#SVGID_00000091698862768966765760000016570685859643120543_);">
		<text transform="matrix(1 0 0 1 194.6812 297.0753)" class="st14 st7 st15">88</text>
	</g>
	<g style="clip-path:url(#SVGID_00000091698862768966765760000016570685859643120543_);">
		<text transform="matrix(1 0 0 1 208.8564 297.0753)" class="st14 st7 st15">88</text>
	</g>
	<g style="clip-path:url(#SVGID_00000091698862768966765760000016570685859643120543_);">
		<text transform="matrix(1 0 0 1 223.3564 297.0753)"><tspan x="0" y="0" class="st14 st7 st15">8</tspan><tspan x="3.1" y="0" class="st14 st7 st15">7</tspan></text>
	</g>
	<g style="clip-path:url(#SVGID_00000091698862768966765760000016570685859643120543_);">
		<text transform="matrix(1 0 0 1 241.8213 297.0753)" class="st14 st7 st15">0</text>
	</g>
	<g style="clip-path:url(#SVGID_00000091698862768966765760000016570685859643120543_);">
		<text transform="matrix(1 0 0 1 251.1758 297.0753)"><tspan x="0" y="0" class="st14 st7 st15">No E</tspan><tspan x="10.7" y="0" class="st14 st7 st15">v</tspan><tspan x="13.2" y="0" class="st14 st7 st15">e</tspan><tspan x="15.9" y="0" class="st14 st7 st15">n</tspan><tspan x="18.8" y="0" class="st14 st7 st15">t</tspan></text>
	</g>
	<g style="clip-path:url(#SVGID_00000091698862768966765760000016570685859643120543_);">
		<text transform="matrix(1 0 0 1 95.686 305.7858)"><tspan x="0" y="0" class="st14 st7 st15">9</tspan><tspan x="2.9" y="0" class="st14 st7 st15">6</tspan></text>
	</g>
	<g style="clip-path:url(#SVGID_00000091698862768966765760000016570685859643120543_);">
		<text transform="matrix(1 0 0 1 109.7661 305.7858)"><tspan x="0" y="0" class="st14 st7 st15">9</tspan><tspan x="2.9" y="0" class="st14 st7 st15">5</tspan></text>
	</g>
	<g style="clip-path:url(#SVGID_00000091698862768966765760000016570685859643120543_);">
		<text transform="matrix(1 0 0 1 123.9814 305.7858)"><tspan x="0" y="0" class="st14 st7 st15">9</tspan><tspan x="2.9" y="0" class="st14 st7 st15">3</tspan></text>
	</g>
	<g style="clip-path:url(#SVGID_00000091698862768966765760000016570685859643120543_);">
		<text transform="matrix(1 0 0 1 138.1812 305.7858)"><tspan x="0" y="0" class="st14 st7 st15">9</tspan><tspan x="3" y="0" class="st14 st7 st15">2</tspan></text>
	</g>
	<g style="clip-path:url(#SVGID_00000091698862768966765760000016570685859643120543_);">
		<text transform="matrix(1 0 0 1 152.916 305.7858)" class="st14 st7 st15">91</text>
	</g>
	<g style="clip-path:url(#SVGID_00000091698862768966765760000016570685859643120543_);">
		<text transform="matrix(1 0 0 1 166.3364 305.7858)" class="st14 st7 st15">88</text>
	</g>
	<g style="clip-path:url(#SVGID_00000091698862768966765760000016570685859643120543_);">
		<text transform="matrix(1 0 0 1 180.5112 305.7858)" class="st14 st7 st15">88</text>
	</g>
	<g style="clip-path:url(#SVGID_00000091698862768966765760000016570685859643120543_);">
		<text transform="matrix(1 0 0 1 194.686 305.7858)" class="st14 st7 st15">88</text>
	</g>
	<g style="clip-path:url(#SVGID_00000091698862768966765760000016570685859643120543_);">
		<text transform="matrix(1 0 0 1 209.1865 305.7858)"><tspan x="0" y="0" class="st14 st7 st15">8</tspan><tspan x="3.1" y="0" class="st14 st7 st15">7</tspan></text>
	</g>
	<g style="clip-path:url(#SVGID_00000091698862768966765760000016570685859643120543_);">
		<text transform="matrix(1 0 0 1 223.0713 305.7858)" class="st14 st7 st15">68</text>
	</g>
	<g style="clip-path:url(#SVGID_00000091698862768966765760000016570685859643120543_);">
		<text transform="matrix(1 0 0 1 242.5166 305.7858)" class="st14 st7 st15">1</text>
	</g>
	<g style="clip-path:url(#SVGID_00000091698862768966765760000016570685859643120543_);">
		<text transform="matrix(1 0 0 1 251.1816 305.7858)"><tspan x="0" y="0" class="st14 st7 st15">E</tspan><tspan x="3" y="0" class="st14 st7 st15">v</tspan><tspan x="5.5" y="0" class="st14 st7 st15">e</tspan><tspan x="8.3" y="0" class="st14 st7 st15">n</tspan><tspan x="11.2" y="0" class="st14 st7 st15">t</tspan></text>
	</g>
	<g style="clip-path:url(#SVGID_00000091698862768966765760000016570685859643120543_);">
		<text transform="matrix(1 0 0 1 76.1904 298.5221)" class="st14 st16 st17">T</text>
	</g>
	<g style="clip-path:url(#SVGID_00000091698862768966765760000016570685859643120543_);">
		<text transform="matrix(1 0 0 1 81.0425 301.2789)" class="st14 st16 st18">i</text>
	</g>
	<g style="clip-path:url(#SVGID_00000091698862768966765760000016570685859643120543_);">
		<text transform="matrix(1 0 0 1 76.1904 308.4586)" class="st14 st16 st17">T</text>
	</g>
	<g style="clip-path:url(#SVGID_00000091698862768966765760000016570685859643120543_);">
		<text transform="matrix(1 0 0 1 81.0425 311.2155)" class="st14 st16 st18">i+</text>
	</g>
	<g style="clip-path:url(#SVGID_00000091698862768966765760000016570685859643120543_);">
		<text transform="matrix(1 0 0 1 84.8271 311.2155)" class="st14 st19 st18">1</text>
	</g>
	<g style="clip-path:url(#SVGID_00000091698862768966765760000016570685859643120543_);">
		<text transform="matrix(1 0 0 1 91.877 285.9054)" class="st14 st16 st17">t</text>
	</g>
	<g style="clip-path:url(#SVGID_00000091698862768966765760000016570685859643120543_);">
		<text transform="matrix(1 0 0 1 94.2285 288.6622)" class="st14 st16 st18">i,</text>
	</g>
	<g style="clip-path:url(#SVGID_00000091698862768966765760000016570685859643120543_);">
		<text transform="matrix(1 0 0 1 96.6904 288.6622)" class="st14 st19 st18">1</text>
	</g>
	<g style="clip-path:url(#SVGID_00000091698862768966765760000016570685859643120543_);">
		<text transform="matrix(1 0 0 1 220.7188 284.5958)" class="st14 st19 st17">t</text>
	</g>
	<g style="clip-path:url(#SVGID_00000091698862768966765760000016570685859643120543_);">
		<text transform="matrix(1 0 0 1 223.5205 287.3531)" class="st14 st19 st18">i,</text>
	</g>
	<g style="clip-path:url(#SVGID_00000091698862768966765760000016570685859643120543_);">
		<text transform="matrix(1 0 0 1 225.8525 287.3531)" class="st14 st20 st18">l</text>
	</g>
	<g style="clip-path:url(#SVGID_00000091698862768966765760000016570685859643120543_);">
		<text transform="matrix(1 0 0 1 240.2051 285.9054)" class="st14 st16 st17">c</text>
	</g>
	<g style="clip-path:url(#SVGID_00000091698862768966765760000016570685859643120543_);">
		<text transform="matrix(1 0 0 1 243.5908 288.6622)" class="st14 st16 st18">i</text>
	</g>
	<g style="clip-path:url(#SVGID_00000091698862768966765760000016570685859643120543_);">
		<text transform="matrix(1 0 0 1 91.877 314.2516)" class="st14 st16 st17">t</text>
	</g>
	<g style="clip-path:url(#SVGID_00000091698862768966765760000016570685859643120543_);">
		<text transform="matrix(1 0 0 1 94.2285 317.0084)" class="st14 st16 st18">i+</text>
	</g>
	<g style="clip-path:url(#SVGID_00000091698862768966765760000016570685859643120543_);">
		<text transform="matrix(1 0 0 1 98.0127 317.0084)" class="st14 st19 st18">1</text>
	</g>
	<g style="clip-path:url(#SVGID_00000091698862768966765760000016570685859643120543_);">
		<text transform="matrix(1 0 0 1 100.687 317.0084)" class="st14 st16 st18">, </text>
	</g>
	<g style="clip-path:url(#SVGID_00000091698862768966765760000016570685859643120543_);">
		<text transform="matrix(1 0 0 1 102.8354 317.0084)" class="st14 st19 st18">1</text>
	</g>
	<g style="clip-path:url(#SVGID_00000091698862768966765760000016570685859643120543_);">
		<text transform="matrix(1 0 0 1 219.3359 316.0602)" class="st14 st19 st17">t</text>
	</g>
	<g style="clip-path:url(#SVGID_00000091698862768966765760000016570685859643120543_);">
		<text transform="matrix(1 0 0 1 222.1377 318.817)" class="st14 st19 st18">i+1,</text>
	</g>
	<g style="clip-path:url(#SVGID_00000091698862768966765760000016570685859643120543_);">
		<text transform="matrix(1 0 0 1 230.75 318.817)" class="st21 st20 st18"> </text>
	</g>
	<g style="clip-path:url(#SVGID_00000091698862768966765760000016570685859643120543_);">
		<text transform="matrix(1 0 0 1 231.9561 318.817)" class="st14 st20 st18">l</text>
	</g>
	<g style="clip-path:url(#SVGID_00000091698862768966765760000016570685859643120543_);">
		<text transform="matrix(1 0 0 1 240.4883 314.2516)" class="st14 st16 st17">c</text>
	</g>
	<g style="clip-path:url(#SVGID_00000091698862768966765760000016570685859643120543_);">
		<text transform="matrix(1 0 0 1 243.875 317.0084)" class="st14 st16 st18">i+</text>
	</g>
	<g style="clip-path:url(#SVGID_00000091698862768966765760000016570685859643120543_);">
		<text transform="matrix(1 0 0 1 247.6592 317.0084)" class="st14 st19 st18">1</text>
	</g>
	
		<line style="clip-path:url(#SVGID_00000091698862768966765760000016570685859643120543_);fill:none;stroke:#8B8F91;stroke-width:0.5;" x1="124.2" y1="327.9" x2="200.2" y2="327.9"/>
	<polygon style="clip-path:url(#SVGID_00000091698862768966765760000016570685859643120543_);fill:#8B8F91;" points="203.4,327.9 
		199.6,324.4 199.6,331.4 	"/>
	<g style="clip-path:url(#SVGID_00000091698862768966765760000016570685859643120543_);">
		<text transform="matrix(1 0 0 1 208.9805 329.7819)"><tspan x="0" y="0" class="st14 st7 st15">Wind</tspan><tspan x="11.8" y="0" class="st14 st7 st15">o</tspan><tspan x="14.6" y="0" class="st14 st7 st15">w Slide +1</tspan></text>
	</g>
</g>
</svg>
