<?xml version="1.0" encoding="utf-8"?>
<!-- Generator: Adobe Illustrator 28.0.0, SVG Export Plug-In . SVG Version: 6.00 Build 0)  -->
<svg version="1.1" id="Layer_1" xmlns="http://www.w3.org/2000/svg" xmlns:xlink="http://www.w3.org/1999/xlink" x="0px" y="0px"
	 viewBox="0 0 419.5 595.3" style="enable-background:new 0 0 419.5 595.3;" xml:space="preserve">
<style type="text/css">
	.st0{clip-path:url(#SVGID_00000129891484953344872700000015423148434622622337_);}
	.st1{opacity:0.5;clip-path:url(#SVGID_00000019672715690726281540000000983623838430462876_);}
	.st2{clip-path:url(#SVGID_00000023983988700532341150000017485699552343650457_);}
	.st3{clip-path:url(#SVGID_00000163046627433952115450000002878934529981175476_);fill:none;stroke:#B7BABB;stroke-width:0.25;}
	.st4{clip-path:url(#SVGID_00000163046627433952115450000002878934529981175476_);fill:none;stroke:#B7BABB;stroke-width:0.2;}
	.st5{clip-path:url(#SVGID_00000129891484953344872700000015423148434622622337_);fill:#00109F;}
	.st6{fill:#FFFFFF;}
	.st7{font-family:'Colfax-Regular';}
	.st8{font-size:4px;}
	.st9{font-family:'Colfax-Bold';}
	.st10{font-size:8px;}
	.st11{clip-path:url(#SVGID_00000152227830889756510760000012019648094220335261_);fill:#FFFFFF;}
	.st12{clip-path:url(#SVGID_00000152227830889756510760000012019648094220335261_);fill:none;stroke:#B7BABB;stroke-width:0.278;}
	.st13{clip-path:url(#SVGID_00000152227830889756510760000012019648094220335261_);fill:#E0E2E3;}
	.st14{clip-path:url(#SVGID_00000152227830889756510760000012019648094220335261_);fill:none;stroke:#B7BABB;stroke-width:2.227;}
	.st15{clip-path:url(#SVGID_00000152227830889756510760000012019648094220335261_);fill:#B7BABB;}
	.st16{fill:#15233A;}
	.st17{font-size:7.8601px;}
	.st18{font-family:'Colfax-Medium';}
	.st19{font-size:4.25px;}
	.st20{font-size:5px;}
	.st21{clip-path:url(#SVGID_00000129891484953344872700000015423148434622622337_);fill:none;stroke:#8B8F91;stroke-width:0.85;}
	.st22{clip-path:url(#SVGID_00000129891484953344872700000015423148434622622337_);fill:#B7BABB;}
	.st23{clip-path:url(#SVGID_00000116923058603908349240000017759922687697680771_);fill:#B7BABB;}
	
		.st24{clip-path:url(#SVGID_00000129891484953344872700000015423148434622622337_);fill:none;stroke:#8A919D;stroke-width:0.861;stroke-miterlimit:10;}
	.st25{opacity:0.5;clip-path:url(#SVGID_00000089540216475306494790000012337672841931203995_);}
	.st26{clip-path:url(#SVGID_00000102502829316400432000000015541956237915061384_);fill:none;stroke:#00109F;stroke-width:0.5;}
	.st27{clip-path:url(#SVGID_00000141456369772783848120000006512564613606899367_);fill:none;stroke:#00109F;stroke-width:0.5;}
	.st28{clip-path:url(#SVGID_00000129891484953344872700000015423148434622622337_);fill:#FFFFFF;}
	.st29{fill:#8B8F91;}
	.st30{clip-path:url(#SVGID_00000129891484953344872700000015423148434622622337_);fill:none;stroke:#00109F;stroke-width:0.5;}
</style>
<g>
	<defs>
		<rect id="SVGID_1_" width="419.5" height="595.3"/>
	</defs>
	<clipPath id="SVGID_00000067953482283116220080000007325833776460307591_">
		<use xlink:href="#SVGID_1_"  style="overflow:visible;"/>
	</clipPath>
	<g style="clip-path:url(#SVGID_00000067953482283116220080000007325833776460307591_);">
		<defs>
			<rect id="SVGID_00000018941179076536415260000004600738404922734466_" width="419.5" height="595.3"/>
		</defs>
		<clipPath id="SVGID_00000170259777232671978060000004638613254132123527_">
			<use xlink:href="#SVGID_00000018941179076536415260000004600738404922734466_"  style="overflow:visible;"/>
		</clipPath>
		<g style="opacity:0.5;clip-path:url(#SVGID_00000170259777232671978060000004638613254132123527_);">
			<g>
				<defs>
					<rect id="SVGID_00000152260458547114037930000000027872026636858808_" x="32.3" y="222.3" width="344.1" height="144.4"/>
				</defs>
				<clipPath id="SVGID_00000140721668859630364280000005273050894236512421_">
					<use xlink:href="#SVGID_00000152260458547114037930000000027872026636858808_"  style="overflow:visible;"/>
				</clipPath>
				<g style="clip-path:url(#SVGID_00000140721668859630364280000005273050894236512421_);">
					<defs>
						<polygon id="SVGID_00000027568516920561094240000003714304406318548143_" points="41.3,229.3 41.3,229.3 41.3,365.6 
							367.4,365.6 367.4,229.3 						"/>
					</defs>
					<clipPath id="SVGID_00000027577979880577940990000013114118242819898515_">
						<use xlink:href="#SVGID_00000027568516920561094240000003714304406318548143_"  style="overflow:visible;"/>
					</clipPath>
					
						<line style="clip-path:url(#SVGID_00000027577979880577940990000013114118242819898515_);fill:none;stroke:#B7BABB;stroke-width:0.25;" x1="367.4" y1="66.7" x2="367.4" y2="392.6"/>
					
						<line style="clip-path:url(#SVGID_00000027577979880577940990000013114118242819898515_);fill:none;stroke:#B7BABB;stroke-width:0.25;" x1="360.3" y1="66.7" x2="360.3" y2="392.6"/>
					
						<line style="clip-path:url(#SVGID_00000027577979880577940990000013114118242819898515_);fill:none;stroke:#B7BABB;stroke-width:0.25;" x1="353.2" y1="66.7" x2="353.2" y2="392.6"/>
					
						<line style="clip-path:url(#SVGID_00000027577979880577940990000013114118242819898515_);fill:none;stroke:#B7BABB;stroke-width:0.25;" x1="346.1" y1="66.7" x2="346.1" y2="392.6"/>
					
						<line style="clip-path:url(#SVGID_00000027577979880577940990000013114118242819898515_);fill:none;stroke:#B7BABB;stroke-width:0.25;" x1="339" y1="66.7" x2="339" y2="392.6"/>
					
						<line style="clip-path:url(#SVGID_00000027577979880577940990000013114118242819898515_);fill:none;stroke:#B7BABB;stroke-width:0.25;" x1="331.9" y1="66.7" x2="331.9" y2="392.6"/>
					
						<line style="clip-path:url(#SVGID_00000027577979880577940990000013114118242819898515_);fill:none;stroke:#B7BABB;stroke-width:0.25;" x1="324.9" y1="66.7" x2="324.9" y2="392.6"/>
					
						<line style="clip-path:url(#SVGID_00000027577979880577940990000013114118242819898515_);fill:none;stroke:#B7BABB;stroke-width:0.25;" x1="317.8" y1="66.7" x2="317.8" y2="392.6"/>
					
						<line style="clip-path:url(#SVGID_00000027577979880577940990000013114118242819898515_);fill:none;stroke:#B7BABB;stroke-width:0.25;" x1="310.7" y1="66.7" x2="310.7" y2="392.6"/>
					
						<line style="clip-path:url(#SVGID_00000027577979880577940990000013114118242819898515_);fill:none;stroke:#B7BABB;stroke-width:0.25;" x1="303.6" y1="66.7" x2="303.6" y2="392.6"/>
					
						<line style="clip-path:url(#SVGID_00000027577979880577940990000013114118242819898515_);fill:none;stroke:#B7BABB;stroke-width:0.25;" x1="296.5" y1="66.7" x2="296.5" y2="392.6"/>
					
						<line style="clip-path:url(#SVGID_00000027577979880577940990000013114118242819898515_);fill:none;stroke:#B7BABB;stroke-width:0.25;" x1="289.4" y1="66.7" x2="289.4" y2="392.6"/>
					
						<line style="clip-path:url(#SVGID_00000027577979880577940990000013114118242819898515_);fill:none;stroke:#B7BABB;stroke-width:0.25;" x1="282.3" y1="66.7" x2="282.3" y2="392.6"/>
					
						<line style="clip-path:url(#SVGID_00000027577979880577940990000013114118242819898515_);fill:none;stroke:#B7BABB;stroke-width:0.25;" x1="275.3" y1="66.7" x2="275.3" y2="392.6"/>
					
						<line style="clip-path:url(#SVGID_00000027577979880577940990000013114118242819898515_);fill:none;stroke:#B7BABB;stroke-width:0.25;" x1="268.2" y1="66.7" x2="268.2" y2="392.6"/>
					
						<line style="clip-path:url(#SVGID_00000027577979880577940990000013114118242819898515_);fill:none;stroke:#B7BABB;stroke-width:0.25;" x1="261.1" y1="66.7" x2="261.1" y2="392.6"/>
					
						<line style="clip-path:url(#SVGID_00000027577979880577940990000013114118242819898515_);fill:none;stroke:#B7BABB;stroke-width:0.25;" x1="254" y1="66.7" x2="254" y2="392.6"/>
					
						<line style="clip-path:url(#SVGID_00000027577979880577940990000013114118242819898515_);fill:none;stroke:#B7BABB;stroke-width:0.25;" x1="246.9" y1="66.7" x2="246.9" y2="392.6"/>
					
						<line style="clip-path:url(#SVGID_00000027577979880577940990000013114118242819898515_);fill:none;stroke:#B7BABB;stroke-width:0.25;" x1="239.8" y1="66.7" x2="239.8" y2="392.6"/>
					
						<line style="clip-path:url(#SVGID_00000027577979880577940990000013114118242819898515_);fill:none;stroke:#B7BABB;stroke-width:0.25;" x1="232.7" y1="66.7" x2="232.7" y2="392.6"/>
					
						<line style="clip-path:url(#SVGID_00000027577979880577940990000013114118242819898515_);fill:none;stroke:#B7BABB;stroke-width:0.25;" x1="225.6" y1="66.7" x2="225.6" y2="392.6"/>
					
						<line style="clip-path:url(#SVGID_00000027577979880577940990000013114118242819898515_);fill:none;stroke:#B7BABB;stroke-width:0.25;" x1="218.6" y1="66.7" x2="218.6" y2="392.6"/>
					
						<line style="clip-path:url(#SVGID_00000027577979880577940990000013114118242819898515_);fill:none;stroke:#B7BABB;stroke-width:0.25;" x1="211.5" y1="66.7" x2="211.5" y2="392.6"/>
					
						<line style="clip-path:url(#SVGID_00000027577979880577940990000013114118242819898515_);fill:none;stroke:#B7BABB;stroke-width:0.25;" x1="204.4" y1="66.7" x2="204.4" y2="392.6"/>
					
						<line style="clip-path:url(#SVGID_00000027577979880577940990000013114118242819898515_);fill:none;stroke:#B7BABB;stroke-width:0.25;" x1="197.3" y1="66.7" x2="197.3" y2="392.6"/>
					
						<line style="clip-path:url(#SVGID_00000027577979880577940990000013114118242819898515_);fill:none;stroke:#B7BABB;stroke-width:0.25;" x1="190.2" y1="66.7" x2="190.2" y2="392.6"/>
					
						<line style="clip-path:url(#SVGID_00000027577979880577940990000013114118242819898515_);fill:none;stroke:#B7BABB;stroke-width:0.25;" x1="183.1" y1="66.7" x2="183.1" y2="392.6"/>
					
						<line style="clip-path:url(#SVGID_00000027577979880577940990000013114118242819898515_);fill:none;stroke:#B7BABB;stroke-width:0.25;" x1="176" y1="66.7" x2="176" y2="392.6"/>
					
						<line style="clip-path:url(#SVGID_00000027577979880577940990000013114118242819898515_);fill:none;stroke:#B7BABB;stroke-width:0.25;" x1="169" y1="66.7" x2="169" y2="392.6"/>
					
						<line style="clip-path:url(#SVGID_00000027577979880577940990000013114118242819898515_);fill:none;stroke:#B7BABB;stroke-width:0.25;" x1="161.9" y1="66.7" x2="161.9" y2="392.6"/>
					
						<line style="clip-path:url(#SVGID_00000027577979880577940990000013114118242819898515_);fill:none;stroke:#B7BABB;stroke-width:0.25;" x1="154.8" y1="66.7" x2="154.8" y2="392.6"/>
					
						<line style="clip-path:url(#SVGID_00000027577979880577940990000013114118242819898515_);fill:none;stroke:#B7BABB;stroke-width:0.25;" x1="147.7" y1="66.7" x2="147.7" y2="392.6"/>
					
						<line style="clip-path:url(#SVGID_00000027577979880577940990000013114118242819898515_);fill:none;stroke:#B7BABB;stroke-width:0.25;" x1="140.6" y1="66.7" x2="140.6" y2="392.6"/>
					
						<line style="clip-path:url(#SVGID_00000027577979880577940990000013114118242819898515_);fill:none;stroke:#B7BABB;stroke-width:0.25;" x1="133.5" y1="66.7" x2="133.5" y2="392.6"/>
					
						<line style="clip-path:url(#SVGID_00000027577979880577940990000013114118242819898515_);fill:none;stroke:#B7BABB;stroke-width:0.25;" x1="126.4" y1="66.7" x2="126.4" y2="392.6"/>
					
						<line style="clip-path:url(#SVGID_00000027577979880577940990000013114118242819898515_);fill:none;stroke:#B7BABB;stroke-width:0.25;" x1="119.4" y1="66.7" x2="119.4" y2="392.6"/>
					
						<line style="clip-path:url(#SVGID_00000027577979880577940990000013114118242819898515_);fill:none;stroke:#B7BABB;stroke-width:0.25;" x1="112.3" y1="66.7" x2="112.3" y2="392.6"/>
					
						<line style="clip-path:url(#SVGID_00000027577979880577940990000013114118242819898515_);fill:none;stroke:#B7BABB;stroke-width:0.25;" x1="105.2" y1="66.7" x2="105.2" y2="392.6"/>
					
						<line style="clip-path:url(#SVGID_00000027577979880577940990000013114118242819898515_);fill:none;stroke:#B7BABB;stroke-width:0.25;" x1="98.1" y1="66.7" x2="98.1" y2="392.6"/>
					
						<line style="clip-path:url(#SVGID_00000027577979880577940990000013114118242819898515_);fill:none;stroke:#B7BABB;stroke-width:0.25;" x1="91" y1="66.7" x2="91" y2="392.6"/>
					
						<line style="clip-path:url(#SVGID_00000027577979880577940990000013114118242819898515_);fill:none;stroke:#B7BABB;stroke-width:0.25;" x1="83.9" y1="66.7" x2="83.9" y2="392.6"/>
					
						<line style="clip-path:url(#SVGID_00000027577979880577940990000013114118242819898515_);fill:none;stroke:#B7BABB;stroke-width:0.25;" x1="76.8" y1="66.7" x2="76.8" y2="392.6"/>
					
						<line style="clip-path:url(#SVGID_00000027577979880577940990000013114118242819898515_);fill:none;stroke:#B7BABB;stroke-width:0.25;" x1="69.7" y1="66.7" x2="69.7" y2="392.6"/>
					
						<line style="clip-path:url(#SVGID_00000027577979880577940990000013114118242819898515_);fill:none;stroke:#B7BABB;stroke-width:0.25;" x1="62.7" y1="66.7" x2="62.7" y2="392.6"/>
					
						<line style="clip-path:url(#SVGID_00000027577979880577940990000013114118242819898515_);fill:none;stroke:#B7BABB;stroke-width:0.25;" x1="55.6" y1="66.7" x2="55.6" y2="392.6"/>
					
						<line style="clip-path:url(#SVGID_00000027577979880577940990000013114118242819898515_);fill:none;stroke:#B7BABB;stroke-width:0.25;" x1="48.5" y1="66.7" x2="48.5" y2="392.6"/>
					
						<line style="clip-path:url(#SVGID_00000027577979880577940990000013114118242819898515_);fill:none;stroke:#B7BABB;stroke-width:0.25;" x1="41.4" y1="66.7" x2="41.4" y2="392.6"/>
					
						<line style="clip-path:url(#SVGID_00000027577979880577940990000013114118242819898515_);fill:none;stroke:#B7BABB;stroke-width:0.2;" x1="367.3" y1="364.4" x2="41.3" y2="364.4"/>
					
						<line style="clip-path:url(#SVGID_00000027577979880577940990000013114118242819898515_);fill:none;stroke:#B7BABB;stroke-width:0.2;" x1="367.3" y1="357.3" x2="41.3" y2="357.3"/>
					
						<line style="clip-path:url(#SVGID_00000027577979880577940990000013114118242819898515_);fill:none;stroke:#B7BABB;stroke-width:0.2;" x1="367.3" y1="350.3" x2="41.3" y2="350.3"/>
					
						<line style="clip-path:url(#SVGID_00000027577979880577940990000013114118242819898515_);fill:none;stroke:#B7BABB;stroke-width:0.2;" x1="367.3" y1="343.2" x2="41.3" y2="343.2"/>
					
						<line style="clip-path:url(#SVGID_00000027577979880577940990000013114118242819898515_);fill:none;stroke:#B7BABB;stroke-width:0.2;" x1="367.3" y1="336.1" x2="41.3" y2="336.1"/>
					
						<line style="clip-path:url(#SVGID_00000027577979880577940990000013114118242819898515_);fill:none;stroke:#B7BABB;stroke-width:0.2;" x1="367.3" y1="329" x2="41.3" y2="329"/>
					
						<line style="clip-path:url(#SVGID_00000027577979880577940990000013114118242819898515_);fill:none;stroke:#B7BABB;stroke-width:0.2;" x1="367.3" y1="321.9" x2="41.3" y2="321.9"/>
					
						<line style="clip-path:url(#SVGID_00000027577979880577940990000013114118242819898515_);fill:none;stroke:#B7BABB;stroke-width:0.2;" x1="367.3" y1="314.8" x2="41.3" y2="314.8"/>
					
						<line style="clip-path:url(#SVGID_00000027577979880577940990000013114118242819898515_);fill:none;stroke:#B7BABB;stroke-width:0.2;" x1="367.3" y1="307.7" x2="41.3" y2="307.7"/>
					
						<line style="clip-path:url(#SVGID_00000027577979880577940990000013114118242819898515_);fill:none;stroke:#B7BABB;stroke-width:0.2;" x1="367.3" y1="300.7" x2="41.3" y2="300.7"/>
					
						<line style="clip-path:url(#SVGID_00000027577979880577940990000013114118242819898515_);fill:none;stroke:#B7BABB;stroke-width:0.2;" x1="367.3" y1="293.6" x2="41.3" y2="293.6"/>
					
						<line style="clip-path:url(#SVGID_00000027577979880577940990000013114118242819898515_);fill:none;stroke:#B7BABB;stroke-width:0.2;" x1="367.3" y1="286.5" x2="41.3" y2="286.5"/>
					
						<line style="clip-path:url(#SVGID_00000027577979880577940990000013114118242819898515_);fill:none;stroke:#B7BABB;stroke-width:0.2;" x1="367.3" y1="279.4" x2="41.3" y2="279.4"/>
					
						<line style="clip-path:url(#SVGID_00000027577979880577940990000013114118242819898515_);fill:none;stroke:#B7BABB;stroke-width:0.2;" x1="367.3" y1="272.3" x2="41.3" y2="272.3"/>
					
						<line style="clip-path:url(#SVGID_00000027577979880577940990000013114118242819898515_);fill:none;stroke:#B7BABB;stroke-width:0.2;" x1="367.3" y1="265.2" x2="41.3" y2="265.2"/>
					
						<line style="clip-path:url(#SVGID_00000027577979880577940990000013114118242819898515_);fill:none;stroke:#B7BABB;stroke-width:0.2;" x1="367.3" y1="258.1" x2="41.3" y2="258.1"/>
					
						<line style="clip-path:url(#SVGID_00000027577979880577940990000013114118242819898515_);fill:none;stroke:#B7BABB;stroke-width:0.2;" x1="367.3" y1="251" x2="41.3" y2="251"/>
					
						<line style="clip-path:url(#SVGID_00000027577979880577940990000013114118242819898515_);fill:none;stroke:#B7BABB;stroke-width:0.2;" x1="367.3" y1="244" x2="41.3" y2="244"/>
					
						<line style="clip-path:url(#SVGID_00000027577979880577940990000013114118242819898515_);fill:none;stroke:#B7BABB;stroke-width:0.2;" x1="367.3" y1="236.9" x2="41.3" y2="236.9"/>
					
						<line style="clip-path:url(#SVGID_00000027577979880577940990000013114118242819898515_);fill:none;stroke:#B7BABB;stroke-width:0.2;" x1="367.3" y1="229.8" x2="41.3" y2="229.8"/>
				</g>
			</g>
		</g>
	</g>
	<polygon style="clip-path:url(#SVGID_00000067953482283116220080000007325833776460307591_);fill:#00109F;" points="41,214.9 
		41,214.9 41,229.3 168.2,229.3 168.2,214.9 	"/>
	<g style="clip-path:url(#SVGID_00000067953482283116220080000007325833776460307591_);">
		<text transform="matrix(1 0 0 1 43.8003 218.8903)"><tspan x="0" y="0" class="st6 st7 st8">Figu</tspan><tspan x="8" y="0" class="st6 st7 st8">r</tspan><tspan x="9.4" y="0" class="st6 st7 st8">e 1</tspan><tspan x="14" y="0" class="st6 st7 st8">3</tspan><tspan x="16.4" y="0" class="st6 st7 st8">: </tspan></text>
	</g>
	<g style="clip-path:url(#SVGID_00000067953482283116220080000007325833776460307591_);">
		<text transform="matrix(1 0 0 1 62.1001 218.8903)" class="st6 st7 st8"> </text>
	</g>
	<g style="clip-path:url(#SVGID_00000067953482283116220080000007325833776460307591_);">
		<text transform="matrix(1 0 0 1 43.8003 226.8903)"><tspan x="0" y="0" class="st6 st9 st10">C</tspan><tspan x="5.7" y="0" class="st6 st9 st10">r</tspan><tspan x="8.8" y="0" class="st6 st9 st10">e</tspan><tspan x="13.3" y="0" class="st6 st9 st10">a</tspan><tspan x="18" y="0" class="st6 st9 st10">ting labeled d</tspan><tspan x="70.9" y="0" class="st6 st9 st10">a</tspan><tspan x="75.6" y="0" class="st6 st9 st10">t</tspan><tspan x="78.8" y="0" class="st6 st9 st10">a using ML</tspan></text>
	</g>
	<g style="clip-path:url(#SVGID_00000067953482283116220080000007325833776460307591_);">
		<defs>
			<rect id="SVGID_00000125591381687746359630000010622238597656350338_" width="419.5" height="595.3"/>
		</defs>
		<clipPath id="SVGID_00000126298709939631851100000014019927656933576869_">
			<use xlink:href="#SVGID_00000125591381687746359630000010622238597656350338_"  style="overflow:visible;"/>
		</clipPath>
		<path style="clip-path:url(#SVGID_00000126298709939631851100000014019927656933576869_);fill:#FFFFFF;" d="M68.8,301.7
			c9.7,0,17.6-7.9,17.6-17.6s-7.9-17.6-17.6-17.6s-17.6,7.9-17.6,17.6S59.1,301.7,68.8,301.7"/>
		
			<path style="clip-path:url(#SVGID_00000126298709939631851100000014019927656933576869_);fill:none;stroke:#B7BABB;stroke-width:0.278;" d="
			M68.8,301.7c9.7,0,17.6-7.9,17.6-17.6s-7.9-17.6-17.6-17.6s-17.6,7.9-17.6,17.6S59.1,301.7,68.8,301.7z"/>
		<path style="clip-path:url(#SVGID_00000126298709939631851100000014019927656933576869_);fill:#E0E2E3;" d="M68.8,295.7
			c6.4,0,11.5-5.2,11.5-11.5s-5.2-11.5-11.5-11.5s-11.5,5.2-11.5,11.5S62.5,295.7,68.8,295.7"/>
		
			<path style="clip-path:url(#SVGID_00000126298709939631851100000014019927656933576869_);fill:none;stroke:#B7BABB;stroke-width:2.227;" d="
			M86.2,284.2c0-9.6-7.8-17.3-17.3-17.3"/>
		<path style="clip-path:url(#SVGID_00000126298709939631851100000014019927656933576869_);fill:#FFFFFF;" d="M164.4,301.7
			c9.7,0,17.6-7.9,17.6-17.6s-7.9-17.6-17.6-17.6s-17.6,7.9-17.6,17.6S154.7,301.7,164.4,301.7"/>
		
			<path style="clip-path:url(#SVGID_00000126298709939631851100000014019927656933576869_);fill:none;stroke:#B7BABB;stroke-width:0.278;" d="
			M164.4,301.7c9.7,0,17.6-7.9,17.6-17.6s-7.9-17.6-17.6-17.6s-17.6,7.9-17.6,17.6S154.7,301.7,164.4,301.7z"/>
		<path style="clip-path:url(#SVGID_00000126298709939631851100000014019927656933576869_);fill:#E0E2E3;" d="M164.4,295.7
			c6.4,0,11.5-5.2,11.5-11.5s-5.2-11.5-11.5-11.5s-11.5,5.2-11.5,11.5S158,295.7,164.4,295.7"/>
		
			<path style="clip-path:url(#SVGID_00000126298709939631851100000014019927656933576869_);fill:none;stroke:#B7BABB;stroke-width:2.227;" d="
			M181.7,284.2c0-9.6-7.8-17.3-17.3-17.3"/>
		<path style="clip-path:url(#SVGID_00000126298709939631851100000014019927656933576869_);fill:#FFFFFF;" d="M348.9,301.7
			c9.7,0,17.6-7.9,17.6-17.6s-7.9-17.6-17.6-17.6s-17.6,7.9-17.6,17.6S339.2,301.7,348.9,301.7"/>
		
			<path style="clip-path:url(#SVGID_00000126298709939631851100000014019927656933576869_);fill:none;stroke:#B7BABB;stroke-width:0.278;" d="
			M348.9,301.7c9.7,0,17.6-7.9,17.6-17.6s-7.9-17.6-17.6-17.6s-17.6,7.9-17.6,17.6S339.2,301.7,348.9,301.7z"/>
		<path style="clip-path:url(#SVGID_00000126298709939631851100000014019927656933576869_);fill:#E0E2E3;" d="M348.9,295.7
			c6.4,0,11.5-5.2,11.5-11.5s-5.2-11.5-11.5-11.5s-11.5,5.2-11.5,11.5S342.6,295.7,348.9,295.7"/>
		
			<path style="clip-path:url(#SVGID_00000126298709939631851100000014019927656933576869_);fill:none;stroke:#B7BABB;stroke-width:2.227;" d="
			M366.3,284.2c0-9.6-7.8-17.3-17.3-17.3"/>
		<path style="clip-path:url(#SVGID_00000126298709939631851100000014019927656933576869_);fill:#FFFFFF;" d="M281.6,301.7
			c9.7,0,17.6-7.9,17.6-17.6s-7.9-17.6-17.6-17.6s-17.6,7.9-17.6,17.6S271.9,301.7,281.6,301.7"/>
		
			<path style="clip-path:url(#SVGID_00000126298709939631851100000014019927656933576869_);fill:none;stroke:#B7BABB;stroke-width:0.278;" d="
			M281.6,301.7c9.7,0,17.6-7.9,17.6-17.6s-7.9-17.6-17.6-17.6s-17.6,7.9-17.6,17.6S271.9,301.7,281.6,301.7z"/>
		<path style="clip-path:url(#SVGID_00000126298709939631851100000014019927656933576869_);fill:#E0E2E3;" d="M281.6,295.7
			c6.4,0,11.5-5.2,11.5-11.5s-5.2-11.5-11.5-11.5s-11.5,5.2-11.5,11.5S275.2,295.7,281.6,295.7"/>
		
			<path style="clip-path:url(#SVGID_00000126298709939631851100000014019927656933576869_);fill:none;stroke:#B7BABB;stroke-width:2.227;" d="
			M298.9,284.2c0-9.6-7.8-17.3-17.3-17.3"/>
		<path style="clip-path:url(#SVGID_00000126298709939631851100000014019927656933576869_);fill:#FFFFFF;" d="M238.4,358.4
			c9.7,0,17.6-7.9,17.6-17.6s-7.9-17.6-17.6-17.6s-17.6,7.9-17.6,17.6S228.8,358.4,238.4,358.4"/>
		
			<path style="clip-path:url(#SVGID_00000126298709939631851100000014019927656933576869_);fill:none;stroke:#B7BABB;stroke-width:0.278;" d="
			M238.4,358.4c9.7,0,17.6-7.9,17.6-17.6s-7.9-17.6-17.6-17.6s-17.6,7.9-17.6,17.6S228.8,358.4,238.4,358.4z"/>
		<path style="clip-path:url(#SVGID_00000126298709939631851100000014019927656933576869_);fill:#E0E2E3;" d="M238.4,352.4
			c6.4,0,11.5-5.2,11.5-11.5s-5.2-11.5-11.5-11.5s-11.5,5.2-11.5,11.5S232.1,352.4,238.4,352.4"/>
		
			<path style="clip-path:url(#SVGID_00000126298709939631851100000014019927656933576869_);fill:none;stroke:#B7BABB;stroke-width:2.227;" d="
			M255.8,340.9c0-9.6-7.8-17.3-17.3-17.3"/>
		<path style="clip-path:url(#SVGID_00000126298709939631851100000014019927656933576869_);fill:#B7BABB;" d="M82.5,289.6l4.1,1.8
			l-3.5,1.6l-0.2,0.1l-0.2,0.1l-0.1,0l-0.1,0l-0.2-0.1L82,293l-3.5-1.6L82.5,289.6z M83.1,296.6l-0.2,0.1l-0.2,0.1l-0.1,0l-0.1,0
			l-0.2-0.1l-0.2-0.1l-3.5-1.6l2.1-0.9l1.9,0.9c0,0,0.1,0,0.1,0s0.1,0,0.1,0l1.9-0.9l2.1,0.9L83.1,296.6z M82.5,300.4l-4.1-1.8
			l2.3-1l1.7,0.8c0,0,0.1,0,0.1,0s0.1,0,0.1,0l1.7-0.8l2.3,1L82.5,300.4z M87.3,291.4C87.3,291.4,87.3,291.4,87.3,291.4
			C87.3,291.4,87.3,291.4,87.3,291.4C87.3,291.3,87.3,291.3,87.3,291.4C87.2,291.3,87.2,291.3,87.3,291.4
			C87.2,291.3,87.2,291.3,87.3,291.4c-0.1-0.1-0.1-0.1-0.1-0.1c0,0,0,0,0,0c0,0,0,0,0,0l-4.6-2c0,0-0.1,0-0.2,0l-4.6,2c0,0,0,0,0,0
			c0,0,0,0,0,0c0,0,0,0,0,0c0,0,0,0,0,0c0,0,0,0,0,0c0,0,0,0,0,0c0,0,0,0,0,0c0,0,0,0,0,0c0,0,0,0,0,0v1.3c0,0.1,0,0.1,0.1,0.2
			l2.2,1l-2.2,1c0,0,0,0,0,0c0,0,0,0,0,0c0,0,0,0,0,0c0,0,0,0,0,0c0,0,0,0,0,0c0,0,0,0,0,0c0,0,0,0,0,0c0,0,0,0,0,0c0,0,0,0,0,0v1.1
			c0,0.1,0,0.1,0.1,0.2l2.4,1.1l-2.4,1.1c0,0,0,0,0,0c0,0,0,0,0,0c0,0,0,0,0,0c0,0,0,0,0,0c0,0,0,0,0,0c0,0,0,0,0,0c0,0,0,0,0,0
			c0,0,0,0,0,0c0,0,0,0,0,0v1.1c0,0.1,0,0.1,0.1,0.2l4.6,2c0,0,0.1,0,0.1,0s0.1,0,0.1,0l4.6-2c0.1,0,0.1-0.1,0.1-0.2v-1.1
			c0,0,0,0,0,0c0,0,0,0,0,0c0,0,0,0,0,0c0,0,0,0,0,0c0,0,0,0,0,0c0,0,0,0,0,0c0,0,0,0,0,0c0,0,0,0,0,0c0,0,0,0,0,0l-2.4-1.1l2.4-1.1
			c0.1,0,0.1-0.1,0.1-0.2V295v0c0,0,0,0,0,0c0,0,0,0,0,0c0,0,0,0,0,0c0,0,0,0,0,0c0,0,0,0,0,0c0,0,0,0,0,0c0,0,0,0,0,0c0,0,0,0,0,0
			c0,0,0,0,0,0l-2.2-1l2.2-1c0.1,0,0.1-0.1,0.1-0.2L87.3,291.4L87.3,291.4C87.3,291.4,87.3,291.4,87.3,291.4"/>
		<path style="clip-path:url(#SVGID_00000126298709939631851100000014019927656933576869_);fill:#B7BABB;" d="M179.6,289.6l4.1,1.8
			l-3.5,1.6l-0.2,0.1l-0.2,0.1l-0.1,0l-0.1,0l-0.2-0.1L179,293l-3.5-1.6L179.6,289.6z M180.1,296.6l-0.2,0.1l-0.2,0.1l-0.1,0l-0.1,0
			l-0.2-0.1l-0.2-0.1l-3.5-1.6l2.1-0.9l1.9,0.9c0,0,0.1,0,0.1,0c0,0,0.1,0,0.1,0l1.9-0.9l2.1,0.9L180.1,296.6z M179.6,300.4
			l-4.1-1.8l2.3-1l1.7,0.8c0,0,0.1,0,0.1,0c0,0,0.1,0,0.1,0l1.7-0.8l2.3,1L179.6,300.4z M184.3,291.4
			C184.3,291.4,184.3,291.4,184.3,291.4C184.3,291.4,184.3,291.4,184.3,291.4C184.3,291.3,184.3,291.3,184.3,291.4
			C184.3,291.3,184.3,291.3,184.3,291.4C184.2,291.3,184.2,291.3,184.3,291.4c-0.1-0.1-0.1-0.1-0.1-0.1c0,0,0,0,0,0c0,0,0,0,0,0
			l-4.6-2c-0.1,0-0.1,0-0.2,0l-4.6,2c0,0,0,0,0,0c0,0,0,0,0,0c0,0,0,0,0,0c0,0,0,0,0,0c0,0,0,0,0,0c0,0,0,0,0,0c0,0,0,0,0,0
			c0,0,0,0,0,0c0,0,0,0,0,0v1.3c0,0.1,0,0.1,0.1,0.2l2.2,1l-2.2,1c0,0,0,0,0,0c0,0,0,0,0,0c0,0,0,0,0,0c0,0,0,0,0,0c0,0,0,0,0,0
			c0,0,0,0,0,0c0,0,0,0,0,0c0,0,0,0,0,0c0,0,0,0,0,0v1.1c0,0.1,0,0.1,0.1,0.2l2.4,1.1l-2.4,1.1c0,0,0,0,0,0c0,0,0,0,0,0c0,0,0,0,0,0
			c0,0,0,0,0,0c0,0,0,0,0,0c0,0,0,0,0,0c0,0,0,0,0,0c0,0,0,0,0,0c0,0,0,0,0,0v1.1c0,0.1,0,0.1,0.1,0.2l4.6,2c0,0,0.1,0,0.1,0
			c0,0,0.1,0,0.1,0l4.6-2c0.1,0,0.1-0.1,0.1-0.2v-1.1c0,0,0,0,0,0c0,0,0,0,0,0c0,0,0,0,0,0c0,0,0,0,0,0c0,0,0,0,0,0c0,0,0,0,0,0
			c0,0,0,0,0,0c0,0,0,0,0,0c0,0,0,0,0,0l-2.4-1.1l2.4-1.1c0.1,0,0.1-0.1,0.1-0.2V295v0c0,0,0,0,0,0c0,0,0,0,0,0c0,0,0,0,0,0
			c0,0,0,0,0,0c0,0,0,0,0,0c0,0,0,0,0,0c0,0,0,0,0,0c0,0,0,0,0,0c0,0,0,0,0,0l-2.2-1l2.2-1c0.1,0,0.1-0.1,0.1-0.2L184.3,291.4
			L184.3,291.4C184.3,291.4,184.3,291.4,184.3,291.4"/>
	</g>
	<g style="clip-path:url(#SVGID_00000067953482283116220080000007325833776460307591_);">
		<text transform="matrix(1 0 0 1 49.6855 276.7946)" class="st16 st9 st17">Imput </text>
	</g>
	<g style="clip-path:url(#SVGID_00000067953482283116220080000007325833776460307591_);">
		<text transform="matrix(1 0 0 1 74.0601 276.7946)" class="st16 st9 st17"> </text>
	</g>
	<g style="clip-path:url(#SVGID_00000067953482283116220080000007325833776460307591_);">
		<text transform="matrix(1 0 0 1 49.6855 283.7809)"><tspan x="0" y="0" class="st16 st9 st17">S</tspan><tspan x="5.1" y="0" class="st16 st9 st17">ampl</tspan><tspan x="24.3" y="0" class="st16 st9 st17">e</tspan><tspan x="28.8" y="0" class="st16 st9 st17">s</tspan></text>
	</g>
	<g style="clip-path:url(#SVGID_00000067953482283116220080000007325833776460307591_);">
		<text transform="matrix(1 0 0 1 49.6855 291.4313)"><tspan x="0" y="0" class="st16 st18 st19">Unlabeled </tspan><tspan x="21.4" y="0" class="st16 st18 st19">ev</tspan><tspan x="25.9" y="0" class="st16 st18 st19">e</tspan><tspan x="28.3" y="0" class="st16 st18 st19">n</tspan><tspan x="30.8" y="0" class="st16 st18 st19">t</tspan></text>
	</g>
	<g style="clip-path:url(#SVGID_00000067953482283116220080000007325833776460307591_);">
		<text transform="matrix(1 0 0 1 82.1299 291.4313)" class="st16 st18 st19"> </text>
	</g>
	<g style="clip-path:url(#SVGID_00000067953482283116220080000007325833776460307591_);">
		<text transform="matrix(1 0 0 1 49.6855 296.5309)" class="st16 st18 st19">sequences</text>
	</g>
	<g style="clip-path:url(#SVGID_00000067953482283116220080000007325833776460307591_);">
		<text transform="matrix(1 0 0 1 146.7002 276.7946)"><tspan x="0" y="0" class="st16 st9 st17">T</tspan><tspan x="4.4" y="0" class="st16 st9 st17">r</tspan><tspan x="7.3" y="0" class="st16 st9 st17">aining</tspan></text>
	</g>
	<g style="clip-path:url(#SVGID_00000067953482283116220080000007325833776460307591_);">
		<text transform="matrix(1 0 0 1 177.7949 276.7946)" class="st16 st9 st17"> </text>
	</g>
	<g style="clip-path:url(#SVGID_00000067953482283116220080000007325833776460307591_);">
		<text transform="matrix(1 0 0 1 146.7002 283.7809)"><tspan x="0" y="0" class="st16 st9 st17">s</tspan><tspan x="4.2" y="0" class="st16 st9 st17">e</tspan><tspan x="8.6" y="0" class="st16 st9 st17">t</tspan></text>
	</g>
	<g style="clip-path:url(#SVGID_00000067953482283116220080000007325833776460307591_);">
		<text transform="matrix(1 0 0 1 146.7002 291.4313)"><tspan x="0" y="0" class="st16 st18 st19">L</tspan><tspan x="2.4" y="0" class="st16 st18 st19">abeled </tspan><tspan x="17.1" y="0" class="st16 st18 st19">ev</tspan><tspan x="21.6" y="0" class="st16 st18 st19">e</tspan><tspan x="24" y="0" class="st16 st18 st19">n</tspan><tspan x="26.5" y="0" class="st16 st18 st19">t</tspan></text>
	</g>
	<g style="clip-path:url(#SVGID_00000067953482283116220080000007325833776460307591_);">
		<text transform="matrix(1 0 0 1 174.8223 291.4313)" class="st16 st18 st19"> </text>
	</g>
	<g style="clip-path:url(#SVGID_00000067953482283116220080000007325833776460307591_);">
		<text transform="matrix(1 0 0 1 146.7002 296.5309)" class="st16 st18 st19">sequences</text>
	</g>
	<g style="clip-path:url(#SVGID_00000067953482283116220080000007325833776460307591_);">
		<text transform="matrix(1 0 0 1 191.8945 268.0944)"><tspan x="0" y="0" class="st16 st18 st19">L</tspan><tspan x="2.4" y="0" class="st16 st18 st19">earn</tspan></text>
	</g>
	<g style="clip-path:url(#SVGID_00000067953482283116220080000007325833776460307591_);">
		<text transform="matrix(1 0 0 1 244.4629 318.6823)"><tspan x="0" y="0" class="st16 st18 st19">T</tspan><tspan x="2.1" y="0" class="st16 st18 st19">e</tspan><tspan x="4.5" y="0" class="st16 st18 st19">s</tspan><tspan x="6.7" y="0" class="st16 st18 st19">t</tspan></text>
	</g>
	<g style="clip-path:url(#SVGID_00000067953482283116220080000007325833776460307591_);">
		<text transform="matrix(1 0 0 1 264.7256 276.7946)" class="st16 st9 st17">Labelled</text>
	</g>
	<g style="clip-path:url(#SVGID_00000067953482283116220080000007325833776460307591_);">
		<text transform="matrix(1 0 0 1 297.5098 276.7946)" class="st16 st9 st17"> </text>
	</g>
	<g style="clip-path:url(#SVGID_00000067953482283116220080000007325833776460307591_);">
		<text transform="matrix(1 0 0 1 264.7256 283.7809)"><tspan x="0" y="0" class="st16 st9 st17">sampl</tspan><tspan x="23.4" y="0" class="st16 st9 st17">e</tspan><tspan x="27.9" y="0" class="st16 st9 st17">s</tspan></text>
	</g>
	<g style="clip-path:url(#SVGID_00000067953482283116220080000007325833776460307591_);">
		<text transform="matrix(1 0 0 1 220.8428 332.6393)" class="st16 st9 st17">Unlabelled</text>
	</g>
	<g style="clip-path:url(#SVGID_00000067953482283116220080000007325833776460307591_);">
		<text transform="matrix(1 0 0 1 261.833 332.6393)" class="st16 st9 st17"> </text>
	</g>
	<g style="clip-path:url(#SVGID_00000067953482283116220080000007325833776460307591_);">
		<text transform="matrix(1 0 0 1 220.8418 339.6266)"><tspan x="0" y="0" class="st16 st9 st17">t</tspan><tspan x="3.1" y="0" class="st16 st9 st17">e</tspan><tspan x="7.6" y="0" class="st16 st9 st17">s</tspan><tspan x="11.6" y="0" class="st16 st9 st17">ting </tspan></text>
	</g>
	<g style="clip-path:url(#SVGID_00000067953482283116220080000007325833776460307591_);">
		<text transform="matrix(1 0 0 1 220.8418 346.6139)"><tspan x="0" y="0" class="st16 st9 st17">s</tspan><tspan x="4.2" y="0" class="st16 st9 st17">e</tspan><tspan x="8.6" y="0" class="st16 st9 st17">t</tspan></text>
	</g>
	<g style="clip-path:url(#SVGID_00000067953482283116220080000007325833776460307591_);">
		<text transform="matrix(1 0 0 1 330.082 276.7926)"><tspan x="0" y="0" class="st16 st9 st17">High l</tspan><tspan x="21.9" y="0" class="st16 st9 st17">e</tspan><tspan x="26.3" y="0" class="st16 st9 st17">v</tspan><tspan x="30.4" y="0" class="st16 st9 st17">el </tspan></text>
	</g>
	<g style="clip-path:url(#SVGID_00000067953482283116220080000007325833776460307591_);">
		<text transform="matrix(1 0 0 1 330.082 283.7804)"><tspan x="0" y="0" class="st16 st9 st17">a</tspan><tspan x="4.8" y="0" class="st16 st9 st17">c</tspan><tspan x="9.2" y="0" class="st16 st9 st17">tivi</tspan><tspan x="21.2" y="0" class="st16 st9 st17">t</tspan><tspan x="24.4" y="0" class="st16 st9 st17">y </tspan></text>
	</g>
	<g style="clip-path:url(#SVGID_00000067953482283116220080000007325833776460307591_);">
		<text transform="matrix(1 0 0 1 360.5059 283.7809)" class="st16 st9 st17"> </text>
	</g>
	<g style="clip-path:url(#SVGID_00000067953482283116220080000007325833776460307591_);">
		<text transform="matrix(1 0 0 1 330.0791 290.7677)" class="st16 st9 st17">log</text>
	</g>
	<g style="clip-path:url(#SVGID_00000067953482283116220080000007325833776460307591_);">
		<text transform="matrix(1 0 0 1 99.7168 256.4889)"><tspan x="0" y="0" class="st16 st18 st20">P</tspan><tspan x="3.3" y="0" class="st16 st18 st20">r</tspan><tspan x="5.2" y="0" class="st16 st18 st20">ocess model</tspan></text>
	</g>
	<g style="clip-path:url(#SVGID_00000067953482283116220080000007325833776460307591_);">
		<text transform="matrix(1 0 0 1 309.8369 268.6539)"><tspan x="0" y="0" class="st16 st18 st20">C</tspan><tspan x="3.5" y="0" class="st16 st18 st20">r</tspan><tspan x="5.5" y="0" class="st16 st18 st20">e</tspan><tspan x="8.2" y="0" class="st16 st18 st20">a</tspan><tspan x="11.1" y="0" class="st16 st18 st20">te</tspan></text>
	</g>
	<g style="clip-path:url(#SVGID_00000067953482283116220080000007325833776460307591_);">
		<text transform="matrix(1 0 0 1 96.813 279.6183)"><tspan x="0" y="0" class="st16 st9 st17">Clu</tspan><tspan x="12.6" y="0" class="st16 st9 st17">s</tspan><tspan x="16.7" y="0" class="st16 st9 st17">tering</tspan></text>
	</g>
	<g style="clip-path:url(#SVGID_00000067953482283116220080000007325833776460307591_);">
		<text transform="matrix(1 0 0 1 214.7773 279.5475)" class="st16 st9 st17">Machine </text>
	</g>
	<g style="clip-path:url(#SVGID_00000067953482283116220080000007325833776460307591_);">
		<text transform="matrix(1 0 0 1 214.7773 288.0446)"><tspan x="0" y="0" class="st16 st9 st17">l</tspan><tspan x="2.3" y="0" class="st16 st9 st17">e</tspan><tspan x="6.8" y="0" class="st16 st9 st17">aning </tspan></text>
	</g>
	<g style="clip-path:url(#SVGID_00000067953482283116220080000007325833776460307591_);">
		<text transform="matrix(1 0 0 1 214.7773 296.5411)"><tspan x="0" y="0" class="st16 st9 st17">cla</tspan><tspan x="11.6" y="0" class="st16 st9 st17">s</tspan><tspan x="15.8" y="0" class="st16 st9 st17">sifier</tspan></text>
	</g>
	
		<polyline style="clip-path:url(#SVGID_00000067953482283116220080000007325833776460307591_);fill:none;stroke:#8B8F91;stroke-width:0.85;" points="
		97.2,271.3 94,271.3 94,283.4 97.2,283.4 	"/>
	
		<polyline style="clip-path:url(#SVGID_00000067953482283116220080000007325833776460307591_);fill:none;stroke:#8B8F91;stroke-width:0.85;" points="
		215.2,271.2 212,271.2 212,300.6 215.2,300.6 	"/>
	
		<polyline style="clip-path:url(#SVGID_00000067953482283116220080000007325833776460307591_);fill:none;stroke:#8B8F91;stroke-width:0.85;" points="
		135.7,283.4 138.9,283.4 138.9,271.3 135.7,271.3 	"/>
	
		<polyline style="clip-path:url(#SVGID_00000067953482283116220080000007325833776460307591_);fill:none;stroke:#8B8F91;stroke-width:0.85;" points="
		251.4,300.6 254.6,300.6 254.6,271.2 251.4,271.2 	"/>
	
		<rect x="100.1" y="283" style="clip-path:url(#SVGID_00000067953482283116220080000007325833776460307591_);fill:#00109F;" width="32.8" height="0.8"/>
	
		<rect x="216.8" y="300.2" style="clip-path:url(#SVGID_00000067953482283116220080000007325833776460307591_);fill:#00109F;" width="32.8" height="0.8"/>
	
		<rect x="118.1" y="299.9" style="clip-path:url(#SVGID_00000067953482283116220080000007325833776460307591_);fill:#B7BABB;" width="3.7" height="1.1"/>
	<g style="clip-path:url(#SVGID_00000067953482283116220080000007325833776460307591_);">
		<defs>
			<rect id="SVGID_00000017509838230744283620000018420120944369718944_" width="419.5" height="595.3"/>
		</defs>
		<clipPath id="SVGID_00000003812557694760337980000004807601744700130208_">
			<use xlink:href="#SVGID_00000017509838230744283620000018420120944369718944_"  style="overflow:visible;"/>
		</clipPath>
		<path style="clip-path:url(#SVGID_00000003812557694760337980000004807601744700130208_);fill:#B7BABB;" d="M121.5,298.3h-3.2
			c-0.1,0-0.3,0.1-0.3,0.3v0.8h3.7v-0.8C121.8,298.4,121.7,298.3,121.5,298.3"/>
		<path style="clip-path:url(#SVGID_00000003812557694760337980000004807601744700130208_);fill:#B7BABB;" d="M118.1,302.3
			c0,0.1,0.1,0.3,0.3,0.3h3.2c0.1,0,0.3-0.1,0.3-0.3v-0.8h-3.7V302.3z"/>
		<path style="clip-path:url(#SVGID_00000003812557694760337980000004807601744700130208_);fill:#B7BABB;" d="M124.4,298.3
			c0,0.9-0.7,1.6-1.6,1.6h-0.5v-1.3c0-0.4-0.4-0.8-0.8-0.8h-3.2c-0.4,0-0.8,0.4-0.8,0.8v1.3h-2.1c0.3,0.2,0.4,0.5,0.5,0.8
			c0,0.6-0.5,1.1-1.1,1.1h-5.3c-0.6,0-1.1-0.5-1.1-1.1c0-0.5,0.3-0.9,0.8-1v0c0-0.9,0.7-1.6,1.6-1.6c0.3,0,0.5,0.1,0.7,0.2
			c0.2-0.2,0.4-0.4,0.6-0.5v-1.5c0-0.4-0.4-0.8-0.8-0.8h-1.9v-0.5h1.9c0.7,0,1.3,0.6,1.3,1.3v0.9c0.2-0.2,0.6-0.4,0.9-0.4
			c-0.1-0.1-0.1-0.3-0.1-0.4c0-0.8,0.4-1.5,1.1-1.9V294c0-0.4-0.4-0.8-0.8-0.8h-4.2v-0.5h4.2c0.7,0,1.3,0.6,1.3,1.3v0.1
			c0.3-0.1,0.7-0.1,1.1-0.1v-4.3c0-0.4-0.4-0.8-0.8-0.8h-4.2v-0.5h4.2c0.7,0,1.3,0.6,1.3,1.3v4.5c0.2,0.1,0.4,0.2,0.6,0.4
			c0.1-0.3,0.2-0.7,0.4-1v-5.2c0-0.7,0.6-1.3,1.3-1.3h1.3v0.5h-1.3c-0.4,0-0.8,0.4-0.8,0.8v4.6c0.3-0.3,0.7-0.4,1.1-0.6v-1.7
			c0-0.7,0.6-1.3,1.3-1.3h2.7v0.5h-2.7c-0.4,0-0.8,0.4-0.8,0.8v1.6c0.1,0,0.2,0,0.3,0c1.6,0,2.9,1.3,2.9,2.9c0,0.5-0.1,0.9-0.3,1.3
			h0.1C123.7,296.7,124.4,297.4,124.4,298.3"/>
	</g>
	
		<rect x="110.1" y="288.4" style="clip-path:url(#SVGID_00000067953482283116220080000007325833776460307591_);fill:#B7BABB;" width="0.5" height="0.5"/>
	
		<rect x="108.5" y="292.7" style="clip-path:url(#SVGID_00000067953482283116220080000007325833776460307591_);fill:#B7BABB;" width="0.5" height="0.5"/>
	
		<rect x="121" y="287.1" style="clip-path:url(#SVGID_00000067953482283116220080000007325833776460307591_);fill:#B7BABB;" width="0.5" height="0.5"/>
	
		<rect x="123.9" y="289.5" style="clip-path:url(#SVGID_00000067953482283116220080000007325833776460307591_);fill:#B7BABB;" width="0.5" height="0.5"/>
	
		<rect x="108.5" y="294.8" style="clip-path:url(#SVGID_00000067953482283116220080000007325833776460307591_);fill:#B7BABB;" width="0.5" height="0.5"/>
	
		<polyline style="clip-path:url(#SVGID_00000067953482283116220080000007325833776460307591_);fill:none;stroke:#8A919D;stroke-width:0.861;stroke-miterlimit:10;" points="
		120.9,265.2 117.2,267.9 113.5,265.2 	"/>
	
		<polyline style="clip-path:url(#SVGID_00000067953482283116220080000007325833776460307591_);fill:none;stroke:#8A919D;stroke-width:0.861;stroke-miterlimit:10;" points="
		120.9,262.2 117.2,264.9 113.5,262.2 	"/>
	
		<polyline style="clip-path:url(#SVGID_00000067953482283116220080000007325833776460307591_);fill:none;stroke:#8A919D;stroke-width:0.861;stroke-miterlimit:10;" points="
		89,273.5 91.7,277.2 89,280.9 	"/>
	
		<polyline style="clip-path:url(#SVGID_00000067953482283116220080000007325833776460307591_);fill:none;stroke:#8A919D;stroke-width:0.861;stroke-miterlimit:10;" points="
		142.6,273.5 145.3,277.2 142.6,280.9 	"/>
	
		<polyline style="clip-path:url(#SVGID_00000067953482283116220080000007325833776460307591_);fill:none;stroke:#8A919D;stroke-width:0.861;stroke-miterlimit:10;" points="
		258.8,273.5 261.5,277.2 258.8,280.9 	"/>
	
		<polyline style="clip-path:url(#SVGID_00000067953482283116220080000007325833776460307591_);fill:none;stroke:#8A919D;stroke-width:0.861;stroke-miterlimit:10;" points="
		317.7,273.4 320.6,277.1 318,280.9 	"/>
	
		<polyline style="clip-path:url(#SVGID_00000067953482283116220080000007325833776460307591_);fill:none;stroke:#8A919D;stroke-width:0.861;stroke-miterlimit:10;" points="
		314.7,273.6 317.6,277.2 315,281 	"/>
	
		<polyline style="clip-path:url(#SVGID_00000067953482283116220080000007325833776460307591_);fill:none;stroke:#8A919D;stroke-width:0.861;stroke-miterlimit:10;" points="
		197.8,273.4 200.7,277.1 198.1,280.9 	"/>
	
		<polyline style="clip-path:url(#SVGID_00000067953482283116220080000007325833776460307591_);fill:none;stroke:#8A919D;stroke-width:0.861;stroke-miterlimit:10;" points="
		194.8,273.6 197.7,277.2 195.1,281 	"/>
	
		<polyline style="clip-path:url(#SVGID_00000067953482283116220080000007325833776460307591_);fill:none;stroke:#8A919D;stroke-width:0.861;stroke-miterlimit:10;" points="
		234.7,317.3 238.4,314.6 242.2,317.3 	"/>
	
		<polyline style="clip-path:url(#SVGID_00000067953482283116220080000007325833776460307591_);fill:none;stroke:#8A919D;stroke-width:0.861;stroke-miterlimit:10;" points="
		234.7,320.3 238.4,317.6 242.2,320.3 	"/>
	<g style="clip-path:url(#SVGID_00000067953482283116220080000007325833776460307591_);">
		<defs>
			<rect id="SVGID_00000107561956789559234120000010173168809224047036_" width="419.5" height="595.3"/>
		</defs>
		<clipPath id="SVGID_00000129924431176336504420000001604248994311705992_">
			<use xlink:href="#SVGID_00000107561956789559234120000010173168809224047036_"  style="overflow:visible;"/>
		</clipPath>
		<g style="opacity:0.5;clip-path:url(#SVGID_00000129924431176336504420000001604248994311705992_);">
			<g>
				<defs>
					<rect id="SVGID_00000096757158459944831410000002762448330994963601_" x="32" y="240.8" width="167.3" height="72.6"/>
				</defs>
				<clipPath id="SVGID_00000152947485813610439870000002399311306156840340_">
					<use xlink:href="#SVGID_00000096757158459944831410000002762448330994963601_"  style="overflow:visible;"/>
				</clipPath>
				
					<polygon style="clip-path:url(#SVGID_00000152947485813610439870000002399311306156840340_);fill:none;stroke:#00109F;stroke-width:0.5;" points="
					41.3,248 41.3,248 41.3,312.1 190,312.1 190,248 				"/>
			</g>
		</g>
		<g style="opacity:0.5;clip-path:url(#SVGID_00000129924431176336504420000001604248994311705992_);">
			<g>
				<defs>
					<rect id="SVGID_00000171694641580472025740000009662125414808868510_" x="196.4" y="240.8" width="119.4" height="72.6"/>
				</defs>
				<clipPath id="SVGID_00000096048998742233175110000010245376547197691528_">
					<use xlink:href="#SVGID_00000171694641580472025740000009662125414808868510_"  style="overflow:visible;"/>
				</clipPath>
				
					<polygon style="clip-path:url(#SVGID_00000096048998742233175110000010245376547197691528_);fill:none;stroke:#00109F;stroke-width:0.5;" points="
					205.7,248 205.7,248 205.7,312.1 306.5,312.1 306.5,248 				"/>
			</g>
		</g>
	</g>
	
		<rect x="41.6" y="238.2" style="clip-path:url(#SVGID_00000067953482283116220080000007325833776460307591_);fill:#FFFFFF;" width="148.7" height="8"/>
	<g style="clip-path:url(#SVGID_00000067953482283116220080000007325833776460307591_);">
		<text transform="matrix(1 0 0 1 41.6011 244.2135)"><tspan x="0" y="0" class="st29 st9 st10">Clu</tspan><tspan x="12.9" y="0" class="st29 st9 st10">s</tspan><tspan x="17" y="0" class="st29 st9 st10">tering-</tspan><tspan x="43.3" y="0" class="st29 st9 st10">b</tspan><tspan x="48.3" y="0" class="st29 st9 st10">ased labeling app</tspan><tspan x="116.9" y="0" class="st29 st9 st10">ro</tspan><tspan x="124.7" y="0" class="st29 st9 st10">ach</tspan></text>
	</g>
	
		<rect x="205.4" y="238.2" style="clip-path:url(#SVGID_00000067953482283116220080000007325833776460307591_);fill:#FFFFFF;" width="101.4" height="9.5"/>
	<g style="clip-path:url(#SVGID_00000067953482283116220080000007325833776460307591_);">
		<text transform="matrix(1 0 0 1 205.4326 244.2135)"><tspan x="0" y="0" class="st29 st9 st10">Supe</tspan><tspan x="19.6" y="0" class="st29 st9 st10">r</tspan><tspan x="22.9" y="0" class="st29 st9 st10">vised cla</tspan><tspan x="57.1" y="0" class="st29 st9 st10">s</tspan><tspan x="61.3" y="0" class="st29 st9 st10">sific</tspan><tspan x="77.9" y="0" class="st29 st9 st10">a</tspan><tspan x="82.7" y="0" class="st29 st9 st10">tion</tspan></text>
	</g>
	
		<line style="clip-path:url(#SVGID_00000067953482283116220080000007325833776460307591_);fill:none;stroke:#00109F;stroke-width:0.5;" x1="144.1" y1="229" x2="367.4" y2="229"/>
</g>
</svg>
